<?xml version="1.0" encoding="UTF-8"?>
<svg width="533px" height="568px" viewBox="0 0 533 568" version="1.1" xmlns="http://www.w3.org/2000/svg" xmlns:xlink="http://www.w3.org/1999/xlink">
    <!-- Generator: Sketch 53.2 (72643) - https://sketchapp.com -->
    <title>Travel Itinerary</title>
    <defs>
        <linearGradient x1="50%" y1="0%" x2="50%" y2="100%" id="linearGradient-1">
            <stop stop-color="#85CDDB" offset="0%"></stop>
            <stop stop-color="#DAEFF4" offset="100%"></stop>
        </linearGradient>
        <filter x="-13.8%" y="-10.0%" width="127.6%" height="120.8%" filterUnits="objectBoundingBox" id="filter-2">
            <feOffset dx="0" dy="2" in="SourceAlpha" result="shadowOffsetOuter1"></feOffset>
            <feGaussianBlur stdDeviation="12" in="shadowOffsetOuter1" result="shadowBlurOuter1"></feGaussianBlur>
            <feColorMatrix values="0 0 0 0 0   0 0 0 0 0   0 0 0 0 0  0 0 0 0.151715472 0" type="matrix" in="shadowBlurOuter1" result="shadowMatrixOuter1"></feColorMatrix>
            <feMerge>
                <feMergeNode in="shadowMatrixOuter1"></feMergeNode>
                <feMergeNode in="SourceGraphic"></feMergeNode>
            </feMerge>
        </filter>
        <rect id="path-3" x="0" y="0" width="384" height="58" rx="4"></rect>
        <filter x="-0.8%" y="-5.2%" width="101.6%" height="110.3%" filterUnits="objectBoundingBox" id="filter-5">
            <feOffset dx="0" dy="0" in="SourceAlpha" result="shadowOffsetOuter1"></feOffset>
            <feGaussianBlur stdDeviation="1" in="shadowOffsetOuter1" result="shadowBlurOuter1"></feGaussianBlur>
            <feColorMatrix values="0 0 0 0 0   0 0 0 0 0   0 0 0 0 0  0 0 0 0.257048234 0" type="matrix" in="shadowBlurOuter1"></feColorMatrix>
        </filter>
        <polygon id="path-6" points="8.66453674 0 9.81469649 0.925531915 4.90734824 4.87446809 0 0.925531915 1.15015974 0 4.90734824 3.02340426"></polygon>
        <rect id="path-8" x="0" y="0" width="384" height="79" rx="4"></rect>
        <filter x="-1.8%" y="-6.3%" width="103.6%" height="117.7%" filterUnits="objectBoundingBox" id="filter-10">
            <feOffset dx="0" dy="2" in="SourceAlpha" result="shadowOffsetOuter1"></feOffset>
            <feGaussianBlur stdDeviation="2" in="shadowOffsetOuter1" result="shadowBlurOuter1"></feGaussianBlur>
            <feColorMatrix values="0 0 0 0 0   0 0 0 0 0   0 0 0 0 0  0 0 0 0.245103034 0" type="matrix" in="shadowBlurOuter1"></feColorMatrix>
        </filter>
        <path d="M20.039179,22.4367946 L21.8009642,20.6914555 C21.9077391,20.5856774 21.9611265,20.4270102 21.9077391,20.3212321 L19.665467,9.37319626 C19.6120796,9.21452907 19.665467,9.10875095 19.7722418,9.00297282 L24.7906603,4.031401 C25.6448592,3.18517601 25.6448592,1.8100604 24.7906603,0.96383541 L24.7906603,0.96383541 C23.9364614,0.117610419 22.5483882,0.117610419 21.6941893,0.96383541 L16.5156086,6.09407442 C16.4088337,6.19985254 16.3020589,6.2527416 16.1418966,6.19985254 L4.93053626,4.13717913 C4.77037397,4.13717913 4.66359911,4.13717913 4.55682425,4.24295725 L2.74165163,6.09407442 C2.52810191,6.30563066 2.58148934,6.6758541 2.84842649,6.78163222 L11.3370279,10.4838666 C11.603965,10.5896447 11.6573525,10.9598681 11.4438027,11.1714244 L5.94489744,16.6189977 C5.83812258,16.7247759 5.67796029,16.7776649 5.57118543,16.7247759 L1.94084018,15.984329 C1.78067789,15.9314399 1.67390303,15.984329 1.56712816,16.0901071 L0.499379562,17.1478884 C0.285829841,17.3594446 0.339217271,17.676779 0.606154422,17.8354462 L4.23649967,19.5807852 C4.23649967,19.6336743 4.2898871,19.6336743 4.34327453,19.6865633 L5.89151001,21.2203461 C5.94489744,21.2732352 5.94489744,21.2732352 5.94489744,21.3261243 L7.81345749,24.9754695 C7.92023235,25.2399148 8.29394437,25.2928039 8.50749409,25.0812476 L9.4150804,24.1821336 C9.52185526,24.0763555 9.57524269,23.9176883 9.52185526,23.8119102 L8.77443124,20.1625649 C8.72104381,20.0038977 8.77443124,19.8981196 8.8812061,19.7923415 L14.700436,14.0274337 C14.9139857,13.8158775 15.2343103,13.8687665 15.3944726,14.1332118 L19.3985298,22.3310164 C19.5053047,22.5954617 19.8256293,22.6483508 20.039179,22.4367946 Z" id="path-11"></path>
        <rect id="path-13" x="0" y="0" width="384" height="93" rx="4"></rect>
        <filter x="-1.8%" y="-5.4%" width="103.6%" height="115.1%" filterUnits="objectBoundingBox" id="filter-15">
            <feOffset dx="0" dy="2" in="SourceAlpha" result="shadowOffsetOuter1"></feOffset>
            <feGaussianBlur stdDeviation="2" in="shadowOffsetOuter1" result="shadowBlurOuter1"></feGaussianBlur>
            <feColorMatrix values="0 0 0 0 0   0 0 0 0 0   0 0 0 0 0  0 0 0 0.245103034 0" type="matrix" in="shadowBlurOuter1"></feColorMatrix>
        </filter>
        <rect id="path-16" x="0" y="0" width="384" height="79" rx="4"></rect>
        <filter x="-1.8%" y="-6.3%" width="103.6%" height="117.7%" filterUnits="objectBoundingBox" id="filter-18">
            <feOffset dx="0" dy="2" in="SourceAlpha" result="shadowOffsetOuter1"></feOffset>
            <feGaussianBlur stdDeviation="2" in="shadowOffsetOuter1" result="shadowBlurOuter1"></feGaussianBlur>
            <feColorMatrix values="0 0 0 0 0   0 0 0 0 0   0 0 0 0 0  0 0 0 0.245103034 0" type="matrix" in="shadowBlurOuter1"></feColorMatrix>
        </filter>
        <path d="M20.039179,22.4367946 L21.8009642,20.6914555 C21.9077391,20.5856774 21.9611265,20.4270102 21.9077391,20.3212321 L19.665467,9.37319626 C19.6120796,9.21452907 19.665467,9.10875095 19.7722418,9.00297282 L24.7906603,4.031401 C25.6448592,3.18517601 25.6448592,1.8100604 24.7906603,0.96383541 L24.7906603,0.96383541 C23.9364614,0.117610419 22.5483882,0.117610419 21.6941893,0.96383541 L16.5156086,6.09407442 C16.4088337,6.19985254 16.3020589,6.2527416 16.1418966,6.19985254 L4.93053626,4.13717913 C4.77037397,4.13717913 4.66359911,4.13717913 4.55682425,4.24295725 L2.74165163,6.09407442 C2.52810191,6.30563066 2.58148934,6.6758541 2.84842649,6.78163222 L11.3370279,10.4838666 C11.603965,10.5896447 11.6573525,10.9598681 11.4438027,11.1714244 L5.94489744,16.6189977 C5.83812258,16.7247759 5.67796029,16.7776649 5.57118543,16.7247759 L1.94084018,15.984329 C1.78067789,15.9314399 1.67390303,15.984329 1.56712816,16.0901071 L0.499379562,17.1478884 C0.285829841,17.3594446 0.339217271,17.676779 0.606154422,17.8354462 L4.23649967,19.5807852 C4.23649967,19.6336743 4.2898871,19.6336743 4.34327453,19.6865633 L5.89151001,21.2203461 C5.94489744,21.2732352 5.94489744,21.2732352 5.94489744,21.3261243 L7.81345749,24.9754695 C7.92023235,25.2399148 8.29394437,25.2928039 8.50749409,25.0812476 L9.4150804,24.1821336 C9.52185526,24.0763555 9.57524269,23.9176883 9.52185526,23.8119102 L8.77443124,20.1625649 C8.72104381,20.0038977 8.77443124,19.8981196 8.8812061,19.7923415 L14.700436,14.0274337 C14.9139857,13.8158775 15.2343103,13.8687665 15.3944726,14.1332118 L19.3985298,22.3310164 C19.5053047,22.5954617 19.8256293,22.6483508 20.039179,22.4367946 Z" id="path-19"></path>
        <rect id="path-21" x="0" y="0" width="185.081505" height="26"></rect>
        <filter x="-3.2%" y="-23.1%" width="106.5%" height="146.2%" filterUnits="objectBoundingBox" id="filter-22">
            <feOffset dx="0" dy="0" in="SourceAlpha" result="shadowOffsetOuter1"></feOffset>
            <feGaussianBlur stdDeviation="2" in="shadowOffsetOuter1" result="shadowBlurOuter1"></feGaussianBlur>
            <feComposite in="shadowBlurOuter1" in2="SourceAlpha" operator="out" result="shadowBlurOuter1"></feComposite>
            <feColorMatrix values="0 0 0 0 0   0 0 0 0 0   0 0 0 0 0  0 0 0 0.253000453 0" type="matrix" in="shadowBlurOuter1"></feColorMatrix>
        </filter>
        <rect id="path-23" x="0" y="0" width="185.081505" height="26"></rect>
        <filter x="-3.2%" y="-23.1%" width="106.5%" height="146.2%" filterUnits="objectBoundingBox" id="filter-24">
            <feOffset dx="0" dy="0" in="SourceAlpha" result="shadowOffsetOuter1"></feOffset>
            <feGaussianBlur stdDeviation="2" in="shadowOffsetOuter1" result="shadowBlurOuter1"></feGaussianBlur>
            <feComposite in="shadowBlurOuter1" in2="SourceAlpha" operator="out" result="shadowBlurOuter1"></feComposite>
            <feColorMatrix values="0 0 0 0 0   0 0 0 0 0   0 0 0 0 0  0 0 0 0.253000453 0" type="matrix" in="shadowBlurOuter1"></feColorMatrix>
        </filter>
        <path d="M0,2.49623138 C0,1.11760086 1.10966507,0 2.49077456,0 L321.509225,0 C322.884842,0 324,1.12786674 324,2.49623138 L324,51.5037686 C324,52.8823991 322.890335,54 321.509225,54 L2.49077456,54 C1.11515775,54 0,52.8721333 0,51.5037686 L0,2.49623138 Z" id="path-25"></path>
        <filter x="-2.2%" y="-9.3%" width="104.3%" height="125.9%" filterUnits="objectBoundingBox" id="filter-26">
            <feOffset dx="0" dy="2" in="SourceAlpha" result="shadowOffsetOuter1"></feOffset>
            <feGaussianBlur stdDeviation="2" in="shadowOffsetOuter1" result="shadowBlurOuter1"></feGaussianBlur>
            <feColorMatrix values="0 0 0 0 0   0 0 0 0 0   0 0 0 0 0  0 0 0 0.248907343 0" type="matrix" in="shadowBlurOuter1"></feColorMatrix>
        </filter>
    </defs>
    <g id="Marketing-Website-V0.9" stroke="none" stroke-width="1" fill="none" fill-rule="evenodd">
        <g id="Group-33" transform="translate(0.000000, 22.000000)">
            <path d="M38.5611511,224.732484 L-2.84217094e-14,224.732484 L-2.84217094e-14,177.853503 L38.5611511,177.853503 L38.5611511,155 L80,201 L38.5611511,247 L38.5611511,224.732484 Z" id="Arrow" fill="url(#linearGradient-1)"></path>
            <g id="Itinerary-1-Copy" filter="url(#filter-2)" transform="translate(118.000000, 0.000000)">
                <g id="Card-1.1" transform="translate(5.000000, 0.000000)">
                    <g id="Card">
                        <mask id="mask-4" fill="white">
                            <use xlink:href="#path-3"></use>
                        </mask>
                        <g id="White-Background">
                            <use fill="black" fill-opacity="1" filter="url(#filter-5)" xlink:href="#path-3"></use>
                            <use fill="#FFFFFF" fill-rule="evenodd" xlink:href="#path-3"></use>
                        </g>
                        <rect id="Green-Stripe" fill="#7ED321" mask="url(#mask-4)" x="0" y="-2.46808511" width="384" height="4.93617021"></rect>
                    </g>
                    <path d="M298.03,23 L297.34,23 C297.28,23 297.24,22.96 297.24,22.9 L297.24,17.09 C297.24,17.05 297.22,17.03 297.18,17.03 L295.32,17.03 C295.26,17.03 295.22,16.99 295.22,16.93 L295.22,16.3 C295.22,16.24 295.26,16.2 295.32,16.2 L300.05,16.2 C300.11,16.2 300.15,16.24 300.15,16.3 L300.15,16.93 C300.15,16.99 300.11,17.03 300.05,17.03 L298.19,17.03 C298.15,17.03 298.13,17.05 298.13,17.09 L298.13,22.9 C298.13,22.96 298.09,23 298.03,23 Z M303.22,23.11 C302.08,23.11 301.26,22.57 300.91,21.52 C300.78,21.13 300.73,20.72 300.73,19.6 C300.73,18.48 300.78,18.07 300.91,17.68 C301.26,16.63 302.08,16.09 303.22,16.09 C304.37,16.09 305.19,16.63 305.54,17.68 C305.67,18.07 305.72,18.48 305.72,19.6 C305.72,20.72 305.67,21.13 305.54,21.52 C305.19,22.57 304.37,23.11 303.22,23.11 Z M303.22,22.28 C303.98,22.28 304.46,21.92 304.67,21.27 C304.75,21.02 304.82,20.58 304.82,19.6 C304.82,18.62 304.75,18.18 304.67,17.93 C304.46,17.28 303.98,16.92 303.22,16.92 C302.47,16.92 301.99,17.28 301.78,17.93 C301.7,18.18 301.63,18.62 301.63,19.6 C301.63,20.58 301.7,21.02 301.78,21.27 C301.99,21.92 302.47,22.28 303.22,22.28 Z M309.11,23 L308.42,23 C308.36,23 308.32,22.96 308.32,22.9 L308.32,17.09 C308.32,17.05 308.3,17.03 308.26,17.03 L306.4,17.03 C306.34,17.03 306.3,16.99 306.3,16.93 L306.3,16.3 C306.3,16.24 306.34,16.2 306.4,16.2 L311.13,16.2 C311.19,16.2 311.23,16.24 311.23,16.3 L311.23,16.93 C311.23,16.99 311.19,17.03 311.13,17.03 L309.27,17.03 C309.23,17.03 309.21,17.05 309.21,17.09 L309.21,22.9 C309.21,22.96 309.17,23 309.11,23 Z M310.97,22.9 L313.33,16.3 C313.35,16.24 313.38,16.2 313.45,16.2 L314.1,16.2 C314.17,16.2 314.21,16.24 314.23,16.3 L316.56,22.9 C316.58,22.96 316.55,23 316.49,23 L315.79,23 C315.72,23 315.68,22.97 315.66,22.9 L315.14,21.42 L312.39,21.42 L311.87,22.9 C311.84,22.97 311.8,23 311.74,23 L311.04,23 C310.98,23 310.95,22.96 310.97,22.9 Z M312.68,20.6 L314.85,20.6 L313.78,17.51 L313.76,17.51 L312.68,20.6 Z M317.64,22.9 L317.64,16.3 C317.64,16.24 317.68,16.2 317.74,16.2 L318.43,16.2 C318.49,16.2 318.53,16.24 318.53,16.3 L318.53,22.11 C318.53,22.15 318.55,22.17 318.59,22.17 L321.83,22.17 C321.89,22.17 321.93,22.21 321.93,22.27 L321.93,22.9 C321.93,22.96 321.89,23 321.83,23 L317.74,23 C317.68,23 317.64,22.96 317.64,22.9 Z" id="TOTAL" fill="#575757" fill-rule="nonzero"></path>
                    <path d="M296.942757,41.841 C296.847757,41.765 296.828757,41.651 296.904757,41.556 L297.911757,40.283 C297.987757,40.188 298.101757,40.188 298.177757,40.264 C298.728757,40.72 299.602757,41.195 300.609757,41.29 L300.609757,37.395 C298.443757,37.034 297.132757,35.685 297.132757,33.747 C297.132757,31.638 298.576757,30.118 300.609757,29.909 L300.609757,28.921 C300.609757,28.807 300.685757,28.731 300.799757,28.731 L301.540757,28.731 C301.654757,28.731 301.730757,28.807 301.730757,28.921 L301.730757,29.909 C302.832757,30.004 303.839757,30.384 304.637757,30.916 C304.732757,30.992 304.751757,31.068 304.675757,31.182 L303.801757,32.474 C303.725757,32.569 303.630757,32.569 303.535757,32.512 C302.984757,32.17 302.376757,31.923 301.730757,31.828 L301.730757,35.533 C304.029757,35.913 305.226757,37.243 305.226757,39.2 C305.226757,41.347 303.896757,42.848 301.730757,43.152 L301.730757,44.159 C301.730757,44.273 301.654757,44.349 301.540757,44.349 L300.799757,44.349 C300.685757,44.349 300.609757,44.273 300.609757,44.159 L300.609757,43.19 C299.165757,43.133 297.930757,42.62 296.942757,41.841 Z M300.609757,35.305 L300.609757,31.828 C299.754757,31.999 299.203757,32.683 299.203757,33.595 C299.203757,34.393 299.526757,35.001 300.609757,35.305 Z M301.730757,41.233 C302.661757,41.005 303.155757,40.34 303.155757,39.276 C303.155757,38.554 302.813757,37.927 301.730757,37.604 L301.730757,41.233 Z M306.917757,40.435 C306.898757,40.321 306.955757,40.226 307.069757,40.188 L308.722757,39.808 C308.817757,39.789 308.912757,39.827 308.950757,39.941 C309.216757,40.701 309.843757,41.309 310.907757,41.309 C312.104757,41.309 312.807757,40.492 312.807757,39.39 C312.807757,38.079 311.971757,37.281 310.698757,37.281 L310.147757,37.281 C310.033757,37.281 309.957757,37.205 309.957757,37.091 L309.957757,35.59 C309.957757,35.476 310.033757,35.4 310.147757,35.4 L310.660757,35.4 C311.800757,35.4 312.541757,34.659 312.541757,33.519 C312.541757,32.493 311.895757,31.771 310.812757,31.771 C309.862757,31.771 309.311757,32.303 309.083757,33.101 C309.045757,33.215 308.969757,33.253 308.855757,33.234 L307.240757,32.854 C307.126757,32.835 307.069757,32.74 307.088757,32.626 C307.373757,31.068 308.798757,29.871 310.888757,29.871 C313.301757,29.871 314.688757,31.353 314.688757,33.443 C314.688757,34.526 314.194757,35.495 313.244757,36.122 L313.244757,36.16 C314.004757,36.483 314.954757,37.604 314.954757,39.295 C314.954757,41.651 313.225757,43.209 310.907757,43.209 C308.893757,43.209 307.316757,42.202 306.917757,40.435 Z M316.968757,44.919 L316.968757,40.872 C316.968757,40.758 317.044757,40.682 317.158757,40.682 L318.944757,40.682 C319.058757,40.682 319.134757,40.758 319.134757,40.872 L319.134757,42.943 C319.134757,43.133 319.115757,43.228 319.001757,43.342 L317.424757,44.976 C317.329757,45.071 317.253757,45.109 317.158757,45.109 C317.044757,45.109 316.968757,45.033 316.968757,44.919 Z M324.606757,42.81 L324.606757,32.626 L324.568757,32.626 L322.592757,34.013 C322.478757,34.089 322.383757,34.051 322.383757,33.899 L322.383757,31.961 C322.383757,31.847 322.421757,31.771 322.516757,31.695 L324.587757,30.194 C324.682757,30.118 324.777757,30.08 324.929757,30.08 L326.544757,30.08 C326.658757,30.08 326.734757,30.156 326.734757,30.27 L326.734757,42.81 C326.734757,42.924 326.658757,43 326.544757,43 L324.796757,43 C324.682757,43 324.606757,42.924 324.606757,42.81 Z M334.562757,42.81 L334.562757,32.626 L334.524757,32.626 L332.548757,34.013 C332.434757,34.089 332.339757,34.051 332.339757,33.899 L332.339757,31.961 C332.339757,31.847 332.377757,31.771 332.472757,31.695 L334.543757,30.194 C334.638757,30.118 334.733757,30.08 334.885757,30.08 L336.500757,30.08 C336.614757,30.08 336.690757,30.156 336.690757,30.27 L336.690757,42.81 C336.690757,42.924 336.614757,43 336.500757,43 L334.752757,43 C334.638757,43 334.562757,42.924 334.562757,42.81 Z M342.466757,42.791 L346.684757,32.037 L346.684757,31.98 L343.473757,31.98 C343.397757,31.98 343.359757,32.018 343.359757,32.094 L343.359757,33.576 C343.359757,33.69 343.283757,33.766 343.169757,33.766 L341.535757,33.766 C341.421757,33.766 341.345757,33.69 341.345757,33.576 L341.345757,30.27 C341.345757,30.156 341.421757,30.08 341.535757,30.08 L348.774757,30.08 C348.888757,30.08 348.964757,30.156 348.964757,30.27 L348.964757,31.752 C348.964757,31.904 348.945757,31.999 348.907757,32.094 L344.632757,42.829 C344.575757,42.962 344.537757,43 344.385757,43 L342.580757,43 C342.466757,43 342.409757,42.924 342.466757,42.791 Z M351.035757,42.81 L351.035757,40.872 C351.035757,40.758 351.111757,40.682 351.225757,40.682 L353.125757,40.682 C353.239757,40.682 353.315757,40.758 353.315757,40.872 L353.315757,42.81 C353.315757,42.924 353.239757,43 353.125757,43 L351.225757,43 C351.111757,43 351.035757,42.924 351.035757,42.81 Z M355.633757,40.682 C355.462757,40.15 355.367757,39.542 355.367757,36.54 C355.367757,33.538 355.462757,32.93 355.633757,32.398 C356.146757,30.783 357.381757,29.871 359.300757,29.871 C361.219757,29.871 362.454757,30.783 362.986757,32.398 C363.157757,32.93 363.252757,33.538 363.252757,36.54 C363.252757,39.542 363.157757,40.15 362.986757,40.682 C362.454757,42.297 361.219757,43.209 359.300757,43.209 C357.381757,43.209 356.146757,42.297 355.633757,40.682 Z M357.723757,40.283 C357.970757,40.967 358.502757,41.309 359.300757,41.309 C360.098757,41.309 360.649757,40.967 360.896757,40.283 C361.029757,39.884 361.067757,39.447 361.067757,36.54 C361.067757,33.633 361.029757,33.196 360.896757,32.797 C360.649757,32.113 360.098757,31.771 359.300757,31.771 C358.502757,31.771 357.970757,32.113 357.723757,32.797 C357.590757,33.196 357.552757,33.633 357.552757,36.54 C357.552757,39.447 357.590757,39.884 357.723757,40.283 Z M365.589757,40.549 C365.570757,40.454 365.627757,40.359 365.741757,40.321 L367.356757,39.922 C367.470757,39.903 367.546757,39.96 367.584757,40.074 C367.831757,40.796 368.420757,41.309 369.370757,41.309 C370.111757,41.309 370.738757,40.929 370.966757,40.245 C371.099757,39.903 371.137757,39.485 371.137757,38.82 C371.137757,38.117 371.080757,37.718 370.966757,37.395 C370.719757,36.635 370.092757,36.331 369.351757,36.331 C368.496757,36.331 367.983757,36.787 367.774757,37.224 C367.717757,37.357 367.679757,37.414 367.546757,37.414 L365.950757,37.414 C365.836757,37.414 365.760757,37.338 365.760757,37.224 L365.760757,30.27 C365.760757,30.156 365.836757,30.08 365.950757,30.08 L372.828757,30.08 C372.942757,30.08 373.018757,30.156 373.018757,30.27 L373.018757,31.79 C373.018757,31.904 372.942757,31.98 372.828757,31.98 L367.831757,31.98 C367.755757,31.98 367.717757,32.018 367.717757,32.094 L367.717757,35.001 L367.774757,35.001 C368.078757,34.754 368.743757,34.431 369.674757,34.431 C371.327757,34.431 372.543757,35.21 372.999757,36.616 C373.170757,37.167 373.284757,37.775 373.284757,38.82 C373.284757,39.675 373.189757,40.34 373.018757,40.853 C372.524757,42.354 371.080757,43.209 369.370757,43.209 C367.375757,43.209 365.874757,42.145 365.589757,40.549 Z" id="$3,117.05" fill="#575757" fill-rule="nonzero"></path>
                    <g id="Icon-Chevron" transform="translate(137.405751, 40.723404)">
                        <mask id="mask-7" fill="white">
                            <use xlink:href="#path-6"></use>
                        </mask>
                        <use id="Mask" fill="#333333" xlink:href="#path-6"></use>
                        <g id="↳🎨icon-color" mask="url(#mask-7)" fill="#333333">
                            <g transform="translate(-39.258786, -33.565957)" id="Icon-Shade">
                                <rect x="0" y="0" width="88.3322684" height="71.0808511"></rect>
                            </g>
                        </g>
                    </g>
                    <g id="Icon-Avatar-1-Copy" transform="translate(13.495208, 14.808511)" fill="#595959">
                        <path d="M26.2876941,24.9660073 C22.5635375,23.3207571 18.4285574,21.2770539 18.0816232,20.0041539 L18.0816232,18.6690675 C18.854239,17.7654467 19.4634168,16.5048304 19.8237232,15.029249 C20.6906872,14.3336836 20.9061281,12.8995598 20.188487,11.8915274 L20.188487,8.9004426 C20.188487,5.81492676 18.6848578,3.70212766 15.2482035,3.70212766 C11.8999542,3.70212766 10.3064342,5.81492676 10.3064342,8.9004426 L10.3064342,11.8922951 C9.58953595,12.8995598 9.80646268,14.3329159 10.671198,15.029249 C11.0315044,16.5048304 11.6414251,17.7654467 12.4140409,18.6690675 L12.4140409,20.0041539 C12.0678496,21.2755184 7.93212656,23.3192217 4.20797002,24.9660073 C3.89075182,25.1080378 3.68051118,25.4604268 3.68051118,25.8542735 L3.68051118,29.1954442 C3.68051118,29.7198053 4.04750367,30.1458967 4.49992963,30.1458967 L25.9957345,30.1458967 C26.4481604,30.1458967 26.8151529,29.7198053 26.8151529,29.1954442 L26.8151529,25.8542735 C26.8151529,25.4604268 26.6049123,25.1065023 26.2876941,24.9660073 L26.2876941,24.9660073 Z" id="Avatar-1-Copy"></path>
                    </g>
                    <rect id="Text-1.1.1" fill="#D8D8D8" x="57.6613419" y="14.8085106" width="123.910543" height="9.87234043" rx="4"></rect>
                    <rect id="Text-1.1.2" fill="#D8D8D8" x="57.6613419" y="35.787234" width="73.6102236" height="9.87234043" rx="4"></rect>
                </g>
                <g id="Card-1.2" transform="translate(7.000000, 116.000000)">
                    <g id="Card">
                        <mask id="mask-9" fill="white">
                            <use xlink:href="#path-8"></use>
                        </mask>
                        <g id="White-Background">
                            <use fill="black" fill-opacity="1" filter="url(#filter-10)" xlink:href="#path-8"></use>
                            <use fill="#FFFFFF" fill-rule="evenodd" xlink:href="#path-8"></use>
                        </g>
                        <rect id="Green-Stripe" fill="#7ED321" mask="url(#mask-9)" x="0" y="-2.43076923" width="384" height="4.86153846"></rect>
                    </g>
                    <g id="Icon-Plane" transform="translate(13.495208, 15.800000)">
                        <mask id="mask-12" fill="white">
                            <use xlink:href="#path-11"></use>
                        </mask>
                        <use id="Airplane" fill="#CCCCCC" xlink:href="#path-11"></use>
                    </g>
                    <rect id="Text-1" fill="#666666" x="55.2076677" y="12.1538462" width="41.7124601" height="4.86153846" rx="2.43076923"></rect>
                    <rect id="Text-2" fill="#CCCCCC" x="55.2076677" y="26.7384615" width="51.5271565" height="4.86153846" rx="2.43076923"></rect>
                    <rect id="Text-3" fill="#666666" x="55.2076677" y="44.9692308" width="67.4760383" height="4.86153846" rx="2.43076923"></rect>
                    <rect id="Text-4" fill="#CCCCCC" x="55.2076677" y="59.5538462" width="77.2907348" height="4.86153846" rx="2.43076923"></rect>
                    <rect id="Text-5" fill="#666666" x="153.354633" y="12.1538462" width="41.7124601" height="4.86153846" rx="2.43076923"></rect>
                    <rect id="Text-6" fill="#CCCCCC" x="153.354633" y="26.7384615" width="41.7124601" height="4.86153846" rx="2.43076923"></rect>
                    <rect id="Text-7" fill="#666666" x="153.354633" y="44.9692308" width="57.6613419" height="4.86153846" rx="2.43076923"></rect>
                    <rect id="Text-8" fill="#CCCCCC" x="258.86262" y="12.1538462" width="119.003195" height="4.86153846" rx="2.43076923"></rect>
                    <rect id="Text-9" fill="#666666" x="336.153355" y="30.3846154" width="41.7124601" height="4.86153846" rx="2.43076923"></rect>
                </g>
                <g id="Card-1.3" transform="translate(7.000000, 211.000000)">
                    <g id="Card">
                        <mask id="mask-14" fill="white">
                            <use xlink:href="#path-13"></use>
                        </mask>
                        <g id="White-Background">
                            <use fill="black" fill-opacity="1" filter="url(#filter-15)" xlink:href="#path-13"></use>
                            <use fill="#FFFFFF" fill-rule="evenodd" xlink:href="#path-13"></use>
                        </g>
                        <rect id="Green-Stripe" fill="#7ED321" mask="url(#mask-14)" x="0" y="-2" width="384" height="4"></rect>
                    </g>
                    <g id="Icon-Hotel" transform="translate(9.814696, 19.652174)" fill="#CCCCCC">
                        <path d="M1.6552197,12.1381074 L27.6352986,12.1381074 L29.4440895,12.1381074 L29.4440895,17.9181586 L27.6352986,17.9181586 L27.6352986,13.8721228 L1.6552197,13.8721228 L1.6552197,17.9181586 L0,17.9181586 L0,0 L1.6552197,0 L1.6552197,12.1381074 Z M5.19601579,8.67007673 C3.92060233,8.67007673 2.88667544,7.63494991 2.88667544,6.35805627 C2.88667544,5.08116262 3.92060233,4.04603581 5.19601579,4.04603581 C6.47142924,4.04603581 7.50535614,5.08116262 7.50535614,6.35805627 C7.50535614,7.63494991 6.47142924,8.67007673 5.19601579,8.67007673 Z M2.88667544,10.9820972 L2.88667544,9.24808184 L8.08269122,9.24808184 L8.08269122,4.62404092 L9.81469649,4.62404092 L9.81469649,10.9820972 L9.2373614,10.9820972 L8.08269122,10.9820972 L2.88667544,10.9820972 Z M10.9693667,4.62404092 L28.2894193,4.62404092 L28.2894193,10.9820972 L10.9693667,10.9820972 L10.9693667,4.62404092 Z" id="Combined-Shape"></path>
                    </g>
                    <rect id="Text-1" fill="#666666" x="55.2076677" y="18.423913" width="154.58147" height="4.91304348" rx="2.45652174"></rect>
                    <rect id="Text-2" fill="#CCCCCC" x="55.2076677" y="35.6195652" width="182.798722" height="4.91304348" rx="2.45652174"></rect>
                    <rect id="Text-3" fill="#CCCCCC" x="55.2076677" y="52.8152174" width="182.798722" height="4.91304348" rx="2.45652174"></rect>
                    <rect id="Text-4" fill="#666666" x="55.2076677" y="68.7826087" width="58.8881789" height="4.91304348" rx="2.45652174"></rect>
                    <rect id="Text-5" fill="#666666" x="152.127796" y="68.7826087" width="58.8881789" height="4.91304348" rx="2.45652174"></rect>
                    <rect id="Text-6" fill="#CCCCCC" x="258.86262" y="17.8097826" width="119.003195" height="4.91304348" rx="2.45652174"></rect>
                    <rect id="Text-7" fill="#666666" x="336.153355" y="67.5543478" width="41.7124601" height="4.91304348" rx="2.45652174"></rect>
                </g>
                <g id="Card-1.4" transform="translate(7.000000, 362.000000)">
                    <g id="Card">
                        <mask id="mask-17" fill="white">
                            <use xlink:href="#path-16"></use>
                        </mask>
                        <g id="White-Background">
                            <use fill="black" fill-opacity="1" filter="url(#filter-18)" xlink:href="#path-16"></use>
                            <use fill="#FFFFFF" fill-rule="evenodd" xlink:href="#path-16"></use>
                        </g>
                        <rect id="Green-Stripe" fill="#7ED321" mask="url(#mask-17)" x="0" y="-2.43076923" width="384" height="4.86153846"></rect>
                    </g>
                    <g id="Icon-Plane" transform="translate(13.495208, 15.800000)">
                        <mask id="mask-20" fill="white">
                            <use xlink:href="#path-19"></use>
                        </mask>
                        <use id="Airplane" fill="#CCCCCC" xlink:href="#path-19"></use>
                    </g>
                    <rect id="Text-1" fill="#666666" x="55.2076677" y="12.1538462" width="41.7124601" height="4.86153846" rx="2.43076923"></rect>
                    <rect id="Text-2" fill="#CCCCCC" x="55.2076677" y="26.7384615" width="51.5271565" height="4.86153846" rx="2.43076923"></rect>
                    <rect id="Text-3" fill="#666666" x="55.2076677" y="44.9692308" width="67.4760383" height="4.86153846" rx="2.43076923"></rect>
                    <rect id="Text-4" fill="#CCCCCC" x="55.2076677" y="59.5538462" width="77.2907348" height="4.86153846" rx="2.43076923"></rect>
                    <rect id="Text-5" fill="#666666" x="153.354633" y="12.1538462" width="41.7124601" height="4.86153846" rx="2.43076923"></rect>
                    <rect id="Text-6" fill="#CCCCCC" x="153.354633" y="26.7384615" width="41.7124601" height="4.86153846" rx="2.43076923"></rect>
                    <rect id="Text-7" fill="#666666" x="153.354633" y="44.9692308" width="57.6613419" height="4.86153846" rx="2.43076923"></rect>
                    <rect id="Text-8" fill="#CCCCCC" x="258.86262" y="12.1538462" width="119.003195" height="4.86153846" rx="2.43076923"></rect>
                    <rect id="Text-9" fill="#666666" x="336.153355" y="30.3846154" width="41.7124601" height="4.86153846" rx="2.43076923"></rect>
                </g>
                <g id="Date-1.1" transform="translate(0.000000, 74.000000)">
                    <g id="Grey-Rectangle">
                        <use fill="black" fill-opacity="1" filter="url(#filter-22)" xlink:href="#path-21"></use>
                        <use fill-opacity="0.6" fill="#333333" fill-rule="evenodd" xlink:href="#path-21"></use>
                    </g>
                    <path d="M14.88,20.22 C12.76,20.22 10.7,19.38 9.64,18.36 C9.56,18.28 9.52,18.14 9.62,18.02 L11.14,16.28 C11.22,16.18 11.34,16.18 11.44,16.26 C12.34,16.98 13.56,17.66 15,17.66 C16.42,17.66 17.22,17 17.22,16.04 C17.22,15.24 16.74,14.74 15.12,14.52 L14.4,14.42 C11.64,14.04 10.1,12.74 10.1,10.34 C10.1,7.84 11.98,6.18 14.92,6.18 C16.72,6.18 18.4,6.72 19.54,7.6 C19.66,7.68 19.68,7.76 19.58,7.9 L18.36,9.72 C18.28,9.82 18.18,9.84 18.08,9.78 C17.04,9.1 16.04,8.74 14.92,8.74 C13.72,8.74 13.1,9.36 13.1,10.22 C13.1,11 13.66,11.5 15.22,11.72 L15.94,11.82 C18.74,12.2 20.22,13.48 20.22,15.94 C20.22,18.4 18.4,20.22 14.88,20.22 Z M27.36,20.22 C24.3,20.22 22.14,18.38 22.14,15 L22.14,6.6 C22.14,6.48 22.22,6.4 22.34,6.4 L24.88,6.4 C25,6.4 25.08,6.48 25.08,6.6 L25.08,15.08 C25.08,16.7 25.98,17.62 27.36,17.62 C28.72,17.62 29.62,16.7 29.62,15.08 L29.62,6.6 C29.62,6.48 29.7,6.4 29.82,6.4 L32.36,6.4 C32.48,6.4 32.56,6.48 32.56,6.6 L32.56,15 C32.56,18.38 30.4,20.22 27.36,20.22 Z M35.1,19.8 L35.1,6.6 C35.1,6.48 35.18,6.4 35.3,6.4 L37.7,6.4 C37.84,6.4 37.96,6.46 38.04,6.6 L42.84,15.16 L42.94,15.16 L42.94,6.6 C42.94,6.48 43.02,6.4 43.14,6.4 L45.4,6.4 C45.52,6.4 45.6,6.48 45.6,6.6 L45.6,19.8 C45.6,19.92 45.52,20 45.4,20 L43.02,20 C42.86,20 42.76,19.94 42.68,19.8 L37.86,11.26 L37.76,11.26 L37.76,19.8 C37.76,19.92 37.68,20 37.56,20 L35.3,20 C35.18,20 35.1,19.92 35.1,19.8 Z M48.1,21.94 L48.1,17.4 C48.1,17.28 48.18,17.2 48.3,17.2 L50.56,17.2 C50.68,17.2 50.76,17.28 50.76,17.4 L50.76,19.82 C50.76,20 50.7,20.1 50.58,20.22 L48.6,22.02 C48.48,22.12 48.4,22.16 48.3,22.16 C48.18,22.16 48.1,22.08 48.1,21.94 Z M57.1,18.48 C57.04,18.38 57.04,18.28 57.12,18.2 L58.98,16.78 C59.06,16.72 59.16,16.72 59.26,16.82 C59.6,17.22 60.2,17.62 60.92,17.62 C62.2,17.62 62.92,16.8 62.92,15.26 L62.92,6.6 C62.92,6.48 63,6.4 63.12,6.4 L65.66,6.4 C65.78,6.4 65.86,6.48 65.86,6.6 L65.86,15.12 C65.86,18.46 64,20.22 60.9,20.22 C59.24,20.22 57.74,19.48 57.1,18.48 Z M73.56,20.22 C70.5,20.22 68.34,18.38 68.34,15 L68.34,6.6 C68.34,6.48 68.42,6.4 68.54,6.4 L71.08,6.4 C71.2,6.4 71.28,6.48 71.28,6.6 L71.28,15.08 C71.28,16.7 72.18,17.62 73.56,17.62 C74.92,17.62 75.82,16.7 75.82,15.08 L75.82,6.6 C75.82,6.48 75.9,6.4 76.02,6.4 L78.56,6.4 C78.68,6.4 78.76,6.48 78.76,6.6 L78.76,15 C78.76,18.38 76.6,20.22 73.56,20.22 Z M81.3,19.8 L81.3,6.6 C81.3,6.48 81.38,6.4 81.5,6.4 L84.04,6.4 C84.16,6.4 84.24,6.48 84.24,6.6 L84.24,17.26 C84.24,17.34 84.28,17.38 84.36,17.38 L90.36,17.38 C90.48,17.38 90.56,17.46 90.56,17.58 L90.56,19.8 C90.56,19.92 90.48,20 90.36,20 L81.5,20 C81.38,20 81.3,19.92 81.3,19.8 Z M98.38,19.78 L102.7,8.9 L102.7,8.84 L99.84,8.84 C99.76,8.84 99.72,8.88 99.72,8.96 L99.72,10.38 C99.72,10.5 99.64,10.58 99.52,10.58 L97.3,10.58 C97.18,10.58 97.1,10.5 97.1,10.38 L97.1,6.6 C97.1,6.48 97.18,6.4 97.3,6.4 L105.44,6.4 C105.56,6.4 105.64,6.48 105.64,6.6 L105.64,8.68 C105.64,8.78 105.62,8.86 105.6,8.92 L101.28,19.82 C101.22,19.96 101.14,20 101,20 L98.5,20 C98.38,20 98.32,19.92 98.38,19.78 Z M108.04,21.94 L108.04,17.4 C108.04,17.28 108.12,17.2 108.24,17.2 L110.5,17.2 C110.62,17.2 110.7,17.28 110.7,17.4 L110.7,19.82 C110.7,20 110.64,20.1 110.52,20.22 L108.54,22.02 C108.42,22.12 108.34,22.16 108.24,22.16 C108.12,22.16 108.04,22.08 108.04,21.94 Z M117.92,19.8 L117.92,17.94 C117.92,17.82 117.94,17.76 118.02,17.66 L122.8,11.98 C123.32,11.38 123.6,10.8 123.6,10.1 C123.6,9.2 123.06,8.54 122.12,8.54 C121.2,8.54 120.64,9.1 120.52,10.14 C120.52,10.26 120.44,10.32 120.3,10.3 L118.1,9.94 C117.98,9.92 117.92,9.82 117.94,9.7 C118.08,7.82 119.6,6.18 122.22,6.18 C124.82,6.18 126.4,7.86 126.4,10.06 C126.4,11.36 125.88,12.38 125.02,13.36 L121.44,17.58 L121.44,17.62 L126.2,17.62 C126.32,17.62 126.4,17.7 126.4,17.82 L126.4,19.8 C126.4,19.92 126.32,20 126.2,20 L118.12,20 C118,20 117.92,19.92 117.92,19.8 Z M129.2,17.44 C129,16.84 128.9,16.22 128.9,13.2 C128.9,10.18 129,9.56 129.2,8.96 C129.76,7.22 131.16,6.18 133.3,6.18 C135.44,6.18 136.84,7.22 137.4,8.96 C137.6,9.56 137.7,10.18 137.7,13.2 C137.7,16.22 137.6,16.84 137.4,17.44 C136.84,19.18 135.44,20.22 133.3,20.22 C131.16,20.22 129.76,19.18 129.2,17.44 Z M131.92,16.94 C132.12,17.56 132.58,17.86 133.3,17.86 C134,17.86 134.48,17.56 134.68,16.94 C134.8,16.58 134.84,16.18 134.84,13.2 C134.84,10.22 134.8,9.82 134.68,9.46 C134.48,8.84 134,8.54 133.3,8.54 C132.58,8.54 132.12,8.84 131.92,9.46 C131.8,9.82 131.76,10.22 131.76,13.2 C131.76,16.18 131.8,16.58 131.92,16.94 Z M143.7,19.8 L143.7,9.56 L143.66,9.56 L141.5,11.04 C141.38,11.12 141.28,11.08 141.28,10.92 L141.28,8.44 C141.28,8.32 141.32,8.24 141.42,8.16 L143.7,6.52 C143.8,6.44 143.92,6.4 144.06,6.4 L146.3,6.4 C146.42,6.4 146.5,6.48 146.5,6.6 L146.5,19.8 C146.5,19.92 146.42,20 146.3,20 L143.9,20 C143.78,20 143.7,19.92 143.7,19.8 Z M152.88,19.8 L155.76,14.54 L155.72,14.5 C155.58,14.56 155.24,14.62 154.88,14.62 C152.74,14.62 150.98,13.02 150.98,10.52 C150.98,7.78 152.96,6.18 155.54,6.18 C158.14,6.18 160.1,7.78 160.1,10.46 C160.1,11.62 159.74,12.66 159.1,13.82 L155.8,19.86 C155.74,19.98 155.7,20 155.56,20 L153.02,20 C152.86,20 152.82,19.92 152.88,19.8 Z M155.54,12.32 C156.64,12.32 157.34,11.54 157.34,10.42 C157.34,9.32 156.64,8.54 155.54,8.54 C154.44,8.54 153.74,9.32 153.74,10.42 C153.74,11.54 154.44,12.32 155.54,12.32 Z" id="SUN,JUL7,2019" fill="#FFFFFF" fill-rule="nonzero"></path>
                </g>
                <g id="Date-1.2" transform="translate(0.000000, 320.000000)">
                    <g id="Grey-Rectangle">
                        <use fill="black" fill-opacity="1" filter="url(#filter-24)" xlink:href="#path-23"></use>
                        <use fill-opacity="0.6" fill="#333333" fill-rule="evenodd" xlink:href="#path-23"></use>
                    </g>
                    <path d="M22.3,20 L20.3,20 C20.16,20 20.08,19.92 20.04,19.8 L17.68,11.34 L17.64,11.34 L15.26,19.8 C15.22,19.92 15.14,20 15,20 L13,20 C12.88,20 12.8,19.92 12.76,19.8 L9.24,6.6 C9.22,6.48 9.26,6.4 9.4,6.4 L11.98,6.4 C12.12,6.4 12.2,6.48 12.22,6.6 L14.18,15.14 L14.22,15.14 L16.54,6.6 C16.58,6.48 16.66,6.4 16.8,6.4 L18.54,6.4 C18.66,6.4 18.74,6.48 18.78,6.6 L21.18,15.14 L21.22,15.14 L23.1,6.6 C23.12,6.46 23.2,6.4 23.34,6.4 L25.9,6.4 C26.04,6.4 26.08,6.48 26.06,6.6 L22.56,19.8 C22.54,19.92 22.44,20 22.3,20 Z M27.6,19.8 L27.6,6.6 C27.6,6.48 27.68,6.4 27.8,6.4 L36.52,6.4 C36.64,6.4 36.72,6.48 36.72,6.6 L36.72,8.74 C36.72,8.86 36.64,8.94 36.52,8.94 L30.66,8.94 C30.58,8.94 30.54,8.98 30.54,9.06 L30.54,11.76 C30.54,11.84 30.58,11.88 30.66,11.88 L35.54,11.88 C35.66,11.88 35.74,11.96 35.74,12.08 L35.74,14.2 C35.74,14.32 35.66,14.4 35.54,14.4 L30.66,14.4 C30.58,14.4 30.54,14.44 30.54,14.52 L30.54,17.34 C30.54,17.42 30.58,17.46 30.66,17.46 L36.52,17.46 C36.64,17.46 36.72,17.54 36.72,17.66 L36.72,19.8 C36.72,19.92 36.64,20 36.52,20 L27.8,20 C27.68,20 27.6,19.92 27.6,19.8 Z M38.9,19.8 L38.9,6.6 C38.9,6.48 38.98,6.4 39.1,6.4 L44.16,6.4 C46.54,6.4 48.2,7.42 48.86,9.46 C49.1,10.22 49.22,10.98 49.22,13.2 C49.22,15.42 49.1,16.18 48.86,16.94 C48.2,18.98 46.54,20 44.16,20 L39.1,20 C38.98,20 38.9,19.92 38.9,19.8 Z M41.84,17.26 C41.84,17.34 41.88,17.38 41.96,17.38 L43.5,17.38 C44.86,17.38 45.68,16.98 46.02,15.88 C46.16,15.48 46.24,14.96 46.24,13.2 C46.24,11.44 46.16,10.92 46.02,10.52 C45.68,9.42 44.86,9.02 43.5,9.02 L41.96,9.02 C41.88,9.02 41.84,9.06 41.84,9.14 L41.84,17.26 Z M51.4,21.94 L51.4,17.4 C51.4,17.28 51.48,17.2 51.6,17.2 L53.86,17.2 C53.98,17.2 54.06,17.28 54.06,17.4 L54.06,19.82 C54.06,20 54,20.1 53.88,20.22 L51.9,22.02 C51.78,22.12 51.7,22.16 51.6,22.16 C51.48,22.16 51.4,22.08 51.4,21.94 Z M60.4,18.48 C60.34,18.38 60.34,18.28 60.42,18.2 L62.28,16.78 C62.36,16.72 62.46,16.72 62.56,16.82 C62.9,17.22 63.5,17.62 64.22,17.62 C65.5,17.62 66.22,16.8 66.22,15.26 L66.22,6.6 C66.22,6.48 66.3,6.4 66.42,6.4 L68.96,6.4 C69.08,6.4 69.16,6.48 69.16,6.6 L69.16,15.12 C69.16,18.46 67.3,20.22 64.2,20.22 C62.54,20.22 61.04,19.48 60.4,18.48 Z M76.86,20.22 C73.8,20.22 71.64,18.38 71.64,15 L71.64,6.6 C71.64,6.48 71.72,6.4 71.84,6.4 L74.38,6.4 C74.5,6.4 74.58,6.48 74.58,6.6 L74.58,15.08 C74.58,16.7 75.48,17.62 76.86,17.62 C78.22,17.62 79.12,16.7 79.12,15.08 L79.12,6.6 C79.12,6.48 79.2,6.4 79.32,6.4 L81.86,6.4 C81.98,6.4 82.06,6.48 82.06,6.6 L82.06,15 C82.06,18.38 79.9,20.22 76.86,20.22 Z M84.6,19.8 L84.6,6.6 C84.6,6.48 84.68,6.4 84.8,6.4 L87.34,6.4 C87.46,6.4 87.54,6.48 87.54,6.6 L87.54,17.26 C87.54,17.34 87.58,17.38 87.66,17.38 L93.66,17.38 C93.78,17.38 93.86,17.46 93.86,17.58 L93.86,19.8 C93.86,19.92 93.78,20 93.66,20 L84.8,20 C84.68,20 84.6,19.92 84.6,19.8 Z M103.86,19.8 L103.86,9.56 L103.82,9.56 L101.66,11.04 C101.54,11.12 101.44,11.08 101.44,10.92 L101.44,8.44 C101.44,8.32 101.48,8.24 101.58,8.16 L103.86,6.52 C103.96,6.44 104.08,6.4 104.22,6.4 L106.46,6.4 C106.58,6.4 106.66,6.48 106.66,6.6 L106.66,19.8 C106.66,19.92 106.58,20 106.46,20 L104.06,20 C103.94,20 103.86,19.92 103.86,19.8 Z M111.6,17.44 C111.4,16.84 111.3,16.22 111.3,13.2 C111.3,10.18 111.4,9.56 111.6,8.96 C112.16,7.22 113.56,6.18 115.7,6.18 C117.84,6.18 119.24,7.22 119.8,8.96 C120,9.56 120.1,10.18 120.1,13.2 C120.1,16.22 120,16.84 119.8,17.44 C119.24,19.18 117.84,20.22 115.7,20.22 C113.56,20.22 112.16,19.18 111.6,17.44 Z M114.32,16.94 C114.52,17.56 114.98,17.86 115.7,17.86 C116.4,17.86 116.88,17.56 117.08,16.94 C117.2,16.58 117.24,16.18 117.24,13.2 C117.24,10.22 117.2,9.82 117.08,9.46 C116.88,8.84 116.4,8.54 115.7,8.54 C114.98,8.54 114.52,8.84 114.32,9.46 C114.2,9.82 114.16,10.22 114.16,13.2 C114.16,16.18 114.2,16.58 114.32,16.94 Z M122.46,21.94 L122.46,17.4 C122.46,17.28 122.54,17.2 122.66,17.2 L124.92,17.2 C125.04,17.2 125.12,17.28 125.12,17.4 L125.12,19.82 C125.12,20 125.06,20.1 124.94,20.22 L122.96,22.02 C122.84,22.12 122.76,22.16 122.66,22.16 C122.54,22.16 122.46,22.08 122.46,21.94 Z M132.34,19.8 L132.34,17.94 C132.34,17.82 132.36,17.76 132.44,17.66 L137.22,11.98 C137.74,11.38 138.02,10.8 138.02,10.1 C138.02,9.2 137.48,8.54 136.54,8.54 C135.62,8.54 135.06,9.1 134.94,10.14 C134.94,10.26 134.86,10.32 134.72,10.3 L132.52,9.94 C132.4,9.92 132.34,9.82 132.36,9.7 C132.5,7.82 134.02,6.18 136.64,6.18 C139.24,6.18 140.82,7.86 140.82,10.06 C140.82,11.36 140.3,12.38 139.44,13.36 L135.86,17.58 L135.86,17.62 L140.62,17.62 C140.74,17.62 140.82,17.7 140.82,17.82 L140.82,19.8 C140.82,19.92 140.74,20 140.62,20 L132.54,20 C132.42,20 132.34,19.92 132.34,19.8 Z M143.62,17.44 C143.42,16.84 143.32,16.22 143.32,13.2 C143.32,10.18 143.42,9.56 143.62,8.96 C144.18,7.22 145.58,6.18 147.72,6.18 C149.86,6.18 151.26,7.22 151.82,8.96 C152.02,9.56 152.12,10.18 152.12,13.2 C152.12,16.22 152.02,16.84 151.82,17.44 C151.26,19.18 149.86,20.22 147.72,20.22 C145.58,20.22 144.18,19.18 143.62,17.44 Z M146.34,16.94 C146.54,17.56 147,17.86 147.72,17.86 C148.42,17.86 148.9,17.56 149.1,16.94 C149.22,16.58 149.26,16.18 149.26,13.2 C149.26,10.22 149.22,9.82 149.1,9.46 C148.9,8.84 148.42,8.54 147.72,8.54 C147,8.54 146.54,8.84 146.34,9.46 C146.22,9.82 146.18,10.22 146.18,13.2 C146.18,16.18 146.22,16.58 146.34,16.94 Z M158.12,19.8 L158.12,9.56 L158.08,9.56 L155.92,11.04 C155.8,11.12 155.7,11.08 155.7,10.92 L155.7,8.44 C155.7,8.32 155.74,8.24 155.84,8.16 L158.12,6.52 C158.22,6.44 158.34,6.4 158.48,6.4 L160.72,6.4 C160.84,6.4 160.92,6.48 160.92,6.6 L160.92,19.8 C160.92,19.92 160.84,20 160.72,20 L158.32,20 C158.2,20 158.12,19.92 158.12,19.8 Z M167.3,19.8 L170.18,14.54 L170.14,14.5 C170,14.56 169.66,14.62 169.3,14.62 C167.16,14.62 165.4,13.02 165.4,10.52 C165.4,7.78 167.38,6.18 169.96,6.18 C172.56,6.18 174.52,7.78 174.52,10.46 C174.52,11.62 174.16,12.66 173.52,13.82 L170.22,19.86 C170.16,19.98 170.12,20 169.98,20 L167.44,20 C167.28,20 167.24,19.92 167.3,19.8 Z M169.96,12.32 C171.06,12.32 171.76,11.54 171.76,10.42 C171.76,9.32 171.06,8.54 169.96,8.54 C168.86,8.54 168.16,9.32 168.16,10.42 C168.16,11.54 168.86,12.32 169.96,12.32 Z" id="WED,JUL10,2019" fill="#FFFFFF" fill-rule="nonzero"></path>
                </g>
                <g id="Button-1" transform="translate(37.000000, 465.000000)">
                    <g id="Rounded-Rectangle">
                        <use fill="black" fill-opacity="1" filter="url(#filter-26)" xlink:href="#path-25"></use>
                        <use fill="#4C8CA7" fill-rule="evenodd" xlink:href="#path-25"></use>
                    </g>
                    <path d="M110.528182,34.1181818 L110.528182,17.9181818 C110.528182,17.7709091 110.626364,17.6727273 110.773636,17.6727273 L116.983636,17.6727273 C120.518182,17.6727273 122.187273,19.44 122.187273,22.1154545 C122.187273,24.0054545 121.303636,25.0854545 120.248182,25.65 L120.248182,25.6990909 C121.279091,26.0918182 122.481818,27.4172727 122.481818,29.4545455 C122.481818,32.7681818 120.395455,34.3636364 116.738182,34.3636364 L110.773636,34.3636364 C110.626364,34.3636364 110.528182,34.2654545 110.528182,34.1181818 Z M113.571818,24.6190909 L116.91,24.6190909 C118.382727,24.6190909 119.290909,23.7354545 119.290909,22.4345455 C119.290909,21.1090909 118.382727,20.2254545 116.91,20.2254545 L113.571818,20.2254545 C113.473636,20.2254545 113.424545,20.2745455 113.424545,20.3727273 L113.424545,24.4718182 C113.424545,24.57 113.473636,24.6190909 113.571818,24.6190909 Z M113.424545,31.6636364 C113.424545,31.7618182 113.473636,31.8109091 113.571818,31.8109091 L117.057273,31.8109091 C118.677273,31.8109091 119.585455,30.8781818 119.585455,29.4790909 C119.585455,28.1045455 118.677273,27.1718182 117.057273,27.1718182 L113.571818,27.1718182 C113.473636,27.1718182 113.424545,27.2209091 113.424545,27.3190909 L113.424545,31.6636364 Z M130.017273,34.6336364 C127.611818,34.6336364 125.795455,33.4309091 125.132727,31.3690909 C124.862727,30.5345455 124.74,29.7490909 124.74,28.4481818 C124.74,27.1472727 124.862727,26.3618182 125.132727,25.5272727 C125.795455,23.4654545 127.611818,22.2627273 130.017273,22.2627273 C132.398182,22.2627273 134.214545,23.4654545 134.877273,25.5272727 C135.147273,26.3618182 135.27,27.1472727 135.27,28.4481818 C135.27,29.7490909 135.147273,30.5345455 134.877273,31.3690909 C134.214545,33.4309091 132.398182,34.6336364 130.017273,34.6336364 Z M130.017273,32.1790909 C131.121818,32.1790909 131.882727,31.6145455 132.226364,30.6327273 C132.422727,30.0190909 132.471818,29.4545455 132.471818,28.4481818 C132.471818,27.4418182 132.422727,26.9018182 132.226364,26.2636364 C131.882727,25.2818182 131.121818,24.7172727 130.017273,24.7172727 C128.912727,24.7172727 128.127273,25.2818182 127.783636,26.2636364 C127.587273,26.9018182 127.538182,27.4418182 127.538182,28.4481818 C127.538182,29.4545455 127.587273,30.0190909 127.783636,30.6327273 C128.127273,31.6145455 128.912727,32.1790909 130.017273,32.1790909 Z M142.854545,34.6336364 C140.449091,34.6336364 138.632727,33.4309091 137.97,31.3690909 C137.7,30.5345455 137.577273,29.7490909 137.577273,28.4481818 C137.577273,27.1472727 137.7,26.3618182 137.97,25.5272727 C138.632727,23.4654545 140.449091,22.2627273 142.854545,22.2627273 C145.235455,22.2627273 147.051818,23.4654545 147.714545,25.5272727 C147.984545,26.3618182 148.107273,27.1472727 148.107273,28.4481818 C148.107273,29.7490909 147.984545,30.5345455 147.714545,31.3690909 C147.051818,33.4309091 145.235455,34.6336364 142.854545,34.6336364 Z M142.854545,32.1790909 C143.959091,32.1790909 144.72,31.6145455 145.063636,30.6327273 C145.26,30.0190909 145.309091,29.4545455 145.309091,28.4481818 C145.309091,27.4418182 145.26,26.9018182 145.063636,26.2636364 C144.72,25.2818182 143.959091,24.7172727 142.854545,24.7172727 C141.75,24.7172727 140.964545,25.2818182 140.620909,26.2636364 C140.424545,26.9018182 140.375455,27.4418182 140.375455,28.4481818 C140.375455,29.4545455 140.424545,30.0190909 140.620909,30.6327273 C140.964545,31.6145455 141.75,32.1790909 142.854545,32.1790909 Z M161.361818,34.3636364 L158.784545,34.3636364 C158.612727,34.3636364 158.49,34.29 158.391818,34.1181818 L155.397273,29.16 L153.801818,31.0009091 L153.801818,34.1181818 C153.801818,34.2654545 153.703636,34.3636364 153.556364,34.3636364 L151.298182,34.3636364 C151.150909,34.3636364 151.052727,34.2654545 151.052727,34.1181818 L151.052727,17.9181818 C151.052727,17.7709091 151.150909,17.6727273 151.298182,17.6727273 L153.556364,17.6727273 C153.703636,17.6727273 153.801818,17.7709091 153.801818,17.9181818 L153.801818,27.54 L157.851818,22.7781818 C157.999091,22.6063636 158.121818,22.5327273 158.318182,22.5327273 L160.821818,22.5327273 C160.969091,22.5327273 161.018182,22.68 160.92,22.7781818 L157.164545,27.0981818 L161.484545,34.1181818 C161.558182,34.2163636 161.509091,34.3636364 161.361818,34.3636364 Z M169.707273,34.1181818 L169.707273,17.9181818 C169.707273,17.7709091 169.805455,17.6727273 169.952727,17.6727273 L172.210909,17.6727273 C172.407273,17.6727273 172.53,17.7463636 172.628182,17.9181818 L179.427273,29.43 L179.525455,29.43 L179.525455,17.9181818 C179.525455,17.7709091 179.623636,17.6727273 179.770909,17.6727273 L181.906364,17.6727273 C182.053636,17.6727273 182.151818,17.7709091 182.151818,17.9181818 L182.151818,34.1181818 C182.151818,34.2654545 182.053636,34.3636364 181.906364,34.3636364 L179.672727,34.3636364 C179.476364,34.3636364 179.353636,34.29 179.255455,34.1181818 L172.431818,22.6309091 L172.333636,22.6309091 L172.333636,34.1181818 C172.333636,34.2654545 172.235455,34.3636364 172.088182,34.3636364 L169.952727,34.3636364 C169.805455,34.3636364 169.707273,34.2654545 169.707273,34.1181818 Z M190.423636,34.6336364 C188.018182,34.6336364 186.201818,33.4309091 185.539091,31.3690909 C185.269091,30.5345455 185.146364,29.7490909 185.146364,28.4481818 C185.146364,27.1472727 185.269091,26.3618182 185.539091,25.5272727 C186.201818,23.4654545 188.018182,22.2627273 190.423636,22.2627273 C192.804545,22.2627273 194.620909,23.4654545 195.283636,25.5272727 C195.553636,26.3618182 195.676364,27.1472727 195.676364,28.4481818 C195.676364,29.7490909 195.553636,30.5345455 195.283636,31.3690909 C194.620909,33.4309091 192.804545,34.6336364 190.423636,34.6336364 Z M190.423636,32.1790909 C191.528182,32.1790909 192.289091,31.6145455 192.632727,30.6327273 C192.829091,30.0190909 192.878182,29.4545455 192.878182,28.4481818 C192.878182,27.4418182 192.829091,26.9018182 192.632727,26.2636364 C192.289091,25.2818182 191.528182,24.7172727 190.423636,24.7172727 C189.319091,24.7172727 188.533636,25.2818182 188.19,26.2636364 C187.993636,26.9018182 187.944545,27.4418182 187.944545,28.4481818 C187.944545,29.4545455 187.993636,30.0190909 188.19,30.6327273 C188.533636,31.6145455 189.319091,32.1790909 190.423636,32.1790909 Z M210.698182,34.3636364 L208.685455,34.3636364 C208.538182,34.3636364 208.44,34.2654545 208.390909,34.1181818 L206.108182,26.5581818 L206.059091,26.5581818 L203.751818,34.1181818 C203.702727,34.2654545 203.604545,34.3636364 203.457273,34.3636364 L201.444545,34.3636364 C201.297273,34.3636364 201.199091,34.2654545 201.15,34.1181818 L197.419091,22.7781818 C197.37,22.6309091 197.443636,22.5327273 197.590909,22.5327273 L199.947273,22.5327273 C200.119091,22.5327273 200.217273,22.6063636 200.266364,22.7781818 L202.549091,30.5836364 L202.598182,30.5836364 L204.856364,22.7781818 C204.905455,22.6309091 205.028182,22.5327273 205.175455,22.5327273 L206.942727,22.5327273 C207.09,22.5327273 207.212727,22.6309091 207.261818,22.7781818 L209.667273,30.5836364 L209.716364,30.5836364 L211.876364,22.7781818 C211.925455,22.6063636 212.023636,22.5327273 212.195455,22.5327273 L214.551818,22.5327273 C214.699091,22.5327273 214.772727,22.6309091 214.723636,22.7781818 L210.992727,34.1181818 C210.943636,34.2654545 210.845455,34.3636364 210.698182,34.3636364 Z" id="BookNow" fill="#F7F7F7" fill-rule="nonzero"></path>
                </g>
            </g>
        </g>
    </g>
</svg>