<?xml version="1.0" encoding="UTF-8"?>
<svg width="1400px" height="1048px" viewBox="0 0 1400 1048" version="1.1" xmlns="http://www.w3.org/2000/svg" xmlns:xlink="http://www.w3.org/1999/xlink">
    <!-- Generator: Sketch 53.2 (72643) - https://sketchapp.com -->
    <title>Clouds Background Request Demo Page</title>
    <desc>Created with Sketch.</desc>
    <defs>
        <path d="M-1.8189894e-12,2.49517209 C-1.8189894e-12,1.1171266 1.11151935,0 2.4994178,0 L1397.50058,0 C1398.88097,0 1400,1.12564914 1400,2.49517209 L1400,1045.50483 C1400,1046.88287 1398.88848,1048 1397.50058,1048 L2.4994178,1048 C1.11902746,1048 -1.8189894e-12,1046.87435 -1.8189894e-12,1045.50483 L-1.8189894e-12,2.49517209 Z" id="path-1"></path>
        <linearGradient x1="57.556963%" y1="29.624104%" x2="57.556963%" y2="100%" id="linearGradient-3">
            <stop stop-color="#FDFDFD" stop-opacity="1.11962011" offset="0%"></stop>
            <stop stop-color="#FFFFFF" stop-opacity="0" offset="100%"></stop>
        </linearGradient>
        <linearGradient x1="57.556963%" y1="29.624104%" x2="57.556963%" y2="100%" id="linearGradient-4">
            <stop stop-color="#FDFDFD" stop-opacity="1.11962011" offset="0%"></stop>
            <stop stop-color="#FFFFFF" stop-opacity="0" offset="100%"></stop>
        </linearGradient>
        <linearGradient x1="57.556963%" y1="29.624104%" x2="57.556963%" y2="100%" id="linearGradient-5">
            <stop stop-color="#FDFDFD" stop-opacity="1.11962011" offset="0%"></stop>
            <stop stop-color="#FFFFFF" stop-opacity="0" offset="100%"></stop>
        </linearGradient>
        <linearGradient x1="57.556963%" y1="29.624104%" x2="57.556963%" y2="100%" id="linearGradient-6">
            <stop stop-color="#FDFDFD" stop-opacity="1.11962011" offset="0%"></stop>
            <stop stop-color="#FFFFFF" stop-opacity="0" offset="100%"></stop>
        </linearGradient>
        <linearGradient x1="57.556963%" y1="29.624104%" x2="57.556963%" y2="100%" id="linearGradient-7">
            <stop stop-color="#FDFDFD" stop-opacity="1.11962011" offset="0%"></stop>
            <stop stop-color="#FFFFFF" stop-opacity="0" offset="100%"></stop>
        </linearGradient>
        <linearGradient x1="50%" y1="-2.32189756%" x2="50%" y2="100%" id="linearGradient-8">
            <stop stop-color="#FFFFFF" stop-opacity="1.02321898" offset="0%"></stop>
            <stop stop-color="#FFFFFF" offset="0%"></stop>
            <stop stop-color="#FFFFFF" stop-opacity="0" offset="100%"></stop>
        </linearGradient>
    </defs>
    <g id="Marketing-Website-V0.7" stroke="none" stroke-width="1" fill="none" fill-rule="evenodd">
        <g id="Request-Demo-Form-Filled">
            <g id="Request-Demo-Form">
                <g id="Background">
                    <g id="Clouds-Background-Request-Demo-Page">
                        <mask id="mask-2" fill="white">
                            <use xlink:href="#path-1"></use>
                        </mask>
                        <use id="Mask" fill="#DAEFF4" opacity="0.5" xlink:href="#path-1"></use>
                        <path d="M1203.46089,771.824092 C1188.20119,753.018832 1164.87367,740.991835 1138.72434,740.991835 C1128.94681,740.991835 1119.56688,742.678885 1110.85084,745.7668 C1088.05106,717.840887 1053.30738,700 1014.38039,700 C921.169107,700 890.150892,824 828,824 L1355,824 C1304.2484,824 1276.33152,768.660422 1221.96169,768.660422 C1215.47346,768.660422 1209.24909,769.783519 1203.46089,771.824092" id="Fill-1-Copy-6" fill="url(#linearGradient-3)" opacity="0.861124067" mask="url(#mask-2)"></path>
                        <path d="M254.922876,934.371987 C246.907897,934.371987 239.218849,935.827748 232.074011,938.49232 C213.384244,914.394959 184.903658,899 152.993865,899 C76.5853796,899 51.1586836,1006 0.211462451,1006 L432.211462,1006 C390.608631,1006 367.72421,958.247299 323.155391,958.247299 C317.836763,958.247299 312.734436,959.216423 307.989647,960.977241 C295.480748,944.750121 276.358379,934.371987 254.922876,934.371987 Z" id="Fill-1-Copy-10" fill="url(#linearGradient-4)" mask="url(#mask-2)"></path>
                        <path d="M71.1871332,615.586897 C82.5429674,615.586897 93.4370116,617.627684 103.560007,621.363065 C130.040161,587.581719 170.392204,566 215.602837,566 C323.86039,566 359.885602,716 432.068966,716 L-180,716 C-121.056014,716 -88.6327636,649.056962 -25.4864893,649.056962 C-17.9509173,649.056962 -10.7218058,650.415547 -3.99926397,652.883982 C13.7236737,630.135684 40.8167489,615.586897 71.1871332,615.586897 Z" id="Fill-1-Copy-8" fill="url(#linearGradient-5)" mask="url(#mask-2)"></path>
                        <path d="M1272.68854,883.7604 C1279.27492,883.7604 1285.59347,884.944057 1291.4648,887.110578 C1306.82329,867.517397 1330.22748,855 1356.44965,855 C1419.23903,855 1440.13365,942 1482,942 L1127,942 C1161.18751,942 1179.993,903.173038 1216.61784,903.173038 C1220.98847,903.173038 1225.18135,903.961017 1229.08043,905.39271 C1239.35973,892.198697 1255.07371,883.7604 1272.68854,883.7604 Z" id="Fill-1-Copy-8" fill="url(#linearGradient-6)" mask="url(#mask-2)"></path>
                        <path d="M675.665171,852.7604 C682.56696,852.7604 689.188083,853.944057 695.340583,856.110578 C711.434549,836.517397 735.959498,824 763.437375,824 C829.233571,824 851.128782,911 895,911 L523,911 C558.82466,911 578.53069,872.173038 616.909395,872.173038 C621.489324,872.173038 625.882995,872.961017 629.968785,874.39271 C640.740338,861.198697 657.206822,852.7604 675.665171,852.7604 Z" id="Fill-1-Copy-8" fill="url(#linearGradient-7)" mask="url(#mask-2)" transform="translate(709.000000, 867.500000) scale(-1, 1) translate(-709.000000, -867.500000) "></path>
                        <path d="M1223.10834,502.179671 C1213.55293,490.350556 1198.94556,482.785186 1182.57122,482.785186 C1176.44866,482.785186 1170.57509,483.846396 1165.11722,485.788794 C1150.84032,468.222494 1129.08432,457 1104.70878,457 C1046.34119,457 1026.91802,535 988,535 L1318,535 C1286.22006,535 1268.7389,500.18962 1234.69328,500.18962 C1230.63044,500.18962 1226.73283,500.896084 1223.10834,502.179671" id="Fill-1-Copy-7" fill="url(#linearGradient-8)" opacity="0.831331623" mask="url(#mask-2)" transform="translate(1153.000000, 496.000000) scale(-1, 1) translate(-1153.000000, -496.000000) "></path>
                    </g>
                </g>
            </g>
        </g>
    </g>
</svg>