<?xml version="1.0" encoding="UTF-8"?>
<svg width="2560px" height="744px" viewBox="0 0 2560 744" version="1.1" xmlns="http://www.w3.org/2000/svg" xmlns:xlink="http://www.w3.org/1999/xlink">
    <!-- Generator: Sketch 53.2 (72643) - https://sketchapp.com -->
    <title>Background Image</title>
    <desc>Created with Sketch.</desc>
    <defs>
        <linearGradient x1="50%" y1="100%" x2="50%" y2="0%" id="linearGradient-1">
            <stop stop-color="#DAEFF4" offset="0%"></stop>
            <stop stop-color="#A9DCE5" offset="100%"></stop>
        </linearGradient>
        <rect id="path-2" x="0" y="0" width="2560" height="744"></rect>
        <radialGradient cx="50%" cy="48.2558384%" fx="50%" fy="48.2558384%" r="172.043011%" gradientTransform="translate(0.500000,0.482558),scale(0.290625,1.000000),scale(1.000000,1.333568),translate(-0.500000,-0.482558)" id="radialGradient-4">
            <stop stop-color="#FFFFFF" stop-opacity="0" offset="0%"></stop>
            <stop stop-color="#FFFFFF" stop-opacity="0.49571132" offset="100%"></stop>
        </radialGradient>
        <linearGradient x1="50%" y1="12.6497169%" x2="50%" y2="100%" id="linearGradient-5">
            <stop stop-color="#85CDDB" offset="0%"></stop>
            <stop stop-color="#DAEFF4" stop-opacity="0" offset="100%"></stop>
        </linearGradient>
        <linearGradient x1="50%" y1="0%" x2="50%" y2="100%" id="linearGradient-6">
            <stop stop-color="#85CDDB" offset="0%"></stop>
            <stop stop-color="#DAEFF4" stop-opacity="0" offset="100%"></stop>
        </linearGradient>
        <linearGradient x1="50%" y1="0%" x2="50%" y2="100%" id="linearGradient-7">
            <stop stop-color="#85CDDB" offset="0%"></stop>
            <stop stop-color="#DAEFF4" stop-opacity="0" offset="100%"></stop>
        </linearGradient>
        <linearGradient x1="47.9831576%" y1="17.0724742%" x2="47.9831576%" y2="92.2422077%" id="linearGradient-8">
            <stop stop-color="#FFFFFF" offset="0%"></stop>
            <stop stop-color="#FFFFFF" stop-opacity="0" offset="100%"></stop>
        </linearGradient>
        <linearGradient x1="47.9831576%" y1="16.4745399%" x2="47.9831576%" y2="92.2422077%" id="linearGradient-9">
            <stop stop-color="#FFFFFF" offset="0.789168074%"></stop>
            <stop stop-color="#FFFFFF" stop-opacity="0" offset="100%"></stop>
        </linearGradient>
        <linearGradient x1="47.9831576%" y1="16.4745399%" x2="47.9831576%" y2="92.2422077%" id="linearGradient-10">
            <stop stop-color="#FFFFFF" offset="0.789168074%"></stop>
            <stop stop-color="#FFFFFF" stop-opacity="0" offset="100%"></stop>
        </linearGradient>
        <linearGradient x1="47.9831576%" y1="16.4745399%" x2="47.9831576%" y2="92.2422077%" id="linearGradient-11">
            <stop stop-color="#FFFFFF" offset="0.789168074%"></stop>
            <stop stop-color="#FFFFFF" stop-opacity="0" offset="100%"></stop>
        </linearGradient>
        <linearGradient x1="47.9831576%" y1="16.4745399%" x2="47.9831576%" y2="92.2422077%" id="linearGradient-12">
            <stop stop-color="#FFFFFF" offset="0.789168074%"></stop>
            <stop stop-color="#FFFFFF" stop-opacity="0" offset="100%"></stop>
        </linearGradient>
        <linearGradient x1="47.9831576%" y1="16.4745399%" x2="47.9831576%" y2="92.2422077%" id="linearGradient-13">
            <stop stop-color="#FFFFFF" offset="0.789168074%"></stop>
            <stop stop-color="#FFFFFF" stop-opacity="0" offset="100%"></stop>
        </linearGradient>
        <linearGradient x1="47.9831576%" y1="16.4745399%" x2="47.9831576%" y2="92.2422077%" id="linearGradient-14">
            <stop stop-color="#FFFFFF" offset="0.789168074%"></stop>
            <stop stop-color="#FFFFFF" stop-opacity="0" offset="100%"></stop>
        </linearGradient>
    </defs>
    <g id="Page-1" stroke="none" stroke-width="1" fill="none" fill-rule="evenodd">
        <g id="Desktop-1400px-Agencies-&amp;-TMCs-Copy-2">
            <g id="Hero">
                <g id="Background-Image">
                    <mask id="mask-3" fill="white">
                        <use xlink:href="#path-2"></use>
                    </mask>
                    <use id="Rectangle-2" fill="url(#linearGradient-1)" opacity="0.408990205" xlink:href="#path-2"></use>
                    <rect id="Rectangle-5" fill="url(#radialGradient-4)" mask="url(#mask-3)" x="0" y="0" width="2560" height="744"></rect>
                    <g id="Clouds" mask="url(#mask-3)">
                        <g transform="translate(362.000000, 240.000000)">
                            <g id="Blue-Clouds" opacity="0.4" transform="translate(622.000000, 0.000000)">
                                <path d="M512.731809,139.015625 C519.305613,126.459375 522.592516,113.00625 522.592516,99.553125 C522.592516,44.84375 467.810811,0 400.977131,0 C342.908524,0 294.700624,33.184375 282.648649,78.028125 C266.214137,61.884375 242.110187,51.121875 213.623701,51.121875 C164.320166,51.121875 124.877339,83.409375 124.877339,123.76875 C124.877339,130.046875 125.972973,137.221875 128.164241,143.5 C94.1995842,153.365625 69,181.16875 69,213.45625 L596,212.559375 C594.904366,174.890625 558.748441,142.603125 512.731809,139.015625 Z" id="Blue-Cloud-1" fill="url(#linearGradient-5)"></path>
                                <path d="M675.230769,239.90625 C678.923077,231.24375 680.769231,221.9625 680.769231,212.68125 C680.769231,174.9375 650,144 612.461538,144 C579.846154,144 552.769231,166.89375 546,197.83125 C536.769231,186.69375 523.230769,179.26875 507.230769,179.26875 C479.538462,179.26875 457.384615,201.54375 457.384615,229.3875 C457.384615,233.71875 458,238.66875 459.230769,243 C440.153846,249.80625 426,268.9875 426,291.2625 L722,290.64375 C721.384615,264.65625 701.076923,242.38125 675.230769,239.90625 Z" id="Blue-Cloud-2" fill="url(#linearGradient-6)"></path>
                                <path d="M143.139293,261.21875 C145.259875,256.23125 146.320166,250.8875 146.320166,245.54375 C146.320166,223.8125 128.648649,206 107.089397,206 C88.3575884,206 72.8066528,219.18125 68.9189189,236.99375 C63.6174636,230.58125 55.8419958,226.30625 46.6528067,226.30625 C30.7484407,226.30625 18.024948,239.13125 18.024948,255.1625 C18.024948,257.65625 18.3783784,260.50625 19.0852391,263 C8.12889813,266.91875 0,277.9625 0,290.7875 L170,290.43125 C169.64657,275.46875 157.983368,262.64375 143.139293,261.21875 Z" id="Blue-Cloud-3" fill="url(#linearGradient-7)"></path>
                            </g>
                            <g id="White-Clouds" opacity="0.8" transform="translate(0.000000, 163.000000)">
                                <path d="M1049.42637,134.71492 C1035.87506,118.032835 1015.15916,107.363725 991.937365,107.363725 C983.25447,107.363725 974.924669,108.860301 967.184428,111.599581 C946.93718,86.8265937 916.083212,71 881.51427,71 C798.73841,71 771.192823,181 716,181 L1184,181 C1138.93027,181 1114.13881,131.908439 1065.85592,131.908439 C1060.09408,131.908439 1054.56655,132.904734 1049.42637,134.71492" id="White-Cloud-1" fill="url(#linearGradient-8)" opacity="0.561124"></path>
                                <path d="M1334.24942,190.824092 C1318.98973,172.018832 1295.66221,159.991835 1269.51288,159.991835 C1259.73534,159.991835 1250.35542,161.678885 1241.63938,164.7668 C1218.83959,136.840887 1184.09591,119 1145.16892,119 C1051.95764,119 1020.93943,243 958.788538,243 L1485.78854,243 C1435.03694,243 1407.12006,187.660422 1352.75023,187.660422 C1346.26199,187.660422 1340.03763,188.783519 1334.24942,190.824092" id="White-Cloud-2" fill="url(#linearGradient-9)" opacity="0.861124067"></path>
                                <path d="M235.896873,45.1796707 C226.341464,33.3505557 211.734099,25.7851865 195.359756,25.7851865 C189.237202,25.7851865 183.363625,26.8463955 177.905762,28.7887939 C163.628857,11.2224937 141.872853,-7.10542736e-15 117.497318,-7.10542736e-15 C59.1297243,-7.10542736e-15 39.7065537,78 0.788537549,78 L330.788538,78 C299.008597,78 281.527442,43.1896201 247.481817,43.1896201 C243.418976,43.1896201 239.521365,43.8960842 235.896873,45.1796707" id="White-Cloud-3" fill="url(#linearGradient-10)" opacity="0.831331623" transform="translate(165.788538, 39.000000) scale(-1, 1) translate(-165.788538, -39.000000) "></path>
                                <path d="M385.711414,182.239243 C377.696434,182.239243 370.007387,183.695004 362.862549,186.359576 C344.172781,162.262216 315.692195,146.867257 283.782403,146.867257 C207.373917,146.867257 181.947221,253.867257 131,253.867257 L563,253.867257 C521.397169,253.867257 498.512747,206.114556 453.943929,206.114556 C448.625301,206.114556 443.522974,207.08368 438.778185,208.844497 C426.269285,192.617378 407.146917,182.239243 385.711414,182.239243 Z" id="White-Cloud-4" fill="url(#linearGradient-11)"></path>
                                <path d="M1596.18713,121.586897 C1607.54297,121.586897 1618.43701,123.627684 1628.56001,127.363065 C1655.04016,93.5817187 1695.3922,72 1740.60284,72 C1848.86039,72 1884.8856,222 1957.06897,222 L1345,222 C1403.94399,222 1436.36724,155.056962 1499.51351,155.056962 C1507.04908,155.056962 1514.27819,156.415547 1521.00074,158.883982 C1538.72367,136.135684 1565.81675,121.586897 1596.18713,121.586897 Z" id="White-Cloud-5" fill="url(#linearGradient-12)"></path>
                                <path d="M1403.47707,302.7604 C1410.06346,302.7604 1416.382,303.944057 1422.25334,306.110578 C1437.61183,286.517397 1461.01602,274 1487.23818,274 C1550.02756,274 1570.92219,361 1612.78854,361 L1257.78854,361 C1291.97605,361 1310.78153,322.173038 1347.40637,322.173038 C1351.77701,322.173038 1355.96989,322.961017 1359.86896,324.39271 C1370.14827,311.198697 1385.86225,302.7604 1403.47707,302.7604 Z" id="White-Cloud-6" fill="url(#linearGradient-13)"></path>
                                <path d="M806.453709,271.7604 C813.355497,271.7604 819.976621,272.944057 826.129121,275.110578 C842.223087,255.517397 866.748036,243 894.225913,243 C960.022109,243 981.917319,330 1025.78854,330 L653.788538,330 C689.613198,330 709.319227,291.173038 747.697932,291.173038 C752.277862,291.173038 756.671532,291.961017 760.757323,293.39271 C771.528875,280.198697 787.995359,271.7604 806.453709,271.7604 Z" id="White-Cloud-7" fill="url(#linearGradient-14)" transform="translate(839.788538, 286.500000) scale(-1, 1) translate(-839.788538, -286.500000) "></path>
                            </g>
                        </g>
                    </g>
                </g>
            </g>
        </g>
    </g>
</svg>