<?xml version="1.0" encoding="UTF-8"?>
<svg width="106px" height="43px" viewBox="0 0 106 43" version="1.1" xmlns="http://www.w3.org/2000/svg" xmlns:xlink="http://www.w3.org/1999/xlink">
    <!-- Generator: Sketch 53.2 (72643) - https://sketchapp.com -->
    <title>HGB Logo Black</title>
    <desc>Created with Sketch.</desc>
    <g id="Marketing-Website-V0.7" stroke="none" stroke-width="1" fill="none" fill-rule="evenodd">
        <g id="Desktop-1400px-Airlines-Hotels-&amp;-OTAs-3" transform="translate(-70.000000, -3118.000000)" fill="#000000" fill-rule="nonzero">
            <g id="Footer" transform="translate(0.000000, 3098.000000)">
                <g id="Logo-&amp;-Registered-Symbol" transform="translate(70.000000, 20.000000)">
                    <g id="HGB-Logo-Black">
                        <g id="Shape" transform="translate(0.000000, 12.000000)">
                            <polygon id="Path" points="0.0161886792 0.41044 3.41518868 0.41044 3.41518868 10.53163 7.6139717 10.53163 7.6139717 0.41044 11.013283 0.41044 11.013283 24.03771 7.6139717 24.03771 7.6139717 13.51817 3.41518868 13.51817 3.41518868 24.03771 0.0161886792 24.03771"></polygon>
                            <path d="M16.4788302,16.90213 L16.4788302,19.19272 C16.4788302,19.72344 16.6291981,20.13295 16.9286887,20.42001 C17.2288019,20.708 17.6338302,20.85184 18.1450189,20.85184 C18.7894528,20.85184 19.2168962,20.6646 19.4279717,20.28826 C19.6390472,19.91192 19.7666887,19.5362 19.8115189,19.15986 L23.2105189,19.15986 C23.2105189,19.86852 23.0937736,20.53192 22.8609057,21.1513 C22.6274151,21.77068 22.2886981,22.3014 21.8441321,22.74377 C21.399566,23.20877 20.8659623,23.57395 20.244566,23.839 C19.6225472,24.10436 18.9223868,24.23704 18.1450189,24.23704 C17.1005377,24.23704 16.2011321,24.01601 15.4458679,23.57364 C14.6902925,23.13127 14.1127925,22.54506 13.7130566,21.8147 C13.4680472,21.3714 13.3014906,20.86331 13.2130755,20.28795 C13.1237264,19.7129 13.0795189,19.08236 13.0795189,18.39633 L13.0795189,12.85384 C13.0795189,12.16843 13.1240377,11.5382 13.2130755,10.96222 C13.3014906,10.38717 13.4680472,9.87877 13.7130566,9.43578 C14.1127925,8.70573 14.6902925,8.12014 15.4458679,7.67684 C16.2011321,7.23416 17.1002264,7.01313 18.1450189,7.01313 C18.9223868,7.01313 19.6278396,7.14581 20.2613774,7.41117 C20.8942925,7.67653 21.4282075,8.04729 21.8609434,8.52345 C22.2943019,8.99868 22.6274151,9.55761 22.8609057,10.19838 C23.0937736,10.84008 23.2105189,11.52611 23.2105189,12.25585 L23.2105189,16.90151 L16.4788302,16.90151 L16.4788302,16.90213 Z M16.4788302,14.24853 L19.8115189,14.24853 L19.8115189,12.32312 C19.8115189,11.68142 19.6617736,11.20123 19.3616604,10.88038 C19.0618585,10.55953 18.6562075,10.39864 18.1450189,10.39864 C17.6338302,10.39864 17.2288019,10.55953 16.9286887,10.88038 C16.6291981,11.20123 16.4788302,11.68142 16.4788302,12.32312 L16.4788302,14.24853 L16.4788302,14.24853 Z"></path>
                            <path d="M25.5096226,0.41044 L28.908934,0.41044 L28.908934,19.29254 C28.908934,19.93424 29.0253679,20.37103 29.2588585,20.60353 C29.4920377,20.8351 29.9306887,20.98483 30.5751226,21.05117 L30.5751226,24.23673 C29.7974434,24.23673 29.0923019,24.17566 28.4590755,24.05414 C27.8258491,23.93262 27.2922453,23.70105 26.8591981,23.35788 C26.4261509,23.0144 26.0927264,22.53359 25.8592358,21.91421 C25.6260566,21.29483 25.5096226,20.49813 25.5096226,19.52411 L25.5096226,0.41044 L25.5096226,0.41044 Z" id="Path"></path>
                            <path d="M32.0806698,0.41044 L35.4799811,0.41044 L35.4799811,19.29254 C35.4799811,19.93424 35.5964151,20.37103 35.8305283,20.60353 C36.0633962,20.8351 36.5017358,20.98483 37.1464811,21.05117 L37.1464811,24.23673 C36.3688019,24.23673 35.6636604,24.17566 35.0301226,24.05414 C34.3968962,23.93262 33.8639151,23.70105 33.4305566,23.35788 C32.9971981,23.0144 32.6647075,22.53359 32.431217,21.91421 C32.1974151,21.29483 32.0806698,20.49813 32.0806698,19.52411 L32.0806698,0.41044 L32.0806698,0.41044 Z" id="Path"></path>
                            <path d="M38.5530283,12.85415 C38.5530283,12.16874 38.5966132,11.53851 38.6859623,10.96253 C38.7743774,10.38748 38.9406226,9.87908 39.1856321,9.43609 C39.5863019,8.70604 40.1638019,8.12045 40.9187547,7.67715 C41.6740189,7.23447 42.5737358,7.01344 43.618217,7.01344 C44.6617642,7.01344 45.5614811,7.23447 46.3176792,7.67715 C47.0720094,8.12045 47.6501321,8.70573 48.0508019,9.43609 C48.294566,9.87908 48.4611226,10.38717 48.5498491,10.96253 C48.6388868,11.5382 48.6830943,12.16874 48.6830943,12.85415 L48.6830943,18.39664 C48.6830943,19.08267 48.6385755,19.71321 48.5498491,20.28826 C48.4611226,20.86331 48.294566,21.37171 48.0508019,21.81501 C47.6501321,22.54506 47.0716981,23.13158 46.3176792,23.57395 C45.5611698,24.01632 44.6617642,24.23735 43.618217,24.23735 C42.5737358,24.23735 41.6737075,24.01632 40.9187547,23.57395 C40.1638019,23.13158 39.5863019,22.54537 39.1856321,21.81501 C38.940934,21.37171 38.7743774,20.86362 38.6859623,20.28826 C38.5966132,19.71321 38.5530283,19.08267 38.5530283,18.39664 L38.5530283,12.85415 L38.5530283,12.85415 Z M41.951717,18.92736 C41.951717,19.56906 42.1017736,20.05018 42.4015755,20.37103 C42.701066,20.69188 43.106717,20.85184 43.618217,20.85184 C44.1290943,20.85184 44.534434,20.69188 44.8342358,20.37103 C45.1346604,20.05018 45.2840943,19.56906 45.2840943,18.92736 L45.2840943,12.32312 C45.2840943,11.68142 45.1346604,11.20123 44.8342358,10.88038 C44.5347453,10.55953 44.1290943,10.39864 43.618217,10.39864 C43.106717,10.39864 42.701066,10.55953 42.4015755,10.88038 C42.1020849,11.20123 41.951717,11.68142 41.951717,12.32312 L41.951717,18.92736 L41.951717,18.92736 Z"></path>
                            <path d="M50.9632075,5.98517 C50.9632075,5.03471 51.1294528,4.19337 51.462566,3.46301 C51.7959906,2.73296 52.2343302,2.13032 52.7788302,1.65447 C53.3233302,1.17924 53.9338302,0.81964 54.6115755,0.57598 C55.2896321,0.33325 55.9723585,0.2108 56.661,0.2108 C57.3499528,0.2108 58.0333019,0.33325 58.7113585,0.57598 C59.3887925,0.81964 59.9996038,1.17924 60.5441038,1.65447 C61.0879811,2.13063 61.5269434,2.73296 61.8603679,3.46301 C62.1928585,4.19306 62.3603491,5.0344 62.3603491,5.98517 L62.3603491,7.18022 L58.9610377,7.18022 L58.9610377,5.98517 C58.9610377,5.16708 58.7331509,4.56413 58.2783113,4.17663 C57.8228491,3.78975 57.2833302,3.596 56.6613113,3.596 C56.0392925,3.596 55.5007075,3.78975 55.0452453,4.17663 C54.5894717,4.56413 54.3622075,5.16739 54.3622075,5.98517 L54.3622075,18.46267 C54.3622075,19.28231 54.5894717,19.88464 55.0452453,20.27121 C55.5007075,20.65902 56.0389811,20.85184 56.6613113,20.85184 C57.2833302,20.85184 57.8228491,20.65902 58.2783113,20.27121 C58.7331509,19.88464 58.9610377,19.28231 58.9610377,18.46267 L58.9610377,14.01603 L56.2615755,14.01603 L56.2615755,11.02918 L62.3603491,11.02918 L62.3603491,18.46267 C62.3603491,19.43669 62.1931698,20.2833 61.8603679,21.00157 C61.5269434,21.72046 61.0879811,22.31814 60.5441038,22.79337 C59.9996038,23.26953 59.3887925,23.62882 58.7113585,23.87186 C58.0333019,24.11552 57.3499528,24.23704 56.661,24.23704 C55.9723585,24.23704 55.2896321,24.11552 54.6115755,23.87186 C53.9338302,23.62913 53.3233302,23.26984 52.7788302,22.79337 C52.2343302,22.31814 51.7959906,21.72046 51.462566,21.00157 C51.1297642,20.2833 50.9632075,19.43638 50.9632075,18.46267 L50.9632075,5.98517 L50.9632075,5.98517 Z" id="Path"></path>
                            <path d="M64.7600094,0.41044 L68.1590094,0.41044 L68.1590094,8.73983 L68.2256321,8.73983 C68.6032642,8.18741 69.0531226,7.76023 69.5748962,7.46201 C70.0972925,7.16348 70.6919151,7.01406 71.3581415,7.01406 C72.179717,7.01406 72.8188585,7.15821 73.2743208,7.44589 C73.7294717,7.73326 74.102434,8.09813 74.390717,8.5405 C74.613,8.89545 74.7574528,9.35921 74.8237642,9.93426 C74.8910094,10.50993 74.9243208,11.40583 74.9243208,12.62196 L74.9243208,19.02656 C74.9243208,19.95625 74.8788679,20.69777 74.7904528,21.25019 C74.7017264,21.80385 74.5578962,22.26854 74.3574057,22.64426 C73.779283,23.70663 72.7908396,24.23735 71.3911415,24.23735 C70.5471509,24.23735 69.902717,24.07181 69.4587736,23.7398 C69.0142075,23.40841 68.5808491,22.9989 68.1590094,22.51158 L68.1590094,24.03833 L64.7600094,24.03833 L64.7600094,0.41044 L64.7600094,0.41044 Z M71.5240755,12.38977 C71.5240755,11.85936 71.4076415,11.39436 71.1744623,10.99632 C70.9409717,10.59766 70.5026321,10.39864 69.8578868,10.39864 C69.3694245,10.39864 68.9634623,10.57007 68.6421792,10.91355 C68.3193396,11.25579 68.1586981,11.69351 68.1586981,12.22423 L68.1586981,18.76151 C68.1586981,19.38089 68.3137358,19.88433 68.6247453,20.2709 C68.936066,20.65871 69.3463868,20.85153 69.8578868,20.85153 C70.4350755,20.85153 70.8578491,20.64166 71.1246509,20.2213 C71.3908302,19.80156 71.5237642,19.2479 71.5237642,18.56218 L71.5237642,12.38977 L71.5240755,12.38977 Z"></path>
                            <path d="M79.6554623,7.21339 L81.9881887,17.69945 L82.0551226,17.69945 L84.3545377,7.21339 L87.8534717,7.21339 L82.9887736,26.95853 C82.8097642,27.70966 82.5600849,28.33524 82.2378679,28.8331 C81.9162736,29.33096 81.543934,29.72931 81.121783,30.02815 C80.6996321,30.32637 80.2497736,30.53655 79.7725189,30.65776 C79.2946415,30.77928 78.7999528,30.84035 78.2887642,30.84035 L77.3557358,30.84035 L77.3557358,27.65479 L78.1225189,27.65479 C78.4553208,27.65479 78.7445377,27.60984 78.9889245,27.52211 C79.233,27.43376 79.4493679,27.24001 79.6392736,26.94148 C79.8273113,26.64233 80.0000943,26.19996 80.1551321,25.61375 C80.3101698,25.02754 80.487934,24.24758 80.6884245,23.27511 L76.0565943,7.21339 L79.6554623,7.21339 L79.6554623,7.21339 Z" id="Path"></path>
                            <path d="M92.0858774,16.90213 L92.0858774,19.19272 C92.0858774,19.72344 92.235934,20.13295 92.5357358,20.42001 C92.8355377,20.708 93.2408774,20.85184 93.752066,20.85184 C94.395566,20.85184 94.8226981,20.6646 95.0343962,20.28826 C95.245783,19.91192 95.3734245,19.5362 95.4176321,19.15986 L98.8172547,19.15986 C98.8172547,19.86852 98.7001981,20.53192 98.4667075,21.1513 C98.2341509,21.77068 97.8945,22.3014 97.4508679,22.74377 C97.0056792,23.20877 96.4723868,23.57395 95.8506792,23.839 C95.2286604,24.10436 94.5285,24.23704 93.7517547,24.23704 C92.7075849,24.23704 91.806934,24.01601 91.0526038,23.57364 C90.2960943,23.13127 89.719217,22.54506 89.3194811,21.8147 C89.074783,21.3714 88.9076038,20.86331 88.8191887,20.28795 C88.7304623,19.7129 88.6859434,19.08236 88.6859434,18.39633 L88.6859434,12.85384 C88.6859434,12.16843 88.7304623,11.5382 88.8191887,10.96222 C88.9072925,10.38717 89.0744717,9.87877 89.3194811,9.43578 C89.719217,8.70573 90.2964057,8.12014 91.0526038,7.67684 C91.806934,7.23416 92.7072736,7.01313 93.7517547,7.01313 C94.5285,7.01313 95.2345755,7.14581 95.8681132,7.41117 C96.500717,7.67653 97.0343208,8.04729 97.4670566,8.52345 C97.9004151,8.99868 98.2341509,9.55761 98.4667075,10.19838 C98.7001981,10.84008 98.8172547,11.52611 98.8172547,12.25585 L98.8172547,16.90151 L92.0858774,16.90151 L92.0858774,16.90213 Z M92.0858774,14.24853 L95.4179434,14.24853 L95.4179434,12.32312 C95.4179434,11.68142 95.2681981,11.20123 94.9683962,10.88038 C94.668283,10.55953 94.2626321,10.39864 93.7523774,10.39864 C93.2408774,10.39864 92.8358491,10.55953 92.5360472,10.88038 C92.2362453,11.20123 92.0861887,11.68142 92.0861887,12.32312 L92.0861887,14.24853 L92.0858774,14.24853 Z"></path>
                        </g>
                        <path d="M106,3.76363167 C106,2.7852505 105.211478,1.9921973 104.238615,1.9921973 L100.540237,1.9921973 L100.540237,1.28130303 C100.540237,0.575739689 99.9684966,0 99.2657517,0 L96.7810356,0 C96.0782907,0 95.5059264,0.575739689 95.5059264,1.28130303 L95.5059264,1.9921973 L91.7616968,1.9921973 C90.7891454,1.9921973 90,2.7852505 90,3.76363167 L90,11.4796724 C90,12.4574264 90.7888334,13.2514203 91.7616968,13.2514203 L101.398628,13.2514203 L100.478478,17 L105.344042,12.8581864 C105.369308,12.8362355 105.392701,12.8152254 105.417031,12.7939017 L105.460387,12.753763 C105.800374,12.4458238 106,11.980152 106,11.4793588 L106,3.76363167 L106,3.76363167 Z M96.5034311,1.28098945 C96.5034311,1.12733343 96.6281971,1.00378145 96.7810356,1.00378145 L99.2657517,1.00378145 C99.4182782,1.00378145 99.5421085,1.12733343 99.5421085,1.28098945 L99.5421085,1.99188372 L96.503743,1.99188372 L96.503743,1.28098945 L96.5034311,1.28098945 Z" id="Shape"></path>
                    </g>
                </g>
            </g>
        </g>
    </g>
</svg>