<?xml version="1.0" encoding="UTF-8"?>
<svg width="144px" height="123px" viewBox="0 0 144 123" version="1.1" xmlns="http://www.w3.org/2000/svg" xmlns:xlink="http://www.w3.org/1999/xlink">
    <!-- Generator: Sketch 53 (72520) - https://sketchapp.com -->
    <title>Icon Customer Service</title>
    <desc>Created with Sketch.</desc>
    <g id="Marketing-Website-V0.7" stroke="none" stroke-width="1" fill="none" fill-rule="evenodd">
        <g id="Desktop-1400px-Agencies-&amp;-TMCs" transform="translate(-202.000000, -883.000000)">
            <g id="Section-1" transform="translate(110.000000, 767.000000)">
                <g id="Callout-1" transform="translate(0.000000, 118.000000)">
                    <g id="Icon-Customer-Service" transform="translate(94.000000, 0.000000)">
                        <g id="Shapes" transform="translate(49.838127, 65.942029)" fill="#4C8CA7">
                            <ellipse id="Oval" transform="translate(37.536232, 48.559819) rotate(-15.000000) translate(-37.536232, -48.559819) " cx="37.5362319" cy="48.559819" rx="8.11594203" ry="6.08695652"></ellipse>
                            <ellipse id="Eye" cx="4.05797101" cy="6.08695652" rx="4.05797101" ry="6.08695652"></ellipse>
                            <ellipse id="Eye" cx="36.5217391" cy="6.08695652" rx="4.05797101" ry="6.08695652"></ellipse>
                            <path d="M20.2898551,24.3478261 C23.2780624,24.3478261 26.3215407,23.6714976 29.4202899,22.3188406 C28.4057971,27.3913043 24.7721661,29.4202899 20.2898551,29.4202899 C15.8075441,29.4202899 12.173913,27.3913043 11.1594203,22.3188406 C14.2581695,23.6714976 17.3016477,24.3478261 20.2898551,24.3478261 Z" id="Mouth"></path>
                        </g>
                        <g id="Paths" transform="translate(0.000000, 0.000000)" stroke="#4C8CA7" stroke-linecap="round" stroke-linejoin="round" stroke-width="4">
                            <path d="M12.6766895,43.0073341 C19.9534111,18.1527337 42.9207978,9.23705556e-14 70.1279825,9.23705556e-14 C97.3865366,9.23705556e-14 120.389267,18.221346 127.620325,43.1481881 C135.708388,45.6363435 140.950484,54.4843176 139.599276,64.0986666 C138.11771,74.6405541 129.270343,82.1118221 119.838127,80.7862107 L123.590385,54.0875133 C120.712807,27.1043197 97.874829,6.08695652 70.1279825,6.08695652 C41.7186898,6.08695652 18.4554583,28.1198639 16.493814,56.0301529 L19.973051,80.7862107 C10.5408359,82.1118221 1.69346846,74.6405541 0.21190279,64.0986666 C-1.16617417,54.2931395 4.31387159,45.2847685 12.6766854,43.0073477 Z" id="Combined-Shape"></path>
                            <path d="M70.1279825,105.507246 C95.340982,105.507246 115.780156,85.0680719 115.780156,59.8550725 C85.3453738,63.7403639 70.1279825,48.5229726 70.1279825,14.2028986 C70.1279825,31.6867098 54.9105912,46.9041011 24.4758086,59.8550725 C24.4758086,85.0680719 44.9149831,105.507246 70.1279825,105.507246 Z" id="Face"></path>
                            <path d="M123.896098,80.9385731 C120.145731,97.0411446 110.58495,107.528716 95.2137573,112.401288" id="Path-2"></path>
                        </g>
                    </g>
                </g>
            </g>
        </g>
    </g>
</svg>