<?xml version="1.0" encoding="UTF-8"?>
<svg width="136px" height="136px" viewBox="0 0 136 136" version="1.1" xmlns="http://www.w3.org/2000/svg" xmlns:xlink="http://www.w3.org/1999/xlink">
    <!-- Generator: Sketch 53 (72520) - https://sketchapp.com -->
    <title>Icon Tablet</title>
    <desc>Created with Sketch.</desc>
    <g id="Marketing-Website-V0.7" stroke="none" stroke-width="1" fill="none" fill-rule="evenodd">
        <g id="Desktop-1400px-Agencies-&amp;-TMCs" transform="translate(-1061.000000, -876.000000)" stroke="#4C8CA7">
            <g id="Section-1" transform="translate(110.000000, 767.000000)">
                <g id="Callout-3" transform="translate(853.000000, 109.000000)">
                    <g id="Icon-Tablet" transform="translate(98.000000, 0.000000)">
                        <g id="Tablet">
                            <rect id="Rectangle" stroke-width="4" x="2" y="2" width="131.882353" height="104.088235" rx="7"></rect>
                            <rect id="Rectangle" stroke-width="3" x="13.8529412" y="13.8529412" width="100.970588" height="80.3823529"></rect>
                            <path d="M22,31.6617647 L106.411765,31.6617647" id="Line-8" stroke-width="3" stroke-linecap="square"></path>
                            <circle id="Oval" stroke-width="3" fill="#FFFFFF" cx="61.6323529" cy="31.1470588" r="5.14705882"></circle>
                            <path d="M22,54.6617647 L106.411765,54.6617647" id="Line-8-Copy" stroke-width="3" stroke-linecap="square"></path>
                            <circle id="Oval-Copy-8" stroke-width="3" fill="#FFFFFF" cx="31.7794118" cy="54.1470588" r="5.14705882"></circle>
                            <path d="M22,77.6617647 L106.411765,77.6617647" id="Line-8-Copy-3" stroke-width="3" stroke-linecap="square"></path>
                            <circle id="Oval-Copy-10" stroke-width="3" fill="#FFFFFF" cx="78.5" cy="76.5" r="4.5"></circle>
                            <circle id="Oval" stroke-width="3" cx="123.014706" cy="54.0441176" r="3.60294118"></circle>
                        </g>
                        <g id="Hand" transform="translate(65.941176, 72.176471)" fill="#FFFFFF" stroke-width="4">
                            <path d="M33,27.7941176 L33,20.844583 C33,17.4132104 34.372549,15.6975241 37.1176471,15.6975241 C39.8627451,15.6975241 41.2352941,17.4132104 41.2352941,20.844583 C41.2352941,33.3711033 41.2352941,40.06295 41.2352941,40.9201229 C41.2352941,42.2058824 41.3387053,45.2941176 38.2504701,47.3529412 C35.1622348,49.4117647 35.0588235,54.5588235 31.9705882,55.5882353 L9.32352941,55.5882353 C7.93640096,51.4705882 6.21654914,48.7254902 4.16397394,47.3529412 C1.08511113,45.2941176 0.0588235294,42.2058824 0.0588235294,40.9201229 C0.0588235294,40.06295 0.0588235294,36.3738894 0.0588235294,29.8529412 C0.0588235294,26.4215686 1.427207,24.7058824 4.16397394,24.7058824 C6.90074087,24.7058824 8.26912434,26.4215686 8.26912434,29.8529412 L8.26912434,35 L8.29411765,35 L8.29411765,5.14705882 C8.29411765,1.71568627 9.66666667,-4.65405492e-13 12.4117647,-4.65405492e-13 C15.1568627,-4.65405492e-13 16.5294118,1.71568627 16.5294118,5.14705882 L16.5294118,27.7941176 L16.5294118,16.7269359 C16.5294118,13.2955633 17.9019608,11.5798771 20.6470588,11.5798771 C23.3921569,11.5798771 24.7647059,13.2955633 24.7647059,16.7269359 L24.7647059,27.7941176 L24.7647059,18.7857594 C24.7647059,15.3543869 26.1372549,13.6387006 28.8823529,13.6387006 C31.627451,13.6387006 33,15.3543869 33,18.7857594 L33,27.7941176" id="Path-5" stroke-linecap="square" stroke-linejoin="round"></path>
                            <polyline id="Path" points="6.23529412 63.8235294 6.23529412 54.5588235 6.23529412 54.5588235 36.0882353 54.5588235 36.0882353 63.8235294"></polyline>
                        </g>
                    </g>
                </g>
            </g>
        </g>
    </g>
</svg>