<?xml version="1.0" encoding="UTF-8"?>
<svg width="120px" height="119px" viewBox="0 0 120 119" version="1.1" xmlns="http://www.w3.org/2000/svg" xmlns:xlink="http://www.w3.org/1999/xlink">
    <!-- Generator: Sketch 53 (72520) - https://sketchapp.com -->
    <title>Group 2</title>
    <desc>Created with Sketch.</desc>
    <g id="Marketing-Website-V0.7" stroke="none" stroke-width="1" fill="none" fill-rule="evenodd">
        <g id="Desktop-1400px-Airlines-Hotels-&amp;-OTAs-1" transform="translate(-640.000000, -879.000000)">
            <g id="Group-2" transform="translate(640.000000, 879.000000)">
                <circle id="Oval" fill="#4C8CA7" cx="102.5" cy="17.5" r="17.5"></circle>
                <rect id="Rectangle" fill="#4C8CA7" x="0" y="84" width="35" height="35" rx="4"></rect>
                <path d="M18.2713996,67.4849259 L18,25.4849259 C18.0797098,21.161642 20.2413518,19 24.4849259,19 C28.7285001,19 42.4001914,19 65.5,19 L53.5,31 L65.5,19 L53.5,7" id="Path-6" stroke="#4C8CA7" stroke-width="4" stroke-linecap="round" stroke-linejoin="round"></path>
                <path d="M55.2713996,114.484926 L55,72.4849259 C55.0797098,68.161642 57.2413518,66 61.4849259,66 C65.7285001,66 79.4001914,66 102.5,66 L90.5,78 L102.5,66 L90.5,54" id="Path-6-Copy" stroke="#4C8CA7" stroke-width="4" stroke-linecap="round" stroke-linejoin="round" transform="translate(78.750000, 84.242463) scale(-1, -1) translate(-78.750000, -84.242463) "></path>
            </g>
        </g>
    </g>
</svg>