<?xml version="1.0" encoding="UTF-8"?>
<svg width="107px" height="124px" viewBox="0 0 107 124" version="1.1" xmlns="http://www.w3.org/2000/svg" xmlns:xlink="http://www.w3.org/1999/xlink">
    <!-- Generator: Sketch 53 (72520) - https://sketchapp.com -->
    <title>noun_choice_1893246</title>
    <desc>Created with Sketch.</desc>
    <g id="Marketing-Website-V0.7" stroke="none" stroke-width="1" fill="none" fill-rule="evenodd">
        <g id="Desktop-1400px-Airlines-Hotels-&amp;-OTAs-1" transform="translate(-1073.000000, -880.000000)" fill="#4C8CA7" fill-rule="nonzero">
            <g id="noun_choice_1893246" transform="translate(1073.000000, 880.000000)">
                <path d="M101.399776,61.1643685 C105.003675,54.9904777 106.916993,48.029867 106.916993,40.7688974 C106.916993,18.2888254 88.5530179,0 65.9805746,0 C43.4081312,0 25.0441564,18.2888254 25.0441564,40.7688974 C25.0441564,50.9824776 28.8431224,60.6545851 35.6054479,68.0891565 C34.0974825,68.6471627 32.7043439,69.4986389 31.5118061,70.6311848 L23.4434995,78.3151368 C22.3533374,77.841176 21.1691004,77.5835287 19.9405928,77.5697508 C17.5444496,77.561484 15.2783512,78.447405 13.5711683,80.1104012 L2.69029882,90.7166524 C-0.843043927,94.1611351 -0.903915924,99.8266203 2.55472029,103.346882 L20.224201,121.322948 C21.895414,123.023145 24.1366102,123.973822 26.5369038,124 C26.5701067,124 26.6033096,124 26.6378959,124 C29.0008362,124 31.2240476,123.100301 32.9063282,121.45935 L43.7858143,110.853098 C46.4254454,108.280759 47.1254734,104.468405 45.8692967,101.236103 C47.8102834,99.8569317 50.1593891,99.089501 52.5154121,99.089501 L69.2870308,99.089501 C72.5893366,99.089501 75.8639734,98.2394027 78.7623105,96.6287625 C79.7666985,96.0693785 80.6562597,95.4659052 81.466964,94.8018089 L90.723658,87.3424371 C91.0916569,87.0958122 91.4582723,86.7982089 91.8387223,86.444116 L91.8829929,86.4082934 C91.9023612,86.3917599 91.9161958,86.3724708 91.9355641,86.3559373 C92.0075038,86.2870476 92.075293,86.2360693 92.1499996,86.1616685 L105.308035,72.188091 C106.399581,71.029367 107,69.511039 107,67.9114212 C107,66.2291359 106.301355,64.5826731 105.032728,63.3467927 C103.978535,62.3685597 102.733426,61.6438405 101.399776,61.1643685 Z M65.9805746,5.51117235 C85.5011173,5.51117235 101.383175,21.3268592 101.383175,40.7688974 C101.383175,48.0477783 99.1710311,54.9753219 95.0192842,60.8929433 C93.0838313,61.4027267 91.3517463,62.3933599 90.0014948,63.8372871 L83.8105359,70.4245158 L78.7706113,73.4556606 C77.3193675,72.1784464 75.4959745,71.4523495 73.549454,71.4523495 C73.5480706,71.4523495 73.5466871,71.4523495 73.5453037,71.4523495 L59.4520528,71.4578606 C59.3870305,71.4578606 59.3220081,71.4371937 59.2708203,71.3999933 L56.6049035,69.5275725 C54.5767592,68.0932899 52.1903003,67.3355037 49.7000822,67.3355037 L42.7247047,67.3355037 C34.9994948,60.6435627 30.5779743,51.0210558 30.5779743,40.7688974 C30.5779743,21.3268592 46.4600318,5.51117235 65.9805746,5.51117235 Z M39.9149086,106.915366 L29.0354226,117.522995 C28.3838155,118.15678 27.4638183,118.473672 26.5963923,118.490205 C25.6736282,118.479183 24.8158864,118.116824 24.1781139,117.469261 L6.51001665,99.4931944 C5.18605071,98.1443349 5.20956944,95.9743108 6.56258793,94.6557628 L17.4434574,84.0495117 C18.0853803,83.4253714 18.9362048,83.0809231 19.843751,83.0809231 C19.8562021,83.0809231 19.8700366,83.0823009 19.8824877,83.0823009 C20.8052518,83.0919455 21.6629936,83.454305 22.2993827,84.10049 L39.9674799,102.077934 C41.2914458,103.425416 41.2679271,105.596818 39.9149086,106.915366 Z M101.271115,68.4198269 L88.2541917,82.2459805 L77.9668242,90.5347837 C77.3954575,91.0032334 76.7701361,91.4248381 76.0618074,91.8216425 C73.990776,92.9720997 71.649971,93.5797064 69.2884142,93.5797064 L52.5167955,93.5797064 C48.9793024,93.5797064 45.4528769,94.7274081 42.5448556,96.8230314 L27.7847797,81.8064645 L35.3342908,74.6171402 C36.5351293,73.4763275 38.1136509,72.8480539 39.7793301,72.8480539 L49.7014656,72.8480539 C51.0171309,72.8480539 52.3300292,73.2655252 53.4091237,74.0274447 L56.0833412,75.9053767 C57.075278,76.6011622 58.2415302,76.969033 59.4562032,76.969033 L73.5508375,76.9635218 C73.5508375,76.9635218 73.5508375,76.9635218 73.5522209,76.9635218 C74.1872266,76.9635218 74.7890293,77.2142802 75.2441858,77.6675741 C75.7007258,78.1222458 75.9525145,78.7215858 75.9525145,79.3553706 C75.9525145,80.6739186 74.8761869,81.7458416 73.5522209,81.7458416 L56.2382881,81.7458416 C54.7109543,81.7458416 53.4713791,82.9803442 53.4713791,84.5014278 C53.4713791,86.0225114 54.7109543,87.257014 56.2382881,87.257014 L73.549454,87.257014 C77.9253206,87.257014 81.4835655,83.7119524 81.4835655,79.3553706 C81.4835655,79.0054112 81.4268439,78.6650963 81.3825733,78.3234036 L86.9883309,74.9519439 C87.0063158,74.9409216 87.0187669,74.9271436 87.0353683,74.9161213 C87.1391274,74.851365 87.2359692,74.7755864 87.3314276,74.6956744 C87.3853823,74.6502072 87.4407205,74.6061178 87.4905249,74.5578951 C87.5195774,74.5303392 87.5527803,74.5096723 87.5804494,74.4793609 L94.0467157,67.5986622 C94.9584122,66.6245625 96.0471909,66.2498028 96.787339,66.1092679 C98.4045973,65.8033978 100.079961,66.2842476 101.20886,67.3327481 C101.432979,67.5504394 101.466182,67.7901754 101.466182,67.9141768 C101.466182,68.1787131 101.36104,68.3247592 101.271115,68.4198269 Z" id="Shape"></path>
                <path d="M60.7260621,55.1281895 C61.2483217,55.6844617 61.9827924,56 62.7475789,56 C62.8054547,56 62.8633304,55.9986399 62.9212062,55.9945597 C63.7493804,55.9428767 64.507277,55.5253325 64.9895748,54.8602539 L83.4863854,29.3002927 C84.3710574,28.0789419 84.0844347,26.3802035 82.8456183,25.5056728 C81.6068019,24.6352224 79.8856876,24.9153986 79.0010156,26.1394695 L62.4706022,48.9806332 L52.7777939,38.6494745 C51.7429206,37.5478107 49.9983805,37.4811668 48.8835835,38.502586 C47.7660305,39.5240052 47.6998868,41.245865 48.7347602,42.3475288 L60.7260621,55.1281895 Z" id="Path"></path>
            </g>
        </g>
    </g>
</svg>