<?xml version="1.0" encoding="UTF-8"?>
<svg width="100px" height="100px" viewBox="0 0 100 100" version="1.1" xmlns="http://www.w3.org/2000/svg" xmlns:xlink="http://www.w3.org/1999/xlink">
    <!-- Generator: Sketch 53 (72520) - https://sketchapp.com -->
    <title>noun_Natural Language Process_1409677 (1) Copy</title>
    <desc>Created with Sketch.</desc>
    <g id="Marketing-Website-V0.7" stroke="none" stroke-width="1" fill="none" fill-rule="evenodd">
        <g id="Desktop-1400px-Airlines-Hotels-&amp;-OTAs-1" transform="translate(-223.000000, -878.000000)" fill="#4C8CA7" fill-rule="nonzero">
            <g id="noun_Natural-Language-Process_1409677-(1)-Copy" transform="translate(223.000000, 878.000000)">
                <path d="M77.5263158,39 L62.0526316,39 L62.0526316,50.9619584 C62.0526316,54.1320888 59.5473684,56.7104614 56.4736842,56.7104614 L41,56.7104614 L41,59.0035224 C41,61.0007045 42.5684211,62.6386051 44.4736842,62.6386051 L67.9578947,62.6386051 L77.5263158,69 L75.7789474,62.6386051 L77.5263158,62.6386051 C79.4315789,62.6386051 81,60.9996478 81,59.0035224 L81,42.6350828 C81,40.6273336 79.4315789,39 77.5263158,39 Z" id="Path"></path>
                <path d="M55.5263158,54.6386051 C57.4315789,54.6386051 59,53.0007045 59,51.0035224 L59,39.0415639 L59,34.6350828 C59,32.6379007 57.4315789,31 55.5263158,31 L22.4736842,31 C20.5684211,31 19,32.6379007 19,34.6350828 L19,51.0035224 C19,53.0007045 20.5684211,54.6386051 22.4736842,54.6386051 L24.2210526,54.6386051 L22.4736842,61 L32.0421053,54.6386051 L40.0526316,54.6386051 L55.5263158,54.6386051 L55.5263158,54.6386051 Z" id="Path"></path>
                <path d="M97.8723404,29.787234 C99.0468085,29.787234 100,28.8340426 100,27.6595745 C100,26.4851064 99.0468085,25.5319149 97.8723404,25.5319149 L89.3617021,25.5319149 L89.3617021,23.4042553 L97.8723404,23.4042553 C99.0468085,23.4042553 100,22.4510638 100,21.2765957 C100,20.1021277 99.0468085,19.1489362 97.8723404,19.1489362 L89.3617021,19.1489362 L89.3617021,17.0212766 C89.3617021,13.5 86.5,10.6382979 82.9787234,10.6382979 L80.8510638,10.6382979 L80.8510638,2.12765957 C80.8510638,0.953191489 79.8978723,0 78.7234043,0 C77.5489362,0 76.5957447,0.953191489 76.5957447,2.12765957 L76.5957447,10.6382979 L74.4680851,10.6382979 L74.4680851,2.12765957 C74.4680851,0.953191489 73.5148936,0 72.3404255,0 C71.1659574,0 70.212766,0.953191489 70.212766,2.12765957 L70.212766,10.6382979 L68.0851064,10.6382979 L68.0851064,2.12765957 C68.0851064,0.953191489 67.1319149,0 65.9574468,0 C64.7829787,0 63.8297872,0.953191489 63.8297872,2.12765957 L63.8297872,10.6382979 L61.7021277,10.6382979 L61.7021277,2.12765957 C61.7021277,0.953191489 60.7489362,0 59.5744681,0 C58.4,0 57.4468085,0.953191489 57.4468085,2.12765957 L57.4468085,10.6382979 L55.3191489,10.6382979 L55.3191489,2.12765957 C55.3191489,0.953191489 54.3659574,0 53.1914894,0 C52.0170213,0 51.0638298,0.953191489 51.0638298,2.12765957 L51.0638298,10.6382979 L48.9361702,10.6382979 L48.9361702,2.12765957 C48.9361702,0.953191489 47.9829787,0 46.8085106,0 C45.6340426,0 44.6808511,0.953191489 44.6808511,2.12765957 L44.6808511,10.6382979 L42.5531915,10.6382979 L42.5531915,2.12765957 C42.5531915,0.953191489 41.6,0 40.4255319,0 C39.2510638,0 38.2978723,0.953191489 38.2978723,2.12765957 L38.2978723,10.6382979 L36.1702128,10.6382979 L36.1702128,2.12765957 C36.1702128,0.953191489 35.2170213,0 34.0425532,0 C32.8680851,0 31.9148936,0.953191489 31.9148936,2.12765957 L31.9148936,10.6382979 L29.787234,10.6382979 L29.787234,2.12765957 C29.787234,0.953191489 28.8340426,0 27.6595745,0 C26.4851064,0 25.5319149,0.953191489 25.5319149,2.12765957 L25.5319149,10.6382979 L23.4042553,10.6382979 L23.4042553,2.12765957 C23.4042553,0.953191489 22.4510638,0 21.2765957,0 C20.1021277,0 19.1489362,0.953191489 19.1489362,2.12765957 L19.1489362,10.6382979 L17.0212766,10.6382979 C13.5,10.6382979 10.6382979,13.5 10.6382979,17.0212766 L10.6382979,19.1489362 L2.12765957,19.1489362 C0.953191489,19.1489362 0,20.1021277 0,21.2765957 C0,22.4510638 0.953191489,23.4042553 2.12765957,23.4042553 L10.6382979,23.4042553 L10.6382979,25.5319149 L2.12765957,25.5319149 C0.953191489,25.5319149 0,26.4851064 0,27.6595745 C0,28.8340426 0.953191489,29.787234 2.12765957,29.787234 L10.6382979,29.787234 L10.6382979,31.9148936 L2.12765957,31.9148936 C0.953191489,31.9148936 0,32.8680851 0,34.0425532 C0,35.2170213 0.953191489,36.1702128 2.12765957,36.1702128 L10.6382979,36.1702128 L10.6382979,38.2978723 L2.12765957,38.2978723 C0.953191489,38.2978723 0,39.2510638 0,40.4255319 C0,41.6 0.953191489,42.5531915 2.12765957,42.5531915 L10.6382979,42.5531915 L10.6382979,44.6808511 L2.12765957,44.6808511 C0.953191489,44.6808511 0,45.6340426 0,46.8085106 C0,47.9829787 0.953191489,48.9361702 2.12765957,48.9361702 L10.6382979,48.9361702 L10.6382979,51.0638298 L2.12765957,51.0638298 C0.953191489,51.0638298 0,52.0170213 0,53.1914894 C0,54.3659574 0.953191489,55.3191489 2.12765957,55.3191489 L10.6382979,55.3191489 L10.6382979,57.4468085 L2.12765957,57.4468085 C0.953191489,57.4468085 0,58.4 0,59.5744681 C0,60.7489362 0.953191489,61.7021277 2.12765957,61.7021277 L10.6382979,61.7021277 L10.6382979,63.8297872 L2.12765957,63.8297872 C0.953191489,63.8297872 0,64.7829787 0,65.9574468 C0,67.1319149 0.953191489,68.0851064 2.12765957,68.0851064 L10.6382979,68.0851064 L10.6382979,70.212766 L2.12765957,70.212766 C0.953191489,70.212766 0,71.1659574 0,72.3404255 C0,73.5148936 0.953191489,74.4680851 2.12765957,74.4680851 L10.6382979,74.4680851 L10.6382979,76.5957447 L2.12765957,76.5957447 C0.953191489,76.5957447 0,77.5489362 0,78.7234043 C0,79.8978723 0.953191489,80.8510638 2.12765957,80.8510638 L10.6382979,80.8510638 L10.6382979,82.9787234 C10.6382979,86.5 13.5,89.3617021 17.0212766,89.3617021 L19.1489362,89.3617021 L19.1489362,97.8723404 C19.1489362,99.0468085 20.1021277,100 21.2765957,100 C22.4510638,100 23.4042553,99.0468085 23.4042553,97.8723404 L23.4042553,89.3617021 L25.5319149,89.3617021 L25.5319149,97.8723404 C25.5319149,99.0468085 26.4851064,100 27.6595745,100 C28.8340426,100 29.787234,99.0468085 29.787234,97.8723404 L29.787234,89.3617021 L31.9148936,89.3617021 L31.9148936,97.8723404 C31.9148936,99.0468085 32.8680851,100 34.0425532,100 C35.2170213,100 36.1702128,99.0468085 36.1702128,97.8723404 L36.1702128,89.3617021 L38.2978723,89.3617021 L38.2978723,97.8723404 C38.2978723,99.0468085 39.2510638,100 40.4255319,100 C41.6,100 42.5531915,99.0468085 42.5531915,97.8723404 L42.5531915,89.3617021 L44.6808511,89.3617021 L44.6808511,97.8723404 C44.6808511,99.0468085 45.6340426,100 46.8085106,100 C47.9829787,100 48.9361702,99.0468085 48.9361702,97.8723404 L48.9361702,89.3617021 L51.0638298,89.3617021 L51.0638298,97.8723404 C51.0638298,99.0468085 52.0170213,100 53.1914894,100 C54.3659574,100 55.3191489,99.0468085 55.3191489,97.8723404 L55.3191489,89.3617021 L57.4468085,89.3617021 L57.4468085,97.8723404 C57.4468085,99.0468085 58.4,100 59.5744681,100 C60.7489362,100 61.7021277,99.0468085 61.7021277,97.8723404 L61.7021277,89.3617021 L63.8297872,89.3617021 L63.8297872,97.8723404 C63.8297872,99.0468085 64.7829787,100 65.9574468,100 C67.1319149,100 68.0851064,99.0468085 68.0851064,97.8723404 L68.0851064,89.3617021 L70.212766,89.3617021 L70.212766,97.8723404 C70.212766,99.0468085 71.1659574,100 72.3404255,100 C73.5148936,100 74.4680851,99.0468085 74.4680851,97.8723404 L74.4680851,89.3617021 L76.5957447,89.3617021 L76.5957447,97.8723404 C76.5957447,99.0468085 77.5489362,100 78.7234043,100 C79.8978723,100 80.8510638,99.0468085 80.8510638,97.8723404 L80.8510638,89.3617021 L82.9787234,89.3617021 C86.5,89.3617021 89.3617021,86.5 89.3617021,82.9787234 L89.3617021,80.8510638 L97.8723404,80.8510638 C99.0468085,80.8510638 100,79.8978723 100,78.7234043 C100,77.5489362 99.0468085,76.5957447 97.8723404,76.5957447 L89.3617021,76.5957447 L89.3617021,74.4680851 L97.8723404,74.4680851 C99.0468085,74.4680851 100,73.5148936 100,72.3404255 C100,71.1659574 99.0468085,70.212766 97.8723404,70.212766 L89.3617021,70.212766 L89.3617021,68.0851064 L97.8723404,68.0851064 C99.0468085,68.0851064 100,67.1319149 100,65.9574468 C100,64.7829787 99.0468085,63.8297872 97.8723404,63.8297872 L89.3617021,63.8297872 L89.3617021,61.7021277 L97.8723404,61.7021277 C99.0468085,61.7021277 100,60.7489362 100,59.5744681 C100,58.4 99.0468085,57.4468085 97.8723404,57.4468085 L89.3617021,57.4468085 L89.3617021,55.3191489 L97.8723404,55.3191489 C99.0468085,55.3191489 100,54.3659574 100,53.1914894 C100,52.0170213 99.0468085,51.0638298 97.8723404,51.0638298 L89.3617021,51.0638298 L89.3617021,48.9361702 L97.8723404,48.9361702 C99.0468085,48.9361702 100,47.9829787 100,46.8085106 C100,45.6340426 99.0468085,44.6808511 97.8723404,44.6808511 L89.3617021,44.6808511 L89.3617021,42.5531915 L97.8723404,42.5531915 C99.0468085,42.5531915 100,41.6 100,40.4255319 C100,39.2510638 99.0468085,38.2978723 97.8723404,38.2978723 L89.3617021,38.2978723 L89.3617021,36.1702128 L97.8723404,36.1702128 C99.0468085,36.1702128 100,35.2170213 100,34.0425532 C100,32.8680851 99.0468085,31.9148936 97.8723404,31.9148936 L89.3617021,31.9148936 L89.3617021,29.787234 L97.8723404,29.787234 Z M85.106383,82.9787234 C85.106383,84.1489362 84.1489362,85.106383 82.9787234,85.106383 L17.0212766,85.106383 C15.8510638,85.106383 14.893617,84.1489362 14.893617,82.9787234 L14.893617,17.0212766 C14.893617,15.8510638 15.8510638,14.893617 17.0212766,14.893617 L82.9787234,14.893617 C84.1489362,14.893617 85.106383,15.8510638 85.106383,17.0212766 L85.106383,82.9787234 Z" id="Shape"></path>
            </g>
        </g>
    </g>
</svg>