<?xml version="1.0" encoding="UTF-8"?>
<svg width="104px" height="109px" viewBox="0 0 104 109" version="1.1" xmlns="http://www.w3.org/2000/svg" xmlns:xlink="http://www.w3.org/1999/xlink">
    <!-- Generator: Sketch 53 (72520) - https://sketchapp.com -->
    <title>Icon Clock</title>
    <desc>Created with Sketch.</desc>
    <g id="Marketing-Website-V0.7" stroke="none" stroke-width="1" fill="none" fill-rule="evenodd" stroke-linecap="round">
        <g id="Desktop-1400px-Agencies-&amp;-TMCs" transform="translate(-644.000000, -889.000000)" stroke="#4C8CA7" stroke-width="4">
            <g id="Section-1" transform="translate(110.000000, 767.000000)">
                <g id="Callout-2" transform="translate(437.000000, 109.000000)">
                    <g id="Icon-Clock" transform="translate(79.000000, 0.000000)">
                        <path d="M34.0124145,36.4996413 C25.8355679,45.2796781 20.8333333,57.0556718 20.8333333,70 C20.8333333,97.1540002 42.8459998,119.166667 70,119.166667 L70,119.166667 C97.1540002,119.166667 119.166667,97.1540002 119.166667,70 C119.166667,42.8459998 97.1540002,20.8333333 70,20.8333333" id="Path" transform="translate(70.000000, 70.000000) rotate(-45.000000) translate(-70.000000, -70.000000) "></path>
                        <path d="M35,35.2339166 L37.5,15" id="Path-3"></path>
                        <path d="M43.75,46.6666667 L46.25,26.6666667" id="Path-3-Copy" transform="translate(45.000000, 36.666667) rotate(-90.000000) translate(-45.000000, -36.666667) "></path>
                        <path d="M70,42.976888 L70,70" id="Line-3"></path>
                        <path d="M95.0256348,95.0256348 L70,70" id="Line-3-Copy"></path>
                    </g>
                </g>
            </g>
        </g>
    </g>
</svg>