<svg width="273" height="623" xmlns="http://www.w3.org/2000/svg" xmlns:xlink="http://www.w3.org/1999/xlink"><defs><linearGradient x1="100%" y1="50%" x2="0%" y2="50%" id="a"><stop stop-color="#85CDDB" offset="0%"/><stop stop-color="#DAEFF4" offset="100%"/></linearGradient><filter x="-9.1%" y="-11.9%" width="118.2%" height="123.7%" filterUnits="objectBoundingBox" id="b"><feOffset dy="2" in="SourceAlpha" result="shadowOffsetOuter1"/><feGaussianBlur stdDeviation="5" in="shadowOffsetOuter1" result="shadowBlurOuter1"/><feColorMatrix values="0 0 0 0 0 0 0 0 0 0 0 0 0 0 0 0 0 0 0.15349104 0" in="shadowBlurOuter1" result="shadowMatrixOuter1"/><feMerge><feMergeNode in="shadowMatrixOuter1"/><feMergeNode in="SourceGraphic"/></feMerge></filter><rect id="c" width="253" height="194" rx="8"/><linearGradient x1=".00389%" y1="49.99762%" x2="100.03223%" y2="49.99762%" id="e"><stop stop-opacity=".1" offset="0%"/><stop stop-opacity=".2" offset="100%"/></linearGradient><linearGradient x1="50.70015%" y1="94.98742%" x2="50.7975%" y2="5.74353%" id="f"><stop stop-color="#70EFFF" offset="0%"/><stop stop-color="#5770FF" offset="100%"/></linearGradient><linearGradient x1="50%" y1="0%" x2="50%" y2="100%" id="g"><stop stop-color="#00EA66" offset="0%"/><stop stop-color="#00D50F" offset="100%"/></linearGradient><linearGradient x1="49.92298%" y1="98.96972%" x2="49.92298%" y2="43.43096%" id="h"><stop stop-color="#E5F5D9" offset="0%"/><stop stop-color="#FFF" offset="100%"/></linearGradient><filter x="-24.5%" y="-17.9%" width="149.1%" height="137.5%" filterUnits="objectBoundingBox" id="i"><feOffset dy="2" in="SourceAlpha" result="shadowOffsetOuter1"/><feGaussianBlur stdDeviation="12" in="shadowOffsetOuter1" result="shadowBlurOuter1"/><feColorMatrix values="0 0 0 0 0 0 0 0 0 0 0 0 0 0 0 0 0 0 0.151715472 0" in="shadowBlurOuter1" result="shadowMatrixOuter1"/><feMerge><feMergeNode in="shadowMatrixOuter1"/><feMergeNode in="SourceGraphic"/></feMerge></filter><rect id="j" width="215.07928" height="32.48593" rx="4"/><filter x="-1.4%" y="-9.2%" width="102.8%" height="118.5%" filterUnits="objectBoundingBox" id="k"><feOffset in="SourceAlpha" result="shadowOffsetOuter1"/><feGaussianBlur stdDeviation="1" in="shadowOffsetOuter1" result="shadowBlurOuter1"/><feColorMatrix values="0 0 0 0 0 0 0 0 0 0 0 0 0 0 0 0 0 0 0.257048234 0" in="shadowBlurOuter1"/></filter><path id="m" d="M4.85303 0l.6442.5184-2.74861 2.2118L0 .5184.6442 0l2.10442 1.69342z"/><rect id="o" width="215.07928" height="44.24808" rx="4"/><filter x="-3.3%" y="-11.3%" width="106.5%" height="131.6%" filterUnits="objectBoundingBox" id="p"><feOffset dy="2" in="SourceAlpha" result="shadowOffsetOuter1"/><feGaussianBlur stdDeviation="2" in="shadowOffsetOuter1" result="shadowBlurOuter1"/><feColorMatrix values="0 0 0 0 0 0 0 0 0 0 0 0 0 0 0 0 0 0 0.245103034 0" in="shadowBlurOuter1"/></filter><path d="M11.22399 12.5669l.98678-.97757c.0598-.05924.0897-.14811.0598-.20736l-1.2559-6.13202c-.0299-.08887 0-.14812.0598-.20736l2.81084-2.7846c.47843-.47397.47843-1.24417 0-1.71814-.47844-.47398-1.2559-.47398-1.73434 0L9.25043 3.4133c-.0598.05924-.1196.08886-.20932.05924l-6.2795-1.1553c-.08971 0-.14952 0-.20932.05924L1.5356 3.41331c-.11961.11849-.08971.32585.0598.3851L6.3499 5.87204c.1495.05924.17941.2666.0598.3851l-3.07995 3.0512c-.0598.05925-.14951.08887-.20932.05925l-2.03336-.41473c-.0897-.02962-.14951 0-.20932.05925l-.59805.59246c-.1196.1185-.0897.29623.0598.3851l2.03337.97757c0 .02963.0299.02963.0598.05925l.86718.85907c.0299.02963.0299.02963.0299.05925l1.04659 2.044c.0598.14812.26912.17775.38873.05925l.50834-.5036c.0598-.05924.0897-.1481.0598-.20735l-.41863-2.04401c-.0299-.08887 0-.14812.0598-.20736L8.23375 7.8568c.1196-.1185.29902-.08887.38873.05924l2.24268 4.59161c.0598.14812.23922.17774.35883.05925z" id="r"/><rect id="s" width="215.07928" height="52.08951" rx="4"/><filter x="-3.3%" y="-9.6%" width="106.5%" height="126.9%" filterUnits="objectBoundingBox" id="t"><feOffset dy="2" in="SourceAlpha" result="shadowOffsetOuter1"/><feGaussianBlur stdDeviation="2" in="shadowOffsetOuter1" result="shadowBlurOuter1"/><feColorMatrix values="0 0 0 0 0 0 0 0 0 0 0 0 0 0 0 0 0 0 0.245103034 0" in="shadowBlurOuter1"/></filter><rect id="v" width="215.07928" height="44.24808" rx="4"/><filter x="-3.3%" y="-11.3%" width="106.5%" height="131.6%" filterUnits="objectBoundingBox" id="w"><feOffset dy="2" in="SourceAlpha" result="shadowOffsetOuter1"/><feGaussianBlur stdDeviation="2" in="shadowOffsetOuter1" result="shadowBlurOuter1"/><feColorMatrix values="0 0 0 0 0 0 0 0 0 0 0 0 0 0 0 0 0 0 0.245103034 0" in="shadowBlurOuter1"/></filter><path d="M11.22399 12.5669l.98678-.97757c.0598-.05924.0897-.14811.0598-.20736l-1.2559-6.13202c-.0299-.08887 0-.14812.0598-.20736l2.81084-2.7846c.47843-.47397.47843-1.24417 0-1.71814-.47844-.47398-1.2559-.47398-1.73434 0L9.25043 3.4133c-.0598.05924-.1196.08886-.20932.05924l-6.2795-1.1553c-.08971 0-.14952 0-.20932.05924L1.5356 3.41331c-.11961.11849-.08971.32585.0598.3851L6.3499 5.87204c.1495.05924.17941.2666.0598.3851l-3.07995 3.0512c-.0598.05925-.14951.08887-.20932.05925l-2.03336-.41473c-.0897-.02962-.14951 0-.20932.05925l-.59805.59246c-.1196.1185-.0897.29623.0598.3851l2.03337.97757c0 .02963.0299.02963.0598.05925l.86718.85907c.0299.02963.0299.02963.0299.05925l1.04659 2.044c.0598.14812.26912.17775.38873.05925l.50834-.5036c.0598-.05924.0897-.1481.0598-.20735l-.41863-2.04401c-.0299-.08887 0-.14812.0598-.20736L8.23375 7.8568c.1196-.1185.29902-.08887.38873.05924l2.24268 4.59161c.0598.14812.23922.17774.35883.05925z" id="y"/><path id="A" d="M0 0h103.66458v14.56266H0z"/><filter x="-5.8%" y="-41.2%" width="111.6%" height="182.4%" filterUnits="objectBoundingBox" id="z"><feOffset in="SourceAlpha" result="shadowOffsetOuter1"/><feGaussianBlur stdDeviation="2" in="shadowOffsetOuter1" result="shadowBlurOuter1"/><feComposite in="shadowBlurOuter1" in2="SourceAlpha" operator="out" result="shadowBlurOuter1"/><feColorMatrix values="0 0 0 0 0 0 0 0 0 0 0 0 0 0 0 0 0 0 0.253000453 0" in="shadowBlurOuter1"/></filter><path id="C" d="M0 0h103.66458v14.56266H0z"/><filter x="-5.8%" y="-41.2%" width="111.6%" height="182.4%" filterUnits="objectBoundingBox" id="B"><feOffset in="SourceAlpha" result="shadowOffsetOuter1"/><feGaussianBlur stdDeviation="2" in="shadowOffsetOuter1" result="shadowBlurOuter1"/><feComposite in="shadowBlurOuter1" in2="SourceAlpha" operator="out" result="shadowBlurOuter1"/><feColorMatrix values="0 0 0 0 0 0 0 0 0 0 0 0 0 0 0 0 0 0 0.253000453 0" in="shadowBlurOuter1"/></filter><path d="M0 2.50085C0 1.11967 1.11182 0 2.4963 0h176.48055c1.37866 0 2.4963 1.11232 2.4963 2.50085v25.24382c0 1.38119-1.11182 2.50085-2.4963 2.50085H2.4963C1.11763 30.24552 0 29.1332 0 27.74467V2.50085z" id="E"/><filter x="-3.9%" y="-16.5%" width="107.7%" height="146.3%" filterUnits="objectBoundingBox" id="D"><feOffset dy="2" in="SourceAlpha" result="shadowOffsetOuter1"/><feGaussianBlur stdDeviation="2" in="shadowOffsetOuter1" result="shadowBlurOuter1"/><feColorMatrix values="0 0 0 0 0 0 0 0 0 0 0 0 0 0 0 0 0 0 0.248907343 0" in="shadowBlurOuter1"/></filter></defs><g fill="none" fill-rule="evenodd"><path d="M126 273h-19v-23h19v-12l21 23-21 23v-11z" fill="url(#a)" transform="rotate(90 128 270)"/><g transform="translate(10 8)"><g filter="url(#b)" transform="translate(0 .5)"><mask id="d" fill="#fff"><use xlink:href="#c"/></mask><use fill="#FFF" xlink:href="#c"/><path fill="#333" mask="url(#d)" d="M0 0h253v20.58778H0z"/><path d="M0 36.55991h252.48753M0 53.88889h252.48753" stroke="#CCC"/></g><path d="M40.916 31h-.882c-.054 0-.09-.036-.09-.09v-5.022c0-.036-.018-.054-.054-.054h-1.602c-.054 0-.09-.036-.09-.09v-.774c0-.054.036-.09.09-.09h4.374c.054 0 .09.036.09.09v.774c0 .054-.036.09-.09.09H41.06c-.036 0-.054.018-.054.054v5.022c0 .054-.036.09-.09.09zm3.231 0h-.828c-.054 0-.09-.036-.09-.09v-4.158c0-.054.036-.09.09-.09h.828c.054 0 .09.036.09.09v.369h.009c.207-.333.576-.558 1.125-.558.342 0 .684.135.909.36.045.045.054.081.018.126l-.477.603c-.036.045-.081.054-.126.018-.198-.126-.405-.207-.639-.207-.567 0-.819.405-.819 1.098v2.349c0 .054-.036.09-.09.09zm6.066 0h-.756c-.054 0-.09-.036-.09-.09v-.315h-.009c-.207.297-.612.504-1.224.504-.792 0-1.458-.414-1.458-1.323 0-.945.666-1.377 1.737-1.377h.882c.036 0 .054-.018.054-.054v-.207c0-.495-.234-.72-.963-.72-.486 0-.783.135-.99.297-.045.036-.099.027-.126-.018l-.333-.594c-.027-.045-.018-.09.018-.117.351-.252.828-.423 1.539-.423 1.323 0 1.809.45 1.809 1.512v2.835c0 .054-.036.09-.09.09zm-1.827-.72c.621 0 .963-.243.963-.738v-.333c0-.036-.018-.054-.054-.054h-.72c-.648 0-.936.18-.936.585 0 .36.261.54.747.54zm5.085.72h-.72c-.063 0-.099-.036-.117-.09l-1.53-4.158c-.018-.054.018-.09.072-.09h.882c.054 0 .09.036.108.09l.954 2.817h.018l.936-2.817c.018-.054.054-.09.108-.09h.864c.054 0 .09.036.072.09l-1.53 4.158c-.018.054-.054.09-.117.09zm4.158.099c-.918 0-1.566-.45-1.809-1.206-.09-.279-.153-.612-.153-1.062 0-.45.054-.792.144-1.071.243-.756.909-1.197 1.773-1.197.891 0 1.539.459 1.782 1.197.099.306.144.603.144 1.305 0 .054-.036.09-.099.09h-2.673c-.036 0-.054.018-.054.054 0 .126.027.234.063.333.144.423.486.657.972.657s.801-.18 1.017-.414c.045-.045.09-.054.135-.018l.531.468c.045.036.045.081.009.126-.369.432-.981.738-1.782.738zm.864-2.754c0-.153-.018-.261-.054-.369-.117-.351-.441-.558-.846-.558-.414 0-.738.207-.855.558-.036.108-.054.216-.054.369 0 .036.018.054.054.054h1.701c.036 0 .054-.018.054-.054zm3.663 2.709h-.396c-.846 0-1.188-.405-1.188-1.242V24.97c0-.054.036-.09.09-.09h.828c.054 0 .09.036.09.09v4.788c0 .297.117.396.378.396h.198c.054 0 .09.036.09.09v.72c0 .054-.036.09-.09.09zm2.682-.144l2.097-5.94c.018-.054.054-.09.117-.09h.828c.063 0 .099.036.117.09l2.07 5.94c.018.054 0 .09-.063.09h-.882c-.063 0-.099-.027-.117-.09l-.405-1.188h-2.304l-.405 1.188c-.018.063-.054.09-.117.09h-.873c-.063 0-.081-.036-.063-.09zm1.782-2.133h1.656l-.81-2.376h-.027l-.819 2.376zm5.751 3.942c-.603 0-1.242-.252-1.575-.648-.036-.045-.036-.081.009-.126l.531-.531c.045-.045.09-.045.135 0 .27.261.585.405.945.405.666 0 .972-.36.972-1.035v-.405h-.009c-.198.306-.567.504-1.125.504-.729 0-1.251-.369-1.476-1.053-.108-.333-.144-.63-.144-1.107s.036-.765.144-1.098c.225-.693.747-1.062 1.476-1.062.558 0 .927.198 1.125.513h.009v-.324c0-.054.036-.09.09-.09h.828c.054 0 .09.036.09.09v3.978c0 1.242-.693 1.989-2.025 1.989zm.144-2.727c.414 0 .657-.198.774-.558.072-.198.099-.414.099-.711 0-.288-.027-.504-.099-.711-.117-.351-.36-.549-.774-.549-.405 0-.648.198-.765.549-.072.207-.099.423-.099.711 0 .297.027.513.099.711.117.36.36.558.765.558zm4.923 1.107c-.918 0-1.566-.45-1.809-1.206-.09-.279-.153-.612-.153-1.062 0-.45.054-.792.144-1.071.243-.756.909-1.197 1.773-1.197.891 0 1.539.459 1.782 1.197.099.306.144.603.144 1.305 0 .054-.036.09-.099.09h-2.673c-.036 0-.054.018-.054.054 0 .126.027.234.063.333.144.423.486.657.972.657s.801-.18 1.017-.414c.045-.045.09-.054.135-.018l.531.468c.045.036.045.081.009.126-.369.432-.981.738-1.782.738zm.864-2.754c0-.153-.018-.261-.054-.369-.117-.351-.441-.558-.846-.558-.414 0-.738.207-.855.558-.036.108-.054.216-.054.369 0 .036.018.054.054.054h1.701c.036 0 .054-.018.054-.054zM83.972 31h-.828c-.054 0-.09-.036-.09-.09v-2.502c0-.558-.279-.945-.819-.945-.522 0-.828.387-.828.945v2.502c0 .054-.036.09-.09.09h-.828c-.054 0-.09-.036-.09-.09v-4.158c0-.054.036-.09.09-.09h.828c.054 0 .09.036.09.09v.315h.009c.189-.27.567-.504 1.143-.504.927 0 1.503.684 1.503 1.611v2.736c0 .054-.036.09-.09.09zm3.06.054H86.6c-.873 0-1.206-.423-1.206-1.269v-2.286c0-.036-.018-.054-.054-.054h-.288c-.054 0-.09-.036-.09-.09v-.603c0-.054.036-.09.09-.09h.288c.036 0 .054-.018.054-.054V25.42c0-.054.036-.09.09-.09h.828c.054 0 .09.036.09.09v1.188c0 .036.018.054.054.054h.576c.054 0 .09.036.09.09v.603c0 .054-.036.09-.09.09h-.576c-.036 0-.054.018-.054.054v2.25c0 .306.126.405.405.405h.225c.054 0 .09.036.09.09v.72c0 .054-.036.09-.09.09z" fill="#333" fill-rule="nonzero"/><path d="M23.727 31h-.621c-.054 0-.09-.036-.09-.09v-5.229c0-.036-.018-.054-.054-.054h-1.674c-.054 0-.09-.036-.09-.09v-.567c0-.054.036-.09.09-.09h4.257c.054 0 .09.036.09.09v.567c0 .054-.036.09-.09.09h-1.674c-.036 0-.054.018-.054.054v5.229c0 .054-.036.09-.09.09zm3.834.099c-.837 0-1.467-.432-1.701-1.161-.099-.297-.144-.594-.144-1.098 0-.495.045-.792.144-1.089.234-.738.864-1.161 1.701-1.161.837 0 1.467.423 1.701 1.161.099.297.144.594.144 1.089 0 .504-.045.801-.144 1.098-.234.729-.864 1.161-1.701 1.161zm0-.702c.477 0 .828-.243.972-.675.072-.234.099-.468.099-.882s-.027-.639-.099-.873c-.144-.432-.495-.675-.972-.675s-.828.243-.972.675c-.072.234-.099.459-.099.873s.027.648.099.882c.144.432.495.675.972.675zM23.61 49.099c-.864 0-1.701-.351-2.151-.765-.036-.036-.045-.09-.009-.135l.396-.468c.036-.045.081-.045.126-.009.396.315 1.008.63 1.71.63.846 0 1.35-.423 1.35-1.044 0-.522-.297-.873-1.278-.999l-.306-.045c-1.188-.162-1.8-.729-1.8-1.692 0-1.089.783-1.791 1.998-1.791.72 0 1.413.234 1.863.567.045.036.054.081.018.126l-.306.495c-.036.045-.081.045-.126.018-.495-.306-.954-.459-1.476-.459-.747 0-1.161.405-1.161.99 0 .513.342.855 1.287.981l.297.045c1.197.162 1.8.711 1.8 1.71 0 1.071-.756 1.845-2.232 1.845zM30.342 49h-.576c-.054 0-.09-.036-.09-.09v-.405h-.009c-.225.36-.621.594-1.179.594-.945 0-1.494-.648-1.494-1.629v-2.691c0-.054.036-.09.09-.09h.576c.054 0 .09.036.09.09v2.511c0 .702.315 1.107.954 1.107.585 0 .972-.414.972-1.062v-2.556c0-.054.036-.09.09-.09h.576c.054 0 .09.036.09.09v4.131c0 .054-.036.09-.09.09zm2.232 0h-.576c-.054 0-.09-.036-.09-.09v-5.94c0-.054.036-.09.09-.09h.576c.054 0 .09.036.09.09v2.214h.009c.207-.342.576-.594 1.224-.594.747 0 1.269.351 1.485 1.035.117.342.153.684.153 1.215 0 .54-.036.882-.153 1.224-.216.684-.738 1.035-1.485 1.035-.648 0-1.017-.261-1.224-.603h-.009v.414c0 .054-.036.09-.09.09zm1.143-.603c.477 0 .801-.234.945-.657.072-.225.099-.504.099-.9 0-.387-.027-.666-.099-.9-.144-.423-.468-.648-.945-.648-.477 0-.81.216-.954.648-.072.216-.099.468-.099.9s.027.693.099.9c.144.432.477.657.954.657zm3.717-4.68h-.612c-.054 0-.09-.036-.09-.09v-.657c0-.054.036-.09.09-.09h.612c.054 0 .09.036.09.09v.657c0 .054-.036.09-.09.09zm-1.215 6.903h-.18c-.054 0-.09-.036-.09-.09v-.522c0-.054.036-.09.09-.09h.144c.423 0 .567-.117.567-.576v-4.563c0-.054.036-.09.09-.09h.576c.054 0 .09.036.09.09v4.545c0 .927-.414 1.296-1.287 1.296zm4.374-1.521c-.873 0-1.494-.423-1.728-1.17-.09-.279-.144-.594-.144-1.089s.045-.828.135-1.089c.243-.747.873-1.161 1.692-1.161.828 0 1.449.423 1.692 1.161.09.279.135.576.135 1.233 0 .054-.036.09-.099.09h-2.727c-.036 0-.054.018-.054.054 0 .234.027.378.072.522.171.495.558.747 1.089.747.513 0 .873-.207 1.107-.477.045-.045.09-.054.135-.018l.369.333c.045.036.045.081.009.126-.342.432-.927.738-1.683.738zm-1.044-2.628h1.998c.036 0 .054-.018.054-.054 0-.198-.018-.351-.063-.486-.144-.432-.504-.675-.99-.675s-.846.243-.99.675c-.045.135-.063.288-.063.486 0 .036.018.054.054.054zm3.78.369c0-.477.054-.828.135-1.089.243-.747.873-1.161 1.701-1.161.657 0 1.161.279 1.476.729.027.045.027.081-.027.126l-.396.324c-.045.036-.09.036-.126-.009-.252-.315-.495-.468-.927-.468-.468 0-.819.225-.963.675-.072.225-.099.495-.099.873 0 .387.027.657.099.882.144.45.495.675.963.675.432 0 .675-.153.927-.468.036-.045.081-.045.126-.009l.396.324c.054.045.054.081.027.126-.315.45-.819.729-1.476.729-.828 0-1.458-.414-1.701-1.161-.081-.261-.135-.612-.135-1.098zm6.093 2.205h-.333c-.837 0-1.161-.378-1.161-1.224v-2.466c0-.036-.018-.054-.054-.054h-.36c-.054 0-.09-.036-.09-.09v-.432c0-.054.036-.09.09-.09h.36c.036 0 .054-.018.054-.054V43.42c0-.054.036-.09.09-.09h.576c.054 0 .09.036.09.09v1.215c0 .036.018.054.054.054h.684c.054 0 .09.036.09.09v.432c0 .054-.036.09-.09.09h-.684c-.036 0-.054.018-.054.054v2.439c0 .432.162.549.549.549h.189c.054 0 .09.036.09.09v.522c0 .054-.036.09-.09.09z" fill="#999" fill-rule="nonzero"/><path d="M60.916 49h-.882c-.054 0-.09-.036-.09-.09v-5.022c0-.036-.018-.054-.054-.054h-1.602c-.054 0-.09-.036-.09-.09v-.774c0-.054.036-.09.09-.09h4.374c.054 0 .09.036.09.09v.774c0 .054-.036.09-.09.09H61.06c-.036 0-.054.018-.054.054v5.022c0 .054-.036.09-.09.09zm3.231 0h-.828c-.054 0-.09-.036-.09-.09v-4.158c0-.054.036-.09.09-.09h.828c.054 0 .09.036.09.09v.369h.009c.207-.333.576-.558 1.125-.558.342 0 .684.135.909.36.045.045.054.081.018.126l-.477.603c-.036.045-.081.054-.126.018-.198-.126-.405-.207-.639-.207-.567 0-.819.405-.819 1.098v2.349c0 .054-.036.09-.09.09zm6.066 0h-.756c-.054 0-.09-.036-.09-.09v-.315h-.009c-.207.297-.612.504-1.224.504-.792 0-1.458-.414-1.458-1.323 0-.945.666-1.377 1.737-1.377h.882c.036 0 .054-.018.054-.054v-.207c0-.495-.234-.72-.963-.72-.486 0-.783.135-.99.297-.045.036-.099.027-.126-.018l-.333-.594c-.027-.045-.018-.09.018-.117.351-.252.828-.423 1.539-.423 1.323 0 1.809.45 1.809 1.512v2.835c0 .054-.036.09-.09.09zm-1.827-.72c.621 0 .963-.243.963-.738v-.333c0-.036-.018-.054-.054-.054h-.72c-.648 0-.936.18-.936.585 0 .36.261.54.747.54zm5.085.72h-.72c-.063 0-.099-.036-.117-.09l-1.53-4.158c-.018-.054.018-.09.072-.09h.882c.054 0 .09.036.108.09l.954 2.817h.018l.936-2.817c.018-.054.054-.09.108-.09h.864c.054 0 .09.036.072.09l-1.53 4.158c-.018.054-.054.09-.117.09zm4.158.099c-.918 0-1.566-.45-1.809-1.206-.09-.279-.153-.612-.153-1.062 0-.45.054-.792.144-1.071.243-.756.909-1.197 1.773-1.197.891 0 1.539.459 1.782 1.197.099.306.144.603.144 1.305 0 .054-.036.09-.099.09h-2.673c-.036 0-.054.018-.054.054 0 .126.027.234.063.333.144.423.486.657.972.657s.801-.18 1.017-.414c.045-.045.09-.054.135-.018l.531.468c.045.036.045.081.009.126-.369.432-.981.738-1.782.738zm.864-2.754c0-.153-.018-.261-.054-.369-.117-.351-.441-.558-.846-.558-.414 0-.738.207-.855.558-.036.108-.054.216-.054.369 0 .036.018.054.054.054h1.701c.036 0 .054-.018.054-.054zm3.663 2.709h-.396c-.846 0-1.188-.405-1.188-1.242V42.97c0-.054.036-.09.09-.09h.828c.054 0 .09.036.09.09v4.788c0 .297.117.396.378.396h.198c.054 0 .09.036.09.09v.72c0 .054-.036.09-.09.09zM89.824 49h-.999c-.072 0-.108-.027-.135-.09l-1.17-2.385h-1.053c-.036 0-.054.018-.054.054v2.331c0 .054-.036.09-.09.09h-.882c-.054 0-.09-.036-.09-.09v-5.94c0-.054.036-.09.09-.09h2.367c1.125 0 1.953.747 1.953 1.827 0 .801-.459 1.422-1.161 1.683l1.287 2.493c.036.063 0 .117-.063.117zm-2.052-3.429c.558 0 .936-.342.936-.864 0-.531-.378-.873-.936-.873h-1.305c-.036 0-.054.018-.054.054v1.629c0 .036.018.054.054.054h1.305zm4.743 3.528c-.918 0-1.566-.45-1.809-1.206-.09-.279-.153-.612-.153-1.062 0-.45.054-.792.144-1.071.243-.756.909-1.197 1.773-1.197.891 0 1.539.459 1.782 1.197.099.306.144.603.144 1.305 0 .054-.036.09-.099.09h-2.673c-.036 0-.054.018-.054.054 0 .126.027.234.063.333.144.423.486.657.972.657s.801-.18 1.017-.414c.045-.045.09-.054.135-.018l.531.468c.045.036.045.081.009.126-.369.432-.981.738-1.782.738zm.864-2.754c0-.153-.018-.261-.054-.369-.117-.351-.441-.558-.846-.558-.414 0-.738.207-.855.558-.036.108-.054.216-.054.369 0 .036.018.054.054.054h1.701c.036 0 .054-.018.054-.054zm3.699 2.754c-.891 0-1.503-.351-1.863-.684-.036-.036-.036-.09 0-.126l.513-.54c.036-.036.09-.036.126 0 .315.288.819.495 1.269.495.531 0 .801-.216.801-.513 0-.261-.153-.423-.72-.477l-.468-.045c-.882-.09-1.332-.54-1.332-1.278 0-.837.603-1.368 1.683-1.368.675 0 1.242.225 1.629.531.045.036.045.09.018.126l-.441.531c-.036.045-.081.045-.126.018-.27-.189-.702-.36-1.134-.36-.432 0-.657.189-.657.45 0 .252.153.405.711.459l.468.045c.909.09 1.341.558 1.341 1.269 0 .864-.63 1.467-1.818 1.467zm4.608 0c-.918 0-1.566-.45-1.809-1.206-.09-.279-.153-.612-.153-1.062 0-.45.054-.792.144-1.071.243-.756.909-1.197 1.773-1.197.891 0 1.539.459 1.782 1.197.099.306.144.603.144 1.305 0 .054-.036.09-.099.09h-2.673c-.036 0-.054.018-.054.054 0 .126.027.234.063.333.144.423.486.657.972.657s.801-.18 1.017-.414c.045-.045.09-.054.135-.018l.531.468c.045.036.045.081.009.126-.369.432-.981.738-1.782.738zm.864-2.754c0-.153-.018-.261-.054-.369-.117-.351-.441-.558-.846-.558-.414 0-.738.207-.855.558-.036.108-.054.216-.054.369 0 .036.018.054.054.054h1.701c.036 0 .054-.018.054-.054zM105.565 49h-.828c-.054 0-.09-.036-.09-.09v-4.158c0-.054.036-.09.09-.09h.828c.054 0 .09.036.09.09v.369h.009c.207-.333.576-.558 1.125-.558.342 0 .684.135.909.36.045.045.054.081.018.126l-.477.603c-.036.045-.081.054-.126.018-.198-.126-.405-.207-.639-.207-.567 0-.819.405-.819 1.098v2.349c0 .054-.036.09-.09.09zm4.779 0h-.72c-.063 0-.099-.036-.117-.09l-1.53-4.158c-.018-.054.018-.09.072-.09h.882c.054 0 .09.036.108.09l.954 2.817h.018l.936-2.817c.018-.054.054-.09.108-.09h.864c.054 0 .09.036.072.09l-1.53 4.158c-.018.054-.054.09-.117.09zm5.814 0h-.756c-.054 0-.09-.036-.09-.09v-.315h-.009c-.207.297-.612.504-1.224.504-.792 0-1.458-.414-1.458-1.323 0-.945.666-1.377 1.737-1.377h.882c.036 0 .054-.018.054-.054v-.207c0-.495-.234-.72-.963-.72-.486 0-.783.135-.99.297-.045.036-.099.027-.126-.018l-.333-.594c-.027-.045-.018-.09.018-.117.351-.252.828-.423 1.539-.423 1.323 0 1.809.45 1.809 1.512v2.835c0 .054-.036.09-.09.09zm-1.827-.72c.621 0 .963-.243.963-.738v-.333c0-.036-.018-.054-.054-.054h-.72c-.648 0-.936.18-.936.585 0 .36.261.54.747.54zm4.896.774h-.432c-.873 0-1.206-.423-1.206-1.269v-2.286c0-.036-.018-.054-.054-.054h-.288c-.054 0-.09-.036-.09-.09v-.603c0-.054.036-.09.09-.09h.288c.036 0 .054-.018.054-.054V43.42c0-.054.036-.09.09-.09h.828c.054 0 .09.036.09.09v1.188c0 .036.018.054.054.054h.576c.054 0 .09.036.09.09v.603c0 .054-.036.09-.09.09h-.576c-.036 0-.054.018-.054.054v2.25c0 .306.126.405.405.405h.225c.054 0 .09.036.09.09v.72c0 .054-.036.09-.09.09zm2.106-5.211h-.828c-.054 0-.09-.036-.09-.09v-.783c0-.054.036-.09.09-.09h.828c.054 0 .09.036.09.09v.783c0 .054-.036.09-.09.09zm0 5.157h-.828c-.054 0-.09-.036-.09-.09v-4.158c0-.054.036-.09.09-.09h.828c.054 0 .09.036.09.09v4.158c0 .054-.036.09-.09.09zm3.105.099c-.882 0-1.548-.441-1.791-1.197-.099-.306-.144-.594-.144-1.071s.045-.765.144-1.071c.243-.756.909-1.197 1.791-1.197.873 0 1.539.441 1.782 1.197.099.306.144.594.144 1.071s-.045.765-.144 1.071c-.243.756-.909 1.197-1.782 1.197zm0-.9c.405 0 .684-.207.81-.567.072-.225.09-.432.09-.801 0-.369-.018-.567-.09-.801-.126-.36-.405-.567-.81-.567s-.693.207-.819.567c-.072.234-.09.432-.09.801 0 .369.018.576.09.801.126.36.414.567.819.567zm6.579.801h-.828c-.054 0-.09-.036-.09-.09v-2.502c0-.558-.279-.945-.819-.945-.522 0-.828.387-.828.945v2.502c0 .054-.036.09-.09.09h-.828c-.054 0-.09-.036-.09-.09v-4.158c0-.054.036-.09.09-.09h.828c.054 0 .09.036.09.09v.315h.009c.189-.27.567-.504 1.143-.504.927 0 1.503.684 1.503 1.611v2.736c0 .054-.036.09-.09.09zm2.961.099c-.891 0-1.503-.351-1.863-.684-.036-.036-.036-.09 0-.126l.513-.54c.036-.036.09-.036.126 0 .315.288.819.495 1.269.495.531 0 .801-.216.801-.513 0-.261-.153-.423-.72-.477l-.468-.045c-.882-.09-1.332-.54-1.332-1.278 0-.837.603-1.368 1.683-1.368.675 0 1.242.225 1.629.531.045.036.045.09.018.126l-.441.531c-.036.045-.081.045-.126.018-.27-.189-.702-.36-1.134-.36-.432 0-.657.189-.657.45 0 .252.153.405.711.459l.468.045c.909.09 1.341.558 1.341 1.269 0 .864-.63 1.467-1.818 1.467z" fill="#333" fill-rule="nonzero"/><path d="M28.5 8.5h74c1.38071 0 2.5 1.11929 2.5 2.5s-1.11929 2.5-2.5 2.5h-74c-1.38071 0-2.5-1.11929-2.5-2.5s1.11929-2.5 2.5-2.5z" fill="#666"/><rect fill-opacity=".3" fill="#999" x="21" y="59.5" width="97" height="5" rx="2.5"/><rect fill-opacity=".3" fill="#999" x="20" y="71.5" width="125" height="5" rx="2.5"/><rect fill-opacity=".3" fill="#999" x="21" y="83.5" width="212" height="5" rx="2.5"/><rect fill-opacity=".3" fill="#999" x="21" y="94.5" width="46" height="5" rx="2.5"/><rect fill-opacity=".3" fill="#999" x="21" y="106.5" width="212" height="5" rx="2.5"/><rect fill-opacity=".3" fill="#999" x="21" y="118.5" width="212" height="5" rx="2.5"/><rect fill-opacity=".3" fill="#999" x="21" y="130.5" width="212" height="5" rx="2.5"/><rect fill-opacity=".3" fill="#999" x="21" y="141.5" width="212" height="5" rx="2.5"/><rect fill-opacity=".3" fill="#999" x="20" y="153.5" width="103" height="5" rx="2.5"/><g transform="translate(20 172.5)"><rect fill="#4A90E2" width="36" height="12" rx="3"/><path d="M13.44423 7.9798c-.58604 0-1.1545-.24-1.46511-.54-.02345-.024-.03517-.06-.01172-.09l.36334-.432c.02345-.03.0586-.03.08205-.006.25786.21.6388.432 1.08419.432.4747 0 .75014-.246.75014-.588 0-.294-.17582-.486-.7267-.564l-.21098-.03c-.76772-.108-1.2014-.486-1.2014-1.164 0-.738.52745-1.23 1.34791-1.23.49814 0 .97284.162 1.2893.408.0293.024.03517.048.01173.084l-.2813.444c-.02345.03-.05275.036-.08205.018-.32233-.216-.62121-.318-.95526-.318-.40437 0-.62707.228-.62707.546 0 .282.1934.474.73256.552l.21098.03c.76772.108 1.18967.48 1.18967 1.182 0 .726-.50986 1.266-1.50028 1.266zm3.29944 0c-.59776 0-1.01972-.3-1.17795-.804-.0586-.186-.09963-.408-.09963-.708s.03517-.528.09377-.714c.15823-.504.5919-.798 1.15451-.798.58019 0 1.00214.306 1.16037.798.06447.204.09377.402.09377.87 0 .036-.02344.06-.06446.06h-1.74056c-.02344 0-.03516.012-.03516.036 0 .084.01758.156.04102.222.09377.282.31646.438.63293.438.31646 0 .52158-.12.66223-.276.0293-.03.0586-.036.0879-.012l.34578.312c.0293.024.0293.054.00586.084-.24028.288-.6388.492-1.16038.492zm.5626-1.836c0-.102-.01171-.174-.03515-.246-.07619-.234-.28717-.372-.55089-.372-.26958 0-.48056.138-.55674.372-.02344.072-.03516.144-.03516.246 0 .024.01172.036.03516.036h1.10763c.02344 0 .03516-.012.03516-.036zm3.6921 1.77h-.53916c-.03516 0-.0586-.024-.0586-.06v-1.668c0-.372-.18168-.63-.5333-.63-.33991 0-.53917.258-.53917.63v1.668c0 .036-.02344.06-.0586.06h-.53917c-.03516 0-.0586-.024-.0586-.06v-2.772c0-.036.02344-.06.0586-.06h.53916c.03517 0 .0586.024.0586.06v.21c.12894-.18.37508-.336.75015-.336.60363 0 .9787.456.9787 1.074v1.824c0 .036-.02345.06-.0586.06zm3.16465 0h-.53916c-.03516 0-.0586-.024-.0586-.06v-.216c-.14066.198-.37507.342-.756.342-.48056 0-.83219-.234-.9787-.696-.07033-.222-.09963-.426-.09963-.816 0-.39.0293-.594.09963-.816.14651-.462.49814-.696.9787-.696.38093 0 .61534.144.75014.342l.00586-1.404c0-.036.02344-.06.0586-.06h.53916c.03517 0 .0586.024.0586.06v3.96c0 .036-.02343.06-.0586.06zm-1.18381-.534c.26958 0 .45126-.132.52744-.372.04102-.132.0586-.276.0586-.54s-.01758-.408-.0586-.54c-.07618-.24-.25786-.372-.52744-.372-.26372 0-.4454.132-.52158.372-.04103.132-.0586.276-.0586.54s.01757.408.0586.54c.07618.24.25786.372.52158.372z" fill="#FFF" fill-rule="nonzero"/></g><path d="M223 175.5h9v9h-9z"/><path d="M225.25 183.375h4.5v-5.25h-4.5v5.25zm4.875-6.375h-1.3125l-.375-.375h-1.875l-.375.375h-1.3125v.75h5.25V177z" fill="#999" fill-rule="nonzero"/><g fill-rule="nonzero"><path d="M19.12829 15.48121H7.82033c-.43847 0-.80771-.32678-.80771-.7379V7.28007c0-.40057.3577-.7379.80771-.7379H19.1283c.43847 0 .8077.32679.8077.7379v7.46326c0 .41111-.3577.7379-.8077.7379z" fill="#E3E3E3"/><path fill="#231F20" opacity=".1" d="M8.62804 15.48121l4.83473-3.55243.03462-.18974-4.98473-3.27835-.01154 6.8624z"/><path d="M7.82033 15.48121c-.45 0-.80771-.32678-.80771-.7379v-7.4738c0-.4111.3577-.4849.80771-.4849s.80771.08434.80771.4849v8.2117h-.8077z" fill="#D54B3D"/><path d="M7.82033 6.89003c.57694 0 .69233.15812.69233.37949v8.10628h-.69233c-.38078 0-.69232-.28462-.69232-.63248v-7.4738c0-.23191.11539-.3795.69232-.3795zm0-.10541c-.45 0-.80771.08433-.80771.4849v7.4738c0 .41111.3577.7379.80771.7379h.80771v-8.2117c0-.41111-.3577-.4849-.8077-.4849z" fill="#D72B27"/><path d="M19.12829 15.48121h-.80772V7.24843c0-.4111.3577-.46381.80772-.46381.45 0 .8077.0527.8077.46381v7.50543c0 .40057-.3577.72735-.8077.72735z" fill="#D54B3D"/><path d="M19.12829 6.89003c.51924 0 .69232.09487.69232.3584v7.50543c0 .34786-.31155.63248-.69232.63248h-.69233v-8.1379c0-.27408.17308-.35841.69233-.35841zm0-.10541c-.45002 0-.80772.0527-.80772.46381v8.24332h.80772c.45 0 .8077-.32678.8077-.73789V7.24843c0-.4111-.3577-.46381-.8077-.46381z" fill="#D72B27"/><path d="M8.66667 8.98121L.08022 1.07605l.45164.16783 5.97706 3.93191L12.936.87033v7.38353c0 .40057-.3577.72735-.80771.72735H8.66667z" fill="url(#e)" transform="translate(7 6.5)"/><path d="M13.46277 11.92878L7.35878 7.88091c-.3577-.24245-.46155-.70626-.19616-1.03305.2654-.32678.78464-.40057 1.15388-.15812l5.1578 3.42594 5.19244-3.4681c.3577-.24245.8654-.16866 1.1308.16866.26538.32678.18461.7906-.18463 1.03305l-6.15014 4.0795z" fill="#D54B3D"/><path d="M19.12829 6.60541c.21923 0 .42693.09488.5654.26354.21923.28461.15.67464-.15001.88547l-6.08091 4.04787-6.03476-4.0057c-.31154-.21083-.39231-.6114-.17308-.88548.12693-.15812.34617-.26353.57694-.26353.15 0 .3.04216.4154.1265l5.14627 3.41538.06923.04217.06923-.04217 5.1809-3.4681c.12692-.07378.26538-.11595.41539-.11595zm0-.10541c-.16155 0-.33463.04217-.4731.13704l-5.19242 3.4681L8.30496 6.6792c-.13847-.09487-.31155-.13703-.48463-.13703-.25385 0-.5077.1054-.66924.3057-.25386.32678-.15.7906.2077 1.03304l6.10398 4.05842 6.1386-4.09004c.3577-.24245.43847-.69573.18462-1.03305-.16154-.21083-.40385-.31624-.6577-.31624z" fill="#D72B27"/></g><g fill="#7ED321" fill-opacity=".6"><path d="M19.42195 68.5h44.72683v9.2844H19.42195zM33.34634 115.76606h51.47805v9.2844H33.34634zM19 151.2156h49.79024V160.5H19zM88.62195 127.58257H192v9.2844H88.62195zM139.2561 80.31651H192v9.2844h-52.7439zM93.26341 103.94954h37.97561v9.2844H93.26341zM75.11951 68.5h41.77317v9.2844H75.11951zM140.1 103.94954H192v9.2844h-51.9z"/></g></g><g fill-rule="nonzero"><path d="M128.75 230h-17.5c-.67857 0-1.25-.54835-1.25-1.2382v-12.5236c0-.67216.55357-1.2382 1.25-1.2382h17.5c.67857 0 1.25.54835 1.25 1.2382v12.5236c0 .68985-.55357 1.2382-1.25 1.2382z" fill="#E3E3E3"/><path d="M111.5 230c-.83571 0-1.5-.52606-1.5-1.18788v-12.03151c0-.66182.66429-.78061 1.5-.78061s1.5.13576 1.5.7806V230h-1.5z" fill="#D54B3D"/><path d="M111.5 216.1697c1.07143 0 1.28571.25454 1.28571.6109v13.0497H111.5c-.70714 0-1.28571-.45818-1.28571-1.01818v-12.03151c0-.37334.21428-.61091 1.28571-.61091zm0-.1697c-.83571 0-1.5.13576-1.5.7806v12.03152c0 .66182.66429 1.18788 1.5 1.18788h1.5v-13.2194c0-.66181-.66429-.7806-1.5-.7806z" fill="#D72B27"/><path d="M129.5 230H128v-13.25333c0-.66182.66429-.74667 1.5-.74667s1.5.08485 1.5.74667v12.08242c0 .64485-.66429 1.17091-1.5 1.17091z" fill="#D54B3D"/><path d="M129.5 216.1695c.96429 0 1.28571.15253 1.28571.57626v12.0678c0 .55932-.57857 1.01695-1.28571 1.01695h-1.28571v-13.08475c0-.44068.32142-.57627 1.28571-.57627zm0-.1695c-.83571 0-1.5.08475-1.5.74576V230h1.5c.83571 0 1.5-.52542 1.5-1.18644v-12.0678c0-.66101-.66429-.74576-1.5-.74576z" fill="#D72B27"/><path d="M110.56004 217.28307c-.58051-.40231-.74905-1.17196-.31835-1.71421.4307-.54225 1.27338-.6647 1.87262-.26238l8.37057 5.6849 8.42676-5.75487c.58051-.40232 1.40446-.27987 1.83516.27987.4307.54225.29962 1.3119-.29962 1.71422L120.46616 224l-9.90612-6.71693z" fill="#D54B3D"/></g><g fill="#0072C6" fill-rule="nonzero"><path d="M90 217v4.0912l1.47772.90025c.03898.011.12342.01179.16239 0L98 217.84291c0-.49098-.47336-.84291-.74048-.84291H90z"/><path d="M90.00081 221.87612l1.34835.82599c.18996.12451.41888 0 .41888 0C91.53993 222.82662 98 219 98 219v6.92933C98 226.68365 97.45855 227 96.84972 227H90v-5.12388h.00081zM83.25273 219.93907c-.42532 0-.76422.19271-1.01445.57742-.25022.38471-.37571.89404-.37571 1.52797 0 .64336.12549 1.15196.37571 1.5258.25023.37457.57861.56076.9844.56076.41854 0 .75068-.18185.99565-.54555.24497-.3637.3682-.86867.3682-1.5142 0-.67306-.11872-1.19687-.35693-1.57144-.2382-.37384-.56358-.56076-.97687-.56076z"/><path d="M77.33138 214.5814v14.76167l11.64732 2.35463v-19.2898l-11.64732 2.1735zm7.79394 9.87637c-.4922.62452-1.13393.9375-1.92594.9375-.77173 0-1.39994-.30284-1.88612-.9078-.48543-.60568-.7289-1.39393-.7289-2.36621 0-1.02662.24648-1.8569.74017-2.49083.4937-.63394 1.14745-.95127 1.96126-.95127.76872 0 1.39092.30284 1.86507.90997.47491.60713.71237 1.40698.71237 2.40027.00075 1.02082-.24572 1.84385-.73791 2.46837z"/></g><g fill-rule="nonzero"><path d="M4.81895 0h11.3621C18.85075 0 21 2.0469 21 4.58948v10.82105C21 17.95311 18.85075 20 16.18105 20H4.81895C2.14925 20 0 17.95311 0 15.41053V4.58948C0 2.0469 2.14925 0 4.81895 0z" fill="url(#f)" transform="translate(44 212)"/><path d="M48.9504 218c-.11094 0-.21545.01724-.31437.05267l1.9812 1.83704 2.00314 1.86996.03655.0395.05848.05268.05849.05268.11697.11193 1.71802 1.58683c.0286.01602.1115.08517.17626.11432.08342.03756.17384.07218.26704.07518.10058.00325.20337-.02272.29387-.06237.06778-.0297.09793-.07226.17667-.12713l1.9885-1.8502 2.01045-1.86338 1.93734-1.79753c-.12438-.0607-.26213-.09218-.4094-.09218H48.95039zm-.6068.22387c-.21127.1803-.3436.45135-.3436.7572v6.03128c0 .24764.08831.47261.23394.64526l.2778-.23703 2.06894-1.8107 1.83499-1.6-.03656-.03951-2.01044-1.86337-2.01045-1.86996-.01462-.01317zm13.3786.05926l-1.95928 1.82387-2.00313 1.86337-.03655.03292 1.9081 1.66585 2.06892 1.8107.12428.10535c.1114-.16098.17546-.35929.17546-.57284v-6.03128c0-.2727-.10493-.52-.2778-.69794zm-9.0726 3.94403l-1.82767 1.6-2.07624 1.8107-.26318.23045c.13875.08048.29665.13169.46788.13169h12.09922c.20586 0 .39258-.07133.5483-.18436l-.1316-.11852-2.07623-1.8107-1.9081-1.65926-1.71801 1.59342c-.09299.05552-.15512.1171-.24591.1549-.14613.06087-.30627.11236-.46725.11014-.1614-.00224-.31966-.05913-.4645-.1233-.07271-.03221-.11147-.06422-.19675-.12858l-1.73995-1.60658z" fill="#FFF"/></g><g fill="#516FFF"><path d="M150.19285 219.23308h7.00335v1.17294h-7.00335v-1.17294zm0 2.05263h7.00335v1.17294h-7.00335v-1.17294zm0 1.9549h4.63457v1.17292h-4.63457v-1.17293z"/><path d="M153.29904 212c5.6892 0 10.29905 4.37504 10.29905 9.77444s-4.60986 9.77443-10.29905 9.77443c-5.68919 0-10.29904-4.37504-10.29904-9.77443 0-5.3994 4.60985-9.77444 10.29904-9.77444zm-5.4506 7.78421l-2.37667-2.32226h12.66913c.79061 0 1.44056.61161 1.44056 1.36117v6.07006c0 .74956-.64995 1.36577-1.44056 1.36577h-8.8519c-.7906 0-1.44055-.6162-1.44055-1.36577v-5.10897z"/></g><g fill-rule="nonzero"><g fill="#E01E5A"><path d="M212.4086 224.98942c0 1.07007-.96855 1.94421-2.1542 1.94421-1.18565 0-2.1542-.87414-2.1542-1.9442 0-1.07008.96855-1.94422 2.1542-1.94422h2.1542v1.94421zM213.49405 224.98942c0-1.07007.96856-1.9442 2.1542-1.9442 1.18565 0 2.15421.87413 2.15421 1.9442v4.86806c0 1.07007-.96856 1.94421-2.1542 1.94421-1.18565 0-2.1542-.87414-2.1542-1.9442v-4.86807z"/></g><g fill="#36C5F0"><path d="M215.64826 215.97885c-1.18565 0-2.1542-.87414-2.1542-1.94421 0-1.07007.96855-1.94421 2.1542-1.94421 1.18564 0 2.1542.87414 2.1542 1.9442v1.94422h-2.1542zM215.64826 216.95849c1.18564 0 2.1542.87414 2.1542 1.9442 0 1.07008-.96856 1.94422-2.1542 1.94422h-5.39386c-1.18565 0-2.1542-.87414-2.1542-1.94421 0-1.07007.96855-1.94421 2.1542-1.94421h5.39386z"/></g><g fill="#2EB67D"><path d="M224.44396 218.9027c0-1.07007.96855-1.94421 2.1542-1.94421 1.18565 0 2.1542.87414 2.1542 1.9442 0 1.07008-.96855 1.94422-2.1542 1.94422h-2.1542v-1.94421zM223.3585 218.9027c0 1.07007-.96855 1.9442-2.1542 1.9442-1.18565 0-2.1542-.87413-2.1542-1.9442v-4.86806c0-1.07007.96855-1.94421 2.1542-1.94421 1.18565 0 2.1542.87414 2.1542 1.9442v4.86807z"/></g><g fill="#ECB22E"><path d="M221.2043 227.91327c1.18565 0 2.1542.87414 2.1542 1.94421 0 1.07007-.96855 1.94421-2.1542 1.94421-1.18565 0-2.1542-.87414-2.1542-1.9442v-1.94422h2.1542zM221.2043 226.93363c-1.18565 0-2.1542-.87414-2.1542-1.9442 0-1.07008.96855-1.94422 2.1542-1.94422h5.39386c1.18565 0 2.1542.87414 2.1542 1.94421 0 1.07007-.96855 1.94421-2.1542 1.94421h-5.39386z"/></g></g><g fill-rule="nonzero"><path d="M20 4.6875v10.625C20 17.90125 17.90125 20 15.3125 20H4.6875C2.09875 20 0 17.90125 0 15.3125V4.6875C0 2.09875 2.09875 0 4.6875 0h10.625C17.90125 0 20 2.09875 20 4.6875z" fill="url(#g)" transform="translate(176 212)"/><path d="M5.96571.10684c-1.20411 0-2.31805.26361-3.24685.71797-.15737.07693-.312.15416-.45772.24154-.14057.08478-.26948.1774-.3984.27117-.0048.00319-.01234.00377-.01714.00725C.79097 2.11035.13303 3.1654.13303 4.33335c0 1.15113.64251 2.18933 1.6704 2.95171.0048.03107.00823.06475.00823.08797 0 .67413-.61235 1.22342-1.39029 1.23068.39203.1391.81266.21121 1.23772.21223.75085 0 1.42731-.23633 1.97554-.60794.74554.23672 1.5352.35826 2.33143.35884 3.21874 0 5.82445-1.89726 5.82445-4.23378 0-2.33651-2.60605-4.22622-5.8248-4.22622z" transform="translate(180 218)" fill="url(#h)"/></g><g filter="url(#i)" transform="translate(27 305)"><g transform="translate(2.80051)"><mask id="l" fill="#fff"><use xlink:href="#j"/></mask><use fill="#000" filter="url(#k)" xlink:href="#j"/><use fill="#FFF" xlink:href="#j"/><path fill="#7ED321" mask="url(#l)" d="M0-2h215.07928v4H0z"/><path d="M166.92729 12.88235h-.38647c-.0336 0-.05601-.0224-.05601-.056v-3.2542c0-.0224-.0112-.0336-.0336-.0336h-1.0418c-.0336 0-.056-.02241-.056-.05602v-.35286c0-.0336.0224-.05601.056-.05601h2.64929c.0336 0 .056.0224.056.056v.35287c0 .0336-.0224.05601-.056.05601h-1.0418c-.0224 0-.0336.0112-.0336.0336v3.2542c0 .0336-.0224.05601-.05601.05601zm2.90693.06161c-.63852 0-1.0978-.30245-1.29384-.89056-.07281-.21844-.10082-.44808-.10082-1.0754 0-.6273.02801-.85695.10082-1.0754.19604-.5881.65532-.89055 1.29384-.89055.64412 0 1.1034.30245 1.29944.89056.07281.21844.10082.44808.10082 1.0754 0 .62731-.028.85695-.10082 1.0754-.19604.5881-.65532.89055-1.29944.89055zm0-.46488c.42568 0 .69453-.20164.81215-.5657.0448-.14003.08401-.38647.08401-.93537s-.0392-.79535-.08401-.93538c-.11762-.36406-.38647-.5657-.81215-.5657-.42008 0-.68893.20164-.80655.5657-.0448.14003-.08401.38647-.08401.93538 0 .5489.0392.79534.08401.93537.11762.36406.38647.5657.80655.5657zm3.299.40327h-.38647c-.0336 0-.056-.0224-.056-.056v-3.2542c0-.0224-.01121-.0336-.03361-.0336h-1.0418c-.0336 0-.056-.02241-.056-.05602v-.35286c0-.0336.0224-.05601.056-.05601h2.64929c.0336 0 .056.0224.056.056v.35287c0 .0336-.0224.05601-.056.05601h-1.0418c-.0224 0-.0336.0112-.0336.0336v3.2542c0 .0336-.0224.05601-.056.05601zm1.0418-.056l1.32183-3.69668c.0112-.0336.028-.05601.06722-.05601h.36406c.03921 0 .06161.0224.07282.056l1.30504 3.69668c.0112.0336-.0056.05601-.03921.05601h-.39207c-.03921 0-.06161-.0168-.07282-.056l-.29125-.82896h-1.54028l-.29126.82895c-.0168.03921-.0392.05601-.0728.05601h-.39208c-.0336 0-.0504-.0224-.0392-.056zm.95777-1.28824h1.21542l-.59931-1.73072h-.0112l-.60491 1.73072zm2.7781 1.28823V9.12967c0-.0336.0224-.05601.05602-.05601h.38647c.0336 0 .056.0224.056.056v3.2542c0 .0224.0112.0336.03361.0336h1.81473c.03361 0 .05601.02241.05601.05602v.35286c0 .0336-.0224.05601-.056.05601h-2.29083c-.0336 0-.056-.0224-.056-.056zM166.31832 23.43524c-.0532-.04257-.06385-.10642-.02128-.15963l.56402-.713c.04257-.05322.10642-.05322.14899-.01065.30861.2554.79814.52145 1.36217.57466v-2.1816c-1.21319-.2022-1.94748-.95777-1.94748-2.04325 0-1.18125.80879-2.0326 1.94748-2.14967v-.55338c0-.06385.04256-.10642.10642-.10642h.41503c.06385 0 .10642.04257.10642.10642v.55338c.61723.05321 1.18126.26605 1.62822.56402.0532.04257.06385.08514.02128.14899l-.48953.72365c-.04256.05321-.09577.05321-.14898.02129-.30862-.19156-.64916-.3299-1.01099-.38311v2.07518c1.28768.21283 1.95812.95777 1.95812 2.05389 0 1.20254-.74494 2.04325-1.95812 2.21352v.56403c0 .06385-.04257.10642-.10642.10642h-.41503c-.06386 0-.10642-.04257-.10642-.10642v-.54274c-.8088-.03193-1.50052-.31926-2.0539-.75558zm2.0539-3.66083v-1.94747c-.4789.09577-.7875.47888-.7875.9897 0 .44696.1809.7875.7875.95777zm.62787 3.32029c.52146-.1277.79815-.50017.79815-1.09612 0-.4044-.19156-.75558-.79815-.9365v2.03262zm2.90525-.44696c-.01064-.06386.02129-.11706.08514-.13835l.92585-.21284c.0532-.01064.10642.01064.1277.0745.14899.42567.50017.76622 1.09612.76622.67044 0 1.0642-.4576 1.0642-1.07484 0-.7343-.46825-1.18126-1.18126-1.18126h-.30862c-.06385 0-.10642-.04256-.10642-.10642v-.8407c0-.06386.04257-.10643.10642-.10643h.28733c.63852 0 1.05356-.41503 1.05356-1.05355 0-.57467-.36183-.97906-.96842-.97906-.5321 0-.84071.29797-.96842.74494-.02128.06385-.06385.08513-.1277.07449l-.90457-.21284c-.06385-.01064-.09577-.06385-.08513-.1277.15963-.87264.95777-1.54308 2.12839-1.54308 1.35152 0 2.12839.83007 2.12839 2.00068 0 .6066-.2767 1.14933-.8088 1.50052v.02128c.42569.18091.95778.80879.95778 1.75592 0 1.3196-.96841 2.19224-2.26673 2.19224-1.12805 0-2.01133-.56402-2.2348-1.55372zm5.62959 2.5115V22.8925c0-.06385.04257-.10642.10642-.10642h1.00034c.06385 0 .10642.04257.10642.10642v1.15997c0 .10642-.01064.15963-.0745.22348l-.88327.91521c-.05321.05321-.09578.0745-.14899.0745-.06385 0-.10642-.04257-.10642-.10642zm4.27806-1.18126V18.2739h-.02128l-1.10676.77686c-.06386.04257-.11707.02128-.11707-.06385v-1.08548c0-.06385.02129-.10642.0745-.14899l1.15997-.84071c.0532-.04257.10642-.06385.19156-.06385h.90456c.06385 0 .10642.04256.10642.10642v7.02368c0 .06385-.04257.10642-.10642.10642h-.97906c-.06385 0-.10642-.04257-.10642-.10642zm5.57638 0V18.2739h-.02128l-1.10677.77686c-.06385.04257-.11706.02128-.11706-.06385v-1.08548c0-.06385.02129-.10642.0745-.14899l1.15997-.84071c.0532-.04257.10642-.06385.19155-.06385h.90457c.06385 0 .10642.04256.10642.10642v7.02368c0 .06385-.04257.10642-.10642.10642h-.97906c-.06385 0-.10642-.04257-.10642-.10642zm4.42705-.01064l2.36251-6.02334v-.03193h-1.79849c-.04257 0-.06385.02129-.06385.06385v.83007c0 .06386-.04257.10642-.10642.10642h-.9152c-.06386 0-.10643-.04256-.10643-.10642v-1.8517c0-.06385.04257-.10641.10642-.10641h4.05458c.06386 0 .10642.04256.10642.10642v.83007c0 .08513-.01064.13834-.03192.19155l-2.39444 6.0127c-.03193.0745-.0532.09578-.13834.09578h-1.01099c-.06385 0-.09578-.04257-.06385-.11706zm4.79952.01064V22.8925c0-.06385.04256-.10642.10641-.10642h1.0642c.06385 0 .10642.04257.10642.10642v1.08548c0 .06385-.04257.10642-.10642.10642h-1.0642c-.06385 0-.10641-.04257-.10641-.10642zm2.57535-1.1919c-.09578-.29797-.149-.63851-.149-2.31994 0-1.68143.05322-2.02197.149-2.31995.28733-.90456.97905-1.41537 2.0539-1.41537 1.07483 0 1.76655.5108 2.06453 1.41537.09578.29798.14899.63852.14899 2.31995s-.05321 2.02197-.149 2.31994c-.29797.90457-.9897 1.41538-2.06453 1.41538-1.07484 0-1.76656-.51081-2.0539-1.41538zm1.17061-.22348c.13835.38311.43632.57467.88328.57467.44696 0 .75558-.19156.89392-.57467.0745-.22348.09578-.46824.09578-2.09646s-.02128-1.87298-.09578-2.09646c-.13834-.38311-.44696-.57467-.89392-.57467s-.74493.19156-.88328.57467c-.0745.22348-.09578.46824-.09578 2.09646s.02129 1.87298.09578 2.09646zm4.40576.14899c-.01064-.05321.02129-.10642.08514-.1277l.90456-.22349c.06386-.01064.10642.02129.1277.08514.13835.4044.46825.69173 1.00035.69173.41504 0 .76622-.21284.89392-.59595.0745-.19156.09578-.42568.09578-.79815 0-.39375-.03192-.61723-.09578-.79814-.13834-.42568-.48952-.59595-.90456-.59595-.47889 0-.76622.2554-.88328.50017-.03193.0745-.05321.10642-.1277.10642h-.89393c-.06385 0-.10642-.04257-.10642-.10642V16.9543c0-.06386.04257-.10642.10642-.10642h3.85238c.06386 0 .10642.04256.10642.10642v.85135c0 .06385-.04256.10642-.10641.10642h-2.79884c-.04256 0-.06385.02129-.06385.06385v1.62822h.03193c.17027-.13834.54274-.31926 1.0642-.31926.92584 0 1.60693.43632 1.86233 1.22383.09578.30861.15963.64915.15963 1.23446 0 .47889-.0532.85136-.14899 1.13869-.27669.84071-1.08547 1.3196-2.04325 1.3196-1.1174 0-1.95812-.59595-2.11775-1.48987z" fill="#575757" fill-rule="nonzero"/><g transform="translate(76.96128 22.80927)"><mask id="n" fill="#fff"><use xlink:href="#m"/></mask><use fill="#333" xlink:href="#m"/><g mask="url(#n)" fill="#333"><path d="M-21.98894-18.80037h49.47511v39.81255h-49.4751z"/></g></g><g fill="#595959"><path d="M22.2825 22.2778c-2.08591-.9215-4.40193-2.0662-4.59624-2.77915v-.74778c.43274-.50612.77394-1.2122.97575-2.03867.48559-.38959.60626-1.19285.2043-1.75745v-1.67531c0-1.7282-.84218-2.91159-2.76706-2.91159-1.87536 0-2.7679 1.18338-2.7679 2.91159v1.67574c-.40153.56417-.28003 1.367.20431 1.75702.2018.82647.54343 1.53255.97617 2.03867v.74778c-.1939.7121-2.51033 1.85678-4.59624 2.77915-.17767.07955-.29543.27692-.29543.49752v1.8714c0 .2937.20555.53235.45896.53235h12.03985c.2534 0 .45896-.23866.45896-.53235v-1.8714c0-.2206-.11776-.41883-.29544-.49752z"/></g><rect fill="#D8D8D8" x="32.29625" y="8.29428" width="69.40258" height="5.52952" rx="2.76476"/><rect fill="#D8D8D8" x="32.29625" y="20.04451" width="41.22926" height="5.52952" rx="2.76476"/></g><g transform="translate(3.92072 64.97187)"><mask id="q" fill="#fff"><use xlink:href="#o"/></mask><use fill="#000" filter="url(#p)" xlink:href="#o"/><use fill="#FFF" xlink:href="#o"/><path fill="#7ED321" mask="url(#q)" d="M0-1.97187h215.07928v4H0z"/><use fill="#CCC" xlink:href="#r" transform="translate(7.5587 8.84962)"/><rect fill="#666" x="30.92194" y="6.8074" width="23.36324" height="2.72296" rx="1.36148"/><rect fill="#CCC" x="30.92194" y="14.97627" width="28.86048" height="2.72296" rx="1.36148"/><rect fill="#666" x="30.92194" y="25.18737" width="37.79348" height="2.72296" rx="1.36148"/><rect fill="#CCC" x="30.92194" y="33.35625" width="43.29072" height="2.72296" rx="1.36148"/><rect fill="#666" x="85.89428" y="6.8074" width="23.36324" height="2.72296" rx="1.36148"/><rect fill="#CCC" x="85.89428" y="14.97627" width="23.36324" height="2.72296" rx="1.36148"/><rect fill="#666" x="85.89428" y="25.18737" width="32.29625" height="2.72296" rx="1.36148"/><rect fill="#CCC" x="144.98955" y="6.8074" width="66.65396" height="2.72296" rx="1.36148"/><rect fill="#666" x="188.28027" y="17.01849" width="23.36324" height="2.72296" rx="1.36148"/></g><g transform="translate(3.92072 118.18159)"><mask id="u" fill="#fff"><use xlink:href="#s"/></mask><use fill="#000" filter="url(#t)" xlink:href="#s"/><use fill="#FFF" xlink:href="#s"/><path fill="#7ED321" mask="url(#u)" d="M0-2.18159h215.07928v4H0z"/><path d="M6.42433 17.80581h15.5646v3.23742h-1.0131v-2.2662H6.42433v2.2662h-.9271v-10.036h.9271v6.79858zm1.9832-1.94245c-.71436 0-1.29346-.57978-1.29346-1.29497 0-.7152.5791-1.29497 1.29346-1.29497.71437 0 1.29347.57978 1.29347 1.29497 0 .7152-.5791 1.29497-1.29347 1.29497zm-1.29346 1.29497v-.97123h2.9103v-2.58994h.9701v3.56117h-3.8804zm4.52713-3.56117h9.701v3.56117h-9.701v-3.56117z" fill="#CCC"/><rect fill="#666" x="30.92194" y="10.31928" width="86.58144" height="2.75181" rx="1.3759"/><rect fill="#CCC" x="30.92194" y="19.9506" width="102.38599" height="2.75181" rx="1.3759"/><rect fill="#CCC" x="30.92194" y="29.58192" width="102.38599" height="2.75181" rx="1.3759"/><rect fill="#666" x="30.92194" y="38.5253" width="32.9834" height="2.75181" rx="1.3759"/><rect fill="#666" x="85.20713" y="38.5253" width="32.9834" height="2.75181" rx="1.3759"/><rect fill="#CCC" x="144.98955" y="9.9753" width="66.65396" height="2.75181" rx="1.3759"/><rect fill="#666" x="188.28027" y="37.83735" width="23.36324" height="2.75181" rx="1.3759"/></g><g transform="translate(3.92072 202.75703)"><mask id="x" fill="#fff"><use xlink:href="#v"/></mask><use fill="#000" filter="url(#w)" xlink:href="#v"/><use fill="#FFF" xlink:href="#v"/><path fill="#7ED321" mask="url(#x)" d="M0-1.75703h215.07928v4H0z"/><use fill="#CCC" xlink:href="#y" transform="translate(7.5587 8.84962)"/><rect fill="#666" x="30.92194" y="6.8074" width="23.36324" height="2.72296" rx="1.36148"/><rect fill="#CCC" x="30.92194" y="14.97627" width="28.86048" height="2.72296" rx="1.36148"/><rect fill="#666" x="30.92194" y="25.18737" width="37.79348" height="2.72296" rx="1.36148"/><rect fill="#CCC" x="30.92194" y="33.35625" width="43.29072" height="2.72296" rx="1.36148"/><rect fill="#666" x="85.89428" y="6.8074" width="23.36324" height="2.72296" rx="1.36148"/><rect fill="#CCC" x="85.89428" y="14.97627" width="23.36324" height="2.72296" rx="1.36148"/><rect fill="#666" x="85.89428" y="25.18737" width="32.29625" height="2.72296" rx="1.36148"/><rect fill="#CCC" x="144.98955" y="6.8074" width="66.65396" height="2.72296" rx="1.36148"/><rect fill="#666" x="188.28027" y="17.01849" width="23.36324" height="2.72296" rx="1.36148"/></g><g transform="translate(0 41.44757)"><use fill="#000" filter="url(#z)" xlink:href="#A"/><use fill-opacity=".6" fill="#333" xlink:href="#A"/></g><path d="M8.33432 52.77284c-1.18741 0-2.34123-.47049-2.93493-1.0418-.04481-.0448-.06722-.12321-.0112-.19043l.85135-.97457c.0448-.05601.11202-.05601.16803-.0112.5041.40327 1.18742.78414 1.99396.78414.79535 0 1.24343-.36967 1.24343-.90737 0-.44808-.26885-.72813-1.17621-.85135l-.40328-.05601c-1.54588-.21284-2.40844-.94098-2.40844-2.28522 0-1.40026 1.053-2.33003 2.6997-2.33003 1.00818 0 1.94915.30246 2.58767.79535.06721.0448.07841.08961.0224.16803l-.68332 1.01938c-.04481.05601-.10082.06722-.15683.03361-.5825-.38087-1.1426-.5825-1.76992-.5825-.67213 0-1.01939.34726-1.01939.82895 0 .43688.31366.71693 1.18742.84015l.40327.056c1.56829.21285 2.39724.92978 2.39724 2.30763s-1.01939 2.39724-2.99095 2.39724zm6.99008 0c-1.71391 0-2.92374-1.03059-2.92374-2.92374v-4.70485c0-.06722.04481-.11203.11203-.11203h1.42266c.0672 0 .11202.04481.11202.11203v4.74966c0 .90737.50409 1.42266 1.27703 1.42266.76174 0 1.26583-.5153 1.26583-1.42266v-4.74966c0-.06722.0448-.11203.11202-.11203h1.42266c.06721 0 .11202.04481.11202.11203v4.70485c0 1.89315-1.20982 2.92374-2.91253 2.92374zm4.3352-.23524v-7.39335c0-.06722.0448-.11203.11201-.11203h1.34425c.07841 0 .14562.03361.19043.11203l2.6885 4.79447h.056v-4.79447c0-.06722.04481-.11203.11202-.11203h1.26583c.06722 0 .11202.04481.11202.11203v7.39335c0 .0672-.0448.11202-.11202.11202H24.0956c-.08962 0-.14563-.03361-.19043-.11202l-2.6997-4.78328h-.056v4.78328c0 .0672-.04482.11202-.11203.11202h-1.26583c-.06721 0-.11202-.04481-.11202-.11202zm7.28132 1.19861v-2.54286c0-.06721.0448-.11202.11202-.11202h1.26583c.06721 0 .11202.0448.11202.11202v1.35545c0 .10082-.0336.15683-.10082.22404l-1.109 1.00818c-.06721.05601-.11202.07842-.16803.07842-.06721 0-.11202-.04481-.11202-.12323zm5.04092-1.93795c-.0336-.05601-.0336-.11202.0112-.15683l1.0418-.79534c.0448-.03361.10081-.03361.15682.0224.19044.22404.5265.44808.92977.44808.71693 0 1.1202-.45928 1.1202-1.32184v-4.85048c0-.06722.04481-.11203.11203-.11203h1.42266c.0672 0 .11202.04481.11202.11203v4.77207c0 1.87074-1.0418 2.85652-2.77811 2.85652-.92977 0-1.76992-.41448-2.12839-.97458zm9.21929.97458c-1.71392 0-2.92374-1.03059-2.92374-2.92374v-4.70485c0-.06722.04481-.11203.11202-.11203h1.42266c.06721 0 .11202.04481.11202.11203v4.74966c0 .90737.5041 1.42266 1.27704 1.42266.76173 0 1.26583-.5153 1.26583-1.42266v-4.74966c0-.06722.0448-.11203.11202-.11203h1.42266c.0672 0 .11202.04481.11202.11203v4.70485c0 1.89315-1.20982 2.92374-2.91253 2.92374zm4.33519-.23524v-7.39335c0-.06722.0448-.11203.11202-.11203H47.071c.06721 0 .11202.04481.11202.11203v5.97069c0 .0448.0224.0672.06721.0672h3.36061c.06722 0 .11202.04482.11202.11203v1.24343c0 .0672-.0448.11202-.11202.11202h-4.9625c-.06721 0-.11202-.04481-.11202-.11202zm9.56654-.0112l2.41965-6.09392v-.0336h-1.6019c-.0448 0-.0672.0224-.0672.0672v.79535c0 .06721-.04482.11202-.11203.11202h-1.24343c-.0672 0-.11202-.0448-.11202-.11202v-2.11718c0-.06722.04481-.11203.11202-.11203h4.55924c.0672 0 .11202.04481.11202.11203v1.165c0 .05602-.0112.10083-.0224.13443l-2.41965 6.10512c-.0336.07841-.07841.10082-.15683.10082h-1.40025c-.06722 0-.10082-.04481-.06722-.12323zm5.4106 1.20981v-2.54286c0-.06721.0448-.11202.11201-.11202h1.26583c.06722 0 .11202.0448.11202.11202v1.35545c0 .10082-.0336.15683-.10081.22404l-1.109 1.00818c-.06722.05601-.11203.07842-.16804.07842-.0672 0-.11202-.04481-.11202-.12323zm5.5338-1.19861v-1.0418c0-.0672.0112-.10081.05601-.15682l2.6773-3.18138c.29125-.33607.44807-.66093.44807-1.053 0-.50409-.30245-.87376-.82895-.87376-.5153 0-.82895.31366-.89616.89617 0 .06721-.0448.10082-.12322.08961l-1.23223-.20163c-.06721-.0112-.10082-.06722-.08961-.13443.07841-1.05299.92977-1.97156 2.39723-1.97156 1.45627 0 2.34123.94097 2.34123 2.1732 0 .72813-.29125 1.29944-.77294 1.84834l-2.00517 2.36363v.0224h2.66609c.06721 0 .11202.04481.11202.11202v1.109c0 .06722-.0448.11203-.11202.11203h-4.52563c-.0672 0-.11202-.04481-.11202-.11202zm6.31796-1.32185c-.11202-.33606-.16803-.68332-.16803-2.37483 0-1.6915.056-2.03877.16803-2.37483.31365-.97458 1.0978-1.55709 2.29642-1.55709 1.19862 0 1.98276.5825 2.29642 1.55709.11202.33606.16803.68332.16803 2.37483 0 1.6915-.05601 2.03877-.16803 2.37483-.31366.97458-1.0978 1.55709-2.29642 1.55709-1.19862 0-1.98277-.5825-2.29642-1.55709zm1.52348-.28005c.11202.34727.36966.5153.77294.5153.39207 0 .66092-.16803.77294-.5153.06721-.20163.08961-.42567.08961-2.09478 0-1.6691-.0224-1.89315-.08961-2.09478-.11202-.34727-.38087-.5153-.77294-.5153-.40328 0-.66092.16803-.77294.5153-.06722.20163-.08962.42568-.08962 2.09478s.0224 1.89315.08962 2.09478zm6.598 1.6019v-5.73545h-.0224l-1.20982.82895c-.06722.0448-.12323.0224-.12323-.06721v-1.38906c0-.0672.0224-.11202.07842-.15683l1.27703-.91856c.05601-.04481.12322-.06722.20164-.06722h1.25463c.0672 0 .11202.04481.11202.11203v7.39335c0 .0672-.04481.11202-.11202.11202h-1.34425c-.06721 0-.11202-.04481-.11202-.11202zm5.14174 0l1.6131-2.94614-.02241-.0224c-.07841.0336-.26885.0672-.47049.0672-1.19861 0-2.1844-.89616-2.1844-2.29641 0-1.53468 1.109-2.43085 2.55407-2.43085 1.45627 0 2.55407.89617 2.55407 2.39724 0 .64972-.20164 1.23223-.5601 1.88194l-1.84834 3.38302c-.0336.06721-.05601.07842-.13443.07842h-1.42266c-.08961 0-.11202-.04481-.07841-.11202zm1.48987-4.18957c.61611 0 1.00819-.43688 1.00819-1.0642 0-.6161-.39208-1.05299-1.00819-1.05299-.61611 0-1.00818.43688-1.00818 1.053 0 .62731.39207 1.06419 1.00818 1.06419z" fill="#FFF" fill-rule="nonzero"/><g transform="translate(0 179.23274)"><use fill="#000" filter="url(#B)" xlink:href="#C"/><use fill-opacity=".6" fill="#333" xlink:href="#C"/></g><path d="M12.49028 190.43478h-1.1202c-.07842 0-.12323-.0448-.14563-.11202l-1.32184-4.73846h-.0224l-1.33305 4.73846c-.0224.06721-.06721.11202-.14563.11202h-1.1202c-.06721 0-.11202-.0448-.13442-.11202l-1.97156-7.39335c-.0112-.06721.0112-.11202.08961-.11202h1.44507c.07841 0 .12322.04481.13442.11202l1.0978 4.78328h.0224l1.29944-4.78328c.0224-.06721.06721-.11202.14563-.11202h.97458c.0672 0 .11202.04481.13442.11202l1.34425 4.78328h.0224l1.053-4.78328c.0112-.07841.056-.11202.13442-.11202h1.43386c.07841 0 .10082.04481.08962.11202l-1.96036 7.39335c-.0112.06721-.06721.11202-.14563.11202zm2.96854-.11202v-7.39335c0-.06721.04481-.11202.11202-.11202h4.8841c.0672 0 .11202.04481.11202.11202v1.19862c0 .06721-.04481.11202-.11202.11202h-3.2822c-.04481 0-.06722.0224-.06722.06721v1.51228c0 .0448.0224.06721.06722.06721h2.7333c.0672 0 .11202.04481.11202.11202v1.18742c0 .06721-.04481.11202-.11202.11202h-2.7333c-.04481 0-.06722.0224-.06722.06721v1.5795c0 .0448.0224.0672.06722.0672h3.2822c.0672 0 .11202.04481.11202.11202v1.19862c0 .06721-.04481.11202-.11202.11202h-4.8841c-.0672 0-.11202-.0448-.11202-.11202zm6.32916 0v-7.39335c0-.06721.0448-.11202.11202-.11202h2.83412c1.33304 0 2.26281.5713 2.63248 1.71391.13442.42568.20164.85136.20164 2.09479 0 1.24342-.06722 1.6691-.20164 2.09478-.36967 1.1426-1.29944 1.71391-2.63248 1.71391H21.9c-.06721 0-.11202-.0448-.11202-.11202zm1.6467-1.42266c0 .04481.0224.06722.06721.06722h.86256c.76174 0 1.22102-.22405 1.41146-.84016.07841-.22404.12322-.5153.12322-1.50107 0-.98578-.0448-1.27704-.12322-1.50108-.19044-.6161-.64972-.84015-1.41146-.84015h-.86256c-.0448 0-.06721.0224-.06721.06721v4.54803zm5.35458 2.62128v-2.54286c0-.06722.0448-.11202.11202-.11202h1.26583c.06721 0 .11202.0448.11202.11202v1.35544c0 .10082-.0336.15683-.10082.22405l-1.109 1.00818c-.06721.05601-.11202.07841-.16803.07841-.06721 0-.11202-.0448-.11202-.12322zm5.04092-1.93795c-.0336-.05601-.0336-.11202.0112-.15683l1.0418-.79535c.0448-.0336.10081-.0336.15682.0224.19043.22405.5265.44809.92977.44809.71693 0 1.1202-.45928 1.1202-1.32184v-4.85049c0-.06721.04481-.11202.11202-.11202h1.42266c.06722 0 .11203.04481.11203.11202v4.77207c0 1.87075-1.0418 2.85653-2.77811 2.85653-.92977 0-1.76993-.41448-2.1284-.97458zm9.21928.97458c-1.71391 0-2.92373-1.0306-2.92373-2.92374v-4.70486c0-.06721.0448-.11202.11202-.11202h1.42266c.06721 0 .11202.04481.11202.11202v4.74967c0 .90737.5041 1.42266 1.27703 1.42266.76174 0 1.26583-.5153 1.26583-1.42266v-4.74967c0-.06721.04481-.11202.11202-.11202h1.42266c.06722 0 .11202.04481.11202.11202v4.70486c0 1.89315-1.20982 2.92374-2.91253 2.92374zm4.3352-.23525v-7.39335c0-.06721.0448-.11202.11202-.11202h1.42265c.06722 0 .11203.04481.11203.11202v5.9707c0 .0448.0224.0672.0672.0672h3.36062c.06721 0 .11202.04481.11202.11203v1.24342c0 .06721-.0448.11202-.11202.11202h-4.9625c-.06722 0-.11203-.0448-.11203-.11202zm10.78757 0v-5.73544h-.0224l-1.20983.82895c-.06721.0448-.12322.0224-.12322-.06722V183.96c0-.06721.0224-.11202.07841-.15683l1.27704-.91857c.056-.0448.12322-.0672.20163-.0672h1.25463c.06721 0 .11202.0448.11202.11201v7.39335c0 .06721-.0448.11202-.11202.11202h-1.34424c-.06722 0-.11202-.0448-.11202-.11202zm4.33519-1.32184c-.11202-.33606-.16803-.68332-.16803-2.37483s.056-2.03877.16803-2.37484c.31365-.97457 1.0978-1.55708 2.29642-1.55708 1.19862 0 1.98276.5825 2.29642 1.55708.11202.33607.16803.68333.16803 2.37484 0 1.6915-.05601 2.03877-.16803 2.37483-.31366.97458-1.0978 1.55709-2.29642 1.55709-1.19862 0-1.98277-.58251-2.29642-1.55709zm1.52348-.28005c.11202.34726.36966.5153.77294.5153.39207 0 .66092-.16804.77294-.5153.06721-.20164.08961-.42568.08961-2.09478s-.0224-1.89315-.08961-2.09479c-.11202-.34726-.38087-.51529-.77294-.51529-.40328 0-.66092.16803-.77294.5153-.06722.20163-.08962.42567-.08962 2.09478 0 1.6691.0224 1.89314.08962 2.09478zm4.55923 2.80051v-2.54286c0-.06722.0448-.11202.11202-.11202h1.26583c.06721 0 .11202.0448.11202.11202v1.35544c0 .10082-.0336.15683-.10082.22405l-1.109 1.00818c-.06721.05601-.11202.07841-.16803.07841-.06721 0-.11202-.0448-.11202-.12322zm5.5338-1.19862v-1.04179c0-.06721.01121-.10082.05602-.15683l2.67729-3.18138c.29125-.33606.44808-.66092.44808-1.05299 0-.5041-.30246-.87376-.82895-.87376-.5153 0-.82895.31366-.89617.89616 0 .06722-.0448.10082-.12322.08962l-1.23222-.20164c-.06722-.0112-.10082-.0672-.08962-.13442.07841-1.053.92977-1.97156 2.39724-1.97156 1.45626 0 2.34123.94097 2.34123 2.1732 0 .72813-.29126 1.29943-.77294 1.84833l-2.00517 2.36364v.0224h2.66609c.0672 0 .11202.0448.11202.11202v1.109c0 .06721-.04481.11202-.11202.11202h-4.52563c-.06721 0-.11202-.0448-.11202-.11202zm6.31796-1.32184c-.11202-.33606-.16803-.68332-.16803-2.37483s.05601-2.03877.16803-2.37484c.31366-.97457 1.0978-1.55708 2.29642-1.55708 1.19862 0 1.98276.5825 2.29642 1.55708.11202.33607.16803.68333.16803 2.37484 0 1.6915-.056 2.03877-.16803 2.37483-.31366.97458-1.0978 1.55709-2.29642 1.55709-1.19862 0-1.98276-.58251-2.29642-1.55709zm1.52348-.28005c.11202.34726.36967.5153.77294.5153.39207 0 .66092-.16804.77294-.5153.06722-.20164.08962-.42568.08962-2.09478s-.0224-1.89315-.08962-2.09479c-.11202-.34726-.38087-.51529-.77294-.51529-.40327 0-.66092.16803-.77294.5153-.06721.20163-.08962.42567-.08962 2.09478 0 1.6691.0224 1.89314.08962 2.09478zm6.598 1.6019v-5.73545h-.0224l-1.20982.82895c-.06721.0448-.12322.0224-.12322-.06722V183.96c0-.06721.0224-.11202.07841-.15683l1.27704-.91857c.056-.0448.12322-.0672.20163-.0672h1.25463c.06721 0 .11202.0448.11202.11201v7.39335c0 .06721-.0448.11202-.11202.11202H88.6754c-.06722 0-.11202-.0448-.11202-.11202zm5.14175 0l1.61309-2.94615-.0224-.0224c-.07842.0336-.26885.06721-.47049.06721-1.19862 0-2.1844-.89616-2.1844-2.29642 0-1.53468 1.109-2.43084 2.55407-2.43084 1.45626 0 2.55406.89616 2.55406 2.39724 0 .64972-.20163 1.23222-.5601 1.88194l-1.84834 3.38302c-.0336.06721-.056.07841-.13442.07841h-1.42266c-.08962 0-.11202-.0448-.07841-.11202zm1.48987-4.18957c.61611 0 1.00818-.43688 1.00818-1.0642 0-.61611-.39207-1.05299-1.00818-1.05299-.61612 0-1.00819.43688-1.00819 1.053 0 .6273.39207 1.06419 1.00819 1.06419z" fill="#FFF" fill-rule="nonzero"/><g><g transform="translate(20.72378 260.44757)"><use fill="#000" filter="url(#D)" xlink:href="#E"/><use fill="#4C8CA7" xlink:href="#E"/></g><path d="M82.63087 279.55724v-9.07366c0-.08248.055-.13747.13748-.13747h3.47824c1.9797 0 2.91457.98985 2.91457 2.48838 0 1.05859-.49493 1.6635-1.0861 1.9797v.0275c.57742.21997 1.25107.96236 1.25107 2.10344 0 1.85597-1.16857 2.7496-3.21702 2.7496h-3.34076c-.08248 0-.13748-.055-.13748-.13749zm1.70475-5.32046h1.86973c.82487 0 1.33355-.49493 1.33355-1.22357 0-.74239-.50868-1.23732-1.33355-1.23732h-1.86973c-.05499 0-.08249.0275-.08249.0825v2.2959c0 .055.0275.08249.0825.08249zm-.08249 3.94567c0 .05499.0275.08248.0825.08248h1.9522c.90737 0 1.41604-.52242 1.41604-1.30605 0-.76989-.50867-1.29231-1.41604-1.29231h-1.9522c-.055 0-.0825.0275-.0825.08249v2.43339zm9.29363 1.6635c-1.3473 0-2.36465-.67365-2.73585-1.82848-.15122-.46743-.21996-.90737-.21996-1.636 0-.72865.06874-1.16859.21996-1.63602.3712-1.15482 1.38855-1.82848 2.73585-1.82848 1.33355 0 2.3509.67366 2.7221 1.82848.15122.46743.21996.90737.21996 1.63601s-.06874 1.16858-.21996 1.63601c-.3712 1.15483-1.38855 1.82848-2.7221 1.82848zm0-1.3748c.61866 0 1.04484-.3162 1.23732-.86612.10998-.3437.13748-.6599.13748-1.22357 0-.56366-.0275-.86612-.13748-1.22357-.19248-.54992-.61866-.86612-1.23732-.86612s-1.0586.3162-1.25107.86612c-.10998.35745-.13748.6599-.13748 1.22357s.0275.87987.13748 1.22357c.19248.54992.63241.86612 1.25107.86612zm7.19018 1.3748c-1.3473 0-2.36465-.67365-2.73584-1.82848-.15123-.46743-.21997-.90737-.21997-1.636 0-.72865.06874-1.16859.21997-1.63602.3712-1.15482 1.38854-1.82848 2.73584-1.82848 1.33356 0 2.3509.67366 2.7221 1.82848.15123.46743.21997.90737.21997 1.63601s-.06874 1.16858-.21997 1.63601c-.3712 1.15483-1.38854 1.82848-2.7221 1.82848zm0-1.3748c.61866 0 1.04485-.3162 1.23732-.86612.10999-.3437.13748-.6599.13748-1.22357 0-.56366-.0275-.86612-.13748-1.22357-.19247-.54992-.61866-.86612-1.23732-.86612-.61865 0-1.05859.3162-1.25106.86612-.10998.35745-.13748.6599-.13748 1.22357s.0275.87987.13748 1.22357c.19247.54992.6324.86612 1.25106.86612zm10.36597 1.22357h-1.44354c-.09623 0-.16497-.04124-.21996-.13748l-1.67725-2.77709-.89362 1.0311v1.746c0 .08248-.055.13747-.13748.13747h-1.26482c-.08248 0-.13747-.05499-.13747-.13748v-9.07366c0-.08248.05499-.13747.13747-.13747h1.26482c.08249 0 .13748.05499.13748.13747v5.3892l2.26841-2.6671c.08249-.09623.15123-.13748.26121-.13748h1.4023c.08248 0 .10998.08249.05499.13748l-2.10344 2.41964 2.41964 3.93192c.04124.055.01375.13748-.06874.13748zm4.6743-.13748v-9.07366c0-.08248.055-.13747.13749-.13747h1.26481c.10999 0 .17873.04124.23372.13747l3.80818 6.4478h.055v-6.4478c0-.08248.05499-.13747.13748-.13747h1.19607c.08249 0 .13748.05499.13748.13747v9.07366c0 .08249-.055.13748-.13748.13748h-1.25107c-.10998 0-.17872-.04124-.23371-.13748l-3.82194-6.43405h-.05499v6.43405c0 .08249-.05499.13748-.13748.13748h-1.19607c-.08249 0-.13748-.05499-.13748-.13748zm11.6033.2887c-1.3473 0-2.36466-.67364-2.73585-1.82847-.15123-.46743-.21997-.90737-.21997-1.636 0-.72865.06874-1.16859.21997-1.63602.3712-1.15482 1.38854-1.82848 2.73584-1.82848 1.33356 0 2.3509.67366 2.7221 1.82848.15123.46743.21997.90737.21997 1.63601s-.06874 1.16858-.21997 1.63601c-.3712 1.15483-1.38854 1.82848-2.7221 1.82848zm0-1.37479c.61865 0 1.04484-.3162 1.2373-.86612.11-.3437.13749-.6599.13749-1.22357 0-.56366-.0275-.86612-.13748-1.22357-.19247-.54992-.61866-.86612-1.23732-.86612s-1.0586.3162-1.25106.86612c-.10999.35745-.13748.6599-.13748 1.22357s.0275.87987.13748 1.22357c.19247.54992.6324.86612 1.25106.86612zm11.35581 1.22357H137.609c-.08249 0-.13748-.05499-.16498-.13748l-1.27856-4.23437h-.0275l-1.2923 4.23437c-.0275.08249-.08249.13748-.16498.13748h-1.12733c-.08249 0-.13748-.05499-.16498-.13748l-2.08969-6.35156c-.0275-.08249.01375-.13748.09624-.13748h1.3198c.09624 0 .15123.04125.17873.13748l1.27856 4.37186h.0275l1.2648-4.37186c.0275-.08249.09624-.13748.17873-.13748h.98985c.0825 0 .15123.055.17873.13748l1.3473 4.37186h.0275l1.20981-4.37186c.0275-.09623.0825-.13748.17873-.13748h1.3198c.08249 0 .12373.055.09624.13748l-2.0897 6.35156c-.02749.08249-.08248.13748-.16497.13748z" fill="#F7F7F7" fill-rule="nonzero"/></g></g></g></svg>