<?xml version="1.0" encoding="UTF-8"?>
<svg width="164px" height="164px" viewBox="0 0 164 164" version="1.1" xmlns="http://www.w3.org/2000/svg" xmlns:xlink="http://www.w3.org/1999/xlink">
    <!-- Generator: Sketch 53.2 (72643) - https://sketchapp.com -->
    <title>Group 17 Copy 2</title>
    <desc>Created with Sketch.</desc>
    <defs>
        <linearGradient x1="50%" y1="0%" x2="50%" y2="100%" id="linearGradient-1">
            <stop stop-color="#F1F8FF" offset="0%"></stop>
            <stop stop-color="#DFEEFF" offset="100%"></stop>
        </linearGradient>
        <circle id="path-2" cx="82" cy="82" r="82"></circle>
        <radialGradient cx="50%" cy="50%" fx="50%" fy="50%" r="52.7051338%" gradientTransform="translate(0.500000,0.500000),scale(1.000000,0.948674),rotate(90.000000),scale(1.000000,1.125132),translate(-0.500000,-0.500000)" id="radialGradient-4">
            <stop stop-color="#B3ACA4" offset="2.15182442%"></stop>
            <stop stop-color="#ACA59F" offset="100%"></stop>
        </radialGradient>
        <radialGradient cx="52.9710478%" cy="50%" fx="52.9710478%" fy="50%" r="71.141564%" gradientTransform="translate(0.529710,0.500000),scale(1.000000,0.702824),rotate(-90.000000),translate(-0.529710,-0.500000)" id="radialGradient-5">
            <stop stop-color="#CBC2B9" offset="0%"></stop>
            <stop stop-color="#BAB3AB" offset="100%"></stop>
        </radialGradient>
        <radialGradient cx="50%" cy="40.7376524%" fx="50%" fy="40.7376524%" r="40.7376524%" gradientTransform="translate(0.500000,0.407377),scale(0.883619,1.000000),rotate(-90.000000),scale(1.000000,1.507309),translate(-0.500000,-0.407377)" id="radialGradient-6">
            <stop stop-color="#174658" offset="0%"></stop>
            <stop stop-color="#113441" offset="100%"></stop>
        </radialGradient>
        <radialGradient cx="63.7508678%" cy="26.3592281%" fx="63.7508678%" fy="26.3592281%" r="109.691757%" gradientTransform="translate(0.637509,0.263592),scale(1.000000,0.926576),rotate(97.201498),translate(-0.637509,-0.263592)" id="radialGradient-7">
            <stop stop-color="#D4CDC5" offset="0%"></stop>
            <stop stop-color="#B0A9A2" offset="100%"></stop>
        </radialGradient>
        <radialGradient cx="50%" cy="50%" fx="50%" fy="50%" r="54.544906%" gradientTransform="translate(0.500000,0.500000),scale(0.764194,1.000000),rotate(90.000000),translate(-0.500000,-0.500000)" id="radialGradient-8">
            <stop stop-color="#174658" offset="0%"></stop>
            <stop stop-color="#113441" offset="100%"></stop>
        </radialGradient>
        <linearGradient x1="65.9760757%" y1="8.5229098%" x2="54.4688894%" y2="12.5814418%" id="linearGradient-9">
            <stop stop-color="#B2ABA3" offset="0%"></stop>
            <stop stop-color="#C6BEB5" offset="100%"></stop>
        </linearGradient>
    </defs>
    <g id="Marketing-Website-V0.9" stroke="none" stroke-width="1" fill="none" fill-rule="evenodd">
        <g id="Desktop-2560-Airlines-Hotels-OTAs" transform="translate(-784.000000, -1035.000000)">
            <g id="Group-17-Copy-2" transform="translate(784.000000, 1035.000000)">
                <mask id="mask-3" fill="white">
                    <use xlink:href="#path-2"></use>
                </mask>
                <use id="Mask" fill="url(#linearGradient-1)" xlink:href="#path-2"></use>
                <g id="Group-17" mask="url(#mask-3)">
                    <g transform="translate(-51.000000, -111.000000)">
                        <g id="Group-14" stroke-width="1" fill="none" transform="translate(49.776536, 59.860465)">
                            <g id="Face-&amp;-Neck">
                                <path d="M24.3094712,114.545494 L74.0860075,114.545494 C73.5276388,131.415768 73.5276388,142.98602 74.0860075,149.25625 C74.5010905,153.917445 77.2703251,159.719695 82.3937114,166.663 C76.4884778,177.024855 62.4666536,183.982394 49.7765363,183.982394 C37.086419,183.982394 22.0768768,177.024855 16.5207166,166.663 C21.5008802,159.444378 24.0971317,153.631711 24.3094712,149.225 C24.6244509,142.688181 24.6244509,131.128346 24.3094712,114.545494 Z" id="Neck" fill="url(#radialGradient-4)"></path>
                                <path d="M49.7765363,140.000165 C75.6538327,140.000165 98.9742757,89.8637761 98.9742757,51.2038302 C98.9742757,12.5438844 76.8064772,-0.044197548 49.7765363,0.000116516886 C22.7465955,0.0444305818 0.578796934,12.5438844 0.578796934,51.2038302 C0.578796934,89.8637761 23.8992399,140.000165 49.7765363,140.000165 Z" id="Face" fill="url(#radialGradient-5)"></path>
                            </g>
                            <g id="Mouth" transform="translate(34.727816, 105.289293)">
                                <path d="M0.0446235301,6.94215116 L15.0487203,6.94215116 L30.0974406,6.94215116 C24.712197,13.6088178 19.7033941,16.9421512 15.071032,16.9421512 C10.4386699,16.9421512 5.4298671,13.6088178 0.0446235301,6.94215116 Z" id="Path-2" fill="#A9A39D"></path>
                                <path d="M1.77635684e-15,0.209012904 L15.0040968,0.209012904 L30.052817,0.209012904 C24.2373081,4.26223105 20.0160602,6.50451239 17.3890735,6.93585691 L15.0264085,4.89270448 L12.7605104,6.95143401 C10.1150987,6.53412058 5.8615952,4.28664688 1.77635684e-15,0.209012904 Z" id="Path-2-Copy" fill="#A9A39D" transform="translate(15.026409, 3.580223) scale(1, -1) translate(-15.026409, -3.580223) "></path>
                                <path d="M0.0446235301,6.94215116 L15.0487203,6.94215116 L30.0974406,6.94215116 C24.712197,10.2754845 19.7033941,11.9421512 15.071032,11.9421512 C10.4386699,11.9421512 5.4298671,10.2754845 0.0446235301,6.94215116 Z" id="Path-2" fill="#9A918C"></path>
                            </g>
                        </g>
                        <path d="M100.106145,93.6018858 C97.2218937,103.197249 90.0637541,110.608071 78.6317265,115.834351 C67.3688904,120.983283 59.4431509,123.928026 54.8545077,124.668579 L54.8545077,127.373799 L57.20978,146.325581 C46.9184629,123.430624 48.8064154,118.698415 48.8064154,93.0280376 C48.8064154,67.6589271 67.5148093,55.7082996 99.5329945,55.4312895 L99.5329945,55.4263566 C99.7245098,55.4263566 99.9155605,55.4267654 100.106145,55.4275834 C100.29673,55.4267654 100.487781,55.4263566 100.679296,55.4263566 L100.679296,55.4312895 C132.697481,55.7082996 151.405875,67.6589271 151.405875,93.0280376 C151.405875,118.698415 153.293828,123.430624 143.002511,146.325581 L145.357783,127.373799 L145.357783,124.668579 C140.76914,123.928026 132.8434,120.983283 121.580564,115.834351 C110.148536,110.608071 102.990397,103.197249 100.106145,93.6018858 Z" id="Combined-Shape" fill="url(#radialGradient-6)"></path>
                        <path d="M154.860335,237.224806 L177.069349,243.990065 C183.207572,246.423885 187.877046,249.74772 191.077769,253.961568 C194.278493,258.175417 195.942248,263.591012 196.069036,270.208355 C196.531116,274.212718 197.174771,278.475837 198,282.997713 L158.201337,283.782946 L154.860335,237.224806 Z" id="Path-6" fill="url(#radialGradient-7)"></path>
                        <g id="Group-2" stroke-width="1" fill="none" transform="translate(39.821229, 222.813953)">
                            <path d="M59.7535142,19.4515255 C76.6751985,17.7968254 87.6936762,11.9512265 92.8089474,1.91472868 C97.7081138,6.41037218 105.100403,10.459959 114.985814,14.063489 L118.357542,63.1860465 L60.329347,63.1860465 L-7.10542736e-14,63.1860465 L3.43786289,14.063489 C13.517171,10.459959 21.0544555,6.41037218 26.0497164,1.91472868 C31.2653209,11.9512265 42.4999201,17.7968254 59.7535142,19.4515255 Z" id="Shirt" fill="#E8394D"></path>
                            <path d="M11.4539557,9.09207683 C17.0370225,7.72379484 21.9012031,4.69310256 26.0464973,0 C28.4419085,5.42025013 32.4219461,9.69151377 37.98661,12.8137909 C43.5512739,15.936068 48.0700041,17.6626604 51.5428005,17.993568 L39.4481325,29.5874085 C38.4737842,30.2862421 37.5174118,30.6356589 36.5790153,30.6356589 C35.6406188,30.6356589 34.0969576,30.2862421 31.9480317,29.5874085 C26.8356137,26.9858115 22.9397546,24.0604351 20.2604542,20.8112791 C17.5811539,17.5621231 14.6456544,13.6557224 11.4539557,9.09207683 Z" id="Collar" fill="url(#radialGradient-8)"></path>
                            <path d="M66.8147414,9.09207683 C72.3978083,7.72379484 77.2619888,4.69310256 81.407283,0 C83.8026942,5.42025013 87.7827318,9.69151377 93.3473957,12.8137909 C98.9120597,15.936068 103.43079,17.6626604 106.903586,17.993568 L94.8089182,29.5874085 C93.8345699,30.2862421 92.8781975,30.6356589 91.939801,30.6356589 C91.0014045,30.6356589 89.4577433,30.2862421 87.3088174,29.5874085 C82.1963994,26.9858115 78.3005403,24.0604351 75.62124,20.8112791 C72.9419397,17.5621231 70.0064401,13.6557224 66.8147414,9.09207683 Z" id="Collar" fill="url(#radialGradient-8)" transform="translate(86.859164, 15.317829) scale(-1, 1) translate(-86.859164, -15.317829) "></path>
                        </g>
                    </g>
                </g>
                <g id="Hand-and-Phone" mask="url(#mask-3)">
                    <g transform="translate(83.000000, 58.000000)">
                        <path d="M34.3972603,36.4375 C35.4354722,33.5534965 36.7851478,31.2087212 38.446287,29.4031739 C40.1074261,27.5976266 41.7685652,23.6638072 43.4297044,17.6017157 L52.1506849,14.3541667 L43.2739726,35.4632353 L34.3972603,36.4375 Z" id="Finger---Background" fill="#938A88"></path>
                        <g id="Phone" stroke-width="1" fill="none" transform="translate(2.219178, 0.000000)">
                            <path d="M77.791647,5.60153444 L78.1350775,5.63125 L77.3117481,5.88348467 C77.2237239,5.91884329 77.1321277,5.94787584 77.0374468,5.96996836 L77.0039108,5.97779352 L31.6414777,19.875 L-4.54747351e-13,17.8875 L1.04509902,17.5907859 C0.562878256,17.3173373 0.218941303,16.8212232 0.16143611,16.23125 C0.0679602851,15.272237 0.673907381,14.3836709 1.60083181,14.1205078 L50.7907515,0.154995464 C51.1515069,0.052573394 51.5282675,0.018698117 51.9015071,0.055125285 L77.0055018,2.50520701 C77.8471902,2.58735351 78.4890778,3.29493742 78.4890778,4.140625 C78.4890778,4.72263823 78.2217632,5.25351042 77.791647,5.60153444 Z" id="Combined-Shape" fill="#FFFFFF"></path>
                            <polygon id="Rectangle" fill="#D8D8D8" points="51.3366831 3.3125 78.1350775 5.63125 31.6414777 19.875 2.7000624e-13 17.8875"></polygon>
                        </g>
                        <path d="M17.7230607,105.983862 C28.5133563,106.199035 38.5483313,104.262476 47.8279856,100.174184 C45.2383147,86.6182698 42.9723526,76.6127139 41.0300993,70.1575165 C41.4617112,64.9933585 42.8644496,59.0760943 45.2383147,52.4057236 C47.6121797,45.735353 49.1228211,41.2167148 49.7702388,38.8498091 C53.8705512,33.1862704 56.1365133,29.2421001 56.5681251,27.0172981 C57.2155429,23.0711102 57.8629606,19.8069768 58.5103783,17.2248978 C60.6684375,11.2000469 60.3447286,7.86486158 57.5392517,7.21934184 C53.3310364,6.25106223 51.7124921,9.47866092 49.7702388,16.2566182 C48.0437915,20.0607024 46.5331501,23.6475957 45.2383147,27.0172981 C42.6486437,33.399426 39.6273609,35.9449703 36.1744663,34.6539308 L34.8796308,33.6856512 C33.5847953,28.9518397 32.3978628,24.8635481 31.3188332,21.4207761 L28.7291623,12.3834998 C27.8659386,4.63726288 26.2473943,0.548971192 23.8735292,0.118624699 C20.3127316,-0.52689504 18.3704784,1.40966418 19.341605,7.21934184 C20.8522464,19.9145634 22.6865967,29.0594264 24.8446558,34.6539308 C24.1972381,34.6539308 23.4419174,34.008411 22.5786937,32.7173716 C18.4783814,24.9711347 16.2124193,19.8069768 15.7808074,17.2248978 C15.1333897,13.3517794 14.8096808,0.764144439 9.6303389,0.764144439 C6.17744428,0.764144439 5.31422062,5.28278262 7.04066793,14.320059 C5.74583245,11.5228068 4.1272881,10.1241807 2.18503488,10.1241807 C0.242781653,10.1241807 -0.404636088,12.4910864 0.242781653,17.2248978 C1.10600531,22.1738825 2.18503488,25.8318277 3.47987036,28.1987334 C4.1272881,31.6415053 4.8826088,33.7932378 5.74583245,34.6539308 C7.47227976,40.4636084 8.33550342,46.0581128 8.33550342,51.437444 C8.33550342,59.5064407 10.9251744,70.1575165 12.5437187,73.707875 C13.6227483,76.0747807 15.3491956,86.8334431 17.7230607,105.983862 Z" id="Hand---Foreground" fill="url(#linearGradient-9)"></path>
                    </g>
                </g>
            </g>
        </g>
    </g>
</svg>