<?xml version="1.0" encoding="UTF-8"?>
<svg width="934px" height="482px" viewBox="0 0 934 482" version="1.1" xmlns="http://www.w3.org/2000/svg" xmlns:xlink="http://www.w3.org/1999/xlink">
    <!-- Generator: Sketch 53.2 (72643) - https://sketchapp.com -->
    <title>Group 2</title>
    <desc>Created with Sketch.</desc>
    <defs>
        <rect id="path-1" x="0" y="0" width="313" height="47" rx="4"></rect>
        <filter x="-1.0%" y="-6.4%" width="101.9%" height="112.8%" filterUnits="objectBoundingBox" id="filter-3">
            <feOffset dx="0" dy="0" in="SourceAlpha" result="shadowOffsetOuter1"></feOffset>
            <feGaussianBlur stdDeviation="1" in="shadowOffsetOuter1" result="shadowBlurOuter1"></feGaussianBlur>
            <feColorMatrix values="0 0 0 0 0   0 0 0 0 0   0 0 0 0 0  0 0 0 0.257048234 0" type="matrix" in="shadowBlurOuter1"></feColorMatrix>
        </filter>
        <polygon id="path-4" points="7.0625 0 8 0.75 4 3.95 0 0.75 0.9375 0 4 2.45"></polygon>
        <rect id="path-6" x="0" y="0" width="313" height="65" rx="4"></rect>
        <filter x="-2.2%" y="-7.7%" width="104.5%" height="121.5%" filterUnits="objectBoundingBox" id="filter-8">
            <feOffset dx="0" dy="2" in="SourceAlpha" result="shadowOffsetOuter1"></feOffset>
            <feGaussianBlur stdDeviation="2" in="shadowOffsetOuter1" result="shadowBlurOuter1"></feGaussianBlur>
            <feColorMatrix values="0 0 0 0 0   0 0 0 0 0   0 0 0 0 0  0 0 0 0.245103034 0" type="matrix" in="shadowBlurOuter1"></feColorMatrix>
        </filter>
        <path d="M16.3340183,18.4606537 L17.7700568,17.0246153 C17.8570894,16.9375827 17.9006057,16.8070337 17.8570894,16.7200011 L16.0294041,7.7121235 C15.9858878,7.58157455 16.0294041,7.49454192 16.1164367,7.40750928 L20.2069705,3.31697551 C20.9032316,2.62071444 20.9032316,1.4892902 20.2069705,0.793029135 L20.2069705,0.793029135 C19.5107094,0.0967680662 18.3792852,0.0967680662 17.6830241,0.793029135 L13.4619414,5.01411186 C13.3749088,5.1011445 13.2878761,5.14466081 13.1573272,5.1011445 L4.01890065,3.40400814 C3.8883517,3.40400814 3.80131907,3.40400814 3.71428644,3.49104077 L2.23473167,5.01411186 C2.0606664,5.18817713 2.10418272,5.49279135 2.3217643,5.57982398 L9.24085867,8.62596615 C9.45844025,8.71299879 9.50195657,9.017613 9.3278913,9.19167827 L4.84571067,13.6738589 C4.75867804,13.7608915 4.62812909,13.8044078 4.54109645,13.7608915 L1.58198691,13.1516631 C1.45143796,13.1081468 1.36440533,13.1516631 1.2773727,13.2386957 L0.407046361,14.1090221 C0.232981094,14.2830873 0.276497411,14.5441852 0.494078995,14.6747342 L3.45318854,16.1107726 C3.45318854,16.154289 3.49670485,16.154289 3.54022117,16.1978053 L4.80219436,17.4597785 C4.84571067,17.5032948 4.84571067,17.5032948 4.84571067,17.5468111 L6.36878176,20.5494369 C6.45581439,20.7670185 6.76042861,20.8105348 6.93449388,20.6364696 L7.67427126,19.8966922 C7.7613039,19.8096596 7.80482021,19.6791106 7.7613039,19.592078 L7.15207546,16.5894521 C7.10855914,16.4589032 7.15207546,16.3718705 7.23910809,16.2848379 L11.9823866,11.5415594 C12.1564519,11.3674941 12.4175498,11.4110104 12.5480987,11.628592 L15.8118225,18.3736211 C15.8988551,18.5912027 16.159953,18.634719 16.3340183,18.4606537 Z" id="path-9"></path>
        <rect id="path-11" x="0" y="0" width="313" height="92" rx="4"></rect>
        <filter x="-2.2%" y="-5.4%" width="104.5%" height="115.2%" filterUnits="objectBoundingBox" id="filter-13">
            <feOffset dx="0" dy="2" in="SourceAlpha" result="shadowOffsetOuter1"></feOffset>
            <feGaussianBlur stdDeviation="2" in="shadowOffsetOuter1" result="shadowBlurOuter1"></feGaussianBlur>
            <feColorMatrix values="0 0 0 0 0   0 0 0 0 0   0 0 0 0 0  0 0 0 0.245103034 0" type="matrix" in="shadowBlurOuter1"></feColorMatrix>
        </filter>
        <rect id="path-14" x="0" y="0" width="313" height="65" rx="4"></rect>
        <filter x="-2.2%" y="-7.7%" width="104.5%" height="121.5%" filterUnits="objectBoundingBox" id="filter-16">
            <feOffset dx="0" dy="2" in="SourceAlpha" result="shadowOffsetOuter1"></feOffset>
            <feGaussianBlur stdDeviation="2" in="shadowOffsetOuter1" result="shadowBlurOuter1"></feGaussianBlur>
            <feColorMatrix values="0 0 0 0 0   0 0 0 0 0   0 0 0 0 0  0 0 0 0.245103034 0" type="matrix" in="shadowBlurOuter1"></feColorMatrix>
        </filter>
        <path d="M16.3340183,18.4606537 L17.7700568,17.0246153 C17.8570894,16.9375827 17.9006057,16.8070337 17.8570894,16.7200011 L16.0294041,7.7121235 C15.9858878,7.58157455 16.0294041,7.49454192 16.1164367,7.40750928 L20.2069705,3.31697551 C20.9032316,2.62071444 20.9032316,1.4892902 20.2069705,0.793029135 L20.2069705,0.793029135 C19.5107094,0.0967680662 18.3792852,0.0967680662 17.6830241,0.793029135 L13.4619414,5.01411186 C13.3749088,5.1011445 13.2878761,5.14466081 13.1573272,5.1011445 L4.01890065,3.40400814 C3.8883517,3.40400814 3.80131907,3.40400814 3.71428644,3.49104077 L2.23473167,5.01411186 C2.0606664,5.18817713 2.10418272,5.49279135 2.3217643,5.57982398 L9.24085867,8.62596615 C9.45844025,8.71299879 9.50195657,9.017613 9.3278913,9.19167827 L4.84571067,13.6738589 C4.75867804,13.7608915 4.62812909,13.8044078 4.54109645,13.7608915 L1.58198691,13.1516631 C1.45143796,13.1081468 1.36440533,13.1516631 1.2773727,13.2386957 L0.407046361,14.1090221 C0.232981094,14.2830873 0.276497411,14.5441852 0.494078995,14.6747342 L3.45318854,16.1107726 C3.45318854,16.154289 3.49670485,16.154289 3.54022117,16.1978053 L4.80219436,17.4597785 C4.84571067,17.5032948 4.84571067,17.5032948 4.84571067,17.5468111 L6.36878176,20.5494369 C6.45581439,20.7670185 6.76042861,20.8105348 6.93449388,20.6364696 L7.67427126,19.8966922 C7.7613039,19.8096596 7.80482021,19.6791106 7.7613039,19.592078 L7.15207546,16.5894521 C7.10855914,16.4589032 7.15207546,16.3718705 7.23910809,16.2848379 L11.9823866,11.5415594 C12.1564519,11.3674941 12.4175498,11.4110104 12.5480987,11.628592 L15.8118225,18.3736211 C15.8988551,18.5912027 16.159953,18.634719 16.3340183,18.4606537 Z" id="path-17"></path>
        <rect id="path-19" x="0" y="0" width="151" height="21"></rect>
        <filter x="-4.0%" y="-28.6%" width="107.9%" height="157.1%" filterUnits="objectBoundingBox" id="filter-20">
            <feOffset dx="0" dy="0" in="SourceAlpha" result="shadowOffsetOuter1"></feOffset>
            <feGaussianBlur stdDeviation="2" in="shadowOffsetOuter1" result="shadowBlurOuter1"></feGaussianBlur>
            <feComposite in="shadowBlurOuter1" in2="SourceAlpha" operator="out" result="shadowBlurOuter1"></feComposite>
            <feColorMatrix values="0 0 0 0 0   0 0 0 0 0   0 0 0 0 0  0 0 0 0.253000453 0" type="matrix" in="shadowBlurOuter1"></feColorMatrix>
        </filter>
        <rect id="path-21" x="0" y="0" width="151" height="21"></rect>
        <filter x="-4.0%" y="-28.6%" width="107.9%" height="157.1%" filterUnits="objectBoundingBox" id="filter-22">
            <feOffset dx="0" dy="0" in="SourceAlpha" result="shadowOffsetOuter1"></feOffset>
            <feGaussianBlur stdDeviation="2" in="shadowOffsetOuter1" result="shadowBlurOuter1"></feGaussianBlur>
            <feComposite in="shadowBlurOuter1" in2="SourceAlpha" operator="out" result="shadowBlurOuter1"></feComposite>
            <feColorMatrix values="0 0 0 0 0   0 0 0 0 0   0 0 0 0 0  0 0 0 0.253000453 0" type="matrix" in="shadowBlurOuter1"></feColorMatrix>
        </filter>
        <path d="M0,2.4916997 C0,1.11557195 1.11965717,0 2.50728552,0 L261.492714,0 C262.87745,0 264,1.10965268 264,2.4916997 L264,41.5083003 C264,42.884428 262.880343,44 261.492714,44 L2.50728552,44 C1.12254997,44 0,42.8903473 0,41.5083003 L0,2.4916997 Z" id="path-23"></path>
        <filter x="-2.7%" y="-11.4%" width="105.3%" height="131.8%" filterUnits="objectBoundingBox" id="filter-24">
            <feOffset dx="0" dy="2" in="SourceAlpha" result="shadowOffsetOuter1"></feOffset>
            <feGaussianBlur stdDeviation="2" in="shadowOffsetOuter1" result="shadowBlurOuter1"></feGaussianBlur>
            <feColorMatrix values="0 0 0 0 0   0 0 0 0 0   0 0 0 0 0  0 0 0 0.248907343 0" type="matrix" in="shadowBlurOuter1"></feColorMatrix>
        </filter>
        <linearGradient x1="50%" y1="0%" x2="50%" y2="100%" id="linearGradient-25">
            <stop stop-color="#85CDDB" offset="0%"></stop>
            <stop stop-color="#DAEFF4" offset="100%"></stop>
        </linearGradient>
        <filter x="-11.0%" y="-11.5%" width="122.0%" height="123.0%" filterUnits="objectBoundingBox" id="filter-26">
            <feOffset dx="0" dy="2" in="SourceAlpha" result="shadowOffsetOuter1"></feOffset>
            <feGaussianBlur stdDeviation="12" in="shadowOffsetOuter1" result="shadowBlurOuter1"></feGaussianBlur>
            <feColorMatrix values="0 0 0 0 0   0 0 0 0 0   0 0 0 0 0  0 0 0 0.254534528 0" type="matrix" in="shadowBlurOuter1" result="shadowMatrixOuter1"></feColorMatrix>
            <feMerge>
                <feMergeNode in="shadowMatrixOuter1"></feMergeNode>
                <feMergeNode in="SourceGraphic"></feMergeNode>
            </feMerge>
        </filter>
    </defs>
    <g id="Website-Animations" stroke="none" stroke-width="1" fill="none" fill-rule="evenodd">
        <g id="Artboard" transform="translate(-245.000000, -164.000000)">
            <g id="Group-2" transform="translate(269.000000, 186.000000)">
                <g id="Itinerary-1" transform="translate(587.000000, 6.000000)">
                    <g id="Card-1.1" transform="translate(4.000000, 0.000000)">
                        <g id="Card">
                            <mask id="mask-2" fill="white">
                                <use xlink:href="#path-1"></use>
                            </mask>
                            <g id="White-Background">
                                <use fill="black" fill-opacity="1" filter="url(#filter-3)" xlink:href="#path-1"></use>
                                <use fill="#FFFFFF" fill-rule="evenodd" xlink:href="#path-1"></use>
                            </g>
                            <rect id="Green-Stripe" fill="#7ED321" mask="url(#mask-2)" x="0" y="-2" width="313" height="4"></rect>
                        </g>
                        <text id="TOTAL" font-family="DINNextLTPro-Regular, DIN Next LT Pro" font-size="10" font-weight="normal" fill="#575757">
                            <tspan x="239" y="19">TOTAL</tspan>
                        </text>
                        <path d="M240.104,34.024 C240.024,33.96 240.008,33.864 240.072,33.784 L240.92,32.712 C240.984,32.632 241.08,32.632 241.144,32.696 C241.608,33.08 242.344,33.48 243.192,33.56 L243.192,30.28 C241.368,29.976 240.264,28.84 240.264,27.208 C240.264,25.432 241.48,24.152 243.192,23.976 L243.192,23.144 C243.192,23.048 243.256,22.984 243.352,22.984 L243.976,22.984 C244.072,22.984 244.136,23.048 244.136,23.144 L244.136,23.976 C245.064,24.056 245.912,24.376 246.584,24.824 C246.664,24.888 246.68,24.952 246.616,25.048 L245.88,26.136 C245.816,26.216 245.736,26.216 245.656,26.168 C245.192,25.88 244.68,25.672 244.136,25.592 L244.136,28.712 C246.072,29.032 247.08,30.152 247.08,31.8 C247.08,33.608 245.96,34.872 244.136,35.128 L244.136,35.976 C244.136,36.072 244.072,36.136 243.976,36.136 L243.352,36.136 C243.256,36.136 243.192,36.072 243.192,35.976 L243.192,35.16 C241.976,35.112 240.936,34.68 240.104,34.024 Z M243.192,28.52 L243.192,25.592 C242.472,25.736 242.008,26.312 242.008,27.08 C242.008,27.752 242.28,28.264 243.192,28.52 Z M244.136,33.512 C244.92,33.32 245.336,32.76 245.336,31.864 C245.336,31.256 245.048,30.728 244.136,30.456 L244.136,33.512 Z M251.48,34.84 L251.48,26.264 L251.448,26.264 L249.784,27.432 C249.688,27.496 249.608,27.464 249.608,27.336 L249.608,25.704 C249.608,25.608 249.64,25.544 249.72,25.48 L251.464,24.216 C251.544,24.152 251.624,24.12 251.752,24.12 L253.112,24.12 C253.208,24.12 253.272,24.184 253.272,24.28 L253.272,34.84 C253.272,34.936 253.208,35 253.112,35 L251.64,35 C251.544,35 251.48,34.936 251.48,34.84 Z M256.968,36.616 L256.968,33.208 C256.968,33.112 257.032,33.048 257.128,33.048 L258.632,33.048 C258.728,33.048 258.792,33.112 258.792,33.208 L258.792,34.952 C258.792,35.112 258.776,35.192 258.68,35.288 L257.352,36.664 C257.272,36.744 257.208,36.776 257.128,36.776 C257.032,36.776 256.968,36.712 256.968,36.616 Z M261.672,34.824 L265.224,25.768 L265.224,25.72 L262.52,25.72 C262.456,25.72 262.424,25.752 262.424,25.816 L262.424,27.064 C262.424,27.16 262.36,27.224 262.264,27.224 L260.888,27.224 C260.792,27.224 260.728,27.16 260.728,27.064 L260.728,24.28 C260.728,24.184 260.792,24.12 260.888,24.12 L266.984,24.12 C267.08,24.12 267.144,24.184 267.144,24.28 L267.144,25.528 C267.144,25.656 267.128,25.736 267.096,25.816 L263.496,34.856 C263.448,34.968 263.416,35 263.288,35 L261.768,35 C261.672,35 261.624,34.936 261.672,34.824 Z M271.784,34.84 L271.784,26.264 L271.752,26.264 L270.088,27.432 C269.992,27.496 269.912,27.464 269.912,27.336 L269.912,25.704 C269.912,25.608 269.944,25.544 270.024,25.48 L271.768,24.216 C271.848,24.152 271.928,24.12 272.056,24.12 L273.416,24.12 C273.512,24.12 273.576,24.184 273.576,24.28 L273.576,34.84 C273.576,34.936 273.512,35 273.416,35 L271.944,35 C271.848,35 271.784,34.936 271.784,34.84 Z M277.512,32.936 C277.496,32.856 277.544,32.776 277.64,32.744 L279,32.408 C279.096,32.392 279.16,32.44 279.192,32.536 C279.4,33.144 279.896,33.576 280.696,33.576 C281.32,33.576 281.848,33.256 282.04,32.68 C282.152,32.392 282.184,32.04 282.184,31.48 C282.184,30.888 282.136,30.552 282.04,30.28 C281.832,29.64 281.304,29.384 280.68,29.384 C279.96,29.384 279.528,29.768 279.352,30.136 C279.304,30.248 279.272,30.296 279.16,30.296 L277.816,30.296 C277.72,30.296 277.656,30.232 277.656,30.136 L277.656,24.28 C277.656,24.184 277.72,24.12 277.816,24.12 L283.608,24.12 C283.704,24.12 283.768,24.184 283.768,24.28 L283.768,25.56 C283.768,25.656 283.704,25.72 283.608,25.72 L279.4,25.72 C279.336,25.72 279.304,25.752 279.304,25.816 L279.304,28.264 L279.352,28.264 C279.608,28.056 280.168,27.784 280.952,27.784 C282.344,27.784 283.368,28.44 283.752,29.624 C283.896,30.088 283.992,30.6 283.992,31.48 C283.992,32.2 283.912,32.76 283.768,33.192 C283.352,34.456 282.136,35.176 280.696,35.176 C279.016,35.176 277.752,34.28 277.512,32.936 Z M285.656,34.84 L285.656,33.208 C285.656,33.112 285.72,33.048 285.816,33.048 L287.416,33.048 C287.512,33.048 287.576,33.112 287.576,33.208 L287.576,34.84 C287.576,34.936 287.512,35 287.416,35 L285.816,35 C285.72,35 285.656,34.936 285.656,34.84 Z M289.384,34.84 L289.384,33.64 C289.384,33.544 289.4,33.496 289.464,33.432 L293.304,28.648 C293.736,28.12 294.008,27.608 294.008,26.984 C294.008,26.168 293.48,25.544 292.568,25.544 C291.704,25.544 291.208,26.072 291.096,26.904 C291.08,27 291.016,27.048 290.92,27.032 L289.512,26.744 C289.416,26.728 289.368,26.648 289.384,26.552 C289.528,25.272 290.552,23.944 292.616,23.944 C294.648,23.944 295.816,25.288 295.816,26.984 C295.816,27.96 295.432,28.76 294.792,29.528 L291.624,33.368 L291.624,33.4 L295.656,33.4 C295.752,33.4 295.816,33.464 295.816,33.56 L295.816,34.84 C295.816,34.936 295.752,35 295.656,35 L289.544,35 C289.448,35 289.384,34.936 289.384,34.84 Z M297.496,31.912 C297.496,30.68 298.12,29.768 298.856,29.304 L298.856,29.272 C298.312,28.904 297.736,28.104 297.736,27.048 C297.736,25.416 298.904,23.944 301,23.944 C303.112,23.944 304.28,25.416 304.28,27.048 C304.28,28.104 303.704,28.904 303.16,29.272 L303.16,29.304 C303.896,29.768 304.52,30.68 304.52,31.912 C304.52,33.848 303.064,35.176 301,35.176 C298.952,35.176 297.496,33.848 297.496,31.912 Z M301,28.488 C301.896,28.488 302.472,27.8 302.472,27.016 C302.472,26.216 301.896,25.544 301,25.544 C300.12,25.544 299.544,26.216 299.544,27.016 C299.544,27.8 300.12,28.488 301,28.488 Z M299.304,31.832 C299.304,32.856 299.976,33.576 301,33.576 C302.04,33.576 302.712,32.856 302.712,31.832 C302.712,30.824 302.04,30.088 301,30.088 C299.976,30.088 299.304,30.824 299.304,31.832 Z" id="$1,715.28" fill="#575757" fill-rule="nonzero"></path>
                        <g id="Icon-Chevron" transform="translate(112.000000, 33.000000)">
                            <mask id="mask-5" fill="white">
                                <use xlink:href="#path-4"></use>
                            </mask>
                            <use id="Mask" fill="#333333" xlink:href="#path-4"></use>
                            <g id="↳🎨icon-color" mask="url(#mask-5)" fill="#333333">
                                <g transform="translate(-32.000000, -27.200000)" id="Icon-Shade">
                                    <rect x="0" y="0" width="72" height="57.6"></rect>
                                </g>
                            </g>
                        </g>
                        <g id="Icon-Avatar-1" transform="translate(11.000000, 12.000000)" fill="#595959">
                            <path d="M21.427209,20.2310749 C18.3916334,18.8978549 15.0211939,17.2417506 14.7384064,16.2102626 L14.7384064,15.1283823 C15.3681687,14.3961378 15.8647121,13.3746039 16.1583994,12.1788742 C16.8650653,11.6152264 17.0406722,10.4530916 16.4557198,9.6362377 L16.4557198,7.21242763 C16.4557198,4.71209582 15.2301055,3 12.4288742,3 C9.69970228,3 8.40081748,4.71209582 8.40081748,7.21242763 L8.40081748,9.63685983 C7.81647071,10.4530916 7.99328859,11.6146042 8.69813796,12.1788742 C8.9918252,13.3746039 9.48897411,14.3961378 10.1187364,15.1283823 L10.1187364,16.2102626 C9.83655447,17.2405063 6.46550941,18.8966106 3.4299339,20.2310749 C3.17136802,20.3461685 3,20.6317252 3,20.9508768 L3,23.6583772 C3,24.0832905 3.2991371,24.4285714 3.66791139,24.4285714 L21.1892315,24.4285714 C21.5580058,24.4285714 21.8571429,24.0832905 21.8571429,23.6583772 L21.8571429,20.9508768 C21.8571429,20.6317252 21.6857748,20.3449243 21.427209,20.2310749 L21.427209,20.2310749 Z" id="Avatar-1"></path>
                        </g>
                        <rect id="Text-1.1.1" fill="#D8D8D8" x="47" y="12" width="101" height="8" rx="4"></rect>
                        <rect id="Text-1.1.2" fill="#D8D8D8" x="47" y="29" width="60" height="8" rx="4"></rect>
                    </g>
                    <g id="Card-1.2" transform="translate(6.000000, 96.000000)">
                        <g id="Card">
                            <mask id="mask-7" fill="white">
                                <use xlink:href="#path-6"></use>
                            </mask>
                            <g id="White-Background">
                                <use fill="black" fill-opacity="1" filter="url(#filter-8)" xlink:href="#path-6"></use>
                                <use fill="#FFFFFF" fill-rule="evenodd" xlink:href="#path-6"></use>
                            </g>
                            <rect id="Green-Stripe" fill="#7ED321" mask="url(#mask-7)" x="0" y="-2" width="313" height="4"></rect>
                        </g>
                        <g id="Icon-Plane" transform="translate(11.000000, 13.000000)">
                            <mask id="mask-10" fill="white">
                                <use xlink:href="#path-9"></use>
                            </mask>
                            <use id="Airplane" fill="#CCCCCC" xlink:href="#path-9"></use>
                        </g>
                        <rect id="Text-1" fill="#666666" x="45" y="10" width="34" height="4" rx="2"></rect>
                        <rect id="Text-2" fill="#CCCCCC" x="45" y="22" width="42" height="4" rx="2"></rect>
                        <rect id="Text-3" fill="#666666" x="45" y="37" width="55" height="4" rx="2"></rect>
                        <rect id="Text-4" fill="#CCCCCC" x="45" y="49" width="63" height="4" rx="2"></rect>
                        <rect id="Text-5" fill="#666666" x="125" y="10" width="34" height="4" rx="2"></rect>
                        <rect id="Text-6" fill="#CCCCCC" x="125" y="22" width="34" height="4" rx="2"></rect>
                        <rect id="Text-7" fill="#666666" x="125" y="37" width="47" height="4" rx="2"></rect>
                        <rect id="Text-8" fill="#CCCCCC" x="211" y="10" width="97" height="4" rx="2"></rect>
                        <rect id="Text-9" fill="#666666" x="274" y="25" width="34" height="4" rx="2"></rect>
                    </g>
                    <g id="Card-1.3" transform="translate(6.000000, 173.000000)">
                        <g id="Card">
                            <mask id="mask-12" fill="white">
                                <use xlink:href="#path-11"></use>
                            </mask>
                            <g id="White-Background">
                                <use fill="black" fill-opacity="1" filter="url(#filter-13)" xlink:href="#path-11"></use>
                                <use fill="#FFFFFF" fill-rule="evenodd" xlink:href="#path-11"></use>
                            </g>
                            <rect id="Green-Stripe" fill="#7ED321" mask="url(#mask-12)" x="0" y="-2" width="313" height="4"></rect>
                        </g>
                        <g id="Icon-Hotel" transform="translate(8.000000, 16.000000)" fill="#CCCCCC">
                            <path d="M1.34917647,9.88235294 L22.5256471,9.88235294 L24,9.88235294 L24,14.5882353 L22.5256471,14.5882353 L22.5256471,11.2941176 L1.34917647,11.2941176 L1.34917647,14.5882353 L0,14.5882353 L0,0 L1.34917647,0 L1.34917647,9.88235294 Z M4.23529412,7.05882353 C3.19569929,7.05882353 2.35294118,6.21606541 2.35294118,5.17647059 C2.35294118,4.13687577 3.19569929,3.29411765 4.23529412,3.29411765 C5.27488894,3.29411765 6.11764706,4.13687577 6.11764706,5.17647059 C6.11764706,6.21606541 5.27488894,7.05882353 4.23529412,7.05882353 Z M2.35294118,8.94117647 L2.35294118,7.52941176 L6.58823529,7.52941176 L6.58823529,3.76470588 L8,3.76470588 L8,8.94117647 L7.52941176,8.94117647 L6.58823529,8.94117647 L2.35294118,8.94117647 Z M8.94117647,3.76470588 L23.0588235,3.76470588 L23.0588235,8.94117647 L8.94117647,8.94117647 L8.94117647,3.76470588 Z" id="Combined-Shape"></path>
                        </g>
                        <rect id="Text-1" fill="#666666" x="45" y="15" width="126" height="4" rx="2"></rect>
                        <rect id="Text-2" fill="#CCCCCC" x="45" y="29" width="149" height="4" rx="2"></rect>
                        <rect id="Text-3" fill="#CCCCCC" x="45" y="43" width="149" height="4" rx="2"></rect>
                        <rect id="Text-4" fill="#666666" x="45" y="56" width="48" height="4" rx="2"></rect>
                        <rect id="Text-5" fill="#666666" x="124" y="56" width="48" height="4" rx="2"></rect>
                        <rect id="Text-6" fill="#CCCCCC" x="211" y="14.5" width="97" height="4" rx="2"></rect>
                        <rect id="Text-7" fill="#666666" x="274" y="55" width="34" height="4" rx="2"></rect>
                    </g>
                    <g id="Card-1.4" transform="translate(6.000000, 313.000000)">
                        <g id="Card">
                            <mask id="mask-15" fill="white">
                                <use xlink:href="#path-14"></use>
                            </mask>
                            <g id="White-Background">
                                <use fill="black" fill-opacity="1" filter="url(#filter-16)" xlink:href="#path-14"></use>
                                <use fill="#FFFFFF" fill-rule="evenodd" xlink:href="#path-14"></use>
                            </g>
                            <rect id="Green-Stripe" fill="#7ED321" mask="url(#mask-15)" x="0" y="-2" width="313" height="4"></rect>
                        </g>
                        <g id="Icon-Plane" transform="translate(11.000000, 13.000000)">
                            <mask id="mask-18" fill="white">
                                <use xlink:href="#path-17"></use>
                            </mask>
                            <use id="Airplane" fill="#CCCCCC" xlink:href="#path-17"></use>
                        </g>
                        <rect id="Text-1" fill="#666666" x="45" y="10" width="34" height="4" rx="2"></rect>
                        <rect id="Text-2" fill="#CCCCCC" x="45" y="22" width="42" height="4" rx="2"></rect>
                        <rect id="Text-3" fill="#666666" x="45" y="37" width="55" height="4" rx="2"></rect>
                        <rect id="Text-4" fill="#CCCCCC" x="45" y="49" width="63" height="4" rx="2"></rect>
                        <rect id="Text-5" fill="#666666" x="125" y="10" width="34" height="4" rx="2"></rect>
                        <rect id="Text-6" fill="#CCCCCC" x="125" y="22" width="34" height="4" rx="2"></rect>
                        <rect id="Text-7" fill="#666666" x="125" y="37" width="47" height="4" rx="2"></rect>
                        <rect id="Text-8" fill="#CCCCCC" x="211" y="10" width="97" height="4" rx="2"></rect>
                        <rect id="Text-9" fill="#666666" x="274" y="25" width="34" height="4" rx="2"></rect>
                    </g>
                    <g id="Date-1.1" transform="translate(0.000000, 63.000000)">
                        <path d="M156,11.198748 L319,11.198748" id="Dotted-Line" stroke="#979797" opacity="0.2" stroke-linecap="square" stroke-dasharray="2,4"></path>
                        <g id="Grey-Rectangle">
                            <use fill="black" fill-opacity="1" filter="url(#filter-20)" xlink:href="#path-19"></use>
                            <use fill-opacity="0.6" fill="#333333" fill-rule="evenodd" xlink:href="#path-19"></use>
                        </g>
                        <path d="M13.472,16 L11.44,16 C11.344,16 11.28,15.936 11.28,15.84 L11.28,7.312 C11.28,7.248 11.248,7.216 11.184,7.216 L8.432,7.216 C8.336,7.216 8.272,7.152 8.272,7.056 L8.272,5.28 C8.272,5.184 8.336,5.12 8.432,5.12 L16.48,5.12 C16.576,5.12 16.64,5.184 16.64,5.28 L16.64,7.056 C16.64,7.152 16.576,7.216 16.48,7.216 L13.728,7.216 C13.664,7.216 13.632,7.248 13.632,7.312 L13.632,15.84 C13.632,15.936 13.568,16 13.472,16 Z M17.952,15.84 L17.952,5.28 C17.952,5.184 18.016,5.12 18.112,5.12 L20.144,5.12 C20.24,5.12 20.304,5.184 20.304,5.28 L20.304,9.36 C20.304,9.424 20.336,9.456 20.4,9.456 L23.952,9.456 C24.016,9.456 24.048,9.424 24.048,9.36 L24.048,5.28 C24.048,5.184 24.112,5.12 24.208,5.12 L26.24,5.12 C26.336,5.12 26.4,5.184 26.4,5.28 L26.4,15.84 C26.4,15.936 26.336,16 26.24,16 L24.208,16 C24.112,16 24.048,15.936 24.048,15.84 L24.048,11.648 C24.048,11.584 24.016,11.552 23.952,11.552 L20.4,11.552 C20.336,11.552 20.304,11.584 20.304,11.648 L20.304,15.84 C20.304,15.936 20.24,16 20.144,16 L18.112,16 C18.016,16 17.952,15.936 17.952,15.84 Z M32.608,16.176 C30.16,16.176 28.432,14.704 28.432,12 L28.432,5.28 C28.432,5.184 28.496,5.12 28.592,5.12 L30.624,5.12 C30.72,5.12 30.784,5.184 30.784,5.28 L30.784,12.064 C30.784,13.36 31.504,14.096 32.608,14.096 C33.696,14.096 34.416,13.36 34.416,12.064 L34.416,5.28 C34.416,5.184 34.48,5.12 34.576,5.12 L36.608,5.12 C36.704,5.12 36.768,5.184 36.768,5.28 L36.768,12 C36.768,14.704 35.04,16.176 32.608,16.176 Z M38.72,17.552 L38.72,13.92 C38.72,13.824 38.784,13.76 38.88,13.76 L40.688,13.76 C40.784,13.76 40.848,13.824 40.848,13.92 L40.848,15.856 C40.848,16 40.8,16.08 40.704,16.176 L39.12,17.616 C39.024,17.696 38.96,17.728 38.88,17.728 C38.784,17.728 38.72,17.664 38.72,17.552 Z M46.624,15.84 L46.624,5.28 C46.624,5.184 46.688,5.12 46.784,5.12 L48.688,5.12 C48.816,5.12 48.896,5.168 48.944,5.28 L51.696,11.488 L51.76,11.488 L54.464,5.28 C54.512,5.168 54.592,5.12 54.72,5.12 L56.592,5.12 C56.688,5.12 56.752,5.184 56.752,5.28 L56.752,15.84 C56.752,15.936 56.688,16 56.592,16 L54.784,16 C54.688,16 54.624,15.936 54.624,15.84 L54.624,9.712 L54.56,9.712 L52.544,14.304 C52.48,14.448 52.384,14.512 52.24,14.512 L51.136,14.512 C50.992,14.512 50.896,14.448 50.832,14.304 L48.816,9.712 L48.752,9.712 L48.752,15.84 C48.752,15.936 48.688,16 48.592,16 L46.784,16 C46.688,16 46.624,15.936 46.624,15.84 Z M58.016,15.84 L61.76,5.28 C61.792,5.184 61.856,5.12 61.968,5.12 L63.984,5.12 C64.096,5.12 64.16,5.184 64.192,5.28 L67.872,15.84 C67.904,15.936 67.872,16 67.76,16 L65.68,16 C65.568,16 65.504,15.952 65.472,15.84 L64.848,13.936 L61.04,13.936 L60.432,15.84 C60.4,15.952 60.336,16 60.224,16 L58.128,16 C58.016,16 57.984,15.936 58.016,15.84 Z M61.696,11.936 L64.208,11.936 L62.976,8.128 L62.928,8.128 L61.696,11.936 Z M77.424,16 L75.152,16 C75.008,16 74.96,15.952 74.912,15.84 L73.04,11.856 L71.584,11.856 C71.52,11.856 71.488,11.888 71.488,11.952 L71.488,15.84 C71.488,15.936 71.424,16 71.328,16 L69.296,16 C69.2,16 69.136,15.936 69.136,15.84 L69.136,5.28 C69.136,5.184 69.2,5.12 69.296,5.12 L73.632,5.12 C75.856,5.12 77.328,6.512 77.328,8.496 C77.328,9.888 76.592,10.992 75.392,11.52 L77.536,15.808 C77.584,15.904 77.536,16 77.424,16 Z M73.504,9.856 C74.4,9.856 74.976,9.328 74.976,8.496 C74.976,7.68 74.4,7.152 73.504,7.152 L71.584,7.152 C71.52,7.152 71.488,7.184 71.488,7.248 L71.488,9.76 C71.488,9.824 71.52,9.856 71.584,9.856 L73.504,9.856 Z M83.984,15.824 L87.44,7.12 L87.44,7.072 L85.152,7.072 C85.088,7.072 85.056,7.104 85.056,7.168 L85.056,8.304 C85.056,8.4 84.992,8.464 84.896,8.464 L83.12,8.464 C83.024,8.464 82.96,8.4 82.96,8.304 L82.96,5.28 C82.96,5.184 83.024,5.12 83.12,5.12 L89.632,5.12 C89.728,5.12 89.792,5.184 89.792,5.28 L89.792,6.944 C89.792,7.024 89.776,7.088 89.76,7.136 L86.304,15.856 C86.256,15.968 86.192,16 86.08,16 L84.08,16 C83.984,16 83.936,15.936 83.984,15.824 Z M91.712,17.552 L91.712,13.92 C91.712,13.824 91.776,13.76 91.872,13.76 L93.68,13.76 C93.776,13.76 93.84,13.824 93.84,13.92 L93.84,15.856 C93.84,16 93.792,16.08 93.696,16.176 L92.112,17.616 C92.016,17.696 91.952,17.728 91.872,17.728 C91.776,17.728 91.712,17.664 91.712,17.552 Z M99.616,15.84 L99.616,14.352 C99.616,14.256 99.632,14.208 99.696,14.128 L103.52,9.584 C103.936,9.104 104.16,8.64 104.16,8.08 C104.16,7.36 103.728,6.832 102.976,6.832 C102.24,6.832 101.792,7.28 101.696,8.112 C101.696,8.208 101.632,8.256 101.52,8.24 L99.76,7.952 C99.664,7.936 99.616,7.856 99.632,7.76 C99.744,6.256 100.96,4.944 103.056,4.944 C105.136,4.944 106.4,6.288 106.4,8.048 C106.4,9.088 105.984,9.904 105.296,10.688 L102.432,14.064 L102.432,14.096 L106.24,14.096 C106.336,14.096 106.4,14.16 106.4,14.256 L106.4,15.84 C106.4,15.936 106.336,16 106.24,16 L99.776,16 C99.68,16 99.616,15.936 99.616,15.84 Z M108.64,13.952 C108.48,13.472 108.4,12.976 108.4,10.56 C108.4,8.144 108.48,7.648 108.64,7.168 C109.088,5.776 110.208,4.944 111.92,4.944 C113.632,4.944 114.752,5.776 115.2,7.168 C115.36,7.648 115.44,8.144 115.44,10.56 C115.44,12.976 115.36,13.472 115.2,13.952 C114.752,15.344 113.632,16.176 111.92,16.176 C110.208,16.176 109.088,15.344 108.64,13.952 Z M110.816,13.552 C110.976,14.048 111.344,14.288 111.92,14.288 C112.48,14.288 112.864,14.048 113.024,13.552 C113.12,13.264 113.152,12.944 113.152,10.56 C113.152,8.176 113.12,7.856 113.024,7.568 C112.864,7.072 112.48,6.832 111.92,6.832 C111.344,6.832 110.976,7.072 110.816,7.568 C110.72,7.856 110.688,8.176 110.688,10.56 C110.688,12.944 110.72,13.264 110.816,13.552 Z M120.24,15.84 L120.24,7.648 L120.208,7.648 L118.48,8.832 C118.384,8.896 118.304,8.864 118.304,8.736 L118.304,6.752 C118.304,6.656 118.336,6.592 118.416,6.528 L120.24,5.216 C120.32,5.152 120.416,5.12 120.528,5.12 L122.32,5.12 C122.416,5.12 122.48,5.184 122.48,5.28 L122.48,15.84 C122.48,15.936 122.416,16 122.32,16 L120.4,16 C120.304,16 120.24,15.936 120.24,15.84 Z M127.584,15.84 L129.888,11.632 L129.856,11.6 C129.744,11.648 129.472,11.696 129.184,11.696 C127.472,11.696 126.064,10.416 126.064,8.416 C126.064,6.224 127.648,4.944 129.712,4.944 C131.792,4.944 133.36,6.224 133.36,8.368 C133.36,9.296 133.072,10.128 132.56,11.056 L129.92,15.888 C129.872,15.984 129.84,16 129.728,16 L127.696,16 C127.568,16 127.536,15.936 127.584,15.84 Z M129.712,9.856 C130.592,9.856 131.152,9.232 131.152,8.336 C131.152,7.456 130.592,6.832 129.712,6.832 C128.832,6.832 128.272,7.456 128.272,8.336 C128.272,9.232 128.832,9.856 129.712,9.856 Z" id="THU,MAR7,2019" fill="#FFFFFF" fill-rule="nonzero"></path>
                    </g>
                    <g id="Date-1.2" transform="translate(0.000000, 281.000000)">
                        <path d="M156,10.5 L319,10.5" id="Dotted-Line" stroke="#979797" opacity="0.2" stroke-linecap="square" stroke-dasharray="2,4"></path>
                        <g id="Grey-Rectangle">
                            <use fill="black" fill-opacity="1" filter="url(#filter-22)" xlink:href="#path-21"></use>
                            <use fill-opacity="0.6" fill="#333333" fill-rule="evenodd" xlink:href="#path-21"></use>
                        </g>
                        <path d="M12.704,16.176 C11.008,16.176 9.36,15.504 8.512,14.688 C8.448,14.624 8.416,14.512 8.496,14.416 L9.712,13.024 C9.776,12.944 9.872,12.944 9.952,13.008 C10.672,13.584 11.648,14.128 12.8,14.128 C13.936,14.128 14.576,13.6 14.576,12.832 C14.576,12.192 14.192,11.792 12.896,11.616 L12.32,11.536 C10.112,11.232 8.88,10.192 8.88,8.272 C8.88,6.272 10.384,4.944 12.736,4.944 C14.176,4.944 15.52,5.376 16.432,6.08 C16.528,6.144 16.544,6.208 16.464,6.32 L15.488,7.776 C15.424,7.856 15.344,7.872 15.264,7.824 C14.432,7.28 13.632,6.992 12.736,6.992 C11.776,6.992 11.28,7.488 11.28,8.176 C11.28,8.8 11.728,9.2 12.976,9.376 L13.552,9.456 C15.792,9.76 16.976,10.784 16.976,12.752 C16.976,14.72 15.52,16.176 12.704,16.176 Z M17.744,15.84 L21.488,5.28 C21.52,5.184 21.584,5.12 21.696,5.12 L23.712,5.12 C23.824,5.12 23.888,5.184 23.92,5.28 L27.6,15.84 C27.632,15.936 27.6,16 27.488,16 L25.408,16 C25.296,16 25.232,15.952 25.2,15.84 L24.576,13.936 L20.768,13.936 L20.16,15.84 C20.128,15.952 20.064,16 19.952,16 L17.856,16 C17.744,16 17.712,15.936 17.744,15.84 Z M21.424,11.936 L23.936,11.936 L22.704,8.128 L22.656,8.128 L21.424,11.936 Z M33.296,16 L31.264,16 C31.168,16 31.104,15.936 31.104,15.84 L31.104,7.312 C31.104,7.248 31.072,7.216 31.008,7.216 L28.256,7.216 C28.16,7.216 28.096,7.152 28.096,7.056 L28.096,5.28 C28.096,5.184 28.16,5.12 28.256,5.12 L36.304,5.12 C36.4,5.12 36.464,5.184 36.464,5.28 L36.464,7.056 C36.464,7.152 36.4,7.216 36.304,7.216 L33.552,7.216 C33.488,7.216 33.456,7.248 33.456,7.312 L33.456,15.84 C33.456,15.936 33.392,16 33.296,16 Z M37.696,17.552 L37.696,13.92 C37.696,13.824 37.76,13.76 37.856,13.76 L39.664,13.76 C39.76,13.76 39.824,13.824 39.824,13.92 L39.824,15.856 C39.824,16 39.776,16.08 39.68,16.176 L38.096,17.616 C38,17.696 37.936,17.728 37.856,17.728 C37.76,17.728 37.696,17.664 37.696,17.552 Z M45.6,15.84 L45.6,5.28 C45.6,5.184 45.664,5.12 45.76,5.12 L47.664,5.12 C47.792,5.12 47.872,5.168 47.92,5.28 L50.672,11.488 L50.736,11.488 L53.44,5.28 C53.488,5.168 53.568,5.12 53.696,5.12 L55.568,5.12 C55.664,5.12 55.728,5.184 55.728,5.28 L55.728,15.84 C55.728,15.936 55.664,16 55.568,16 L53.76,16 C53.664,16 53.6,15.936 53.6,15.84 L53.6,9.712 L53.536,9.712 L51.52,14.304 C51.456,14.448 51.36,14.512 51.216,14.512 L50.112,14.512 C49.968,14.512 49.872,14.448 49.808,14.304 L47.792,9.712 L47.728,9.712 L47.728,15.84 C47.728,15.936 47.664,16 47.568,16 L45.76,16 C45.664,16 45.6,15.936 45.6,15.84 Z M56.992,15.84 L60.736,5.28 C60.768,5.184 60.832,5.12 60.944,5.12 L62.96,5.12 C63.072,5.12 63.136,5.184 63.168,5.28 L66.848,15.84 C66.88,15.936 66.848,16 66.736,16 L64.656,16 C64.544,16 64.48,15.952 64.448,15.84 L63.824,13.936 L60.016,13.936 L59.408,15.84 C59.376,15.952 59.312,16 59.2,16 L57.104,16 C56.992,16 56.96,15.936 56.992,15.84 Z M60.672,11.936 L63.184,11.936 L61.952,8.128 L61.904,8.128 L60.672,11.936 Z M76.4,16 L74.128,16 C73.984,16 73.936,15.952 73.888,15.84 L72.016,11.856 L70.56,11.856 C70.496,11.856 70.464,11.888 70.464,11.952 L70.464,15.84 C70.464,15.936 70.4,16 70.304,16 L68.272,16 C68.176,16 68.112,15.936 68.112,15.84 L68.112,5.28 C68.112,5.184 68.176,5.12 68.272,5.12 L72.608,5.12 C74.832,5.12 76.304,6.512 76.304,8.496 C76.304,9.888 75.568,10.992 74.368,11.52 L76.512,15.808 C76.56,15.904 76.512,16 76.4,16 Z M72.48,9.856 C73.376,9.856 73.952,9.328 73.952,8.496 C73.952,7.68 73.376,7.152 72.48,7.152 L70.56,7.152 C70.496,7.152 70.464,7.184 70.464,7.248 L70.464,9.76 C70.464,9.824 70.496,9.856 70.56,9.856 L72.48,9.856 Z M83.152,15.84 L85.456,11.632 L85.424,11.6 C85.312,11.648 85.04,11.696 84.752,11.696 C83.04,11.696 81.632,10.416 81.632,8.416 C81.632,6.224 83.216,4.944 85.28,4.944 C87.36,4.944 88.928,6.224 88.928,8.368 C88.928,9.296 88.64,10.128 88.128,11.056 L85.488,15.888 C85.44,15.984 85.408,16 85.296,16 L83.264,16 C83.136,16 83.104,15.936 83.152,15.84 Z M85.28,9.856 C86.16,9.856 86.72,9.232 86.72,8.336 C86.72,7.456 86.16,6.832 85.28,6.832 C84.4,6.832 83.84,7.456 83.84,8.336 C83.84,9.232 84.4,9.856 85.28,9.856 Z M90.688,17.552 L90.688,13.92 C90.688,13.824 90.752,13.76 90.848,13.76 L92.656,13.76 C92.752,13.76 92.816,13.824 92.816,13.92 L92.816,15.856 C92.816,16 92.768,16.08 92.672,16.176 L91.088,17.616 C90.992,17.696 90.928,17.728 90.848,17.728 C90.752,17.728 90.688,17.664 90.688,17.552 Z M98.592,15.84 L98.592,14.352 C98.592,14.256 98.608,14.208 98.672,14.128 L102.496,9.584 C102.912,9.104 103.136,8.64 103.136,8.08 C103.136,7.36 102.704,6.832 101.952,6.832 C101.216,6.832 100.768,7.28 100.672,8.112 C100.672,8.208 100.608,8.256 100.496,8.24 L98.736,7.952 C98.64,7.936 98.592,7.856 98.608,7.76 C98.72,6.256 99.936,4.944 102.032,4.944 C104.112,4.944 105.376,6.288 105.376,8.048 C105.376,9.088 104.96,9.904 104.272,10.688 L101.408,14.064 L101.408,14.096 L105.216,14.096 C105.312,14.096 105.376,14.16 105.376,14.256 L105.376,15.84 C105.376,15.936 105.312,16 105.216,16 L98.752,16 C98.656,16 98.592,15.936 98.592,15.84 Z M107.616,13.952 C107.456,13.472 107.376,12.976 107.376,10.56 C107.376,8.144 107.456,7.648 107.616,7.168 C108.064,5.776 109.184,4.944 110.896,4.944 C112.608,4.944 113.728,5.776 114.176,7.168 C114.336,7.648 114.416,8.144 114.416,10.56 C114.416,12.976 114.336,13.472 114.176,13.952 C113.728,15.344 112.608,16.176 110.896,16.176 C109.184,16.176 108.064,15.344 107.616,13.952 Z M109.792,13.552 C109.952,14.048 110.32,14.288 110.896,14.288 C111.456,14.288 111.84,14.048 112,13.552 C112.096,13.264 112.128,12.944 112.128,10.56 C112.128,8.176 112.096,7.856 112,7.568 C111.84,7.072 111.456,6.832 110.896,6.832 C110.32,6.832 109.952,7.072 109.792,7.568 C109.696,7.856 109.664,8.176 109.664,10.56 C109.664,12.944 109.696,13.264 109.792,13.552 Z M119.216,15.84 L119.216,7.648 L119.184,7.648 L117.456,8.832 C117.36,8.896 117.28,8.864 117.28,8.736 L117.28,6.752 C117.28,6.656 117.312,6.592 117.392,6.528 L119.216,5.216 C119.296,5.152 119.392,5.12 119.504,5.12 L121.296,5.12 C121.392,5.12 121.456,5.184 121.456,5.28 L121.456,15.84 C121.456,15.936 121.392,16 121.296,16 L119.376,16 C119.28,16 119.216,15.936 119.216,15.84 Z M126.56,15.84 L128.864,11.632 L128.832,11.6 C128.72,11.648 128.448,11.696 128.16,11.696 C126.448,11.696 125.04,10.416 125.04,8.416 C125.04,6.224 126.624,4.944 128.688,4.944 C130.768,4.944 132.336,6.224 132.336,8.368 C132.336,9.296 132.048,10.128 131.536,11.056 L128.896,15.888 C128.848,15.984 128.816,16 128.704,16 L126.672,16 C126.544,16 126.512,15.936 126.56,15.84 Z M128.688,9.856 C129.568,9.856 130.128,9.232 130.128,8.336 C130.128,7.456 129.568,6.832 128.688,6.832 C127.808,6.832 127.248,7.456 127.248,8.336 C127.248,9.232 127.808,9.856 128.688,9.856 Z" id="SAT,MAR9,2019" fill="#FFFFFF" fill-rule="nonzero"></path>
                    </g>
                    <g id="Button-1" transform="translate(31.000000, 402.000000)">
                        <g id="Rounded-Rectangle">
                            <use fill="black" fill-opacity="1" filter="url(#filter-24)" xlink:href="#path-23"></use>
                            <use fill="#4C8CA7" fill-rule="evenodd" xlink:href="#path-23"></use>
                        </g>
                        <path d="M90.06,27.8 L90.06,14.6 C90.06,14.48 90.14,14.4 90.26,14.4 L95.32,14.4 C98.2,14.4 99.56,15.84 99.56,18.02 C99.56,19.56 98.84,20.44 97.98,20.9 L97.98,20.94 C98.82,21.26 99.8,22.34 99.8,24 C99.8,26.7 98.1,28 95.12,28 L90.26,28 C90.14,28 90.06,27.92 90.06,27.8 Z M92.54,20.06 L95.26,20.06 C96.46,20.06 97.2,19.34 97.2,18.28 C97.2,17.2 96.46,16.48 95.26,16.48 L92.54,16.48 C92.46,16.48 92.42,16.52 92.42,16.6 L92.42,19.94 C92.42,20.02 92.46,20.06 92.54,20.06 Z M92.42,25.8 C92.42,25.88 92.46,25.92 92.54,25.92 L95.38,25.92 C96.7,25.92 97.44,25.16 97.44,24.02 C97.44,22.9 96.7,22.14 95.38,22.14 L92.54,22.14 C92.46,22.14 92.42,22.18 92.42,22.26 L92.42,25.8 Z M105.94,28.22 C103.98,28.22 102.5,27.24 101.96,25.56 C101.74,24.88 101.64,24.24 101.64,23.18 C101.64,22.12 101.74,21.48 101.96,20.8 C102.5,19.12 103.98,18.14 105.94,18.14 C107.88,18.14 109.36,19.12 109.9,20.8 C110.12,21.48 110.22,22.12 110.22,23.18 C110.22,24.24 110.12,24.88 109.9,25.56 C109.36,27.24 107.88,28.22 105.94,28.22 Z M105.94,26.22 C106.84,26.22 107.46,25.76 107.74,24.96 C107.9,24.46 107.94,24 107.94,23.18 C107.94,22.36 107.9,21.92 107.74,21.4 C107.46,20.6 106.84,20.14 105.94,20.14 C105.04,20.14 104.4,20.6 104.12,21.4 C103.96,21.92 103.92,22.36 103.92,23.18 C103.92,24 103.96,24.46 104.12,24.96 C104.4,25.76 105.04,26.22 105.94,26.22 Z M116.4,28.22 C114.44,28.22 112.96,27.24 112.42,25.56 C112.2,24.88 112.1,24.24 112.1,23.18 C112.1,22.12 112.2,21.48 112.42,20.8 C112.96,19.12 114.44,18.14 116.4,18.14 C118.34,18.14 119.82,19.12 120.36,20.8 C120.58,21.48 120.68,22.12 120.68,23.18 C120.68,24.24 120.58,24.88 120.36,25.56 C119.82,27.24 118.34,28.22 116.4,28.22 Z M116.4,26.22 C117.3,26.22 117.92,25.76 118.2,24.96 C118.36,24.46 118.4,24 118.4,23.18 C118.4,22.36 118.36,21.92 118.2,21.4 C117.92,20.6 117.3,20.14 116.4,20.14 C115.5,20.14 114.86,20.6 114.58,21.4 C114.42,21.92 114.38,22.36 114.38,23.18 C114.38,24 114.42,24.46 114.58,24.96 C114.86,25.76 115.5,26.22 116.4,26.22 Z M131.48,28 L129.38,28 C129.24,28 129.14,27.94 129.06,27.8 L126.62,23.76 L125.32,25.26 L125.32,27.8 C125.32,27.92 125.24,28 125.12,28 L123.28,28 C123.16,28 123.08,27.92 123.08,27.8 L123.08,14.6 C123.08,14.48 123.16,14.4 123.28,14.4 L125.12,14.4 C125.24,14.4 125.32,14.48 125.32,14.6 L125.32,22.44 L128.62,18.56 C128.74,18.42 128.84,18.36 129,18.36 L131.04,18.36 C131.16,18.36 131.2,18.48 131.12,18.56 L128.06,22.08 L131.58,27.8 C131.64,27.88 131.6,28 131.48,28 Z M138.28,27.8 L138.28,14.6 C138.28,14.48 138.36,14.4 138.48,14.4 L140.32,14.4 C140.48,14.4 140.58,14.46 140.66,14.6 L146.2,23.98 L146.28,23.98 L146.28,14.6 C146.28,14.48 146.36,14.4 146.48,14.4 L148.22,14.4 C148.34,14.4 148.42,14.48 148.42,14.6 L148.42,27.8 C148.42,27.92 148.34,28 148.22,28 L146.4,28 C146.24,28 146.14,27.94 146.06,27.8 L140.5,18.44 L140.42,18.44 L140.42,27.8 C140.42,27.92 140.34,28 140.22,28 L138.48,28 C138.36,28 138.28,27.92 138.28,27.8 Z M155.16,28.22 C153.2,28.22 151.72,27.24 151.18,25.56 C150.96,24.88 150.86,24.24 150.86,23.18 C150.86,22.12 150.96,21.48 151.18,20.8 C151.72,19.12 153.2,18.14 155.16,18.14 C157.1,18.14 158.58,19.12 159.12,20.8 C159.34,21.48 159.44,22.12 159.44,23.18 C159.44,24.24 159.34,24.88 159.12,25.56 C158.58,27.24 157.1,28.22 155.16,28.22 Z M155.16,26.22 C156.06,26.22 156.68,25.76 156.96,24.96 C157.12,24.46 157.16,24 157.16,23.18 C157.16,22.36 157.12,21.92 156.96,21.4 C156.68,20.6 156.06,20.14 155.16,20.14 C154.26,20.14 153.62,20.6 153.34,21.4 C153.18,21.92 153.14,22.36 153.14,23.18 C153.14,24 153.18,24.46 153.34,24.96 C153.62,25.76 154.26,26.22 155.16,26.22 Z M171.68,28 L170.04,28 C169.92,28 169.84,27.92 169.8,27.8 L167.94,21.64 L167.9,21.64 L166.02,27.8 C165.98,27.92 165.9,28 165.78,28 L164.14,28 C164.02,28 163.94,27.92 163.9,27.8 L160.86,18.56 C160.82,18.44 160.88,18.36 161,18.36 L162.92,18.36 C163.06,18.36 163.14,18.42 163.18,18.56 L165.04,24.92 L165.08,24.92 L166.92,18.56 C166.96,18.44 167.06,18.36 167.18,18.36 L168.62,18.36 C168.74,18.36 168.84,18.44 168.88,18.56 L170.84,24.92 L170.88,24.92 L172.64,18.56 C172.68,18.42 172.76,18.36 172.9,18.36 L174.82,18.36 C174.94,18.36 175,18.44 174.96,18.56 L171.92,27.8 C171.88,27.92 171.8,28 171.68,28 Z" id="BookNow" fill="#F7F7F7" fill-rule="nonzero"></path>
                    </g>
                </g>
                <path d="M519.561151,198.732484 L481,198.732484 L481,151.853503 L519.561151,151.853503 L519.561151,129 L561,175 L519.561151,221 L519.561151,198.732484 Z" id="Arrow" fill="url(#linearGradient-25)"></path>
                <g id="Email" filter="url(#filter-26)">
                    <g id="Window">
                        <rect id="Background" stroke="#999999" fill="#FFFFFF" x="0.5" y="0.5" width="454" height="433"></rect>
                        <rect id="Header" stroke="#979797" fill="#333333" x="0.5" y="0.5" width="454" height="36.1184211"></rect>
                        <path d="M16.2801255,21.9433333 L16.2801255,12.7033333 C16.2801255,12.6193333 16.3361255,12.5633333 16.4201255,12.5633333 L17.7081255,12.5633333 C17.8201255,12.5633333 17.8901255,12.6053333 17.9461255,12.7033333 L21.8241255,19.2693333 L21.8801255,19.2693333 L21.8801255,12.7033333 C21.8801255,12.6193333 21.9361255,12.5633333 22.0201255,12.5633333 L23.2381255,12.5633333 C23.3221255,12.5633333 23.3781255,12.6193333 23.3781255,12.7033333 L23.3781255,21.9433333 C23.3781255,22.0273333 23.3221255,22.0833333 23.2381255,22.0833333 L21.9641255,22.0833333 C21.8521255,22.0833333 21.7821255,22.0413333 21.7261255,21.9433333 L17.8341255,15.3913333 L17.7781255,15.3913333 L17.7781255,21.9433333 C17.7781255,22.0273333 17.7221255,22.0833333 17.6381255,22.0833333 L16.4201255,22.0833333 C16.3361255,22.0833333 16.2801255,22.0273333 16.2801255,21.9433333 Z M28.1381255,22.2373333 C26.7101255,22.2373333 25.7021255,21.5373333 25.3241255,20.3613333 C25.1841255,19.9273333 25.0861255,19.4093333 25.0861255,18.7093333 C25.0861255,18.0093333 25.1701255,17.4773333 25.3101255,17.0433333 C25.6881255,15.8673333 26.7241255,15.1813333 28.0681255,15.1813333 C29.4541255,15.1813333 30.4621255,15.8953333 30.8401255,17.0433333 C30.9941255,17.5193333 31.0641255,17.9813333 31.0641255,19.0733333 C31.0641255,19.1573333 31.0081255,19.2133333 30.9101255,19.2133333 L26.7521255,19.2133333 C26.6961255,19.2133333 26.6681255,19.2413333 26.6681255,19.2973333 C26.6681255,19.4933333 26.7101255,19.6613333 26.7661255,19.8153333 C26.9901255,20.4733333 27.5221255,20.8373333 28.2781255,20.8373333 C29.0341255,20.8373333 29.5241255,20.5573333 29.8601255,20.1933333 C29.9301255,20.1233333 30.0001255,20.1093333 30.0701255,20.1653333 L30.8961255,20.8933333 C30.9661255,20.9493333 30.9661255,21.0193333 30.9101255,21.0893333 C30.3361255,21.7613333 29.3841255,22.2373333 28.1381255,22.2373333 Z M29.4821255,17.9533333 C29.4821255,17.7153333 29.4541255,17.5473333 29.3981255,17.3793333 C29.2161255,16.8333333 28.7121255,16.5113333 28.0821255,16.5113333 C27.4381255,16.5113333 26.9341255,16.8333333 26.7521255,17.3793333 C26.6961255,17.5473333 26.6681255,17.7153333 26.6681255,17.9533333 C26.6681255,18.0093333 26.6961255,18.0373333 26.7521255,18.0373333 L29.3981255,18.0373333 C29.4541255,18.0373333 29.4821255,18.0093333 29.4821255,17.9533333 Z M39.6321255,22.0833333 L38.4841255,22.0833333 C38.4001255,22.0833333 38.3441255,22.0273333 38.3161255,21.9433333 L37.0141255,17.6313333 L36.9861255,17.6313333 L35.6701255,21.9433333 C35.6421255,22.0273333 35.5861255,22.0833333 35.5021255,22.0833333 L34.3541255,22.0833333 C34.2701255,22.0833333 34.2141255,22.0273333 34.1861255,21.9433333 L32.0581255,15.4753333 C32.0301255,15.3913333 32.0721255,15.3353333 32.1561255,15.3353333 L33.5001255,15.3353333 C33.5981255,15.3353333 33.6541255,15.3773333 33.6821255,15.4753333 L34.9841255,19.9273333 L35.0121255,19.9273333 L36.3001255,15.4753333 C36.3281255,15.3913333 36.3981255,15.3353333 36.4821255,15.3353333 L37.4901255,15.3353333 C37.5741255,15.3353333 37.6441255,15.3913333 37.6721255,15.4753333 L39.0441255,19.9273333 L39.0721255,19.9273333 L40.3041255,15.4753333 C40.3321255,15.3773333 40.3881255,15.3353333 40.4861255,15.3353333 L41.8301255,15.3353333 C41.9141255,15.3353333 41.9561255,15.3913333 41.9281255,15.4753333 L39.8001255,21.9433333 C39.7721255,22.0273333 39.7161255,22.0833333 39.6321255,22.0833333 Z M46.6181255,21.9433333 L46.6181255,12.7033333 C46.6181255,12.6193333 46.6741255,12.5633333 46.7581255,12.5633333 L48.0041255,12.5633333 C48.1301255,12.5633333 48.2001255,12.6053333 48.2421255,12.7033333 L50.8601255,18.5693333 L50.9161255,18.5693333 L53.4921255,12.7033333 C53.5341255,12.6053333 53.6041255,12.5633333 53.7301255,12.5633333 L54.9621255,12.5633333 C55.0461255,12.5633333 55.1021255,12.6193333 55.1021255,12.7033333 L55.1021255,21.9433333 C55.1021255,22.0273333 55.0461255,22.0833333 54.9621255,22.0833333 L53.7441255,22.0833333 C53.6601255,22.0833333 53.6041255,22.0273333 53.6041255,21.9433333 L53.6041255,16.1193333 L53.5481255,16.1193333 L51.5321255,20.5993333 C51.4761255,20.7253333 51.3921255,20.7813333 51.2661255,20.7813333 L50.4541255,20.7813333 C50.3281255,20.7813333 50.2441255,20.7253333 50.1881255,20.5993333 L48.1721255,16.1193333 L48.1161255,16.1193333 L48.1161255,21.9433333 C48.1161255,22.0273333 48.0601255,22.0833333 47.9761255,22.0833333 L46.7581255,22.0833333 C46.6741255,22.0833333 46.6181255,22.0273333 46.6181255,21.9433333 Z M59.8621255,22.2373333 C58.4341255,22.2373333 57.4261255,21.5373333 57.0481255,20.3613333 C56.9081255,19.9273333 56.8101255,19.4093333 56.8101255,18.7093333 C56.8101255,18.0093333 56.8941255,17.4773333 57.0341255,17.0433333 C57.4121255,15.8673333 58.4481255,15.1813333 59.7921255,15.1813333 C61.1781255,15.1813333 62.1861255,15.8953333 62.5641255,17.0433333 C62.7181255,17.5193333 62.7881255,17.9813333 62.7881255,19.0733333 C62.7881255,19.1573333 62.7321255,19.2133333 62.6341255,19.2133333 L58.4761255,19.2133333 C58.4201255,19.2133333 58.3921255,19.2413333 58.3921255,19.2973333 C58.3921255,19.4933333 58.4341255,19.6613333 58.4901255,19.8153333 C58.7141255,20.4733333 59.2461255,20.8373333 60.0021255,20.8373333 C60.7581255,20.8373333 61.2481255,20.5573333 61.5841255,20.1933333 C61.6541255,20.1233333 61.7241255,20.1093333 61.7941255,20.1653333 L62.6201255,20.8933333 C62.6901255,20.9493333 62.6901255,21.0193333 62.6341255,21.0893333 C62.0601255,21.7613333 61.1081255,22.2373333 59.8621255,22.2373333 Z M61.2061255,17.9533333 C61.2061255,17.7153333 61.1781255,17.5473333 61.1221255,17.3793333 C60.9401255,16.8333333 60.4361255,16.5113333 59.8061255,16.5113333 C59.1621255,16.5113333 58.6581255,16.8333333 58.4761255,17.3793333 C58.4201255,17.5473333 58.3921255,17.7153333 58.3921255,17.9533333 C58.3921255,18.0093333 58.4201255,18.0373333 58.4761255,18.0373333 L61.1221255,18.0373333 C61.1781255,18.0373333 61.2061255,18.0093333 61.2061255,17.9533333 Z M66.9601255,22.2373333 C65.5741255,22.2373333 64.6221255,21.6913333 64.0621255,21.1733333 C64.0061255,21.1173333 64.0061255,21.0333333 64.0621255,20.9773333 L64.8601255,20.1373333 C64.9161255,20.0813333 65.0001255,20.0813333 65.0561255,20.1373333 C65.5461255,20.5853333 66.3301255,20.9073333 67.0301255,20.9073333 C67.8561255,20.9073333 68.2761255,20.5713333 68.2761255,20.1093333 C68.2761255,19.7033333 68.0381255,19.4513333 67.1561255,19.3673333 L66.4281255,19.2973333 C65.0561255,19.1573333 64.3561255,18.4573333 64.3561255,17.3093333 C64.3561255,16.0073333 65.2941255,15.1813333 66.9741255,15.1813333 C68.0241255,15.1813333 68.9061255,15.5313333 69.5081255,16.0073333 C69.5781255,16.0633333 69.5781255,16.1473333 69.5361255,16.2033333 L68.8501255,17.0293333 C68.7941255,17.0993333 68.7241255,17.0993333 68.6541255,17.0573333 C68.2341255,16.7633333 67.5621255,16.4973333 66.8901255,16.4973333 C66.2181255,16.4973333 65.8681255,16.7913333 65.8681255,17.1973333 C65.8681255,17.5893333 66.1061255,17.8273333 66.9741255,17.9113333 L67.7021255,17.9813333 C69.1161255,18.1213333 69.7881255,18.8493333 69.7881255,19.9553333 C69.7881255,21.2993333 68.8081255,22.2373333 66.9601255,22.2373333 Z M73.9321255,22.2373333 C72.5461255,22.2373333 71.5941255,21.6913333 71.0341255,21.1733333 C70.9781255,21.1173333 70.9781255,21.0333333 71.0341255,20.9773333 L71.8321255,20.1373333 C71.8881255,20.0813333 71.9721255,20.0813333 72.0281255,20.1373333 C72.5181255,20.5853333 73.3021255,20.9073333 74.0021255,20.9073333 C74.8281255,20.9073333 75.2481255,20.5713333 75.2481255,20.1093333 C75.2481255,19.7033333 75.0101255,19.4513333 74.1281255,19.3673333 L73.4001255,19.2973333 C72.0281255,19.1573333 71.3281255,18.4573333 71.3281255,17.3093333 C71.3281255,16.0073333 72.2661255,15.1813333 73.9461255,15.1813333 C74.9961255,15.1813333 75.8781255,15.5313333 76.4801255,16.0073333 C76.5501255,16.0633333 76.5501255,16.1473333 76.5081255,16.2033333 L75.8221255,17.0293333 C75.7661255,17.0993333 75.6961255,17.0993333 75.6261255,17.0573333 C75.2061255,16.7633333 74.5341255,16.4973333 73.8621255,16.4973333 C73.1901255,16.4973333 72.8401255,16.7913333 72.8401255,17.1973333 C72.8401255,17.5893333 73.0781255,17.8273333 73.9461255,17.9113333 L74.6741255,17.9813333 C76.0881255,18.1213333 76.7601255,18.8493333 76.7601255,19.9553333 C76.7601255,21.2993333 75.7801255,22.2373333 73.9321255,22.2373333 Z M83.6061255,22.0833333 L82.4301255,22.0833333 C82.3461255,22.0833333 82.2901255,22.0273333 82.2901255,21.9433333 L82.2901255,21.4533333 L82.2761255,21.4533333 C81.9541255,21.9153333 81.3241255,22.2373333 80.3721255,22.2373333 C79.1401255,22.2373333 78.1041255,21.5933333 78.1041255,20.1793333 C78.1041255,18.7093333 79.1401255,18.0373333 80.8061255,18.0373333 L82.1781255,18.0373333 C82.2341255,18.0373333 82.2621255,18.0093333 82.2621255,17.9533333 L82.2621255,17.6313333 C82.2621255,16.8613333 81.8981255,16.5113333 80.7641255,16.5113333 C80.0081255,16.5113333 79.5461255,16.7213333 79.2241255,16.9733333 C79.1541255,17.0293333 79.0701255,17.0153333 79.0281255,16.9453333 L78.5101255,16.0213333 C78.4681255,15.9513333 78.4821255,15.8813333 78.5381255,15.8393333 C79.0841255,15.4473333 79.8261255,15.1813333 80.9321255,15.1813333 C82.9901255,15.1813333 83.7461255,15.8813333 83.7461255,17.5333333 L83.7461255,21.9433333 C83.7461255,22.0273333 83.6901255,22.0833333 83.6061255,22.0833333 Z M80.7641255,20.9633333 C81.7301255,20.9633333 82.2621255,20.5853333 82.2621255,19.8153333 L82.2621255,19.2973333 C82.2621255,19.2413333 82.2341255,19.2133333 82.1781255,19.2133333 L81.0581255,19.2133333 C80.0501255,19.2133333 79.6021255,19.4933333 79.6021255,20.1233333 C79.6021255,20.6833333 80.0081255,20.9633333 80.7641255,20.9633333 Z M88.0441255,24.7573333 C87.1061255,24.7573333 86.1121255,24.3653333 85.5941255,23.7493333 C85.5381255,23.6793333 85.5381255,23.6233333 85.6081255,23.5533333 L86.4341255,22.7273333 C86.5041255,22.6573333 86.5741255,22.6573333 86.6441255,22.7273333 C87.0641255,23.1333333 87.5541255,23.3573333 88.1141255,23.3573333 C89.1501255,23.3573333 89.6261255,22.7973333 89.6261255,21.7473333 L89.6261255,21.1173333 L89.6121255,21.1173333 C89.3041255,21.5933333 88.7301255,21.9013333 87.8621255,21.9013333 C86.7281255,21.9013333 85.9161255,21.3273333 85.5661255,20.2633333 C85.3981255,19.7453333 85.3421255,19.2833333 85.3421255,18.5413333 C85.3421255,17.7993333 85.3981255,17.3513333 85.5661255,16.8333333 C85.9161255,15.7553333 86.7281255,15.1813333 87.8621255,15.1813333 C88.7301255,15.1813333 89.3041255,15.4893333 89.6121255,15.9793333 L89.6261255,15.9793333 L89.6261255,15.4753333 C89.6261255,15.3913333 89.6821255,15.3353333 89.7661255,15.3353333 L91.0541255,15.3353333 C91.1381255,15.3353333 91.1941255,15.3913333 91.1941255,15.4753333 L91.1941255,21.6633333 C91.1941255,23.5953333 90.1161255,24.7573333 88.0441255,24.7573333 Z M88.2681255,20.5153333 C88.9121255,20.5153333 89.2901255,20.2073333 89.4721255,19.6473333 C89.5841255,19.3393333 89.6261255,19.0033333 89.6261255,18.5413333 C89.6261255,18.0933333 89.5841255,17.7573333 89.4721255,17.4353333 C89.2901255,16.8893333 88.9121255,16.5813333 88.2681255,16.5813333 C87.6381255,16.5813333 87.2601255,16.8893333 87.0781255,17.4353333 C86.9661255,17.7573333 86.9241255,18.0933333 86.9241255,18.5413333 C86.9241255,19.0033333 86.9661255,19.3393333 87.0781255,19.6473333 C87.2601255,20.2073333 87.6381255,20.5153333 88.2681255,20.5153333 Z M95.9261255,22.2373333 C94.4981255,22.2373333 93.4901255,21.5373333 93.1121255,20.3613333 C92.9721255,19.9273333 92.8741255,19.4093333 92.8741255,18.7093333 C92.8741255,18.0093333 92.9581255,17.4773333 93.0981255,17.0433333 C93.4761255,15.8673333 94.5121255,15.1813333 95.8561255,15.1813333 C97.2421255,15.1813333 98.2501255,15.8953333 98.6281255,17.0433333 C98.7821255,17.5193333 98.8521255,17.9813333 98.8521255,19.0733333 C98.8521255,19.1573333 98.7961255,19.2133333 98.6981255,19.2133333 L94.5401255,19.2133333 C94.4841255,19.2133333 94.4561255,19.2413333 94.4561255,19.2973333 C94.4561255,19.4933333 94.4981255,19.6613333 94.5541255,19.8153333 C94.7781255,20.4733333 95.3101255,20.8373333 96.0661255,20.8373333 C96.8221255,20.8373333 97.3121255,20.5573333 97.6481255,20.1933333 C97.7181255,20.1233333 97.7881255,20.1093333 97.8581255,20.1653333 L98.6841255,20.8933333 C98.7541255,20.9493333 98.7541255,21.0193333 98.6981255,21.0893333 C98.1241255,21.7613333 97.1721255,22.2373333 95.9261255,22.2373333 Z M97.2701255,17.9533333 C97.2701255,17.7153333 97.2421255,17.5473333 97.1861255,17.3793333 C97.0041255,16.8333333 96.5001255,16.5113333 95.8701255,16.5113333 C95.2261255,16.5113333 94.7221255,16.8333333 94.5401255,17.3793333 C94.4841255,17.5473333 94.4561255,17.7153333 94.4561255,17.9533333 C94.4561255,18.0093333 94.4841255,18.0373333 94.5401255,18.0373333 L97.1861255,18.0373333 C97.2421255,18.0373333 97.2701255,18.0093333 97.2701255,17.9533333 Z" id="NewMessage" fill="#FFFFFF" fill-rule="nonzero"></path>
                        <path d="M0,76.5 L453.84059,76.5" id="Line-3" stroke="#CCCCCC"></path>
                        <path d="M0,117.5 L453.84059,117.5" id="Line-3-Copy" stroke="#CCCCCC"></path>
                    </g>
                    <path d="M19.151,62 L17.978,62 C17.876,62 17.808,61.932 17.808,61.83 L17.808,51.953 C17.808,51.885 17.774,51.851 17.706,51.851 L14.544,51.851 C14.442,51.851 14.374,51.783 14.374,51.681 L14.374,50.61 C14.374,50.508 14.442,50.44 14.544,50.44 L22.585,50.44 C22.687,50.44 22.755,50.508 22.755,50.61 L22.755,51.681 C22.755,51.783 22.687,51.851 22.585,51.851 L19.423,51.851 C19.355,51.851 19.321,51.885 19.321,51.953 L19.321,61.83 C19.321,61.932 19.253,62 19.151,62 Z M26.393,62.187 C24.812,62.187 23.622,61.371 23.18,59.994 C22.993,59.433 22.908,58.872 22.908,57.92 C22.908,56.985 22.993,56.424 23.18,55.863 C23.622,54.469 24.812,53.67 26.393,53.67 C27.974,53.67 29.164,54.469 29.606,55.863 C29.793,56.424 29.878,56.985 29.878,57.92 C29.878,58.872 29.793,59.433 29.606,59.994 C29.164,61.371 27.974,62.187 26.393,62.187 Z M26.393,60.861 C27.294,60.861 27.957,60.402 28.229,59.586 C28.365,59.144 28.416,58.702 28.416,57.92 C28.416,57.138 28.365,56.713 28.229,56.271 C27.957,55.455 27.294,54.996 26.393,54.996 C25.492,54.996 24.829,55.455 24.557,56.271 C24.421,56.713 24.37,57.138 24.37,57.92 C24.37,58.702 24.421,59.144 24.557,59.586 C24.829,60.402 25.492,60.861 26.393,60.861 Z" id="To" fill="#999999" fill-rule="nonzero"></path>
                    <path d="M18.93,101.187 C17.298,101.187 15.717,100.524 14.867,99.742 C14.799,99.674 14.782,99.572 14.85,99.487 L15.598,98.603 C15.666,98.518 15.751,98.518 15.836,98.586 C16.584,99.181 17.74,99.776 19.066,99.776 C20.664,99.776 21.616,98.977 21.616,97.804 C21.616,96.818 21.055,96.155 19.202,95.917 L18.624,95.832 C16.38,95.526 15.224,94.455 15.224,92.636 C15.224,90.579 16.703,89.253 18.998,89.253 C20.358,89.253 21.667,89.695 22.517,90.324 C22.602,90.392 22.619,90.477 22.551,90.562 L21.973,91.497 C21.905,91.582 21.82,91.582 21.735,91.531 C20.8,90.953 19.933,90.664 18.947,90.664 C17.536,90.664 16.754,91.429 16.754,92.534 C16.754,93.503 17.4,94.149 19.185,94.387 L19.746,94.472 C22.007,94.778 23.146,95.815 23.146,97.702 C23.146,99.725 21.718,101.187 18.93,101.187 Z M31.646,101 L30.558,101 C30.456,101 30.388,100.932 30.388,100.83 L30.388,100.065 L30.371,100.065 C29.946,100.745 29.198,101.187 28.144,101.187 C26.359,101.187 25.322,99.963 25.322,98.11 L25.322,93.027 C25.322,92.925 25.39,92.857 25.492,92.857 L26.58,92.857 C26.682,92.857 26.75,92.925 26.75,93.027 L26.75,97.77 C26.75,99.096 27.345,99.861 28.552,99.861 C29.657,99.861 30.388,99.079 30.388,97.855 L30.388,93.027 C30.388,92.925 30.456,92.857 30.558,92.857 L31.646,92.857 C31.748,92.857 31.816,92.925 31.816,93.027 L31.816,100.83 C31.816,100.932 31.748,101 31.646,101 Z M35.862,101 L34.774,101 C34.672,101 34.604,100.932 34.604,100.83 L34.604,89.61 C34.604,89.508 34.672,89.44 34.774,89.44 L35.862,89.44 C35.964,89.44 36.032,89.508 36.032,89.61 L36.032,93.792 L36.049,93.792 C36.44,93.146 37.137,92.67 38.361,92.67 C39.772,92.67 40.758,93.333 41.166,94.625 C41.387,95.271 41.455,95.917 41.455,96.92 C41.455,97.94 41.387,98.586 41.166,99.232 C40.758,100.524 39.772,101.187 38.361,101.187 C37.137,101.187 36.44,100.694 36.049,100.048 L36.032,100.048 L36.032,100.83 C36.032,100.932 35.964,101 35.862,101 Z M38.021,99.861 C38.922,99.861 39.534,99.419 39.806,98.62 C39.942,98.195 39.993,97.668 39.993,96.92 C39.993,96.189 39.942,95.662 39.806,95.22 C39.534,94.421 38.922,93.996 38.021,93.996 C37.12,93.996 36.491,94.404 36.219,95.22 C36.083,95.628 36.032,96.104 36.032,96.92 C36.032,97.736 36.083,98.229 36.219,98.62 C36.491,99.436 37.12,99.861 38.021,99.861 Z M45.042,91.021 L43.886,91.021 C43.784,91.021 43.716,90.953 43.716,90.851 L43.716,89.61 C43.716,89.508 43.784,89.44 43.886,89.44 L45.042,89.44 C45.144,89.44 45.212,89.508 45.212,89.61 L45.212,90.851 C45.212,90.953 45.144,91.021 45.042,91.021 Z M42.747,104.06 L42.407,104.06 C42.305,104.06 42.237,103.992 42.237,103.89 L42.237,102.904 C42.237,102.802 42.305,102.734 42.407,102.734 L42.679,102.734 C43.478,102.734 43.75,102.513 43.75,101.646 L43.75,93.027 C43.75,92.925 43.818,92.857 43.92,92.857 L45.008,92.857 C45.11,92.857 45.178,92.925 45.178,93.027 L45.178,101.612 C45.178,103.363 44.396,104.06 42.747,104.06 Z M51.009,101.187 C49.36,101.187 48.187,100.388 47.745,98.977 C47.575,98.45 47.473,97.855 47.473,96.92 C47.473,95.985 47.558,95.356 47.728,94.863 C48.187,93.452 49.377,92.67 50.924,92.67 C52.488,92.67 53.661,93.469 54.12,94.863 C54.29,95.39 54.375,95.951 54.375,97.192 C54.375,97.294 54.307,97.362 54.188,97.362 L49.037,97.362 C48.969,97.362 48.935,97.396 48.935,97.464 C48.935,97.906 48.986,98.178 49.071,98.45 C49.394,99.385 50.125,99.861 51.128,99.861 C52.097,99.861 52.777,99.47 53.219,98.96 C53.304,98.875 53.389,98.858 53.474,98.926 L54.171,99.555 C54.256,99.623 54.256,99.708 54.188,99.793 C53.542,100.609 52.437,101.187 51.009,101.187 Z M49.037,96.223 L52.811,96.223 C52.879,96.223 52.913,96.189 52.913,96.121 C52.913,95.747 52.879,95.458 52.794,95.203 C52.522,94.387 51.842,93.928 50.924,93.928 C50.006,93.928 49.326,94.387 49.054,95.203 C48.969,95.458 48.935,95.747 48.935,96.121 C48.935,96.189 48.969,96.223 49.037,96.223 Z M56.177,96.92 C56.177,96.019 56.279,95.356 56.432,94.863 C56.891,93.452 58.081,92.67 59.645,92.67 C60.886,92.67 61.838,93.197 62.433,94.047 C62.484,94.132 62.484,94.2 62.382,94.285 L61.634,94.897 C61.549,94.965 61.464,94.965 61.396,94.88 C60.92,94.285 60.461,93.996 59.645,93.996 C58.761,93.996 58.098,94.421 57.826,95.271 C57.69,95.696 57.639,96.206 57.639,96.92 C57.639,97.651 57.69,98.161 57.826,98.586 C58.098,99.436 58.761,99.861 59.645,99.861 C60.461,99.861 60.92,99.572 61.396,98.977 C61.464,98.892 61.549,98.892 61.634,98.96 L62.382,99.572 C62.484,99.657 62.484,99.725 62.433,99.81 C61.838,100.66 60.886,101.187 59.645,101.187 C58.081,101.187 56.891,100.405 56.432,98.994 C56.279,98.501 56.177,97.838 56.177,96.92 Z M67.686,101.085 L67.057,101.085 C65.476,101.085 64.864,100.371 64.864,98.773 L64.864,94.115 C64.864,94.047 64.83,94.013 64.762,94.013 L64.082,94.013 C63.98,94.013 63.912,93.945 63.912,93.843 L63.912,93.027 C63.912,92.925 63.98,92.857 64.082,92.857 L64.762,92.857 C64.83,92.857 64.864,92.823 64.864,92.755 L64.864,90.46 C64.864,90.358 64.932,90.29 65.034,90.29 L66.122,90.29 C66.224,90.29 66.292,90.358 66.292,90.46 L66.292,92.755 C66.292,92.823 66.326,92.857 66.394,92.857 L67.686,92.857 C67.788,92.857 67.856,92.925 67.856,93.027 L67.856,93.843 C67.856,93.945 67.788,94.013 67.686,94.013 L66.394,94.013 C66.326,94.013 66.292,94.047 66.292,94.115 L66.292,98.722 C66.292,99.538 66.598,99.759 67.329,99.759 L67.686,99.759 C67.788,99.759 67.856,99.827 67.856,99.929 L67.856,100.915 C67.856,101.017 67.788,101.085 67.686,101.085 Z" id="Subject" fill="#999999" fill-rule="nonzero"></path>
                    <path d="M61.784,62 L60.216,62 C60.12,62 60.056,61.936 60.056,61.84 L60.056,52.912 C60.056,52.848 60.024,52.816 59.96,52.816 L57.112,52.816 C57.016,52.816 56.952,52.752 56.952,52.656 L56.952,51.28 C56.952,51.184 57.016,51.12 57.112,51.12 L64.888,51.12 C64.984,51.12 65.048,51.184 65.048,51.28 L65.048,52.656 C65.048,52.752 64.984,52.816 64.888,52.816 L62.04,52.816 C61.976,52.816 61.944,52.848 61.944,52.912 L61.944,61.84 C61.944,61.936 61.88,62 61.784,62 Z M67.528,62 L66.056,62 C65.96,62 65.896,61.936 65.896,61.84 L65.896,54.448 C65.896,54.352 65.96,54.288 66.056,54.288 L67.528,54.288 C67.624,54.288 67.688,54.352 67.688,54.448 L67.688,55.104 L67.704,55.104 C68.072,54.512 68.728,54.112 69.704,54.112 C70.312,54.112 70.92,54.352 71.32,54.752 C71.4,54.832 71.416,54.896 71.352,54.976 L70.504,56.048 C70.44,56.128 70.36,56.144 70.28,56.08 C69.928,55.856 69.56,55.712 69.144,55.712 C68.136,55.712 67.688,56.432 67.688,57.664 L67.688,61.84 C67.688,61.936 67.624,62 67.528,62 Z M78.312,62 L76.968,62 C76.872,62 76.808,61.936 76.808,61.84 L76.808,61.28 L76.792,61.28 C76.424,61.808 75.704,62.176 74.616,62.176 C73.208,62.176 72.024,61.44 72.024,59.824 C72.024,58.144 73.208,57.376 75.112,57.376 L76.68,57.376 C76.744,57.376 76.776,57.344 76.776,57.28 L76.776,56.912 C76.776,56.032 76.36,55.632 75.064,55.632 C74.2,55.632 73.672,55.872 73.304,56.16 C73.224,56.224 73.128,56.208 73.08,56.128 L72.488,55.072 C72.44,54.992 72.456,54.912 72.52,54.864 C73.144,54.416 73.992,54.112 75.256,54.112 C77.608,54.112 78.472,54.912 78.472,56.8 L78.472,61.84 C78.472,61.936 78.408,62 78.312,62 Z M75.064,60.72 C76.168,60.72 76.776,60.288 76.776,59.408 L76.776,58.816 C76.776,58.752 76.744,58.72 76.68,58.72 L75.4,58.72 C74.248,58.72 73.736,59.04 73.736,59.76 C73.736,60.4 74.2,60.72 75.064,60.72 Z M84.104,62 L82.824,62 C82.712,62 82.648,61.936 82.616,61.84 L79.896,54.448 C79.864,54.352 79.928,54.288 80.024,54.288 L81.592,54.288 C81.688,54.288 81.752,54.352 81.784,54.448 L83.48,59.456 L83.512,59.456 L85.176,54.448 C85.208,54.352 85.272,54.288 85.368,54.288 L86.904,54.288 C87,54.288 87.064,54.352 87.032,54.448 L84.312,61.84 C84.28,61.936 84.216,62 84.104,62 Z M91.496,62.176 C89.864,62.176 88.712,61.376 88.28,60.032 C88.12,59.536 88.008,58.944 88.008,58.144 C88.008,57.344 88.104,56.736 88.264,56.24 C88.696,54.896 89.88,54.112 91.416,54.112 C93,54.112 94.152,54.928 94.584,56.24 C94.76,56.784 94.84,57.312 94.84,58.56 C94.84,58.656 94.776,58.72 94.664,58.72 L89.912,58.72 C89.848,58.72 89.816,58.752 89.816,58.816 C89.816,59.04 89.864,59.232 89.928,59.408 C90.184,60.16 90.792,60.576 91.656,60.576 C92.52,60.576 93.08,60.256 93.464,59.84 C93.544,59.76 93.624,59.744 93.704,59.808 L94.648,60.64 C94.728,60.704 94.728,60.784 94.664,60.864 C94.008,61.632 92.92,62.176 91.496,62.176 Z M93.032,57.28 C93.032,57.008 93,56.816 92.936,56.624 C92.728,56 92.152,55.632 91.432,55.632 C90.696,55.632 90.12,56 89.912,56.624 C89.848,56.816 89.816,57.008 89.816,57.28 C89.816,57.344 89.848,57.376 89.912,57.376 L92.936,57.376 C93,57.376 93.032,57.344 93.032,57.28 Z M99.544,62.096 L98.84,62.096 C97.336,62.096 96.728,61.376 96.728,59.888 L96.728,51.28 C96.728,51.184 96.792,51.12 96.888,51.12 L98.36,51.12 C98.456,51.12 98.52,51.184 98.52,51.28 L98.52,59.792 C98.52,60.32 98.728,60.496 99.192,60.496 L99.544,60.496 C99.64,60.496 99.704,60.56 99.704,60.656 L99.704,61.936 C99.704,62.032 99.64,62.096 99.544,62.096 Z M104.312,61.84 L108.04,51.28 C108.072,51.184 108.136,51.12 108.248,51.12 L109.72,51.12 C109.832,51.12 109.896,51.184 109.928,51.28 L113.608,61.84 C113.64,61.936 113.608,62 113.496,62 L111.928,62 C111.816,62 111.752,61.952 111.72,61.84 L111,59.728 L106.904,59.728 L106.184,61.84 C106.152,61.952 106.088,62 105.976,62 L104.424,62 C104.312,62 104.28,61.936 104.312,61.84 Z M107.48,58.048 L110.424,58.048 L108.984,53.824 L108.936,53.824 L107.48,58.048 Z M117.704,65.056 C116.632,65.056 115.496,64.608 114.904,63.904 C114.84,63.824 114.84,63.76 114.92,63.68 L115.864,62.736 C115.944,62.656 116.024,62.656 116.104,62.736 C116.584,63.2 117.144,63.456 117.784,63.456 C118.968,63.456 119.512,62.816 119.512,61.616 L119.512,60.896 L119.496,60.896 C119.144,61.44 118.488,61.792 117.496,61.792 C116.2,61.792 115.272,61.136 114.872,59.92 C114.68,59.328 114.616,58.8 114.616,57.952 C114.616,57.104 114.68,56.592 114.872,56 C115.272,54.768 116.2,54.112 117.496,54.112 C118.488,54.112 119.144,54.464 119.496,55.024 L119.512,55.024 L119.512,54.448 C119.512,54.352 119.576,54.288 119.672,54.288 L121.144,54.288 C121.24,54.288 121.304,54.352 121.304,54.448 L121.304,61.52 C121.304,63.728 120.072,65.056 117.704,65.056 Z M117.96,60.208 C118.696,60.208 119.128,59.856 119.336,59.216 C119.464,58.864 119.512,58.48 119.512,57.952 C119.512,57.44 119.464,57.056 119.336,56.688 C119.128,56.064 118.696,55.712 117.96,55.712 C117.24,55.712 116.808,56.064 116.6,56.688 C116.472,57.056 116.424,57.44 116.424,57.952 C116.424,58.48 116.472,58.864 116.6,59.216 C116.808,59.856 117.24,60.208 117.96,60.208 Z M126.712,62.176 C125.08,62.176 123.928,61.376 123.496,60.032 C123.336,59.536 123.224,58.944 123.224,58.144 C123.224,57.344 123.32,56.736 123.48,56.24 C123.912,54.896 125.096,54.112 126.632,54.112 C128.216,54.112 129.368,54.928 129.8,56.24 C129.976,56.784 130.056,57.312 130.056,58.56 C130.056,58.656 129.992,58.72 129.88,58.72 L125.128,58.72 C125.064,58.72 125.032,58.752 125.032,58.816 C125.032,59.04 125.08,59.232 125.144,59.408 C125.4,60.16 126.008,60.576 126.872,60.576 C127.736,60.576 128.296,60.256 128.68,59.84 C128.76,59.76 128.84,59.744 128.92,59.808 L129.864,60.64 C129.944,60.704 129.944,60.784 129.88,60.864 C129.224,61.632 128.136,62.176 126.712,62.176 Z M128.248,57.28 C128.248,57.008 128.216,56.816 128.152,56.624 C127.944,56 127.368,55.632 126.648,55.632 C125.912,55.632 125.336,56 125.128,56.624 C125.064,56.816 125.032,57.008 125.032,57.28 C125.032,57.344 125.064,57.376 125.128,57.376 L128.152,57.376 C128.216,57.376 128.248,57.344 128.248,57.28 Z M138.328,62 L136.856,62 C136.76,62 136.696,61.936 136.696,61.84 L136.696,57.392 C136.696,56.4 136.2,55.712 135.24,55.712 C134.312,55.712 133.768,56.4 133.768,57.392 L133.768,61.84 C133.768,61.936 133.704,62 133.608,62 L132.136,62 C132.04,62 131.976,61.936 131.976,61.84 L131.976,54.448 C131.976,54.352 132.04,54.288 132.136,54.288 L133.608,54.288 C133.704,54.288 133.768,54.352 133.768,54.448 L133.768,55.008 L133.784,55.008 C134.12,54.528 134.792,54.112 135.816,54.112 C137.464,54.112 138.488,55.328 138.488,56.976 L138.488,61.84 C138.488,61.936 138.424,62 138.328,62 Z M143.768,62.096 L143,62.096 C141.448,62.096 140.856,61.344 140.856,59.84 L140.856,55.776 C140.856,55.712 140.824,55.68 140.76,55.68 L140.248,55.68 C140.152,55.68 140.088,55.616 140.088,55.52 L140.088,54.448 C140.088,54.352 140.152,54.288 140.248,54.288 L140.76,54.288 C140.824,54.288 140.856,54.256 140.856,54.192 L140.856,52.08 C140.856,51.984 140.92,51.92 141.016,51.92 L142.488,51.92 C142.584,51.92 142.648,51.984 142.648,52.08 L142.648,54.192 C142.648,54.256 142.68,54.288 142.744,54.288 L143.768,54.288 C143.864,54.288 143.928,54.352 143.928,54.448 L143.928,55.52 C143.928,55.616 143.864,55.68 143.768,55.68 L142.744,55.68 C142.68,55.68 142.648,55.712 142.648,55.776 L142.648,59.776 C142.648,60.32 142.872,60.496 143.368,60.496 L143.768,60.496 C143.864,60.496 143.928,60.56 143.928,60.656 L143.928,61.936 C143.928,62.032 143.864,62.096 143.768,62.096 Z" id="TravelAgent" fill="#333333" fill-rule="nonzero"></path>
                    <path d="M89.184,101 L87.616,101 C87.52,101 87.456,100.936 87.456,100.84 L87.456,91.912 C87.456,91.848 87.424,91.816 87.36,91.816 L84.512,91.816 C84.416,91.816 84.352,91.752 84.352,91.656 L84.352,90.28 C84.352,90.184 84.416,90.12 84.512,90.12 L92.288,90.12 C92.384,90.12 92.448,90.184 92.448,90.28 L92.448,91.656 C92.448,91.752 92.384,91.816 92.288,91.816 L89.44,91.816 C89.376,91.816 89.344,91.848 89.344,91.912 L89.344,100.84 C89.344,100.936 89.28,101 89.184,101 Z M94.928,101 L93.456,101 C93.36,101 93.296,100.936 93.296,100.84 L93.296,93.448 C93.296,93.352 93.36,93.288 93.456,93.288 L94.928,93.288 C95.024,93.288 95.088,93.352 95.088,93.448 L95.088,94.104 L95.104,94.104 C95.472,93.512 96.128,93.112 97.104,93.112 C97.712,93.112 98.32,93.352 98.72,93.752 C98.8,93.832 98.816,93.896 98.752,93.976 L97.904,95.048 C97.84,95.128 97.76,95.144 97.68,95.08 C97.328,94.856 96.96,94.712 96.544,94.712 C95.536,94.712 95.088,95.432 95.088,96.664 L95.088,100.84 C95.088,100.936 95.024,101 94.928,101 Z M105.712,101 L104.368,101 C104.272,101 104.208,100.936 104.208,100.84 L104.208,100.28 L104.192,100.28 C103.824,100.808 103.104,101.176 102.016,101.176 C100.608,101.176 99.424,100.44 99.424,98.824 C99.424,97.144 100.608,96.376 102.512,96.376 L104.08,96.376 C104.144,96.376 104.176,96.344 104.176,96.28 L104.176,95.912 C104.176,95.032 103.76,94.632 102.464,94.632 C101.6,94.632 101.072,94.872 100.704,95.16 C100.624,95.224 100.528,95.208 100.48,95.128 L99.888,94.072 C99.84,93.992 99.856,93.912 99.92,93.864 C100.544,93.416 101.392,93.112 102.656,93.112 C105.008,93.112 105.872,93.912 105.872,95.8 L105.872,100.84 C105.872,100.936 105.808,101 105.712,101 Z M102.464,99.72 C103.568,99.72 104.176,99.288 104.176,98.408 L104.176,97.816 C104.176,97.752 104.144,97.72 104.08,97.72 L102.8,97.72 C101.648,97.72 101.136,98.04 101.136,98.76 C101.136,99.4 101.6,99.72 102.464,99.72 Z M111.504,101 L110.224,101 C110.112,101 110.048,100.936 110.016,100.84 L107.296,93.448 C107.264,93.352 107.328,93.288 107.424,93.288 L108.992,93.288 C109.088,93.288 109.152,93.352 109.184,93.448 L110.88,98.456 L110.912,98.456 L112.576,93.448 C112.608,93.352 112.672,93.288 112.768,93.288 L114.304,93.288 C114.4,93.288 114.464,93.352 114.432,93.448 L111.712,100.84 C111.68,100.936 111.616,101 111.504,101 Z M118.896,101.176 C117.264,101.176 116.112,100.376 115.68,99.032 C115.52,98.536 115.408,97.944 115.408,97.144 C115.408,96.344 115.504,95.736 115.664,95.24 C116.096,93.896 117.28,93.112 118.816,93.112 C120.4,93.112 121.552,93.928 121.984,95.24 C122.16,95.784 122.24,96.312 122.24,97.56 C122.24,97.656 122.176,97.72 122.064,97.72 L117.312,97.72 C117.248,97.72 117.216,97.752 117.216,97.816 C117.216,98.04 117.264,98.232 117.328,98.408 C117.584,99.16 118.192,99.576 119.056,99.576 C119.92,99.576 120.48,99.256 120.864,98.84 C120.944,98.76 121.024,98.744 121.104,98.808 L122.048,99.64 C122.128,99.704 122.128,99.784 122.064,99.864 C121.408,100.632 120.32,101.176 118.896,101.176 Z M120.432,96.28 C120.432,96.008 120.4,95.816 120.336,95.624 C120.128,95 119.552,94.632 118.832,94.632 C118.096,94.632 117.52,95 117.312,95.624 C117.248,95.816 117.216,96.008 117.216,96.28 C117.216,96.344 117.248,96.376 117.312,96.376 L120.336,96.376 C120.4,96.376 120.432,96.344 120.432,96.28 Z M126.944,101.096 L126.24,101.096 C124.736,101.096 124.128,100.376 124.128,98.888 L124.128,90.28 C124.128,90.184 124.192,90.12 124.288,90.12 L125.76,90.12 C125.856,90.12 125.92,90.184 125.92,90.28 L125.92,98.792 C125.92,99.32 126.128,99.496 126.592,99.496 L126.944,99.496 C127.04,99.496 127.104,99.56 127.104,99.656 L127.104,100.936 C127.104,101.032 127.04,101.096 126.944,101.096 Z M140.576,101 L138.8,101 C138.672,101 138.608,100.952 138.56,100.84 L136.48,96.6 L134.608,96.6 C134.544,96.6 134.512,96.632 134.512,96.696 L134.512,100.84 C134.512,100.936 134.448,101 134.352,101 L132.784,101 C132.688,101 132.624,100.936 132.624,100.84 L132.624,90.28 C132.624,90.184 132.688,90.12 132.784,90.12 L136.992,90.12 C138.992,90.12 140.464,91.448 140.464,93.368 C140.464,94.792 139.648,95.896 138.4,96.36 L140.688,100.792 C140.752,100.904 140.688,101 140.576,101 Z M136.928,94.904 C137.92,94.904 138.592,94.296 138.592,93.368 C138.592,92.424 137.92,91.816 136.928,91.816 L134.608,91.816 C134.544,91.816 134.512,91.848 134.512,91.912 L134.512,94.808 C134.512,94.872 134.544,94.904 134.608,94.904 L136.928,94.904 Z M145.36,101.176 C143.728,101.176 142.576,100.376 142.144,99.032 C141.984,98.536 141.872,97.944 141.872,97.144 C141.872,96.344 141.968,95.736 142.128,95.24 C142.56,93.896 143.744,93.112 145.28,93.112 C146.864,93.112 148.016,93.928 148.448,95.24 C148.624,95.784 148.704,96.312 148.704,97.56 C148.704,97.656 148.64,97.72 148.528,97.72 L143.776,97.72 C143.712,97.72 143.68,97.752 143.68,97.816 C143.68,98.04 143.728,98.232 143.792,98.408 C144.048,99.16 144.656,99.576 145.52,99.576 C146.384,99.576 146.944,99.256 147.328,98.84 C147.408,98.76 147.488,98.744 147.568,98.808 L148.512,99.64 C148.592,99.704 148.592,99.784 148.528,99.864 C147.872,100.632 146.784,101.176 145.36,101.176 Z M146.896,96.28 C146.896,96.008 146.864,95.816 146.8,95.624 C146.592,95 146.016,94.632 145.296,94.632 C144.56,94.632 143.984,95 143.776,95.624 C143.712,95.816 143.68,96.008 143.68,96.28 C143.68,96.344 143.712,96.376 143.776,96.376 L146.8,96.376 C146.864,96.376 146.896,96.344 146.896,96.28 Z M153.472,101.176 C151.888,101.176 150.8,100.552 150.16,99.96 C150.096,99.896 150.096,99.8 150.16,99.736 L151.072,98.776 C151.136,98.712 151.232,98.712 151.296,98.776 C151.856,99.288 152.752,99.656 153.552,99.656 C154.496,99.656 154.976,99.272 154.976,98.744 C154.976,98.28 154.704,97.992 153.696,97.896 L152.864,97.816 C151.296,97.656 150.496,96.856 150.496,95.544 C150.496,94.056 151.568,93.112 153.488,93.112 C154.688,93.112 155.696,93.512 156.384,94.056 C156.464,94.12 156.464,94.216 156.416,94.28 L155.632,95.224 C155.568,95.304 155.488,95.304 155.408,95.256 C154.928,94.92 154.16,94.616 153.392,94.616 C152.624,94.616 152.224,94.952 152.224,95.416 C152.224,95.864 152.496,96.136 153.488,96.232 L154.32,96.312 C155.936,96.472 156.704,97.304 156.704,98.568 C156.704,100.104 155.584,101.176 153.472,101.176 Z M161.664,101.176 C160.032,101.176 158.88,100.376 158.448,99.032 C158.288,98.536 158.176,97.944 158.176,97.144 C158.176,96.344 158.272,95.736 158.432,95.24 C158.864,93.896 160.048,93.112 161.584,93.112 C163.168,93.112 164.32,93.928 164.752,95.24 C164.928,95.784 165.008,96.312 165.008,97.56 C165.008,97.656 164.944,97.72 164.832,97.72 L160.08,97.72 C160.016,97.72 159.984,97.752 159.984,97.816 C159.984,98.04 160.032,98.232 160.096,98.408 C160.352,99.16 160.96,99.576 161.824,99.576 C162.688,99.576 163.248,99.256 163.632,98.84 C163.712,98.76 163.792,98.744 163.872,98.808 L164.816,99.64 C164.896,99.704 164.896,99.784 164.832,99.864 C164.176,100.632 163.088,101.176 161.664,101.176 Z M163.2,96.28 C163.2,96.008 163.168,95.816 163.104,95.624 C162.896,95 162.32,94.632 161.6,94.632 C160.864,94.632 160.288,95 160.08,95.624 C160.016,95.816 159.984,96.008 159.984,96.28 C159.984,96.344 160.016,96.376 160.08,96.376 L163.104,96.376 C163.168,96.376 163.2,96.344 163.2,96.28 Z M168.56,101 L167.088,101 C166.992,101 166.928,100.936 166.928,100.84 L166.928,93.448 C166.928,93.352 166.992,93.288 167.088,93.288 L168.56,93.288 C168.656,93.288 168.72,93.352 168.72,93.448 L168.72,94.104 L168.736,94.104 C169.104,93.512 169.76,93.112 170.736,93.112 C171.344,93.112 171.952,93.352 172.352,93.752 C172.432,93.832 172.448,93.896 172.384,93.976 L171.536,95.048 C171.472,95.128 171.392,95.144 171.312,95.08 C170.96,94.856 170.592,94.712 170.176,94.712 C169.168,94.712 168.72,95.432 168.72,96.664 L168.72,100.84 C168.72,100.936 168.656,101 168.56,101 Z M177.056,101 L175.776,101 C175.664,101 175.6,100.936 175.568,100.84 L172.848,93.448 C172.816,93.352 172.88,93.288 172.976,93.288 L174.544,93.288 C174.64,93.288 174.704,93.352 174.736,93.448 L176.432,98.456 L176.464,98.456 L178.128,93.448 C178.16,93.352 178.224,93.288 178.32,93.288 L179.856,93.288 C179.952,93.288 180.016,93.352 179.984,93.448 L177.264,100.84 C177.232,100.936 177.168,101 177.056,101 Z M187.392,101 L186.048,101 C185.952,101 185.888,100.936 185.888,100.84 L185.888,100.28 L185.872,100.28 C185.504,100.808 184.784,101.176 183.696,101.176 C182.288,101.176 181.104,100.44 181.104,98.824 C181.104,97.144 182.288,96.376 184.192,96.376 L185.76,96.376 C185.824,96.376 185.856,96.344 185.856,96.28 L185.856,95.912 C185.856,95.032 185.44,94.632 184.144,94.632 C183.28,94.632 182.752,94.872 182.384,95.16 C182.304,95.224 182.208,95.208 182.16,95.128 L181.568,94.072 C181.52,93.992 181.536,93.912 181.6,93.864 C182.224,93.416 183.072,93.112 184.336,93.112 C186.688,93.112 187.552,93.912 187.552,95.8 L187.552,100.84 C187.552,100.936 187.488,101 187.392,101 Z M184.144,99.72 C185.248,99.72 185.856,99.288 185.856,98.408 L185.856,97.816 C185.856,97.752 185.824,97.72 185.76,97.72 L184.48,97.72 C183.328,97.72 182.816,98.04 182.816,98.76 C182.816,99.4 183.28,99.72 184.144,99.72 Z M192.848,101.096 L192.08,101.096 C190.528,101.096 189.936,100.344 189.936,98.84 L189.936,94.776 C189.936,94.712 189.904,94.68 189.84,94.68 L189.328,94.68 C189.232,94.68 189.168,94.616 189.168,94.52 L189.168,93.448 C189.168,93.352 189.232,93.288 189.328,93.288 L189.84,93.288 C189.904,93.288 189.936,93.256 189.936,93.192 L189.936,91.08 C189.936,90.984 190,90.92 190.096,90.92 L191.568,90.92 C191.664,90.92 191.728,90.984 191.728,91.08 L191.728,93.192 C191.728,93.256 191.76,93.288 191.824,93.288 L192.848,93.288 C192.944,93.288 193.008,93.352 193.008,93.448 L193.008,94.52 C193.008,94.616 192.944,94.68 192.848,94.68 L191.824,94.68 C191.76,94.68 191.728,94.712 191.728,94.776 L191.728,98.776 C191.728,99.32 191.952,99.496 192.448,99.496 L192.848,99.496 C192.944,99.496 193.008,99.56 193.008,99.656 L193.008,100.936 C193.008,101.032 192.944,101.096 192.848,101.096 Z M196.592,91.832 L195.12,91.832 C195.024,91.832 194.96,91.768 194.96,91.672 L194.96,90.28 C194.96,90.184 195.024,90.12 195.12,90.12 L196.592,90.12 C196.688,90.12 196.752,90.184 196.752,90.28 L196.752,91.672 C196.752,91.768 196.688,91.832 196.592,91.832 Z M196.592,101 L195.12,101 C195.024,101 194.96,100.936 194.96,100.84 L194.96,93.448 C194.96,93.352 195.024,93.288 195.12,93.288 L196.592,93.288 C196.688,93.288 196.752,93.352 196.752,93.448 L196.752,100.84 C196.752,100.936 196.688,101 196.592,101 Z M202.112,101.176 C200.544,101.176 199.36,100.392 198.928,99.048 C198.752,98.504 198.672,97.992 198.672,97.144 C198.672,96.296 198.752,95.784 198.928,95.24 C199.36,93.896 200.544,93.112 202.112,93.112 C203.664,93.112 204.848,93.896 205.28,95.24 C205.456,95.784 205.536,96.296 205.536,97.144 C205.536,97.992 205.456,98.504 205.28,99.048 C204.848,100.392 203.664,101.176 202.112,101.176 Z M202.112,99.576 C202.832,99.576 203.328,99.208 203.552,98.568 C203.68,98.168 203.712,97.8 203.712,97.144 C203.712,96.488 203.68,96.136 203.552,95.72 C203.328,95.08 202.832,94.712 202.112,94.712 C201.392,94.712 200.88,95.08 200.656,95.72 C200.528,96.136 200.496,96.488 200.496,97.144 C200.496,97.8 200.528,98.168 200.656,98.568 C200.88,99.208 201.392,99.576 202.112,99.576 Z M213.808,101 L212.336,101 C212.24,101 212.176,100.936 212.176,100.84 L212.176,96.392 C212.176,95.4 211.68,94.712 210.72,94.712 C209.792,94.712 209.248,95.4 209.248,96.392 L209.248,100.84 C209.248,100.936 209.184,101 209.088,101 L207.616,101 C207.52,101 207.456,100.936 207.456,100.84 L207.456,93.448 C207.456,93.352 207.52,93.288 207.616,93.288 L209.088,93.288 C209.184,93.288 209.248,93.352 209.248,93.448 L209.248,94.008 L209.264,94.008 C209.6,93.528 210.272,93.112 211.296,93.112 C212.944,93.112 213.968,94.328 213.968,95.976 L213.968,100.84 C213.968,100.936 213.904,101 213.808,101 Z M219.072,101.176 C217.488,101.176 216.4,100.552 215.76,99.96 C215.696,99.896 215.696,99.8 215.76,99.736 L216.672,98.776 C216.736,98.712 216.832,98.712 216.896,98.776 C217.456,99.288 218.352,99.656 219.152,99.656 C220.096,99.656 220.576,99.272 220.576,98.744 C220.576,98.28 220.304,97.992 219.296,97.896 L218.464,97.816 C216.896,97.656 216.096,96.856 216.096,95.544 C216.096,94.056 217.168,93.112 219.088,93.112 C220.288,93.112 221.296,93.512 221.984,94.056 C222.064,94.12 222.064,94.216 222.016,94.28 L221.232,95.224 C221.168,95.304 221.088,95.304 221.008,95.256 C220.528,94.92 219.76,94.616 218.992,94.616 C218.224,94.616 217.824,94.952 217.824,95.416 C217.824,95.864 218.096,96.136 219.088,96.232 L219.92,96.312 C221.536,96.472 222.304,97.304 222.304,98.568 C222.304,100.104 221.184,101.176 219.072,101.176 Z" id="TravelReservations" fill="#333333" fill-rule="nonzero"></path>
                    <g id="Message" opacity="0.4" transform="translate(10.000000, 124.000000)" fill="#333333">
                        <rect id="Line-1" x="0" y="0" width="187.356643" height="9.53307393" rx="3"></rect>
                        <rect id="Line-2" x="0" y="21.92607" width="240.615385" height="9.53307393" rx="3"></rect>
                        <rect id="Line-3" x="0" y="43.8521401" width="408" height="9.53307393" rx="3"></rect>
                        <rect id="Line-4" x="0" y="57.1984436" width="93.2027972" height="9.53307393" rx="3"></rect>
                        <rect id="Line-5" x="0" y="79.1245136" width="408" height="9.53307393" rx="3"></rect>
                        <rect id="Line-6" x="0" y="92.4708171" width="149.314685" height="9.53307393" rx="3"></rect>
                        <rect id="Line-7" x="0" y="114.873541" width="408" height="9.53307393" rx="3"></rect>
                        <rect id="Line-8" x="0" y="128.219844" width="264.391608" height="9.53307393" rx="3"></rect>
                        <rect id="Line-9" x="0" y="150.622568" width="233.958042" height="9.53307393" rx="3"></rect>
                        <rect id="Line-10" x="0" y="172.548638" width="400.391608" height="9.53307393" rx="3"></rect>
                        <rect id="Line-11" x="0" y="185.894942" width="408" height="9.53307393" rx="3"></rect>
                        <rect id="Line-12" x="0" y="199.241245" width="154.06993" height="9.53307393" rx="3"></rect>
                        <rect id="Line-13" x="0" y="221.643969" width="408" height="9.53307393" rx="3"></rect>
                        <rect id="Line-14" x="0" y="234.990272" width="264.391608" height="9.53307393" rx="3"></rect>
                    </g>
                    <g id="Button-Send" transform="translate(9.000000, 397.000000)">
                        <rect id="Rectangle" fill="#4A90E2" x="0" y="0" width="86" height="28" rx="3"></rect>
                        <path d="M32.1167778,18.6195172 C30.7167778,18.6195172 29.3587778,18.0595172 28.6167778,17.3595172 C28.5607778,17.3035172 28.5327778,17.2195172 28.5887778,17.1495172 L29.4567778,16.1415172 C29.5127778,16.0715172 29.5967778,16.0715172 29.6527778,16.1275172 C30.2687778,16.6175172 31.1787778,17.1355172 32.2427778,17.1355172 C33.3767778,17.1355172 34.0347778,16.5615172 34.0347778,15.7635172 C34.0347778,15.0775172 33.6147778,14.6295172 32.2987778,14.4475172 L31.7947778,14.3775172 C29.9607778,14.1255172 28.9247778,13.2435172 28.9247778,11.6615172 C28.9247778,9.93951724 30.1847778,8.79151724 32.1447778,8.79151724 C33.3347778,8.79151724 34.4687778,9.16951724 35.2247778,9.74351724 C35.2947778,9.79951724 35.3087778,9.85551724 35.2527778,9.93951724 L34.5807778,10.9755172 C34.5247778,11.0455172 34.4547778,11.0595172 34.3847778,11.0175172 C33.6147778,10.5135172 32.9007778,10.2755172 32.1027778,10.2755172 C31.1367778,10.2755172 30.6047778,10.8075172 30.6047778,11.5495172 C30.6047778,12.2075172 31.0667778,12.6555172 32.3547778,12.8375172 L32.8587778,12.9075172 C34.6927778,13.1595172 35.7007778,14.0275172 35.7007778,15.6655172 C35.7007778,17.3595172 34.4827778,18.6195172 32.1167778,18.6195172 Z M39.9987778,18.6195172 C38.5707778,18.6195172 37.5627778,17.9195172 37.1847778,16.7435172 C37.0447778,16.3095172 36.9467778,15.7915172 36.9467778,15.0915172 C36.9467778,14.3915172 37.0307778,13.8595172 37.1707778,13.4255172 C37.5487778,12.2495172 38.5847778,11.5635172 39.9287778,11.5635172 C41.3147778,11.5635172 42.3227778,12.2775172 42.7007778,13.4255172 C42.8547778,13.9015172 42.9247778,14.3635172 42.9247778,15.4555172 C42.9247778,15.5395172 42.8687778,15.5955172 42.7707778,15.5955172 L38.6127778,15.5955172 C38.5567778,15.5955172 38.5287778,15.6235172 38.5287778,15.6795172 C38.5287778,15.8755172 38.5707778,16.0435172 38.6267778,16.1975172 C38.8507778,16.8555172 39.3827778,17.2195172 40.1387778,17.2195172 C40.8947778,17.2195172 41.3847778,16.9395172 41.7207778,16.5755172 C41.7907778,16.5055172 41.8607778,16.4915172 41.9307778,16.5475172 L42.7567778,17.2755172 C42.8267778,17.3315172 42.8267778,17.4015172 42.7707778,17.4715172 C42.1967778,18.1435172 41.2447778,18.6195172 39.9987778,18.6195172 Z M41.3427778,14.3355172 C41.3427778,14.0975172 41.3147778,13.9295172 41.2587778,13.7615172 C41.0767778,13.2155172 40.5727778,12.8935172 39.9427778,12.8935172 C39.2987778,12.8935172 38.7947778,13.2155172 38.6127778,13.7615172 C38.5567778,13.9295172 38.5287778,14.0975172 38.5287778,14.3355172 C38.5287778,14.3915172 38.5567778,14.4195172 38.6127778,14.4195172 L41.2587778,14.4195172 C41.3147778,14.4195172 41.3427778,14.3915172 41.3427778,14.3355172 Z M50.1627778,18.4655172 L48.8747778,18.4655172 C48.7907778,18.4655172 48.7347778,18.4095172 48.7347778,18.3255172 L48.7347778,14.4335172 C48.7347778,13.5655172 48.3007778,12.9635172 47.4607778,12.9635172 C46.6487778,12.9635172 46.1727778,13.5655172 46.1727778,14.4335172 L46.1727778,18.3255172 C46.1727778,18.4095172 46.1167778,18.4655172 46.0327778,18.4655172 L44.7447778,18.4655172 C44.6607778,18.4655172 44.6047778,18.4095172 44.6047778,18.3255172 L44.6047778,11.8575172 C44.6047778,11.7735172 44.6607778,11.7175172 44.7447778,11.7175172 L46.0327778,11.7175172 C46.1167778,11.7175172 46.1727778,11.7735172 46.1727778,11.8575172 L46.1727778,12.3475172 L46.1867778,12.3475172 C46.4807778,11.9275172 47.0687778,11.5635172 47.9647778,11.5635172 C49.4067778,11.5635172 50.3027778,12.6275172 50.3027778,14.0695172 L50.3027778,18.3255172 C50.3027778,18.4095172 50.2467778,18.4655172 50.1627778,18.4655172 Z M57.7227778,18.4655172 L56.4347778,18.4655172 C56.3507778,18.4655172 56.2947778,18.4095172 56.2947778,18.3255172 L56.2947778,17.8215172 L56.2807778,17.8215172 C55.9587778,18.2835172 55.3987778,18.6195172 54.4887778,18.6195172 C53.3407778,18.6195172 52.5007778,18.0735172 52.1507778,16.9955172 C51.9827778,16.4775172 51.9127778,16.0015172 51.9127778,15.0915172 C51.9127778,14.1815172 51.9827778,13.7055172 52.1507778,13.1875172 C52.5007778,12.1095172 53.3407778,11.5635172 54.4887778,11.5635172 C55.3987778,11.5635172 55.9587778,11.8995172 56.2807778,12.3615172 L56.2947778,12.3615172 L56.2947778,9.08551724 C56.2947778,9.00151724 56.3507778,8.94551724 56.4347778,8.94551724 L57.7227778,8.94551724 C57.8067778,8.94551724 57.8627778,9.00151724 57.8627778,9.08551724 L57.8627778,18.3255172 C57.8627778,18.4095172 57.8067778,18.4655172 57.7227778,18.4655172 Z M54.8947778,17.2195172 C55.5387778,17.2195172 55.9727778,16.9115172 56.1547778,16.3515172 C56.2527778,16.0435172 56.2947778,15.7075172 56.2947778,15.0915172 C56.2947778,14.4755172 56.2527778,14.1395172 56.1547778,13.8315172 C55.9727778,13.2715172 55.5387778,12.9635172 54.8947778,12.9635172 C54.2647778,12.9635172 53.8307778,13.2715172 53.6487778,13.8315172 C53.5507778,14.1395172 53.5087778,14.4755172 53.5087778,15.0915172 C53.5087778,15.7075172 53.5507778,16.0435172 53.6487778,16.3515172 C53.8307778,16.9115172 54.2647778,17.2195172 54.8947778,17.2195172 Z" id="Send" fill="#FFFFFF" fill-rule="nonzero"></path>
                    </g>
                    <g id="Icon-Delete" transform="translate(424.000000, 397.000000)">
                        <polygon id="Path" points="0 0 23 0 23 23 0 23"></polygon>
                        <path d="M5.75,20.125 L17.25,20.125 L17.25,6.70833333 L5.75,6.70833333 L5.75,20.125 Z M18.2083333,3.83333333 L14.8541667,3.83333333 L13.8958333,2.875 L9.10416667,2.875 L8.14583333,3.83333333 L4.79166667,3.83333333 L4.79166667,5.75 L18.2083333,5.75 L18.2083333,3.83333333 Z" id="Shape" fill="#999999" fill-rule="nonzero"></path>
                    </g>
                </g>
            </g>
        </g>
    </g>
</svg>