<?xml version="1.0" encoding="UTF-8"?>
<svg width="299px" height="226px" viewBox="0 0 299 226" version="1.1" xmlns="http://www.w3.org/2000/svg" xmlns:xlink="http://www.w3.org/1999/xlink">
    <!-- Generator: Sketch 53.2 (72643) - https://sketchapp.com -->
    <title>Omnichannel Illustration</title>
    <desc>Created with Sketch.</desc>
    <defs>
        <radialGradient cx="48.1792746%" cy="44.792915%" fx="48.1792746%" fy="44.792915%" r="87.8234538%" gradientTransform="translate(0.481793,0.447929),scale(0.688525,1.000000),rotate(180.000000),translate(-0.481793,-0.447929)" id="radialGradient-1">
            <stop stop-color="#B6F3FF" offset="0%"></stop>
            <stop stop-color="#D4F5FB" offset="100%"></stop>
        </radialGradient>
        <polygon id="path-2" points="30 14 60 41 0 41"></polygon>
        <filter x="-5.3%" y="-17.9%" width="110.5%" height="124.4%" filterUnits="objectBoundingBox" id="filter-3">
            <feMorphology radius="0.25" operator="dilate" in="SourceAlpha" result="shadowSpreadOuter1"></feMorphology>
            <feOffset dx="0" dy="-2" in="shadowSpreadOuter1" result="shadowOffsetOuter1"></feOffset>
            <feGaussianBlur stdDeviation="0.5" in="shadowOffsetOuter1" result="shadowBlurOuter1"></feGaussianBlur>
            <feComposite in="shadowBlurOuter1" in2="SourceAlpha" operator="out" result="shadowBlurOuter1"></feComposite>
            <feColorMatrix values="0 0 0 0 0   0 0 0 0 0   0 0 0 0 0  0 0 0 0.0482053895 0" type="matrix" in="shadowBlurOuter1"></feColorMatrix>
        </filter>
        <polygon id="path-4" points="30 0 60 27 0 27"></polygon>
        <filter x="-5.3%" y="-17.9%" width="110.5%" height="124.4%" filterUnits="objectBoundingBox" id="filter-5">
            <feMorphology radius="0.25" operator="dilate" in="SourceAlpha" result="shadowSpreadOuter1"></feMorphology>
            <feOffset dx="0" dy="-2" in="shadowSpreadOuter1" result="shadowOffsetOuter1"></feOffset>
            <feGaussianBlur stdDeviation="0.5" in="shadowOffsetOuter1" result="shadowBlurOuter1"></feGaussianBlur>
            <feComposite in="shadowBlurOuter1" in2="SourceAlpha" operator="out" result="shadowBlurOuter1"></feComposite>
            <feColorMatrix values="0 0 0 0 0   0 0 0 0 0   0 0 0 0 0  0 0 0 0.050243433 0" type="matrix" in="shadowBlurOuter1"></feColorMatrix>
        </filter>
        <radialGradient cx="48.1792746%" cy="44.792915%" fx="48.1792746%" fy="44.792915%" r="88.2246896%" gradientTransform="translate(0.481793,0.447929),scale(0.685393,1.000000),rotate(180.000000),translate(-0.481793,-0.447929)" id="radialGradient-6">
            <stop stop-color="#B6F3FF" offset="0%"></stop>
            <stop stop-color="#D4F5FB" offset="100%"></stop>
        </radialGradient>
        <polygon id="path-7" points="43.7704918 20.3333333 87.5409836 59.547619 0 59.547619"></polygon>
        <filter x="-3.6%" y="-12.3%" width="107.2%" height="116.8%" filterUnits="objectBoundingBox" id="filter-8">
            <feMorphology radius="0.25" operator="dilate" in="SourceAlpha" result="shadowSpreadOuter1"></feMorphology>
            <feOffset dx="0" dy="-2" in="shadowSpreadOuter1" result="shadowOffsetOuter1"></feOffset>
            <feGaussianBlur stdDeviation="0.5" in="shadowOffsetOuter1" result="shadowBlurOuter1"></feGaussianBlur>
            <feComposite in="shadowBlurOuter1" in2="SourceAlpha" operator="out" result="shadowBlurOuter1"></feComposite>
            <feColorMatrix values="0 0 0 0 0   0 0 0 0 0   0 0 0 0 0  0 0 0 0.0482053895 0" type="matrix" in="shadowBlurOuter1"></feColorMatrix>
        </filter>
        <polygon id="path-9" points="43.7704918 0 87.5409836 39.2142857 0 39.2142857"></polygon>
        <filter x="-3.6%" y="-12.3%" width="107.2%" height="116.8%" filterUnits="objectBoundingBox" id="filter-10">
            <feMorphology radius="0.25" operator="dilate" in="SourceAlpha" result="shadowSpreadOuter1"></feMorphology>
            <feOffset dx="0" dy="-2" in="shadowSpreadOuter1" result="shadowOffsetOuter1"></feOffset>
            <feGaussianBlur stdDeviation="0.5" in="shadowOffsetOuter1" result="shadowBlurOuter1"></feGaussianBlur>
            <feComposite in="shadowBlurOuter1" in2="SourceAlpha" operator="out" result="shadowBlurOuter1"></feComposite>
            <feColorMatrix values="0 0 0 0 0   0 0 0 0 0   0 0 0 0 0  0 0 0 0.050243433 0" type="matrix" in="shadowBlurOuter1"></feColorMatrix>
        </filter>
        <radialGradient cx="48.1792746%" cy="44.792915%" fx="48.1792746%" fy="44.792915%" r="89.1116321%" gradientTransform="translate(0.481793,0.447929),scale(0.678571,1.000000),rotate(180.000000),translate(-0.481793,-0.447929)" id="radialGradient-11">
            <stop stop-color="#B6F3FF" offset="0%"></stop>
            <stop stop-color="#D4F5FB" offset="100%"></stop>
        </radialGradient>
        <polygon id="path-12" points="27.5409836 12.6666667 55.0819672 37.0952381 0 37.0952381"></polygon>
        <filter x="-5.7%" y="-19.8%" width="111.5%" height="127.0%" filterUnits="objectBoundingBox" id="filter-13">
            <feMorphology radius="0.25" operator="dilate" in="SourceAlpha" result="shadowSpreadOuter1"></feMorphology>
            <feOffset dx="0" dy="-2" in="shadowSpreadOuter1" result="shadowOffsetOuter1"></feOffset>
            <feGaussianBlur stdDeviation="0.5" in="shadowOffsetOuter1" result="shadowBlurOuter1"></feGaussianBlur>
            <feComposite in="shadowBlurOuter1" in2="SourceAlpha" operator="out" result="shadowBlurOuter1"></feComposite>
            <feColorMatrix values="0 0 0 0 0   0 0 0 0 0   0 0 0 0 0  0 0 0 0.0482053895 0" type="matrix" in="shadowBlurOuter1"></feColorMatrix>
        </filter>
        <polygon id="path-14" points="27.5409836 0 55.0819672 24.4285714 0 24.4285714"></polygon>
        <filter x="-5.7%" y="-19.8%" width="111.5%" height="127.0%" filterUnits="objectBoundingBox" id="filter-15">
            <feMorphology radius="0.25" operator="dilate" in="SourceAlpha" result="shadowSpreadOuter1"></feMorphology>
            <feOffset dx="0" dy="-2" in="shadowSpreadOuter1" result="shadowOffsetOuter1"></feOffset>
            <feGaussianBlur stdDeviation="0.5" in="shadowOffsetOuter1" result="shadowBlurOuter1"></feGaussianBlur>
            <feComposite in="shadowBlurOuter1" in2="SourceAlpha" operator="out" result="shadowBlurOuter1"></feComposite>
            <feColorMatrix values="0 0 0 0 0   0 0 0 0 0   0 0 0 0 0  0 0 0 0.050243433 0" type="matrix" in="shadowBlurOuter1"></feColorMatrix>
        </filter>
    </defs>
    <g id="Marketing-Website-V0.7" stroke="none" stroke-width="1" fill="none" fill-rule="evenodd">
        <g id="Desktop-1400px-Airlines-Hotels-&amp;-OTAs-1" transform="translate(-175.000000, -338.000000)">
            <g id="Hero" transform="translate(-10.000000, 0.000000)">
                <g id="Hero-Image-Illustration" transform="translate(185.000000, 305.000000)">
                    <g id="Omnichannel-Illustration" transform="translate(0.000000, 33.000000)">
                        <g id="Text/Chat-Illustration" transform="translate(202.000000, 19.000000)">
                            <g id="Group-7" fill="#005B82">
                                <path d="M18.3872373,29.6296296 L8.97361054,39.0115607 L8.97361054,29.6296296 L5.94594595,29.6296296 L5.94594595,-3.73034936e-14 L55,-3.73034936e-14 L55,29.6296296 L18.3872373,29.6296296 Z" id="Combined-Shape"></path>
                            </g>
                            <path d="M14,9.5 L47,9.5" id="Line-2" stroke="#FFFFFF" stroke-width="2" stroke-linecap="round"></path>
                            <path d="M15,17.5 L34,17.5" id="Line-2-Copy" stroke="#FFFFFF" stroke-width="2" stroke-linecap="round"></path>
                        </g>
                        <g id="Text/Chat-Illustration" transform="translate(0.000000, 88.000000)">
                            <g id="Group-7" fill="#005B82">
                                <path d="M13.3872373,29.6296296 L3.97361054,39.0115607 L3.97361054,29.6296296 L0.945945946,29.6296296 L0.945945946,-3.73034936e-14 L50,-3.73034936e-14 L50,29.6296296 L13.3872373,29.6296296 Z" id="Combined-Shape" transform="translate(25.472973, 19.505780) scale(-1, 1) translate(-25.472973, -19.505780) "></path>
                            </g>
                            <path d="M9,9.5 L42,9.5" id="Line-2" stroke="#FFFFFF" stroke-width="2" stroke-linecap="round"></path>
                            <path d="M10,17.5 L29,17.5" id="Line-2-Copy" stroke="#FFFFFF" stroke-width="2" stroke-linecap="round"></path>
                        </g>
                        <g id="Text/Chat-Illustration" transform="translate(156.500000, 29.000000) scale(-1, 1) translate(-156.500000, -29.000000) translate(116.000000, 0.000000)">
                            <g id="Group-7" fill="#85CDDB">
                                <path d="M27.0793859,43.7037037 L13.215681,57.542052 L13.215681,43.7037037 L8.75675676,43.7037037 L8.75675676,-1.24344979e-13 L81,-1.24344979e-13 L81,43.7037037 L27.0793859,43.7037037 Z" id="Combined-Shape"></path>
                            </g>
                            <path d="M20,14.5 L69,14.5" id="Line-2" stroke="#FFFFFF" stroke-width="2" stroke-linecap="round"></path>
                            <path d="M41,25.5 L69,25.5" id="Line-2-Copy" stroke="#FFFFFF" stroke-width="2" stroke-linecap="round"></path>
                        </g>
                        <g id="Mobile-Illustration" transform="translate(215.000000, 75.000000)">
                            <g id="Group-6-Copy-2" transform="translate(18.000000, 0.000000)">
                                <rect id="Rectangle" stroke="#003D4C" stroke-width="3" fill="#FFFFFF" x="1.5" y="1.5" width="38" height="63" rx="3"></rect>
                                <rect id="Rectangle-Copy-71" stroke="#02637B" stroke-width="2" fill="#FFFFFF" x="6" y="12" width="29" height="42" rx="2"></rect>
                                <path d="M15.5,59.5 L25.5,59.5" id="Line" stroke="#003D4C" stroke-width="2" stroke-linecap="round"></path>
                                <circle id="Oval" fill="#003D4C" cx="20.5" cy="6.5" r="1.5"></circle>
                            </g>
                            <g id="Group-8-Copy-7" transform="translate(39.000000, 7.000000)">
                                <g id="Group-7" fill="#4C8CA7">
                                    <path d="M12.369596,20 L6.03679254,26.3328035 L6.03679254,20 L4,20 L4,0 L37,0 L37,20 L12.369596,20 Z" id="Combined-Shape"></path>
                                </g>
                                <path d="M9.82180851,6.5 L31.8218085,6.5" id="Line-2" stroke="#FFFFFF" stroke-width="2" stroke-linecap="round"></path>
                                <path d="M9.82180851,11.5 L22.8218085,11.5" id="Line-2-Copy" stroke="#FFFFFF" stroke-width="2" stroke-linecap="round"></path>
                            </g>
                            <g id="Group-8-Copy-2" transform="translate(18.500000, 33.500000) scale(-1, 1) translate(-18.500000, -33.500000) translate(0.000000, 20.000000)">
                                <g id="Group-7" fill="#FFFFFF" stroke="#85CDDB">
                                    <path d="M36.5,19.5 L36.5,0.5 L4.5,0.5 L4.5,19.5 L6.53679254,19.5 L6.53679254,25.1256967 L12.1624892,19.5 L12.369596,19.5 L36.5,19.5 Z" id="Combined-Shape"></path>
                                </g>
                                <path d="M9.82180851,6.5 L31.8218085,6.5" id="Line-2" stroke="#005B82" stroke-width="2" stroke-linecap="round"></path>
                                <path d="M19,11.5 L32,11.5" id="Line-2-Copy" stroke="#005B82" stroke-width="2" stroke-linecap="round"></path>
                            </g>
                        </g>
                        <g id="Laptop-Illustration" transform="translate(67.000000, 75.000000)">
                            <rect id="Rectangle" stroke="#003D4C" stroke-width="3" fill="#003D4C" x="9.5" y="1.5" width="95" height="56" rx="2"></rect>
                            <circle id="Oval" fill="#02637B" cx="57.5" cy="2.5" r="1.5"></circle>
                            <rect id="Rectangle-Copy-83" stroke="#FFFFFF" fill="#FFFFFF" x="12.5" y="5.5" width="89" height="52"></rect>
                            <path d="M1,57 L1,64 C1,64.5522847 1.44771525,65 2,65 L112,65 C112.552285,65 113,64.5522847 113,64 L113,57 L1,57 Z" id="Rectangle-Copy-81" stroke="#003D4C" stroke-width="2" fill="#85CDDB"></path>
                            <path d="M46,56 L69,56 L69,57 C69,58.1045695 68.1045695,59 67,59 L48,59 C46.8954305,59 46,58.1045695 46,57 L46,56 Z" id="Rectangle" fill="#003D4C"></path>
                            <path d="M0.5,61.5 L0.5,64 C0.5,64.8284271 1.17157288,65.5 2,65.5 L112,65.5 C112.828427,65.5 113.5,64.8284271 113.5,64 L113.5,61.5 L0.5,61.5 Z" id="Rectangle-Copy-82" stroke="#003D4C" fill="#003D4C"></path>
                        </g>
                        <g id="Email-Illustration" transform="translate(237.000000, 169.000000)">
                            <g id="Group-9">
                                <rect id="Rectangle" fill="#FFFFFF" x="0" y="0" width="61" height="42"></rect>
                                <rect id="Rectangle" stroke="#003D4C" stroke-width="2" fill-opacity="0.4" fill="url(#radialGradient-1)" x="1" y="1" width="59" height="40"></rect>
                                <g id="Triangle-Copy-4">
                                    <use fill="black" fill-opacity="1" filter="url(#filter-3)" xlink:href="#path-2"></use>
                                    <use stroke="#BED8F4" stroke-width="0.5" fill="#EEF5FC" fill-rule="evenodd" xlink:href="#path-2"></use>
                                </g>
                                <g id="Triangle" transform="translate(30.000000, 13.500000) scale(1, -1) translate(-30.000000, -13.500000) ">
                                    <use fill="black" fill-opacity="1" filter="url(#filter-5)" xlink:href="#path-4"></use>
                                    <use stroke="#BED8F4" stroke-width="0.5" fill="#EEF5FC" fill-rule="evenodd" xlink:href="#path-4"></use>
                                </g>
                                <rect id="Rectangle-Copy-100" stroke="#003D4C" stroke-width="2" x="1" y="1" width="59" height="40"></rect>
                            </g>
                            <path d="M23.872,11.176 C23.872,7.018 26.788,4.12 31,4.12 C35.212,4.12 38.128,7.054 38.128,11.176 C38.128,13.822 36.742,15.028 35.158,15.028 C34.096,15.028 33.376,14.578 32.98,13.876 L32.962,13.876 C32.62,14.542 31.864,15.01 30.586,15.01 C29.272,15.01 28.372,14.416 27.994,13.246 C27.832,12.76 27.76,12.238 27.76,11.248 C27.76,10.258 27.832,9.736 27.994,9.25 C28.372,8.08 29.272,7.486 30.514,7.486 C31.468,7.486 32.17,7.918 32.458,8.404 L32.494,8.404 L32.494,7.846 C32.494,7.738 32.566,7.684 32.638,7.684 L33.97,7.684 C34.078,7.684 34.114,7.738 34.114,7.846 L34.114,12.292 C34.114,13.192 34.6,13.552 35.158,13.552 C35.86,13.552 36.472,13.012 36.472,11.176 C36.472,7.882 34.384,5.596 31,5.596 C27.616,5.596 25.528,7.846 25.528,11.176 C25.528,14.506 27.616,16.756 31,16.756 C32.674,16.756 33.772,16.45 34.852,15.946 C34.96,15.892 35.05,15.91 35.104,16.036 L35.518,17.008 C35.572,17.098 35.536,17.188 35.446,17.242 C34.15,17.926 32.836,18.232 31,18.232 C26.788,18.232 23.872,15.334 23.872,11.176 Z M29.542,12.526 C29.776,13.192 30.244,13.516 30.964,13.516 C31.684,13.516 32.152,13.192 32.368,12.526 C32.458,12.238 32.494,11.932 32.494,11.248 C32.494,10.564 32.458,10.258 32.368,9.988 C32.152,9.304 31.684,8.98 30.964,8.98 C30.244,8.98 29.776,9.304 29.542,9.988 C29.452,10.258 29.416,10.564 29.416,11.248 C29.416,11.932 29.452,12.238 29.542,12.526 Z" id="@" fill="#003D4C" fill-rule="nonzero"></path>
                        </g>
                        <g id="Email-Illustration" transform="translate(35.000000, 165.000000)">
                            <g id="Group-9">
                                <rect id="Rectangle" fill="#FFFFFF" x="0" y="0" width="89" height="61"></rect>
                                <rect id="Rectangle" stroke="#003D4C" stroke-width="2" fill-opacity="0.4" fill="url(#radialGradient-6)" x="1" y="1" width="87" height="59"></rect>
                                <g id="Triangle-Copy-4">
                                    <use fill="black" fill-opacity="1" filter="url(#filter-8)" xlink:href="#path-7"></use>
                                    <use stroke="#BED8F4" stroke-width="0.5" fill="#EEF5FC" fill-rule="evenodd" xlink:href="#path-7"></use>
                                </g>
                                <g id="Triangle" transform="translate(43.770492, 19.607143) scale(1, -1) translate(-43.770492, -19.607143) ">
                                    <use fill="black" fill-opacity="1" filter="url(#filter-10)" xlink:href="#path-9"></use>
                                    <use stroke="#BED8F4" stroke-width="0.5" fill="#EEF5FC" fill-rule="evenodd" xlink:href="#path-9"></use>
                                </g>
                                <rect id="Rectangle-Copy-100" stroke="#003D4C" stroke-width="2" x="1" y="1" width="87" height="59"></rect>
                            </g>
                            <path d="M37.08,15.64 C37.08,11.02 40.32,7.8 45,7.8 C49.68,7.8 52.92,11.06 52.92,15.64 C52.92,18.58 51.38,19.92 49.62,19.92 C48.44,19.92 47.64,19.42 47.2,18.64 L47.18,18.64 C46.8,19.38 45.96,19.9 44.54,19.9 C43.08,19.9 42.08,19.24 41.66,17.94 C41.48,17.4 41.4,16.82 41.4,15.72 C41.4,14.62 41.48,14.04 41.66,13.5 C42.08,12.2 43.08,11.54 44.46,11.54 C45.52,11.54 46.3,12.02 46.62,12.56 L46.66,12.56 L46.66,11.94 C46.66,11.82 46.74,11.76 46.82,11.76 L48.3,11.76 C48.42,11.76 48.46,11.82 48.46,11.94 L48.46,16.88 C48.46,17.88 49,18.28 49.62,18.28 C50.4,18.28 51.08,17.68 51.08,15.64 C51.08,11.98 48.76,9.44 45,9.44 C41.24,9.44 38.92,11.94 38.92,15.64 C38.92,19.34 41.24,21.84 45,21.84 C46.86,21.84 48.08,21.5 49.28,20.94 C49.4,20.88 49.5,20.9 49.56,21.04 L50.02,22.12 C50.08,22.22 50.04,22.32 49.94,22.38 C48.5,23.14 47.04,23.48 45,23.48 C40.32,23.48 37.08,20.26 37.08,15.64 Z M43.38,17.14 C43.64,17.88 44.16,18.24 44.96,18.24 C45.76,18.24 46.28,17.88 46.52,17.14 C46.62,16.82 46.66,16.48 46.66,15.72 C46.66,14.96 46.62,14.62 46.52,14.32 C46.28,13.56 45.76,13.2 44.96,13.2 C44.16,13.2 43.64,13.56 43.38,14.32 C43.28,14.62 43.24,14.96 43.24,15.72 C43.24,16.48 43.28,16.82 43.38,17.14 Z" id="@" fill="#003D4C" fill-rule="nonzero"></path>
                        </g>
                        <g id="Email-Illustration" transform="translate(24.000000, 13.000000)">
                            <g id="Group-9">
                                <rect id="Rectangle" fill="#FFFFFF" x="0" y="0" width="56" height="38"></rect>
                                <rect id="Rectangle" stroke="#003D4C" stroke-width="2" fill-opacity="0.4" fill="url(#radialGradient-11)" x="1" y="1" width="54" height="36"></rect>
                                <g id="Triangle-Copy-4">
                                    <use fill="black" fill-opacity="1" filter="url(#filter-13)" xlink:href="#path-12"></use>
                                    <use stroke="#BED8F4" stroke-width="0.5" fill="#EEF5FC" fill-rule="evenodd" xlink:href="#path-12"></use>
                                </g>
                                <g id="Triangle" transform="translate(27.540984, 12.214286) scale(1, -1) translate(-27.540984, -12.214286) ">
                                    <use fill="black" fill-opacity="1" filter="url(#filter-15)" xlink:href="#path-14"></use>
                                    <use stroke="#BED8F4" stroke-width="0.5" fill="#EEF5FC" fill-rule="evenodd" xlink:href="#path-14"></use>
                                </g>
                                <rect id="Rectangle-Copy-100" stroke="#003D4C" stroke-width="2" x="1" y="1" width="54" height="36"></rect>
                            </g>
                            <path d="M21.664,10.712 C21.664,7.016 24.256,4.44 28,4.44 C31.744,4.44 34.336,7.048 34.336,10.712 C34.336,13.064 33.104,14.136 31.696,14.136 C30.752,14.136 30.112,13.736 29.76,13.112 L29.744,13.112 C29.44,13.704 28.768,14.12 27.632,14.12 C26.464,14.12 25.664,13.592 25.328,12.552 C25.184,12.12 25.12,11.656 25.12,10.776 C25.12,9.896 25.184,9.432 25.328,9 C25.664,7.96 26.464,7.432 27.568,7.432 C28.416,7.432 29.04,7.816 29.296,8.248 L29.328,8.248 L29.328,7.752 C29.328,7.656 29.392,7.608 29.456,7.608 L30.64,7.608 C30.736,7.608 30.768,7.656 30.768,7.752 L30.768,11.704 C30.768,12.504 31.2,12.824 31.696,12.824 C32.32,12.824 32.864,12.344 32.864,10.712 C32.864,7.784 31.008,5.752 28,5.752 C24.992,5.752 23.136,7.752 23.136,10.712 C23.136,13.672 24.992,15.672 28,15.672 C29.488,15.672 30.464,15.4 31.424,14.952 C31.52,14.904 31.6,14.92 31.648,15.032 L32.016,15.896 C32.064,15.976 32.032,16.056 31.952,16.104 C30.8,16.712 29.632,16.984 28,16.984 C24.256,16.984 21.664,14.408 21.664,10.712 Z M26.704,11.912 C26.912,12.504 27.328,12.792 27.968,12.792 C28.608,12.792 29.024,12.504 29.216,11.912 C29.296,11.656 29.328,11.384 29.328,10.776 C29.328,10.168 29.296,9.896 29.216,9.656 C29.024,9.048 28.608,8.76 27.968,8.76 C27.328,8.76 26.912,9.048 26.704,9.656 C26.624,9.896 26.592,10.168 26.592,10.776 C26.592,11.384 26.624,11.656 26.704,11.912 Z" id="@" fill="#003D4C" fill-rule="nonzero"></path>
                        </g>
                        <g id="Tablet-Illustration" transform="translate(147.000000, 107.000000)">
                            <rect id="Rectangle" stroke="#003D4C" stroke-width="3" fill="#FFFFFF" x="1.5" y="1.5" width="57" height="80" rx="3"></rect>
                            <rect id="Rectangle-Copy-71" stroke="#02637B" stroke-width="2" fill="#FFFFFF" x="8" y="16" width="44" height="53" rx="2"></rect>
                            <circle id="Oval" fill="#003D4C" cx="30" cy="9" r="2"></circle>
                            <circle id="Oval-Copy-25" stroke="#02637B" cx="30" cy="75" r="3"></circle>
                        </g>
                    </g>
                </g>
            </g>
        </g>
    </g>
</svg>