<svg width="320" height="651" xmlns="http://www.w3.org/2000/svg" xmlns:xlink="http://www.w3.org/1999/xlink"><defs><linearGradient x1="20.26959%" y1="0%" x2="49.57977%" y2="98.58652%" id="c"><stop stop-color="#202430" offset="0%"/><stop stop-color="#1F2639" offset="100%"/></linearGradient><rect id="b" x="86.64562" y="87.70876" width="78.6721" height="79.73523" rx="4"/><filter x="-26.7%" y="-26.3%" width="153.4%" height="152.7%" filterUnits="objectBoundingBox" id="a"><feOffset in="SourceAlpha" result="shadowOffsetOuter1"/><feGaussianBlur stdDeviation="7" in="shadowOffsetOuter1" result="shadowBlurOuter1"/><feColorMatrix values="0 0 0 0 0 0 0 0 0 0 0 0 0 0 0 0 0 0 0.5 0" in="shadowBlurOuter1"/></filter><linearGradient x1="4.99336%" y1=".89559%" x2="47.09707%" y2="41.22782%" id="d"><stop stop-color="#FBFBFB" offset="0%"/><stop stop-color="#C5E8F5" offset="100%"/></linearGradient><radialGradient cx="48.17927%" cy="44.79292%" fx="48.17927%" fy="44.79292%" r="88.08103%" gradientTransform="matrix(-.68651 0 0 -1 .81255 .89586)" id="e"><stop stop-color="#B6F3FF" offset="0%"/><stop stop-color="#D4F5FB" offset="100%"/></radialGradient><path id="g" d="M24.7009 11.33031l23 21.85132h-46z"/><filter x="-8.2%" y="-23.7%" width="116.3%" height="132.9%" filterUnits="objectBoundingBox" id="f"><feMorphology radius=".5" operator="dilate" in="SourceAlpha" result="shadowSpreadOuter1"/><feOffset dy="-2" in="shadowSpreadOuter1" result="shadowOffsetOuter1"/><feGaussianBlur stdDeviation=".5" in="shadowOffsetOuter1" result="shadowBlurOuter1"/><feComposite in="shadowBlurOuter1" in2="SourceAlpha" operator="out" result="shadowBlurOuter1"/><feColorMatrix values="0 0 0 0 0 0 0 0 0 0 0 0 0 0 0 0 0 0 0.0482053895 0" in="shadowBlurOuter1"/></filter><path id="i" d="M24.7009 0l23 21.85131h-46z"/><filter x="-8.2%" y="-23.7%" width="116.3%" height="132.9%" filterUnits="objectBoundingBox" id="h"><feMorphology radius=".5" operator="dilate" in="SourceAlpha" result="shadowSpreadOuter1"/><feOffset dy="-2" in="shadowSpreadOuter1" result="shadowOffsetOuter1"/><feGaussianBlur stdDeviation=".5" in="shadowOffsetOuter1" result="shadowBlurOuter1"/><feComposite in="shadowBlurOuter1" in2="SourceAlpha" operator="out" result="shadowBlurOuter1"/><feColorMatrix values="0 0 0 0 0 0 0 0 0 0 0 0 0 0 0 0 0 0 0.050243433 0" in="shadowBlurOuter1"/></filter><path id="j" d="M0 0h68.89198v8.98077H0z"/><path d="M15.53933 1.10865C18.06821.67553 20.51481.44841 21.9857.3404c-3.30958 0-7.93195-.08008-11.6329-.29599-4.3664 0-7.66936.57945-10.2736 1.06658l5.28075.97574C7.4387 1.5045 9.90533 1.06119 11.41594.9303c1.33399.13569 2.53344.17238 4.1234.17834" id="l"/><linearGradient x1="44.72227%" y1="48.51836%" x2="55.27713%" y2="51.19249%" id="m"><stop stop-color="#63B045" offset="0%"/><stop stop-color="#9EC963" offset="100%"/></linearGradient><path d="M10.24048.23513C8.65053.22915 7.45108.19246 6.11708.05677c-1.5106.13088-3.97723.5742-6.05614 1.1564l3.89245.7195C5.69995 1.16427 8.00289.61875 10.24048.23513" id="o"/><linearGradient x1="39.60323%" y1="46.22792%" x2="60.39648%" y2="52.79256%" id="p"><stop stop-color="#236535" offset="0%"/><stop stop-color="#83B541" offset="100%"/></linearGradient><path d="M12.74272.08954c-2.2376.38362-4.54053.92914-6.2871 1.69756l-3.8923-.7195c-.97204.27269-1.85975.5755-2.52431.89056L8.35379 4.9586C10.50027 2.80243 14.69446.76376 17.31475.08182c-1.9095 0-3.3555.01238-4.57203.00772" id="r"/><linearGradient x1="27.7461%" y1="41.33484%" x2="72.25577%" y2="53.76271%" id="s"><stop stop-color="#2197B5" offset="0%"/><stop stop-color="#1B505F" offset="100%"/></linearGradient><path d="M.11069 2.28486c5.46106.89333 11.25359 1.66568 19.82493 1.15947C16.39422 3.15038 11.90579 1.8465 8.7543.07367L.11069 2.28487" id="u"/><linearGradient x1="23.52241%" y1="46.25596%" x2="76.47893%" y2="55.58648%" id="v"><stop stop-color="#B4DEE2" offset="0%"/><stop stop-color="#38A5BD" offset="100%"/></linearGradient></defs><g fill="none" fill-rule="evenodd"><g transform="translate(29 321)"><g stroke-linecap="square" stroke-width="3"><g stroke="#FFF"><path d="M167.20036 91.76394h1.15173M167.20036 98.44802h1.15173M167.20036 105.1321h1.15173M167.20036 111.81617h1.15173M167.20036 118.50024h1.15173M167.20036 125.18432h1.15173M167.20036 131.8684h1.15173M167.20036 138.55247h1.15173M167.20036 145.23655h1.15173M167.20036 151.92062h1.15173M167.20036 158.6047h1.15173"/></g><g stroke="#A9DCE5"><path d="M170.07968 91.76394h3.4552M170.07968 98.44802h3.4552M170.07968 105.1321h3.4552M170.07968 111.81617h3.4552M170.07968 118.50024h3.4552M170.07968 125.18432h3.4552M170.07968 131.8684h3.4552M170.07968 138.55247h3.4552M170.07968 145.23655h3.4552M170.07968 151.92062h3.4552M170.07968 158.6047h3.4552"/></g><g stroke="#4C8CA7"><path d="M169.84464 91.76394h.63462M169.84464 98.44802h.63462M169.84464 105.1321h.63462M169.84464 111.81617h.63462M169.84464 118.50024h.63462M169.84464 125.18432h.63462M169.84464 131.8684h.63462M169.84464 138.55247h.63462M169.84464 145.23655h.63462M169.84464 151.92062h.63462M169.84464 158.6047h.63462"/></g></g><g stroke-linecap="square" stroke-width="3"><g stroke="#FFF"><path d="M159.66783 167.73192v1.15174M152.98376 167.73192v1.15174M146.29968 167.73192v1.15174M139.6156 167.73192v1.15174M132.93153 167.73192v1.15174M126.24745 167.73192v1.15174M119.56338 167.73192v1.15174M112.8793 167.73192v1.15174M106.19523 167.73192v1.15174M99.51115 167.73192v1.15174M92.82707 167.73192v1.15174"/></g><g stroke="#A9DCE5"><path d="M159.66783 170.61125v3.4552M152.98376 170.61125v3.4552M146.29968 170.61125v3.4552M139.6156 170.61125v3.4552M132.93153 170.61125v3.4552M126.24745 170.61125v3.4552M119.56338 170.61125v3.4552M112.8793 170.61125v3.4552M106.19523 170.61125v3.4552M99.51115 170.61125v3.4552M92.82707 170.61125v3.4552"/></g><g stroke="#4C8CA7"><path d="M159.66783 170.3762v.63463M152.98376 170.3762v.63463M146.29968 170.3762v.63463M139.6156 170.3762v.63463M132.93153 170.3762v.63463M126.24745 170.3762v.63463M119.56338 170.3762v.63463M112.8793 170.3762v.63463M106.19523 170.3762v.63463M99.51115 170.3762v.63463M92.82707 170.3762v.63463"/></g></g><g stroke-linecap="square" stroke-width="3"><g stroke="#FFF"><path d="M159.66783 84.76298v-1.15173M152.98376 84.76298v-1.15173M146.29968 84.76298v-1.15173M139.6156 84.76298v-1.15173M132.93153 84.76298v-1.15173M126.24745 84.76298v-1.15173M119.56338 84.76298v-1.15173M112.8793 84.76298v-1.15173M106.19523 84.76298v-1.15173M99.51115 84.76298v-1.15173M92.82707 84.76298v-1.15173"/></g><g stroke="#A9DCE5"><path d="M159.66783 81.88366v-3.4552M152.98376 81.88366v-3.4552M146.29968 81.88366v-3.4552M139.6156 81.88366v-3.4552M132.93153 81.88366v-3.4552M126.24745 81.88366v-3.4552M119.56338 81.88366v-3.4552M112.8793 81.88366v-3.4552M106.19523 81.88366v-3.4552M99.51115 81.88366v-3.4552M92.82707 81.88366v-3.4552"/></g><g stroke="#4C8CA7"><path d="M159.66783 82.1187v-.63462M152.98376 82.1187v-.63462M146.29968 82.1187v-.63462M139.6156 82.1187v-.63462M132.93153 82.1187v-.63462M126.24745 82.1187v-.63462M119.56338 82.1187v-.63462M112.8793 82.1187v-.63462M106.19523 82.1187v-.63462M99.51115 82.1187v-.63462M92.82707 82.1187v-.63462"/></g></g><g stroke-linecap="square" stroke-width="3"><g stroke="#FFF"><path d="M85.82612 91.76394h-1.15173M85.82612 98.44802h-1.15173M85.82612 105.1321h-1.15173M85.82612 111.81617h-1.15173M85.82612 118.50024h-1.15173M85.82612 125.18432h-1.15173M85.82612 131.8684h-1.15173M85.82612 138.55247h-1.15173M85.82612 145.23655h-1.15173M85.82612 151.92062h-1.15173M85.82612 158.6047h-1.15173"/></g><g stroke="#A9DCE5"><path d="M82.9468 91.76394h-3.4552M82.9468 98.44802h-3.4552M82.9468 105.1321h-3.4552M82.9468 111.81617h-3.4552M82.9468 118.50024h-3.4552M82.9468 125.18432h-3.4552M82.9468 131.8684h-3.4552M82.9468 138.55247h-3.4552M82.9468 145.23655h-3.4552M82.9468 151.92062h-3.4552M82.9468 158.6047h-3.4552"/></g><g stroke="#4C8CA7"><path d="M83.18184 91.76394h-.63463M83.18184 98.44802h-.63463M83.18184 105.1321h-.63463M83.18184 111.81617h-.63463M83.18184 118.50024h-.63463M83.18184 125.18432h-.63463M83.18184 131.8684h-.63463M83.18184 138.55247h-.63463M83.18184 145.23655h-.63463M83.18184 151.92062h-.63463M83.18184 158.6047h-.63463"/></g></g><use fill="#000" filter="url(#a)" xlink:href="#b"/><use fill="url(#c)" xlink:href="#b"/><rect fill="url(#d)" x="86.64562" y="86.11405" width="78.6721" height="79.73523" rx="4"/><circle stroke="#6098B1" stroke-width="2.5" cx="165.05193" cy="236.28208" r="6.11303"/><path stroke="#6098B1" stroke-width="2.5" d="M103.6558 177.01222v38.4664h61.66192v15.222"/><circle stroke="#6098B1" stroke-width="2.5" transform="scale(-1 1) rotate(-90 0 66.9776)" cx="6.11303" cy="60.86456" r="6.11303"/><path stroke="#6098B1" stroke-width="2.5" d="M75.2169 122.52648H27.1625V60.86456H11.9603"/><circle stroke="#6098B1" stroke-width="2.5" transform="matrix(1 0 0 -1 0 12.22607)" cx="191.09878" cy="6.11303" r="6.11303"/><path stroke="#6098B1" stroke-width="2.5" d="M129.17108 74.95112v-48.0544h61.66191V11.6945"/><circle stroke="#6098B1" stroke-width="2.5" transform="scale(-1 1) rotate(-90 0 79.20367)" cx="43.85438" cy="35.34929" r="6.11303"/><path stroke="#6098B1" stroke-width="2.5" d="M75.2169 102.85845H43.85438V41.19654"/><circle stroke="#6098B1" stroke-width="2.5" transform="scale(-1 1) rotate(-90 0 88.7719)" cx="62.99083" cy="25.78106" r="6.11303"/><path stroke="#6098B1" stroke-width="2.5" d="M75.2169 93.29022H62.99084V31.62831"/><circle stroke="#6098B1" stroke-width="2.5" transform="matrix(-1 0 0 1 54.75153 0)" cx="27.37576" cy="201.19857" r="6.11303"/><path stroke="#6098B1" stroke-width="2.5" d="M94.61914 177.01222v23.92057H32.95723"/><circle stroke="#6098B1" stroke-width="2.5" transform="matrix(1 0 0 -1 0 101.52953)" cx="213.42464" cy="50.76477" r="6.11303"/><path stroke="#6098B1" stroke-width="2.5" d="M146.18126 74.41955V50.49898h61.66192"/><circle stroke="#6098B1" stroke-width="2.5" cx="236.28208" cy="217.67719" r="6.11303"/><path stroke="#6098B1" stroke-width="2.5" d="M176.74644 156.01527h38.46639v61.66192h15.222"/><circle stroke="#6098B1" stroke-width="2.5" cx="254.88697" cy="190.56721" r="6.11303"/><path stroke="#6098B1" stroke-width="2.5" d="M176.48065 142.99185h57.63718v47.30958h15.18767"/><circle stroke="#6098B1" stroke-width="2.5" cx="135.28411" cy="201.19857" r="6.11303"/><path d="M135.28411 177.01222v18.28456" stroke="#6098B1" stroke-width="2.5"/><circle stroke="#6098B1" stroke-width="2.5" transform="rotate(-90 200.667 128.37373)" cx="200.66701" cy="128.37373" r="6.11303"/><path d="M176.48065 128.37373h18.60489" stroke="#6098B1" stroke-width="2.5"/><circle stroke="#6098B1" stroke-width="2.5" transform="scale(-1 1) rotate(-90 0 207.3116)" cx="50.76477" cy="156.54684" r="6.11303"/><path d="M74.95112 156.54684H56.34623" stroke="#6098B1" stroke-width="2.5"/><circle stroke="#6098B1" stroke-width="2.5" transform="scale(-1 1) rotate(-90 0 144.58656)" cx="7.70774" cy="136.87882" r="6.11303"/><path d="M75.2169 137.1446H13.555" stroke="#6098B1" stroke-width="2.5"/><circle stroke="#6098B1" stroke-width="2.5" transform="matrix(1 0 0 -1 0 91.9613)" cx="90.10081" cy="45.98065" r="6.11303"/><path d="M90.10081 74.95112v-23.389" stroke="#6098B1" stroke-width="2.5"/><circle stroke="#6098B1" stroke-width="2.5" transform="matrix(1 0 0 -1 0 14.35234)" cx="108.7057" cy="7.17617" r="6.11303"/><path d="M108.7057 74.41955V12.75764" stroke="#6098B1" stroke-width="2.5"/><circle stroke="#6098B1" stroke-width="2.5" transform="rotate(-90 244.2556 109.23727)" cx="244.2556" cy="109.23727" r="6.11303"/><path d="M176.74644 108.97149h61.66191" stroke="#6098B1" stroke-width="2.5"/><g><path d="M122.91706 109.72993c0-.34554.27596-.6252.61578-.6252h5.53224c.3389 0 .61392.27966.61392.6252v1.60114h-6.76194v-1.60114zm17.2167 1.60114h-8.23263v-1.60114c0-1.59025-1.27212-2.88472-2.83605-2.88472h-5.53224c-1.56485 0-2.83744 1.29447-2.83744 2.88472v1.60114h-8.33425c-2.16525 0-3.92123 1.78505-3.92123 3.98769v17.37226c0 2.20264 1.75598 3.98769 3.92123 3.98769h21.45165l-2.04872 8.43942 10.82907-9.32436c.05687-.04645.11001-.09622.16502-.14552l.09556-.08816c.75656-.69345 1.20126-1.74145 1.20126-2.86907v-17.37226c0-2.20264-1.75598-3.9877-3.92123-3.9877z" opacity=".8" fill="#005B82"/><path d="M119.92923 128.49067l3.46796-9.82338c.02976-.0893.0893-.14884.19349-.14884H124.96c.10418 0 .16372.05954.19349.14884l3.4233 9.82338c.02976.0893 0 .14884-.1042.14884h-1.45861c-.1042 0-.16373-.04465-.1935-.14884l-.66977-1.96467h-3.81028l-.66978 1.96467c-.02977.10419-.0893.14884-.19349.14884h-1.44374c-.10419 0-.13395-.05953-.10419-.14884zm2.94702-3.52748h2.73864l-1.33955-3.92936h-.04466l-1.35443 3.92936zm7.08474 3.52748v-9.82338c0-.0893.05954-.14884.14884-.14884h1.45862c.0893 0 .14884.05954.14884.14884v9.82338c0 .0893-.05953.14884-.14884.14884h-1.45862c-.0893 0-.14884-.05953-.14884-.14884z" fill="#FFF" fill-rule="nonzero"/></g></g><path fill="#F68D11" fill-rule="nonzero" d="M148.62239 586.62069l-3.89394-1.2931v-5.60345l3.8987 1.14942-.00476 5.74713M149.63793 580.87356l3.8987-1.14942-.01357 5.59957-3.88513 1.29698v-5.74713M152.74246 579.11739L149.10886 578l-3.58623 1.11739 3.59143.9579 3.6284-.9579M158.44136 586.62069l-3.89395-1.2931v-5.60345l3.89871 1.14942-.00476 5.74713M159.4569 580.87356l3.8987-1.14942-.01357 5.59957-3.88513 1.29698v-5.74713M162.56142 579.11739L158.92782 578l-3.58623 1.11739 3.59144.9579 3.6284-.9579M133.8987 589.06322L130 587.91379v5.60345l3.89397 1.2931.00474-5.74712M134.90948 589.06322l3.89871-1.14943-.01353 5.59969-3.88518 1.29686v-5.74712M138.014 587.30704l-3.6336-1.11738-3.58622 1.11738 3.59148.9579 3.62835-.9579M143.71294 594.81034l-3.89397-1.2931v-5.60345l3.8987 1.14943-.00473 5.74712M144.72845 589.06322l3.8987-1.14943-.01357 5.59969-3.88513 1.29686v-5.74712M147.83297 587.30704l-3.6336-1.11738-3.58622 1.11738 3.59147.9579 3.62835-.9579M138.80345 603l-3.89397-1.2931v-5.60345l3.89871 1.14942L138.80345 603M139.81897 597.25287l3.8987-1.14942-.01353 5.59969L139.81897 603v-5.74713M142.9235 595.4967l-3.63362-1.11739-3.58622 1.11739 3.59148.95791 3.62835-.95791"/><path d="M156.0477 598.0467l-.28649.001c-.10512 0-.23912.07066-.27204.18522l-.86912 3.0467-.8596-3.04008c-.02584-.0953-.1161-.19184-.23883-.19184h-.33919c-.12216 0-.21125.09783-.23594.1938l-.79967 3.00849-.82624-3.0178c-.03263-.11035-.16995-.18449-.27767-.18449l-.41225-.00072c-.08808 0-.16996.03766-.21385.09826-.02975.0411-.03798.08768-.02426.1282l1.27646 4.4965c.02816.09458.11047.18982.2309.18982h.40993c.11076 0 .2078-.08032.2358-.19425l.78567-2.99524.85497 2.99867c.0257.09182.10844.19082.22944.19082h.4033c.1122 0 .20664-.07756.23436-.19122l1.22867-4.49325c.01444-.04328.00606-.09137-.02325-.1319-.04317-.05965-.12403-.0967-.2111-.0967M159.59234 599.95576h-2.16566c.04982-.60474.44445-1.23175 1.11301-1.25589.71144.02312 1.03691.63578 1.05265 1.2559zm-1.05424-1.94122c-1.46288 0-2.12913 1.28687-2.12913 2.48243 0 1.49212.82826 2.45617 2.11007 2.45617.91735 0 1.61666-.46118 1.91874-1.26695.01617-.04608.01112-.09609-.01415-.14093-.03076-.05444-.0891-.09552-.15811-.11062l-.40605-.07728c-.10902-.01702-.23392.04725-.27522.14047-.19724.4477-.55679.70173-1.00803.71497-.4342-.01336-.83288-.27001-1.01554-.65346-.14844-.31322-.17039-.62197-.17284-.93592l2.94006-.001c.06165 0 .12548-.027.17053-.07242.03769-.03766.0582-.08445.05776-.13132-.00722-1.16234-.54106-2.40414-2.01809-2.40414zM164.17318 600.50415c0 .27529-.0501 1.64989-1.03157 1.68508-.32894-.01252-.66134-.20491-.84703-.48935-.13675-.21512-.2166-.51252-.2371-.88048v-.80875c.01603-.61956.45427-1.29944 1.08095-1.32576.98479.03866 1.03475 1.52214 1.03475 1.81926zm-.87765-2.53132h-.07783c-.4856 0-.86724.2007-1.16022.6121l-.00043-1.89555c0-.10646-.11047-.20345-.23248-.20345h-.4228c-.11046 0-.23406.08706-.23435.20345v5.91725c.00043.10747.1109.20513.23277.20513l.12418-.00067c.11725 0 .2007-.09401.22886-.18134l.13227-.41768c.30728.43418.77007.6892 1.26535.6892h.0758c1.30463 0 1.88857-1.26262 1.88857-2.51391 0-.62286-.15436-1.2184-.42337-1.6339-.31089-.48148-.84602-.78063-1.39632-.78063zM169.74472 600.37098c-.27493-.19655-.60546-.26222-.93656-.328l-.63491-.11713c-.45557-.07453-.71924-.1961-.71924-.5961 0-.42284.44041-.58448.81382-.59452.456.01145.79895.2139.96544.56994.03956.08391.1272.14036.21832.14036a.22215.22215 0 0 0 .0465-.00498l.39622-.08712c.0647-.0142.12505-.0583.1574-.11567.02584-.04552.03147-.09523.01602-.13963-.24244-.70273-.858-1.0741-1.78921-1.0741-.8414.00185-1.74056.37412-1.74056 1.41387 0 .71065.44878 1.16194 1.3348 1.34154l.71072.13476c.39016.0743.78913.20648.78913.62331 0 .6171-.7217.68-.93988.6845-.4895-.0105-1.0437-.22776-1.17828-.68781-.027-.10114-.15493-.1727-.26713-.14946l-.41442.08509c-.06238.01307-.11941.05343-.15262.10792-.02787.0454-.03581.09626-.02296.14267.21385.76335.95446 1.22368 1.98112 1.23143l.02281.00016c.91692 0 1.89665-.39068 1.89665-1.48662 0-.44612-.20172-.845-.55318-1.09441M173.93626 599.9602h-2.16624c.04953-.6053.44417-1.2326 1.11272-1.25562.71116.02246 1.03706.63505 1.05352 1.25562zm-1.05467-1.9415c-1.46317 0-2.12956 1.28692-2.12956 2.48242 0 1.49201.8284 2.45594 2.11035 2.45594.9175 0 1.61681-.46122 1.91918-1.26683.01603-.04614.01097-.09626-.01444-.1412-.03076-.0545-.08924-.0956-.15812-.1104l-.40662-.0773c-.09515-.01537-.22785.03363-.27464.14065-.19739.44743-.55708.70145-1.00789.71525-.43463-.0138-.83316-.2704-1.0151-.65373-.14873-.3125-.17083-.62152-.173-.93622l2.93978-.00071c.06122 0 .12461-.02684.16966-.07196.03784-.03783.05834-.08464.0579-.13178-.00678-1.16223-.54018-2.40414-2.0175-2.40414zM177.67527 598.0734a1.52246 1.52246 0 0 0-.16606-.0093c-.4934 0-.8941.26692-1.17221.77686l.001-.44658c-.00042-.10814-.10887-.20316-.23204-.20316h-.3672c-.12042 0-.2267.0954-.22757.2049l-.00057 4.33808c0 .10888.10627.20446.22757.20446l.42842-.00017c.11147 0 .23695-.08705.23797-.2043l.00028-2.18705c0-.36065.0338-.63234.20692-.95378.24736-.45786.59275-.68247 1.05598-.68606.1161-.00083.21804-.1017.21804-.2159v-.40578c0-.1062-.09256-.19941-.21053-.21221M182.17336 597.98822l-.33832.00016c-.10599 0-.24186.07571-.27479.18678l-1.09669 3.4297-1.11994-3.42627c-.03306-.11376-.16923-.19021-.2758-.19021l-.48315-.00045c-.08865 0-.17443.03934-.21832.10013-.02946.04069-.03755.08683-.02296.12987l1.53277 4.5243c.02945.08951.10757.19413.23118.19413h.58466c.10728 0 .19522-.07269.2355-.19453l1.48672-4.52243c.01487-.04295.00693-.08924-.02239-.13005-.04418-.06135-.1298-.10113-.21847-.10113M183.28493 596.24915c-.31161 0-.56503.25283-.56503.56394 0 .31103.25342.56376.56503.56376.31175 0 .56545-.25273.56545-.56376 0-.3111-.2537-.56394-.56545-.56394M183.51755 597.96066l-.46395-.00046c-.1262 0-.24114.1016-.24114.21295l-.0023 4.60617c0 .05573.02887.11107.07883.15215.04578.03732.10426.05888.16303.05888l.46726.00073h.0003c.12807-.00113.24056-.09996.24056-.21148v-4.60645c0-.1132-.1135-.21249-.24259-.21249M187.85334 601.0842l-.38741.00146c-.10815 0-.19884.06466-.23912.17695-.14151.6075-.46207.9223-.94811.93622-.94666-.02801-1.02016-1.34093-1.02016-1.74267 0-.80112.27883-1.66564 1.05727-1.68849.46987.01437.81165.3496.91417.89585.01935.11147.10541.19582.22295.21047l.41457.00404c.12389-.01336.22107-.10664.2202-.22231-.1467-.98717-.83418-1.62525-1.75297-1.62525l-.03177.00085-.03596-.00085c-1.33624 0-1.93448 1.2409-1.93448 2.47065 0 1.12748.50438 2.44399 1.92698 2.44399h.06815c.89584 0 1.57205-.62483 1.76568-1.63793.00433-.04827-.01242-.09653-.04678-.13577-.04448-.05085-.11538-.08345-.1932-.08721M191.67956 599.9602h-2.16652c.04953-.60547.4443-1.2326 1.1133-1.25562.7113.02246 1.03705.63505 1.05322 1.25562zm-1.05467-1.9415c-1.46302 0-2.12927 1.28692-2.12927 2.48242 0 1.49201.8284 2.45594 2.11036 2.45594.91706 0 1.61608-.46094 1.91874-1.26666.01574-.04642.01054-.0967-.01473-.14138-.03119-.0549-.08794-.09503-.15797-.1104l-.40604-.07728c-.0956-.01538-.22786.03362-.27465.14064-.19796.44743-.5578.70145-1.00846.71542-.4345-.01397-.83288-.27057-1.01482-.6539-.14887-.31295-.17097-.62198-.17328-.93622l2.94006-.00044c.0618 0 .12563-.02711.17082-.07267.03755-.03806.05776-.08493.05704-.13134-.00679-1.16223-.54033-2.40414-2.0178-2.40414zM196.32581 600.37098c-.27536-.19673-.60632-.26233-.93684-.328l-.63491-.11713c-.45514-.07453-.71867-.1961-.71867-.5961 0-.54541.68026-.59099.81296-.59452.45643.01145.79938.2139.96558.57011.03985.0839.12779.1402.21905.1402a.22594.22594 0 0 0 .04678-.005l.39594-.0871c.06469-.0142.1249-.05848.15724-.11578.0257-.04558.03134-.09513.01589-.13953-.24216-.70273-.85786-1.0741-1.7895-1.0741-.84112.00185-1.73999.37412-1.73999 1.41387 0 .71082.44864 1.16211 1.33452 1.34154l.711.13476c.39016.0743.78913.20648.78913.62331 0 .6171-.7217.68-.93988.6845-.45383-.00966-1.03474-.19616-1.17813-.68724-.02628-.10171-.15407-.17315-.26829-.15003l-.4137.08509c-.06266.01324-.11984.05388-.15305.10849-.02758.04551-.03552.09597-.02253.1421.21328.76335.95374 1.22368 1.98054 1.23143l.02282.00016c.91706 0 1.89694-.39068 1.89694-1.48662 0-.44641-.20158-.84539-.5529-1.09441" fill="#100F0D" fill-rule="nonzero"/><path d="M177.46531 589.09224v-1.04598c.00058-.15862.12158-.26508.26685-.26494l4.7095-.00014c.1503 0 .2716.10905.2716.26393v.89699c-.00144.15014-.12895.34646-.35478.65823l-2.4393 3.46562c.90509-.02138 1.8633.11348 2.68578.57359.18584.1037.23523.2576.25039.40785v1.11609c0 .1539-.16924.33175-.34684.2391-1.4496-.75573-3.3734-.83823-4.97663.00874-.1636.08694-.33515-.08817-.33515-.24207v-1.06051c0-.16921.00347-.45989.17516-.71878l2.82656-4.03423-2.46066-.00056c-.1506 0-.27103-.10664-.27248-.26293M160.28645 595.62269h-1.43313c-.13617-.00887-.24519-.11107-.25602-.2414l.00101-7.31721c0-.1464.1239-.26336.27638-.26336l1.33437-.00072c.13977.00776.25154.11264.26107.24569v.95608h.02657c.34741-.92433 1.00283-1.35479 1.88538-1.35479.89598 0 1.45783.43046 1.8591 1.35479.348-.92433 1.13684-1.35479 1.98012-1.35479.60184 0 1.2564.24598 1.65767.8.4547.61624.361 1.50872.361 2.29436l-.00088 4.61773c0 .14599-.12374.26362-.27608.26362h-1.43097c-.1441-.00887-.25746-.12325-.25746-.26295v-3.87942c0-.30778.02642-1.07798-.04029-1.37028-.10728-.49316-.42842-.63095-.8424-.63095-.34815 0-.70943.23097-.85657.5997-.147.37013-.13342.986-.13342 1.40153v3.87875c0 .14599-.12375.26362-.27637.26362h-1.43126c-.14339-.00887-.25703-.12325-.25703-.26295l-.00188-3.87942c0-.81615.13415-2.01666-.88211-2.01666-1.02984 0-.9897 1.16992-.9897 2.01666l-.00086 3.87875c.00057.14599-.12332.26362-.27624.26362M186.78091 589.14c-1.05713 0-1.1237 1.43184-1.1237 2.32523 0 .89287-.01328 2.802 1.1107 2.802 1.11027 0 1.16355-1.53977 1.16355-2.4789 0-.61579-.02642-1.35467-.2137-1.93982-.161-.50832-.48171-.70851-.93685-.70851zm-.013-1.49302c2.12639 0 3.2768 1.81668 3.2768 4.12546 0 2.23313-1.27113 4.00397-3.2768 4.00397-2.08667 0-3.2238-1.81719-3.2238-4.08058 0-2.27875 1.14998-4.04885 3.2238-4.04885zM192.80268 595.62269h-1.42765c-.14382-.00887-.25717-.12325-.25717-.26295l-.00202-7.32052c.01184-.13333.13082-.2385.27464-.2385l1.32946-.00072c.12534.0069.22815.09167.25443.20503v1.11964h.02715c.4007-1.00096.96283-1.47769 1.9521-1.47769.64212 0 1.27111.23032 1.6721.86178.37428.58488.37428 1.57003.37428 2.27842v4.60477c-.01603.12977-.13227.23074-.27378.23074h-1.43703c-.13256-.0086-.23912-.10602-.25515-.23074v-3.9732c0-.8006.09386-1.97108-.89627-1.97108-.34756 0-.66812.23151-.82883.5852-.20086.44637-.22743.89283-.22743 1.38588v3.94032c-.00245.14599-.12635.26362-.27883.26362M175.15555 595.60417c-.09502.08435-.23104.08997-.33818.03317-.47579-.39355-.56127-.576-.82133-.9503-.78653.79713-1.34346 1.03622-2.3619 1.03622-1.20672 0-2.14472-.74079-2.14472-2.22212 0-1.157.62972-1.94404 1.52772-2.33006.77743-.33956 1.8633-.4014 2.69415-.49428v-.18493c0-.33928.02671-.74068-.17457-1.0337-.17371-.26234-.50886-.3701-.80415-.3701-.54654 0-1.03215.27878-1.1517.8563-.02426.12824-.11899.25564-.2488.26182l-1.38837-.14968c-.11754-.02627-.24764-.11956-.21371-.29763.31912-1.6767 1.84048-2.1833 3.20401-2.1833.69657 0 1.60844.18505 2.15801.70962.69671.64838.62957 1.5124.62957 2.45378v2.22106c0 .6681.27912.96135.54149 1.32144.09082.12987.11133.28376-.00535.379-.29254.24399-.81252.69298-1.09828.94683l-.0039-.00314zm-1.44426-3.47645c0 .55563.01329 1.01899-.26829 1.51238-.22786.40157-.59.64823-.99215.64823-.549 0-.87056-.4165-.87056-1.03403 0-1.21397 1.09481-1.43499 2.131-1.43499v.3084zM156.3733 595.60417c-.09472.08435-.23175.08997-.3389.03317-.47578-.39355-.56097-.576-.82132-.9503-.7861.79713-1.34332 1.03622-2.36233 1.03622-1.20628 0-2.14457-.74079-2.14457-2.22212 0-1.157.63029-1.94404 1.52829-2.33006.77758-.33956 1.8633-.4014 2.69415-.49428v-.18493c0-.33928.027-.74068-.17429-1.0337-.17414-.26234-.50957-.3701-.804-.3701-.54654 0-1.03272.27878-1.15185.8563-.02483.12824-.11912.25564-.2488.26182l-1.38894-.14968c-.11725-.02627-.2475-.11956-.21385-.29763.31911-1.6767 1.84062-2.1833 3.20401-2.1833.69744 0 1.60858.18505 2.1583.70962.697.64838.62971 1.5124.62971 2.45378v2.22106c0 .6681.27926.96135.5409 1.32144.09127.12987.11192.28376-.00447.379-.29283.24399-.8131.69298-1.09871.94683l-.00332-.00314zm-1.44468-3.47645c0 .55563.01314 1.01899-.26785 1.51238-.22772.40157-.59015.64823-.99172.64823-.55015 0-.87158-.4165-.87158-1.03403 0-1.21397 1.09453-1.43499 2.13115-1.43499v.3084z" fill="#100F0D"/><path d="M14.10352 615.30159h299.00976" stroke="#A9DCE5" stroke-width="2" stroke-dasharray="6,6"/><path d="M17.35043 25.44776c-1.0761 0-1.85014-.49598-2.18052-1.46039C15.0472 23.62917 15 23.25258 15 22.22388s.0472-1.40528.16991-1.76349C15.50029 19.49599 16.27433 19 17.35043 19c1.08554 0 1.85957.49598 2.18996 1.46039.1227.3582.1699.73479.1699 1.7635 0 1.0287-.0472 1.40527-.1699 1.76348-.33039.96441-1.10442 1.4604-2.18996 1.4604zm0-.76234c.7174 0 1.1705-.33066 1.36872-.92767.07552-.22962.1416-.63375.1416-1.53387 0-.90011-.06608-1.30425-.1416-1.53387-.19823-.59701-.65132-.92767-1.36872-.92767-.70796 0-1.16106.33066-1.35929.92767-.07551.22962-.14159.63376-.14159 1.53387 0 .90012.06608 1.30425.1416 1.53387.19822.59701.65132.92767 1.35928.92767zm10.08135.6613h-.60412c-.05664 0-.0944-.03673-.0944-.09184v-2.57176c0-.70723-.33038-1.12055-1.01002-1.12055-.60413 0-1.03834.4225-1.03834 1.07463v2.61768c0 .0551-.03776.09185-.0944.09185h-.60412c-.05664 0-.0944-.03674-.0944-.09185v-2.57176c0-.70723-.33038-1.12055-1.01002-1.12055-.61357 0-1.03834.4225-1.03834 1.07463v2.61768c0 .0551-.03776.09185-.0944.09185h-.60412c-.05664 0-.0944-.03674-.0944-.09185v-4.21584c0-.05511.03776-.09185.0944-.09185h.60412c.05664 0 .0944.03674.0944.09185v.40413h.00944c.2171-.33984.65132-.59702 1.26489-.59702.61356 0 1.06665.248 1.32152.68887h.00944c.3115-.4225.77404-.68887 1.46312-.68887 1.04778 0 1.61415.65213 1.61415 1.65328v2.75545c0 .0551-.03776.09185-.0944.09185zm5.13507 0h-.60412c-.05664 0-.0944-.03673-.0944-.09184v-2.57176c0-.70723-.33038-1.12055-1.01002-1.12055-.61356 0-1.03834.4225-1.03834 1.07463v2.61768c0 .0551-.03776.09185-.0944.09185h-.60412c-.05664 0-.0944-.03674-.0944-.09185v-4.21584c0-.05511.03776-.09185.0944-.09185h.60412c.05664 0 .0944.03674.0944.09185v.40413h.00944c.2171-.33984.65132-.59702 1.26489-.59702.9817 0 1.56695.65213 1.56695 1.65328v2.75545c0 .0551-.03776.09185-.0944.09185zm2.31267-5.3915h-.64188c-.05664 0-.0944-.03674-.0944-.09184v-.6705c0-.0551.03776-.09185.0944-.09185h.64189c.05663 0 .09439.03674.09439.09185v.6705c0 .0551-.03776.09184-.0944.09184zm-.01887 5.3915h-.60413c-.05664 0-.0944-.03673-.0944-.09184v-4.21584c0-.05511.03776-.09185.0944-.09185h.60413c.05663 0 .0944.03674.0944.09185v4.21584c0 .0551-.03777.09185-.0944.09185zm1.40648-2.08495c-.05664 0-.0944-.03674-.0944-.09185v-.53272c0-.05511.03776-.09185.0944-.09185h2.5109c.05663 0 .0944.03674.0944.09185v.53272c0 .0551-.03777.09185-.0944.09185h-2.5109zm3.78522.71642c-.1227-.35821-.1699-.71642-.1699-1.7543 0-1.0379.0472-1.3961.1699-1.75431C40.3733 19.4868 41.1379 19 42.18568 19c.95338 0 1.68966.45924 2.0578 1.25832.01888.04593.00944.09185-.03776.1194l-.56637.26637c-.05663.02755-.11327 0-.13215-.04593-.25486-.4868-.65132-.83582-1.32152-.83582-.69853 0-1.1233.33066-1.33097.91849-.08496.25717-.12271.56027-.12271 1.54305s.03775 1.28588.12271 1.54305c.20767.58783.63244.91849 1.33097.91849.6702 0 1.06666-.34903 1.32152-.83582.01888-.04593.07552-.07348.13215-.04593l.56637.26636c.0472.02756.05664.07348.03776.1194-.36814.79909-1.10442 1.25833-2.0578 1.25833-1.04779 0-1.81238-.4868-2.13333-1.46957zm8.9203 1.36854h-.60412c-.05664 0-.0944-.03674-.0944-.09185v-2.57176c0-.70723-.33038-1.12055-1.01002-1.12055-.61356 0-1.03834.4225-1.03834 1.07463v2.61768c0 .0551-.03776.09185-.0944.09185h-.60412c-.05664 0-.0944-.03674-.0944-.09185v-6.062c0-.0551.03776-.09185.0944-.09185h.60412c.05664 0 .0944.03674.0944.09185v2.25029h.00944c.2171-.33984.65132-.59702 1.26489-.59702.9817 0 1.56695.65213 1.56695 1.65328v2.75545c0 .0551-.03776.09185-.0944.09185zm4.88965 0h-.55693c-.05663 0-.0944-.03674-.0944-.09185v-.38576h-.00943c-.20767.33065-.65133.57864-1.3404.57864-.859 0-1.51976-.43169-1.51976-1.32262 0-.92767.66076-1.35935 1.76518-1.35935h1.0289c.03776 0 .05664-.01837.05664-.05511v-.32147c0-.6062-.24543-.86338-1.08554-.86338-.50973 0-.83067.12859-1.09498.31229-.0472.03674-.10383.03674-.13215-.00919l-.25487-.4225c-.02832-.05511-.01888-.09185.01888-.12859.33982-.25717.86843-.43169 1.53863-.43169 1.28377 0 1.77463.41332 1.77463 1.49713v2.9116c0 .0551-.03776.09185-.0944.09185zm-1.81238-.56028c.70796 0 1.14218-.32147 1.14218-.86337v-.4868c0-.03674-.01888-.0551-.05664-.0551h-.90619c-.78347 0-1.1233.22043-1.1233.7164 0 .45007.33983.68887.94395.68887zm6.9569.56028h-.60413c-.05664 0-.0944-.03674-.0944-.09185v-2.57176c0-.70723-.33038-1.12055-1.01002-1.12055-.61357 0-1.03834.4225-1.03834 1.07463v2.61768c0 .0551-.03776.09185-.0944.09185h-.60413c-.05663 0-.09439-.03674-.09439-.09185v-4.21584c0-.05511.03776-.09185.0944-.09185h.60412c.05664 0 .0944.03674.0944.09185v.40413h.00944c.2171-.33984.65132-.59702 1.26488-.59702.98171 0 1.56696.65213 1.56696 1.65328v2.75545c0 .0551-.03776.09185-.0944.09185zm5.13506 0h-.60412c-.05664 0-.0944-.03674-.0944-.09185v-2.57176c0-.70723-.33038-1.12055-1.01002-1.12055-.61357 0-1.03834.4225-1.03834 1.07463v2.61768c0 .0551-.03776.09185-.0944.09185h-.60412c-.05664 0-.0944-.03674-.0944-.09185v-4.21584c0-.05511.03776-.09185.0944-.09185h.60412c.05664 0 .0944.03674.0944.09185v.40413h.00944c.2171-.33984.65132-.59702 1.26489-.59702.9817 0 1.56695.65213 1.56695 1.65328v2.75545c0 .0551-.03776.09185-.0944.09185zm3.28494.10103c-.91563 0-1.56695-.43169-1.81238-1.19403-.0944-.28473-.15103-.6062-.15103-1.11136 0-.50517.0472-.84501.1416-1.11137.25486-.76234.91562-1.18485 1.77461-1.18485.86843 0 1.51976.4317 1.77462 1.18485.0944.28473.1416.58783.1416 1.25832 0 .05511-.03776.09185-.10384.09185h-2.86016c-.03776 0-.05664.01837-.05664.05511 0 .2388.02832.38576.07552.53272.17935.50517.58525.76234 1.14218.76234.53805 0 .91562-.21125 1.16105-.4868.0472-.04592.0944-.0551.1416-.01836l.38701.33984c.0472.03674.0472.08266.00944.12858-.3587.44088-.97226.75316-1.76518.75316zm-1.09498-2.68197h2.09556c.03776 0 .05664-.01837.05664-.05511 0-.20207-.01888-.35821-.06608-.49598-.15103-.44088-.5286-.68887-1.03834-.68887-.50973 0-.8873.248-1.03834.68887-.0472.13777-.06608.29391-.06608.49598 0 .03674.01888.0551.05664.0551zm5.6448 2.62686h-.32094c-.79291 0-1.10441-.3674-1.10441-1.15729v-5.04248c0-.0551.03775-.09185.09439-.09185h.60412c.05664 0 .0944.03674.0944.09185v4.99656c0 .3674.1416.4868.4531.4868h.17935c.05663 0 .09439.03673.09439.09184v.53272c0 .05511-.03776.09185-.0944.09185zm7.96692-.04592h-.75516c-.06608 0-.0944-.02756-.12271-.09185l-1.28377-2.55339H76.366c-.03776 0-.05664.01837-.05664.05511v2.49828c0 .0551-.03776.09185-.0944.09185h-.65132c-.05663 0-.0944-.03674-.0944-.09185v-6.062c0-.0551.03777-.09185.0944-.09185h2.32211c1.19882 0 2.01061.71642 2.01061 1.80023 0 .845-.49085 1.4604-1.26489 1.6992l1.36873 2.63605c.03775.0551.00943.11022-.05664.11022zm-2.07669-3.40758c.74572 0 1.18938-.38576 1.18938-1.03789 0-.65212-.44366-1.03788-1.18938-1.03788H76.366c-.03776 0-.05664.01837-.05664.0551v1.96556c0 .03674.01888.05511.05664.05511h1.50087zm5.00292 3.50861c-.91563 0-1.56695-.43169-1.81238-1.19403-.09439-.28473-.15103-.6062-.15103-1.11136 0-.50517.0472-.84501.1416-1.11137.25486-.76234.91562-1.18485 1.77462-1.18485.86843 0 1.51975.4317 1.77462 1.18485.0944.28473.14159.58783.14159 1.25832 0 .05511-.03776.09185-.10384.09185h-2.86016c-.03775 0-.05663.01837-.05663.05511 0 .2388.02832.38576.07551.53272.17935.50517.58525.76234 1.14218.76234.53805 0 .91563-.21125 1.16106-.4868.0472-.04592.09439-.0551.14159-.01836l.38702.33984c.0472.03674.0472.08266.00943.12858-.3587.44088-.97226.75316-1.76518.75316zm-1.09498-2.68197h2.09557c.03776 0 .05663-.01837.05663-.05511 0-.20207-.01887-.35821-.06607-.49598-.15103-.44088-.52861-.68887-1.03834-.68887-.50974 0-.88731.248-1.03835.68887-.0472.13777-.06607.29391-.06607.49598 0 .03674.01888.0551.05663.0551zM89.44911 27h-.60413c-.05664 0-.0944-.03674-.0944-.09185v-2.07577h-.00944c-.2171.34902-.60412.61538-1.28376.61538-.78348 0-1.33097-.3582-1.55752-1.05626-.1227-.34902-.16047-.69804-.16047-1.24913 0-.54191.03776-.89093.16047-1.23996.22655-.69805.77404-1.05626 1.55752-1.05626.67964 0 1.06666.25718 1.28376.6062h.00944v-.41331c0-.05511.03776-.09185.0944-.09185h.60412c.05664 0 .0944.03674.0944.09185v5.86911c0 .05511-.03776.09185-.0944.09185zm-1.80294-2.26866c.50029 0 .84955-.22962 1.00058-.67049.07551-.21125.10383-.47761.10383-.91848 0-.44088-.02832-.69805-.10383-.91849-.15103-.44087-.5003-.6613-1.00058-.6613-.5003 0-.84012.22961-.99115.6613-.07551.2388-.10383.52354-.10383.91849 0 .40413.02832.68886.10383.91848.15103.43169.49085.6705.99115.6705zm6.8908.61539h-.60412c-.05663 0-.0944-.03674-.0944-.09185v-.41332h-.00943c-.23599.3674-.65132.6062-1.23657.6062-.99115 0-1.56695-.6613-1.56695-1.66246v-2.74626c0-.05511.03775-.09185.0944-.09185h.60412c.05663 0 .0944.03674.0944.09185v2.56257c0 .71642.33037 1.12973 1.00058 1.12973.61356 0 1.01946-.4225 1.01946-1.0838v-2.6085c0-.05511.03776-.09185.0944-.09185h.60412c.05664 0 .0944.03674.0944.09185v4.21584c0 .0551-.03776.09185-.0944.09185zm3.33214.10103c-.91563 0-1.56695-.43169-1.81238-1.19403-.0944-.28473-.15103-.6062-.15103-1.11136 0-.50517.0472-.84501.1416-1.11137.25486-.76234.91562-1.18485 1.77461-1.18485.86844 0 1.51976.4317 1.77463 1.18485.09439.28473.14159.58783.14159 1.25832 0 .05511-.03776.09185-.10384.09185h-2.86016c-.03775 0-.05663.01837-.05663.05511 0 .2388.02831.38576.07551.53272.17935.50517.58525.76234 1.14218.76234.53805 0 .91563-.21125 1.16105-.4868.0472-.04592.0944-.0551.1416-.01836l.38701.33984c.0472.03674.0472.08266.00944.12858-.3587.44088-.97226.75316-1.76518.75316zm-1.09498-2.68197h2.09557c.03775 0 .05663-.01837.05663-.05511 0-.20207-.01888-.35821-.06607-.49598-.15103-.44088-.52861-.68887-1.03835-.68887-.50973 0-.8873.248-1.03834.68887-.0472.13777-.06607.29391-.06607.49598 0 .03674.01888.0551.05663.0551zm5.79584 2.68197c-.87787 0-1.50088-.34902-1.86902-.6613-.03775-.03675-.03775-.09186 0-.1286l.38702-.40413c.03776-.03674.0944-.03674.13215 0 .33983.28473.84956.50517 1.39705.50517.66076 0 .99114-.27555.99114-.6705 0-.34902-.16991-.5419-.87787-.61538l-.48141-.04592c-.88731-.09185-1.34985-.52354-1.34985-1.23996 0-.83582.61357-1.34099 1.68023-1.34099.66076 0 1.22713.21126 1.6047.4868.0472.02756.0472.08266.01889.12859l-.32095.39495c-.03775.04592-.08495.04592-.13215.01837-.29262-.1837-.75515-.35821-1.21769-.35821-.56637 0-.859.24799-.859.6062 0 .34902.21712.53272.88732.59701l.47197.04593c.91563.08266 1.35929.53272 1.35929 1.23995 0 .86338-.64189 1.44202-1.82182 1.44202zm4.72917-.0551h-.34926c-.87787 0-1.21769-.38577-1.21769-1.24915v-2.51664c0-.03674-.01888-.05511-.05664-.05511h-.37757c-.05664 0-.0944-.03674-.0944-.09185v-.44087c0-.05511.03776-.09185.0944-.09185h.37757c.03776 0 .05664-.01837.05664-.05511v-1.23996c0-.0551.03776-.09184.0944-.09184h.60412c.05664 0 .0944.03673.0944.09184v1.23996c0 .03674.01888.0551.05663.0551h.7174c.05664 0 .0944.03675.0944.09186v.44087c0 .0551-.03776.09185-.0944.09185h-.7174c-.03775 0-.05663.01837-.05663.0551v2.4891c0 .44087.1699.56027.5758.56027h.19823c.05664 0 .0944.03674.0944.09185v.53272c0 .05511-.03776.09185-.0944.09185zm2.87904.0551c-.87787 0-1.50087-.34902-1.86901-.6613-.03776-.03675-.03776-.09186 0-.1286l.38702-.40413c.03775-.03674.09439-.03674.13215 0 .33982.28473.84955.50517 1.39704.50517.66076 0 .99114-.27555.99114-.6705 0-.34902-.1699-.5419-.87787-.61538l-.48141-.04592c-.88731-.09185-1.34984-.52354-1.34984-1.23996 0-.83582.61356-1.34099 1.68022-1.34099.66077 0 1.22713.21126 1.60471.4868.0472.02756.0472.08266.01888.12859l-.32094.39495c-.03776.04592-.08496.04592-.13215.01837-.29263-.1837-.75516-.35821-1.2177-.35821-.56636 0-.85899.24799-.85899.6062 0 .34902.21711.53272.88731.59701l.47198.04593c.91563.08266 1.35928.53272 1.35928 1.23995 0 .86338-.64188 1.44202-1.82182 1.44202z" fill="#4C8CA7" fill-rule="nonzero"/><g><g transform="translate(65.55258 101.54045)"><rect stroke="#003D4C" stroke-width="2" fill="#FFF" x="1" y="1" width="20.77611" height="34.64982" rx="3"/><rect stroke="#02637B" fill="#FFF" x="3.32609" y="6.14706" width="16.22096" height="23.43321" rx="2"/><path d="M8.47826 33.21883h5.55515" stroke="#003D4C" stroke-linecap="round"/><ellipse fill="#003D4C" cx="11.19559" cy="3.65648" rx="1" ry="1"/></g><g transform="translate(25 90.98974)"><rect stroke="#003D4C" stroke-width="2" fill="#FFF" x="1" y="1" width="31.33089" height="44.08993" rx="3"/><rect stroke="#02637B" fill="#FFF" x="4.26812" y="8.02941" width="24.55368" height="29.54152" rx="2"/><circle fill="#003D4C" cx="16.95652" cy="3.76471" r="1"/><circle stroke="#02637B" cx="16.95652" cy="40.47059" r="2"/></g><g transform="translate(25 40.98974)"><rect stroke="#003D4C" stroke-width="3" fill="#003D4C" x="5.9401" y="1.5" width="51.39119" height="30.02524" rx="2"/><ellipse fill="#02637B" cx="31.9132" cy="1.39937" rx="1" ry="1"/><path stroke="#FFF" fill="#FFF" d="M7.16015 3.29875h48.95109v28.66674H7.16015z"/><path d="M1 32.34599v2.5975c0 .55228.44772 1 1 1h59.27138c.55228 0 1-.44772 1-1v-2.5975H1z" stroke="#003D4C" stroke-width="2" fill="#85CDDB"/><path d="M25.53056 31.34599h12.76527c0 .92742-.75182 1.67925-1.67924 1.67925H27.2098c-.92743 0-1.67925-.75183-1.67925-1.67925z" fill="#003D4C"/><path d="M.5 34.64474v.29875c0 .82843.67157 1.5 1.5 1.5h59.27138c.82843 0 1.5-.67157 1.5-1.5v-.29875H.5z" stroke="#003D4C" fill="#003D4C"/></g><path d="M73.87881 178.08756l-5.2168 5.22787v-5.53418c-.99388-.48875-1.67787-1.51134-1.67787-2.6937v-10.51047c0-1.65685 1.34315-3 3-3h21.1846c1.65685 0 3 1.34315 3 3v10.51048c0 1.65685-1.34315 3-3 3H73.8788z" fill="#005B82"/><path d="M71.44751 166.87075h18.28782M72.00169 171.32858h10.52934" stroke="#FFF" stroke-width="2" stroke-linecap="round"/><g><path d="M48.6823 175.34269l7.68293 7.71112v-7.7576c1.40457-.24987 2.47103-1.47716 2.47103-2.95352v-18.35295c0-1.65685-1.34315-3-3-3h-34.0355c-1.65685 0-3 1.34315-3 3v18.35295c0 1.65685 1.34315 3 3 3H48.6823z" fill="#85CDDB"/><path d="M52.60552 159.06956H25.45088M40.96782 165.19907H25.45088" stroke="#FFF" stroke-width="2" stroke-linecap="round"/></g><g><g transform="translate(32 196.98974)"><path fill="#FFF" d="M0 0h49.51258v33.99093H0z"/><path stroke="#003D4C" fill-opacity=".7" fill="url(#e)" d="M.5.5h48.51258v32.99093H.5z"/><use fill="#000" filter="url(#f)" xlink:href="#g"/><use stroke="#003D4C" fill="#EBFBFE" xlink:href="#g"/><g transform="matrix(1 0 0 -1 0 21.85131)"><use fill="#000" filter="url(#h)" xlink:href="#i"/><use stroke="#003D4C" fill="#EBFBFE" xlink:href="#i"/></g><path d="M20.248 8.79426c0-2.772 1.944-4.704 4.752-4.704s4.752 1.956 4.752 4.704c0 1.764-.924 2.568-1.98 2.568-.708 0-1.188-.3-1.452-.768h-.012c-.228.444-.732.756-1.584.756-.876 0-1.476-.396-1.728-1.176-.108-.324-.156-.672-.156-1.332s.048-1.008.156-1.332c.252-.78.852-1.176 1.68-1.176.636 0 1.104.288 1.296.612h.024v-.372c0-.072.048-.108.096-.108h.888c.072 0 .096.036.096.108v2.964c0 .6.324.84.696.84.468 0 .876-.36.876-1.584 0-2.196-1.392-3.72-3.648-3.72-2.256 0-3.648 1.5-3.648 3.72s1.392 3.72 3.648 3.72c1.116 0 1.848-.204 2.568-.54.072-.036.132-.024.168.06l.276.648c.036.06.012.12-.048.156-.864.456-1.74.66-2.964.66-2.808 0-4.752-1.932-4.752-4.704zm3.78.9c.156.444.468.66.948.66.48 0 .792-.216.936-.66.06-.192.084-.396.084-.852 0-.456-.024-.66-.084-.84-.144-.456-.456-.672-.936-.672-.48 0-.792.216-.948.672-.06.18-.084.384-.084.84 0 .456.024.66.084.852z" fill="#003D4C" fill-rule="nonzero"/><rect stroke="#003D4C" stroke-width="2" width="49.51258" height="33.99093" rx="1"/></g></g></g><g fill="#85CDDB"><path d="M177.50985 269.6225V251.5h21.99343v18.1225H210.5l-21.53524 19.02862-21.53524-19.02862h10.08033zM129.71931 270.52862v18.1225h21.99344v-18.1225h10.99672L141.17423 251.5l-21.53524 19.02862h10.08032z"/></g><path d="M120.5 19v225M210.5 19v225" stroke="#A9DCE5" stroke-width="2" stroke-dasharray="6,6"/><g fill="#005B82" fill-rule="nonzero"><path d="M170.34082 133.63779l-1.96375-.18379c-.13218-.75507-.36113-1.49794-.68808-2.21154l1.52027-1.24015c.39819-.32569.45419-.90714.12518-1.29992l-1.92587-2.29977c-.3286-.3936-.91743-.44849-1.31562-.12442l-1.52109 1.24218c-.64813-.45214-1.34485-.81321-2.06999-1.0836l.18654-1.93952c.04859-.50785-.32901-.95837-.84167-1.00635l-3.00925-.28178c-.5143-.04839-.96931.32406-1.01955.8315l-.18612 1.94034a9.2575 9.2575 0 0 0-2.23882.67985l-1.25756-1.50242c-.329-.39278-.91825-.44808-1.31561-.1232l-2.32941 1.9013c-.39736.32447-.45419.90714-.12477 1.29951l1.25674 1.50241c-.45707.6396-.82355 1.32676-1.09697 2.04402l-1.96457-.185c-.5139-.04799-.97056.32447-1.01915.83272l-.28536 2.97027c-.04858.50744.32736.95756.8425 1.00554l1.96457.1846c.13177.75466.36154 1.49794.68766 2.21153l-1.5215 1.24016c-.39819.32569-.45296.90795-.12436 1.30073l1.92546 2.29937c.3286.3936.91784.44848 1.31603.1236l1.52027-1.24137c.64813.45134 1.34444.81322 2.07081 1.08361l-.18571 1.93952c-.05065.50785.32736.95756.84167 1.00594l3.00718.28178c.51472.04839.97138-.32325 1.01997-.83151l.18612-1.93952c.76508-.1297 1.51698-.35618 2.24005-.67903l1.25632 1.5016c.32984.3936.91826.44808 1.31686.1232l2.32858-1.9017c.39819-.32406.45336-.90592.12477-1.2991l-1.25591-1.5016c.45624-.64042.82272-1.3284 1.09532-2.04484l1.9654.1846c.5143.04839.96931-.32406 1.01831-.8315l.2866-2.97109c.04859-.50907-.32819-.95918-.8425-1.00716zm-7.98307 5.1322c-2.09634 1.7114-5.2007 1.42068-6.93428-.64936-1.73274-2.07004-1.43832-5.13585.65802-6.84645 2.09716-1.71304 5.20153-1.4215 6.93428.64935 1.73357 2.06963 1.43915 5.13545-.65802 6.84645zM183.37388 128.8817c.28248-.08904.43813-.3875.34795-.66683l-.52954-1.63294c-.09018-.27893-.39283-.43303-.6749-.34399l-1.0805.34237c-.24788-.37855-.54065-.71726-.86966-1.01408l.51966-.9974c.1363-.25942.03253-.58024-.231-.7136l-1.54416-.78516c-.26312-.13418-.5876-.03253-.72266.2277l-.52049.99781c-.43524-.0923-.88531-.13052-1.3399-.111l-.34508-1.06653c-.09059-.28016-.39324-.43345-.67572-.344l-1.6541.52168c-.28206.08946-.43771.38872-.34836.66643l.34672 1.06816a5.26087 5.26087 0 0 0-1.02697.85835l-1.00884-.51355c-.26354-.13499-.5872-.03171-.72308.22852l-.79513 1.52355c-.13671.26105-.03254.58064.23141.71441l1.00844.51355c-.09306.42978-.13218.8746-.112 1.3235l-1.08091.34115c-.28207.08986-.43854.3879-.34754.66724l.52872 1.63253c.09018.27852.39242.43303.6753.34399l1.08091-.34155a5.2314 5.2314 0 0 0 .86926 1.01367l-.51966.99537c-.13588.26104-.03253.58023.231.71522l1.54375.78516c.26353.13418.5876.03131.72307-.22851l.51966-.99619c.43566.0919.88573.12971 1.34033.1102l.34548 1.06693c.091.27853.39324.43304.6749.34399l1.65368-.5225c.2833-.08904.43813-.38749.34877-.66723l-.3463-1.06613c.38213-.24477.72596-.53387 1.02696-.85916l1.00926.51436c.26272.13377.5872.0309.72308-.22933l.79472-1.52396c.13548-.26023.03294-.57982-.231-.7144l-1.00926-.51274c.09265-.4306.13177-.8742.11241-1.3231l1.08132-.34196zm-5.55195 3.2305c-1.48774.47004-3.0813-.34074-3.5569-1.809-.47684-1.4711.34465-3.04345 1.8328-3.51308 1.48898-.47085 3.08254.33951 3.55732 1.8094.47601 1.46866-.34466 3.04223-1.83322 3.51268z"/><path d="M161.98221 122.25035c.07618.23624.3319.36594.57031.29072l.91332-.2891c.20918.3192.45665.60544.7346.85673l-.43854.84127c-.1153.22078-.028.49118.1956.60421l1.30326.66359c.22277.11385.49701.02765.6119-.19314l.43895-.84127c.36895.07725.7486.10897 1.13361.09311l.29154.90145c.07659.23583.33271.36635.57113.29032l1.39756-.44158c.23842-.07563.37018-.32813.2936-.56315l-.29154-.90185a4.49493 4.49493 0 0 0 .86637-.7254l.8532.43386c.22236.11385.4966.02683.61107-.19355l.67202-1.28772c.1153-.22038.028-.49037-.19518-.60381l-.85238-.43345c.07742-.36391.11118-.73961.0943-1.11939l.9129-.28828c.23883-.07482.37101-.32773.29442-.56234l-.44719-1.38002c-.07535-.23583-.33189-.36595-.5703-.29113l-.91373.2899c-.20918-.31959-.45542-.60624-.7342-.85753l.43978-.84208c.11406-.21997.02635-.48956-.19683-.6034l-1.30326-.66359c-.22277-.11303-.49701-.02683-.61231.19233l-.43936.84249c-.36813-.07726-.74737-.10938-1.13238-.09312l-.29195-.90226c-.07577-.23583-.33189-.36594-.57113-.29031l-1.39674.44157c-.23924.07604-.371.32813-.294.56396l.29235.90064c-.32324.20818-.61395.45215-.8676.7262l-.8532-.43344c-.22277-.11426-.49701-.02725-.61149.19314l-.6716 1.28731c-.11447.22038-.02676.49118.196.60422l.85238.43385c-.07865.3631-.11242.7388-.0943 1.11776l-.91414.2891c-.238.07563-.3706.32691-.294.56275l.44718 1.38043zm4.53775-4.67395c1.2588-.39685 2.60406.28747 3.0072 1.52965.4027 1.24178-.29072 2.57139-1.5491 2.96864-1.25756.39726-2.60406-.28706-3.00554-1.52965-.40313-1.24178.28989-2.57139 1.54744-2.96864z"/></g><g><g fill="#E50000" fill-rule="nonzero"><path d="M245.91172 72.1765c-.14943.43427-.22094.91876-.22094 1.4423 0 1.765 1.30634 3.29286 3.48265 3.29286 1.99663 0 3.13887-.8481 3.65865-1.41162h.06967L252.8 76.57596h5.01082l1.23483-5.84735c.05039-.25294.09076-.49472.11643-.72534l-13.25036 2.17323zm6.15215-3.41189c.14392-.69744.66829-1.24981 1.33292-1.24981.67746 0 .9543.58399.83422 1.17635l-.08618.42683 5.00075-.53098c-.37861-2.59077-2.76577-3.71597-5.53886-3.71597-4.13077 0-6.10448 2.08302-6.4941 3.92613l-.05412.26038h4.94758l.05779-.29293zm1.35125 3.85174c-.1586.8518-.7288 1.52321-1.53093 1.52321-.75538 0-1.09824-.62863-.95431-1.31398.12192-.57655.71413-1.1531 1.81328-1.1531h.86997l-.198.94387zm13.36532-3.8682c-.34744.4724-.62796 1.15404-.8498 2.18253-.47487 2.22252.04217 2.80372.68937 2.80372.86448 0 1.59602-.83321 1.95538-2.77117.2301-1.23494.19526-2.12301-.13476-2.48754l5.35002-.87878c.26218.86111.30527 1.96679.05412 3.2287-.7838 3.99215-3.19204 6.08633-5.8808 6.08633-1.21741 0-2.54666-.32175-3.09945-1.63666h-.11367l-.43362 1.30003H259.476l1.43743-6.86375 5.86705-.9634h-.00004zm.28972-2.5861c.42078-.34687 1.45852-1.15311 3.04629-1.15311 1.61252 0 2.85193.71139 3.4698 2.05327l-12.3923 1.3084 1.66569-7.9499h5.33718l-1.20183 5.74133h.07517zm-31.44151 7.70597l.46845-2.28296h-6.05773C229.6195 75.45075 232.6117 77 236.45004 77c3.6834 0 7.57857-1.24703 8.4458-4.65612l-9.2672 1.52414zm-.20076-3.8601c-2.1479-.68907-3.76867-1.97237-3.76867-4.40318 0-3.55695 3.50006-5.59348 8.18362-5.60464 3.9676-.01488 6.59401 1.6627 6.13107 5.00856h-5.64612c.19893-.91412-.31902-1.43301-1.28525-1.43301-.7508 0-1.332.39428-1.4246.85646-.13109.6621.28694 1.07964 1.299 1.35768.85348.2362 1.43652.39336 2.27532.63607 2.38807.69372 3.53031 2.13975 3.8255 3.65366l-7.09546.74208-2.49441-.81368zm48.55624-4.80082c-1.1789 0-2.12314.68907-2.76026 1.57622h-.09717l.165-1.44045h-4.9494l-.3016 1.46184 2.73184-.2892-.0605.27618-2.77218.4566-1.95171 9.3271h5.33718s.55095-2.68003.88647-4.24974c.53812-2.50427 1.89213-3.0706 2.79418-3.0706.7618 0 1.23759.34872 1.35584.44637l.87364-4.17535c-.08434-.04836-.53995-.31897-1.25133-.31897zm8.92507 4.36543l.055-.26131c.16226-.86855-.24843-1.526-1.1459-1.526-.8269 0-1.53186.60166-1.78029 1.7873h2.87119zm3.96484 3.39886c-.82597 2.37874-3.09762 3.94008-6.82411 3.94008-3.1022 0-6.09257-1.83008-5.3546-6.02217.61787-3.52906 3.81358-5.8799 7.46857-5.8799 4.09318 0 5.8808 2.85114 5.21709 6.17468l-.15951.7616h-7.68859c-.02471.08742-.12192.4501-.12192.8481 0 .99687.52162 1.3456 1.18533 1.3456.6857 0 1.27516-.38871 1.59968-1.16799h4.67806zM297.67998 75.67838h.14441c.16584 0 .30653-.06053.30653-.21523 0-.10994-.08199-.22082-.30653-.22082-.06521 0-.10994.00522-.1444.01118v.42487zm0 .69507h-.20031V75.1184c.10528-.0158.20404-.02981.35497-.02981.19007 0 .31491.03913.39131.09503.07357.05404.11367.13976.11367.25902 0 .16492-.10994.26554-.24504.3056v.0103c.10994.0196.18541.11926.21057.30467.02981.19566.0606.2702.08012.31026h-.21056c-.0307-.04002-.0606-.1556-.08478-.32051-.02982-.16026-.11088-.21989-.2702-.21989h-.13975v.5404-.00003zm.20963-1.60537c-.49566 0-.90001.42487-.90001.94943 0 .53574.40435.95688.90467.95688.50032.00448.90001-.42114.90001-.95129 0-.53015-.3997-.95502-.9-.95502h-.00467zm.00447-.17516c.61585 0 1.10592.50034 1.10592 1.1246 0 .63543-.49007 1.13204-1.11057 1.13204-.61492 0-1.11524-.49661-1.11524-1.13205 0-.62425.50032-1.12459 1.11524-1.12459h.00465z"/></g><g transform="matrix(1 0 0 -1 230 104)"><mask id="k" fill="#fff"><use xlink:href="#j"/></mask><g mask="url(#k)" fill="#1B69BC" fill-rule="nonzero"><path d="M43.31742.41169S44.83177 0 46.76593 0c2.06136 0 3.01548.22453 3.01548.22453v1.49684s-1.03055-.19967-2.46847-.19967c-1.25956 0-2.03598.16228-2.03598.16228v2.1203h3.90694v1.49681h-3.90694v2.02056s.76346.13731 1.90891.13731c1.28535 0 2.44309-.19961 2.44309-.19961v1.5093s-1.01799.21212-2.67237.21212c-2.20125 0-3.63917-.38697-3.63917-.38697V.41169zM15.3978 3.81694c-.05104-.12492-.11437-.3619-.15258-.49917-.03808.13726-.10181.37426-.15258.49917l-1.7309 4.3529c-.29264.7234-.75052.81093-1.59045.81093-.2928 0-.89103-.03748-.89103-.03748L9.98959.12475h1.9726l.4325 5.91215 1.87062-4.47772c.14016-.34924.41994-.4865.9799-.4865.5597 0 .8399.13726.97978.4865l1.87056 4.47772.43277-5.91215h1.97224l-.89065 8.81854s-.59818.03748-.89066.03748c-.83988 0-1.2979-.08753-1.59078-.81093l-1.73067-4.3529zM5.52307 2.00819C5.1031 1.84597 4.0849 1.5217 3.33428 1.5217c-.81451 0-1.42525.27437-1.42525 1.1476 0 .76076.4197 1.19727 1.53992 1.23475l2.07412.07481V2.00819zm-1.1708 6.97258c-1.75611 0-3.13046-.4242-3.665-.68622l.42002-1.44683s1.34908.47393 2.67226.47393c1.13262 0 1.71789-.3117 1.71789-1.4093v-.62382H3.77955C.86551 5.28853 0 3.97886 0 2.53193 0 .61125 1.5272 0 2.91426 0c1.61608 0 2.55791.66099 2.6723.66099.08921 0 .42003-.34908 1.89597-.34908v6.11176c0 1.8334-1.15782 2.5571-3.13026 2.5571zm23.61839-6.97258c-.42008-.16222-1.43807-.48649-2.1887-.48649-.81463 0-1.4255.27437-1.4255 1.1476 0 .76076.42008 1.19727 1.53987 1.23475l2.07433.07481V2.00819zm-1.17098 6.97258c-1.7562 0-3.13038-.4242-3.66483-.68622l.41994-1.44683s1.34908.47393 2.67223.47393c1.13263 0 1.71798-.3117 1.71798-1.4093v-.62382h-1.71798c-2.91393 0-3.77947-1.30967-3.77947-2.7566C22.44755.61125 23.97473 0 25.36189 0c1.61603 0 2.55772.66099 2.67223.66099.08912 0 .41994-.34908 1.89608-.34908v6.11176c0 1.8334-1.15801 2.5571-3.13052 2.5571zM58.0151 2.32005c-.47071-.22437-1.4887-.59868-2.41756-.59868-1.34935 0-1.57823.59868-1.57823 1.97066V8.9059h-.29274c-.4452 0-1.4378-.07482-1.67963-.12486V3.44257C52.04693 1.11 52.63242 0 55.04998 0c1.84531 0 2.9269.69837 3.00306.69837.02565 0 .66204-.38646 1.93497-.38646v8.46914c-.14003.02497-1.09496.12486-1.57863.12486h-.39429V2.32005zM62.3178.31191S63.53941 0 65.2447 0c1.61617 0 3.65214.53629 3.65214 2.68154 0 1.39726-1.0562 1.9959-2.77418 2.607-.92887.33682-1.71798.63621-1.71798 1.25993 0 .29925.22928.88542 1.41254.88542 1.1071 0 2.23987-.4988 2.23987-.4988l.49637 1.43431c-.33123.16219-1.41281.61137-2.9142.61137-1.62886 0-3.21965-.8483-3.21965-2.5571 0-1.7589 1.62886-2.29513 2.90125-2.70683.86567-.28678 1.59091-.58628 1.59091-1.14743 0-.54854-.30544-1.0228-1.76888-1.0228-1.19623 0-2.46875.26187-2.46875.26187L62.3178.31191zM34.76574 7.3093c.31813.0623.94183.14966 1.56526.14966 1.42523 0 2.5453-.78584 2.5453-2.90648 0-2.05804-.54754-3.03078-2.72327-3.03078-.7 0-1.3873.09978-1.3873.09978V7.3093zm1.65438 1.67147c-1.1198 0-2.67237-.18716-3.62676-.52388V.26202C33.58248.09962 35.05876 0 36.08943 0c3.51211 0 4.87375 1.34715 4.87375 4.55248 0 2.76917-1.73094 4.42829-4.54306 4.42829z"/></g></g><path d="M270.23747 125.74411c-.38078.27015-.64006.83289-.76832 1.67381l-.33118 2.15267h-1.45722l.8114-5.26598h1.38132s-.1022.54274-.19038.84727c.3169-.48349.82568-.98307 1.67742-.96771l-.21494 1.39366c-.34946-.06242-.67087-.00244-.9081.16628zm3.41086-2.87058l-1.52478.33423-.71144 4.82276c-.10542.6751-.04994 1.09018.17225 1.34332.21008.23715.57072.34234 1.16918.34234.36619 0 .80425-.0553 1.18204-.14402l.18032-1.17128c-.25068.07053-.51322.09904-.73389.09904-.20529 0-.33063-.03686-.40326-.11895-.06103-.0693-.0913-.18063-.0913-.3421 0-.09731.01186-.21479.03254-.35389 0 0 .3054-1.97909.34727-2.25802h1.30638l.17225-1.12263h-1.30537c.00555-.0312.09432-.64708.20781-1.4308zM254.9459 122h1.4012l-1.10153 7.57059h-1.40071L254.94589 122zm5.18479 4.79653c-.16963 1.1475-.69724 1.75494-1.52664 1.75494-.24434 0-.44657-.028-.63786-.08448.0112-.07308.21027-1.42545.21027-1.42545.1207-.82074.62837-1.69301 1.32902-1.69301.21197 0 .36846.0649.47919.19397.18666.22098.23533.64262.14602 1.25403zm1.10831-2.11671c-.28367-.32976-.70335-.496-1.24911-.496-.7247 0-1.33399.32233-1.74647.8914.07023-.27202.12955-.61664.15462-.78536h-1.34764L255.90552 131.9h1.44393c.09803-.65183.32537-2.16484.33356-2.22455.19383.0275.3827.03964.63907.03964 1.78891 0 2.98293-1.10273 3.27132-3.02453.13402-.8919.01017-1.5866-.35441-2.01074zm-9.18407 1.54224h-1.88983c.18303-.6266.61622-1.01912 1.15388-1.01912.25904 0 .46623.0856.59639.24506.10728.13336.1632.31343.1632.53161 0 .07699-.01016.15763-.02364.24245zm-.56857-2.03824c-1.4996 0-2.63291 1.1044-2.88712 2.81267-.137.91771-.00903 1.61233.37728 2.06516.37167.43537.989.65453 1.83464.65453.61195 0 1.25492-.10848 1.81363-.30058l.1768-1.18484c-.53161.23146-1.0996.35125-1.61413.35125-.4669 0-.80242-.11511-.99509-.34362-.14066-.1653-.21172-.39823-.21172-.69363 0-.1016.01075-.2145.02955-.33256h3.20994c.05812-.19726.11209-.43438.1431-.64517.0271-.17858.04005-.34805.04005-.51064 0-.52982-.14017-.96838-.4144-1.29085-.33113-.3869-.83588-.58172-1.50253-.58172zm-2.64598 0l-2.81923 5.38677h-1.44286l-1.18395-5.38677h1.57803l.65147 3.48202 1.67387-3.48202h1.54267zm-12.84646-.50632h-2.23782a352326.24 352326.24 0 0 0-.89262 5.89309h-1.45367s.87733-5.80103.89212-5.89309H230l.18809-1.24074h5.9939l-.18808 1.24074zm29.88133 3.17293c-.14653.95904-.67455 1.55545-1.38115 1.55545-.31194 0-.54764-.08974-.70188-.26507-.22005-.25186-.28462-.68933-.19148-1.29943.1674-1.10185.8561-1.49285 1.39357-1.49285.31244 0 .54714.08779.6979.26067.21036.24037.27146.65754.18304 1.24123zm-.61682-2.6666c-1.58548 0-2.86692 1.17207-3.11837 2.85058-.1355.91478-.00856 1.60654.37693 2.05704.35442.415.92604.62473 1.7002.62473 1.58522 0 2.86814-1.17528 3.11836-2.85921.13355-.89557.00367-1.58166-.38647-2.03782-.36102-.4224-.92897-.63533-1.69065-.63533zm-27.99126 1.56028c-.38108.27015-.63964.83289-.76867 1.67381l-.33223 2.15267h-1.45617l.81127-5.26598h1.3815s-.10297.54274-.1909.84727c.31693-.48349.8268-.98307 1.6779-.96771l-.21472 1.39366c-.34976-.06242-.67172-.00244-.90798.16628zm4.05552 1.576c-.08834.5915-.59397 1.23136-1.2548 1.23136-.184 0-.32749-.05279-.41119-.1517-.0588-.06956-.08931-.15935-.08931-.26615 0-.03034.00268-.06142.00732-.09374.07858-.53107.65522-.79056 1.75896-.7987a7.34395 7.34395 0 0 0-.01098.07893zm-.33761-3.13629c-.58226 0-1.25232.10921-1.84271.2964l-.19088 1.27117c.45648-.23982 1.09053-.44422 1.66514-.44422.38127 0 .62986.07256.75884.22162.07645.08978.11344.21276.11468.37215.0005.13725-.03132.3446-.05327.44176-1.89796.0086-3.13917.7357-3.32142 1.94907-.0143.09125-.01998.1803-.01998.26466 0 .30156.08509.55737.2523.7512.23181.2676.61086.40855 1.0994.40855.71223 0 1.37464-.34805 1.75788-.88672-.05352.20464-.10925.47939-.15463.78267h1.36058l.17534-1.38137.32825-2.17978c.09347-.6223.01628-1.0525-.24267-1.35234-.29915-.34682-.85033-.51482-1.68685-.51482z" fill="#1A687C" fill-rule="nonzero"/><g transform="translate(276.36498 125.7853)"><mask id="n" fill="#fff"><use xlink:href="#l"/></mask><path d="M15.53933 1.10865C18.06821.67553 20.51481.44841 21.9857.3404c-3.30958 0-7.93195-.08008-11.6329-.29599-4.3664 0-7.66936.57945-10.2736 1.06658l5.28075.97574C7.4387 1.5045 9.90533 1.06119 11.41594.9303c1.33399.13569 2.53344.17238 4.1234.17834" fill="url(#m)" fill-rule="nonzero" mask="url(#n)"/></g><g transform="translate(281.66384 126.65882)"><mask id="q" fill="#fff"><use xlink:href="#o"/></mask><path d="M10.24048.23513C8.65053.22915 7.45108.19246 6.11708.05677c-1.5106.13088-3.97723.5742-6.05614 1.1564l3.89245.7195C5.69995 1.16427 8.00289.61875 10.24048.23513" fill="url(#p)" fill-rule="nonzero" mask="url(#q)"/></g><g transform="translate(279.1616 126.80441)"><mask id="t" fill="#fff"><use xlink:href="#r"/></mask><path d="M12.74272.08954c-2.2376.38362-4.54053.92914-6.2871 1.69756l-3.8923-.7195c-.97204.27269-1.85975.5755-2.52431.89056L8.35379 4.9586C10.50027 2.80243 14.69446.76376 17.31475.08182c-1.9095 0-3.3555.01238-4.57203.00772" fill="url(#s)" fill-rule="nonzero" mask="url(#t)"/></g><g transform="translate(277.83689 122.14559)"><mask id="w" fill="#fff"><use xlink:href="#u"/></mask><path d="M.11069 2.28486c5.46106.89333 11.25359 1.66568 19.82493 1.15947C16.39422 3.15038 11.90579 1.8465 8.7543.07367L.11069 2.28487" fill="url(#v)" fill-rule="nonzero" mask="url(#w)"/></g><g fill-rule="nonzero"><path d="M258.15484 151.00012c0-.55291.46473-1.00012 1.03683-1.00012.57404 0 1.04059.4472 1.04059 1.00012 0 .5522-.46655.99988-1.0406.99988-.57209 0-1.03682-.44768-1.03682-.99988" fill="#273B7D"/><path d="M274.6258 157.71476c0-.55295.46464-1.00047 1.03687-1.00047.57397 0 1.04056.44752 1.04056 1.00047 0 .55153-.46659.99953-1.04056.99953-.57223 0-1.03686-.448-1.03686-.99953" fill="#499FDD"/><path d="M240.93555 157.38759c-.8924 0-1.51253-.68885-1.51253-1.67319 0-.98409.62014-1.67245 1.51253-1.67245.89751 0 1.5245.68836 1.5245 1.67245 0 .9999-.61392 1.67319-1.5245 1.67319zm0-4.81616c-1.88797 0-3.25813 1.32217-3.25813 3.14297 0 1.82081 1.37016 3.14274 3.25813 3.14274 1.89504 0 3.2709-1.32193 3.2709-3.14274 0-1.8208-1.37586-3.14297-3.2709-3.14297zM255.96882 155.8126c-.0751-.13463-.1612-.24862-.25293-.3391l-.0584-.05903.06143-.05616c.0887-.08904.17938-.19463.2668-.31702l1.70505-2.4145h-2.06984l-1.2811 1.88869c-.0725.10127-.21895.1524-.43812.1524h-.29199v-3.57077c0-.7142-.46708-.8114-.97167-.8114h-.86386l.00148 8.42858h1.83405v-2.52826h.17184c.20906 0 .35144.02303.41672.13127l1.01177 1.8191c.28261.49365.56426.57789 1.0941.57789h1.40553l-1.04678-1.64944-.69408-1.25225M264.76015 152.42857c-.9394 0-1.53883.39875-1.87472.73593l-.11214.10836-.03956-.14738c-.09868-.36118-.4313-.55995-.93182-.55995h-.82772l.0052 6.14876h1.83427v-2.83392c0-.27707.0377-.51752.11437-.7369.2042-.66394.77373-1.07675 1.4856-1.07675.57258 0 .79633.2887.79633 1.03481v2.67805c0 .6368.30823.9347.97518.9347h.87292l-.00297-3.91066c0-1.55379-.79307-2.37505-2.29442-2.37505M259.14674 152.57143h-.84351l.00576 4.74966h-.00054v1.39199h.90037c.01132 0 .02041.0012.03174.0012l.41938-.0012h.41743v-.00242h.00289l.00361-5.20663c0-.62819-.30524-.9326-.93651-.9326M247.91068 157.38759c-.89198 0-1.51311-.68885-1.51311-1.67319 0-.98409.62113-1.67245 1.51311-1.67245.8953 0 1.5238.68836 1.5238 1.67245 0 .9999-.61349 1.67319-1.5238 1.67319zm0-4.81616c-1.88914 0-3.25907 1.32217-3.25907 3.14297 0 1.82081 1.36993 3.14274 3.25907 3.14274 1.89239 0 3.26997-1.32193 3.26997-3.14274 0-1.8208-1.37758-3.14297-3.26997-3.14297z" fill="#273B7D"/><path d="M286.49115 157.38759c-.8917 0-1.5133-.68885-1.5133-1.67319 0-.98409.6216-1.67245 1.5133-1.67245.89551 0 1.52434.68836 1.52434 1.67245 0 .9999-.61382 1.67319-1.52434 1.67319zm0-4.81616c-1.88886 0-3.2589 1.32217-3.2589 3.14297 0 1.82081 1.37004 3.14274 3.2589 3.14274 1.89274 0 3.27014-1.32193 3.27014-3.14274 0-1.8208-1.3774-3.14297-3.27014-3.14297z" fill="#499FDD"/><path d="M270.99679 157.0013c-.99247 0-1.34572-.8246-1.34572-1.59732 0-.34045.09038-1.45005 1.25034-1.45005.57645 0 1.34469.15732 1.34469 1.5072 0 1.27311-.67985 1.54017-1.24931 1.54017zm2.1918-4.43765c-.34448 0-.60956.13078-.7424.36963l-.05019.09276-.08411-.06957c-.29305-.24148-.81842-.5279-1.67158-.5279-1.69749 0-2.84031 1.21407-2.84031 3.02083 0 1.80462 1.18249 3.06579 2.87445 3.06579.57793 0 1.03464-.1284 1.39664-.38947l.14012-.10017v.16855c0 .81002-.5501 1.25687-1.54728 1.25687-.4846 0-.92572-.11237-1.22068-.21422-.38518-.1107-.6109-.01913-.76706.34882l-.1441.3395-.20384.49587.12628.06407c.6382.32253 1.46898.51499 2.21992.51499 1.54604 0 3.35119-.7536 3.35119-2.87428l.00662-5.56207H273.18859zM234.16527 157.28793l-1.47639-.00141v-1.69548c0-.36238.14624-.5508.46954-.59416h1.00685c.71864 0 1.18296.43538 1.18347 1.13964-.00051.72281-.45328 1.15096-1.18347 1.15145v-.00004zm-1.47639-4.57374v-.44622c0-.39056.17205-.57632.5496-.60018h.75548c.6479 0 1.03597.3725 1.03597.99556 0 .47513-.26564 1.02953-1.01215 1.02953h-1.3289v-.9787zm3.36196 1.69211l-.2669-.14408.233-.1913c.27094-.22383.72518-.72691.72518-1.59622 0-1.32999-1.07406-2.18845-2.7364-2.18845h-1.89703v-.00054h-.21602c-.49284.01736-.88716.40237-.89267.87871v7.54933h.87062c.0022.00054.00294 0 .00367.00054l2.16893-.00054c1.84792 0 3.04065-.96617 3.04065-2.46264 0-.8057-.3855-1.49454-1.0334-1.84486l.00037.00005z" fill="#273B7D"/><path d="M297.90558 152.42857c-.74639 0-1.46791.3417-1.93114.9147l-.13039.1615-.10224-.18071c-.33312-.59391-.9066-.89549-1.70397-.89549-.83616 0-1.39696.45601-1.65745.72719l-.17042.18046-.06564-.23737c-.0951-.3417-.40626-.52995-.87772-.52995h-.7561l-.00728 6.14539h1.7179v-2.71275c0-.23761.03011-.4728.091-.71868.16424-.65544.61484-1.3605 1.37239-1.28998.46723.04378.69534.39668.69534 1.0784v3.643h1.73008v-2.71274c0-.29695.02837-.51925.09685-.74227.13928-.62577.60973-1.26736 1.34066-1.26736.52892 0 .72451.29283.72451 1.07936v2.7446c0 .62091.28331.89842.91798.89842h.8086l.00146-3.9232c0-1.56723-.70584-2.36252-2.09478-2.36252M282.24029 156.6336c-.0051.00593-.74453.75142-1.71803.75142-.8869 0-1.78301-.52038-1.78301-1.68201 0-1.00293.69478-1.7039 1.6892-1.7039.323 0 .69027.11064.74775.2967l.00846.03142c.13239.42187.53336.44448.6122.44448l.9414.00092v-.78687c0-1.0379-1.38065-1.41433-2.3098-1.41433-1.98682 0-3.42846 1.32271-3.42846 3.14416 0 1.82074 1.42596 3.14155 3.39213 3.14155 1.70585 0 2.63353-1.07216 2.64221-1.08287l.04953-.05806-.74555-1.18257-.09803.09994" fill="#499FDD"/></g><g fill="#0A78B0"><path d="M234.96594 182.57143c-.68686 0-1.3191.28647-1.82523.75985v-.4816H231V192h2.12944v-.06421h.01126v-2.76115c.50614.47337 1.13837.75985 1.82524.75985 1.6626 0 3.00825-1.64689 3.00825-3.68153s-1.34564-3.68153-3.00825-3.68153zm-.52954 1.62672c.30864 0 .58548.1429.82248.36387.06567.06038.13399.1297.19154.20335.00821.01072.0145.02112.02254.0321.00312.00418.00817.0065.01126.0107.0634.08802.11822.17561.169.27826.00374.00733.0076.01399.01127.0214.00952.0198.0135.04395.02254.06422.03983.0894.08325.18044.11267.27825.03453.11483.06024.23957.07887.36387.00047.0036-.00048.0071 0 .0107.01868.12814.0338.26036.0338.39599v.0107c-.00048.13546-.01464.26808-.0338.39598-.00048.00343.00047.00726 0 .0107-.01964.12748-.04252.2465-.07887.36388-.00095.00332.00095.00737 0 .0107-.22386.72557-.75129 1.24145-1.3633 1.24145-.10594 0-.20485-.0241-.3042-.05351-.09527-.02822-.1831-.06536-.2704-.11773-.00239-.00131-.0089.00131-.01127 0-.086-.05249-.17149-.1194-.24787-.19263-.07701-.07384-.14867-.15404-.21407-.24615-.05135-.07232-.10328-.15341-.14647-.23545-.00526-.01-.00612-.02196-.01126-.0321a2.21206 2.21206 0 0 1-.05633-.11773c-.0112-.02567-.02343-.04854-.0338-.07491v-.0107c-.11373-.28586-.18027-.6043-.18027-.9525 0-1.1142.65995-2.0227 1.47596-2.0227h-.00002z"/><path d="M238.56774 182.71429l.00002 6.1511v.63116l-.00002.07488h2.10499v-.07488h.01101V185.271c.28133-.4107.99314-.73973 1.91761-.8237.04038-.00368.0811.00229.12123 0v-1.73301h-.35266c-.09619.01365-.19532.03181-.29756.05348-.12504.02651-.24688.05968-.36369.09628-.0075.00236-.01458.00831-.02205.0107l-.51798.25674-.14327.07488-.34164.17116v-.66324h-2.11599zM243.46452 182.85714h2.2258v6.85715h-2.2258zM249.80155 182.57143c-2.0301 0-3.66607 1.6249-3.66607 3.63749 0 2.01259 1.63598 3.64822 3.66607 3.64822.92762 0 1.77069-.34913 2.4178-.91205l-1.02334-1.41637c-.30486.472-.76225.7833-1.282.7833-.92146 0-1.6756-.94612-1.6756-2.11383s.75414-2.11382 1.6756-2.11382c.53656 0 1.01168.32766 1.31573.82621l.9109-1.51294c-.63573-.51843-1.45092-.82621-2.3391-.82621zM270.66874 182.57143c-.6959 0-1.33167.23406-1.78117.6007v-.45872h-2.12628v6.92442h2.12628v-4.64176c.21003-.42696.60922-.72084 1.0687-.72084.45163 0 .8416.28403 1.05757.699v4.74006h2.12628v-4.78375c.00212-.10376.0027-.21081 0-.31673.00165-.0259 0-.04995 0-.07645 0-.06388-.0036-.12332-.01112-.18568-.00095-.00714.00094-.01472 0-.02184-.13244-.98364-1.18364-1.75841-2.46025-1.75841zM255.77444 182.42857c-1.40635 0-2.61688.8315-3.21176 2.04429-.00946.02589-.02413.04975-.03322.07571-.213.60804-.30944 1.24356-.3101 1.87123.00269.06484.00603.1294.01106.19469.03176.41202.10814.81097.2215 1.20061.01767.04391.03578.08586.05538.1298.236.52906.58534.99421 1.02998 1.37367.01048.00737.02263.01437.03322.02163.59709.40934 1.35032.6598 2.17071.6598 1.6077 0 2.97267-.93932 3.40004-2.21735l-1.43975-.5949c-.31764.71545-.93825 1.20062-1.66126 1.20062-.7984 0-1.46464-.59978-1.73878-1.43858-.00957-.0293-.02464-.05665-.03323-.08653V186.82c-.01865-.07133-.04258-.14218-.05537-.21633-.00047-.0035.00047-.0073 0-.0108h5.12774c.00828-.47273-.02106-.96063-.11075-1.4494-.00822-.02897-.01498-.05801-.02214-.08652-.4547-1.52109-1.81058-2.62837-3.43328-2.62837zm-.11075 1.51429c.0515-.00602.11325 0 .16613 0 .74864 0 1.35242.61315 1.48405 1.42775h-2.99026c.12506-.75908.66213-1.3486 1.34008-1.42775zM259.93548 180h2.22581v9.71429h-2.2258zM263.34839 182.85714h2.2258v6.85715h-2.2258zM277.29055 182.42857c-1.40634 0-2.61687.83149-3.21176 2.04429-.00947.02589-.02413.04974-.0332.07571-.213.60804-.30943 1.24356-.3101 1.87123.00283.06484.00603.1294.01106.19469.03176.41202.10813.81097.2215 1.20061.01767.0439.03578.08586.05538.1298.236.52906.58534.99422 1.02998 1.37367.01048.00737.02263.01437.0332.02163.59709.40934 1.35032.6598 2.17071.6598 1.6077 0 2.97267-.93932 3.40004-2.21735l-1.43976-.5949c-.31763.71545-.93825 1.20062-1.66125 1.20062-.7984 0-1.46465-.59978-1.73878-1.43857-.00957-.0293-.02463-.05666-.03321-.08654V186.82c-.01865-.07133-.04258-.14218-.05538-.21633-.0007-.0035.0007-.0073 0-.0108h5.12775c.00828-.47272-.02106-.96063-.11075-1.44939-.00822-.02898-.015-.05802-.02214-.08653-.4547-1.52109-1.81056-2.62837-3.43326-2.62837h-.00003zm-.11074 1.51429c.05149-.00602.11324 0 .16612 0 .74864 0 1.35243.61316 1.48405 1.42775h-2.99026c.12506-.75908.66214-1.3486 1.34009-1.42775zM282.7871 189.07143c0 .43394-.3654.78571-.81613.78571-.45074 0-.81613-.35177-.81613-.78571s.3654-.78572.81613-.78572.81613.35178.81613.78572zM285.28883 185.85714c-1.13883 0-2.05657.8921-2.05657 1.99706 0 1.10494.91774 2.00294 2.05657 2.00294.52038 0 .9933-.19168 1.35633-.50073l-.57407-.77762c-.17102.25914-.4276.43005-.71917.43005-.51692 0-.93996-.51944-.93996-1.16053 0-.6411.42304-1.16053.93996-1.16053.301 0 .56753.1799.7381.4536l.51099-.83063c-.35663-.28463-.81394-.4536-1.31218-.4536zM288.80233 185.85714c-1.187 0-2.15717.88806-2.15717 1.99491 0 1.10686.97017 2.0051 2.15717 2.0051 1.18701 0 2.14606-.89824 2.14606-2.0051 0-1.10685-.95905-1.9949-2.14606-1.9949zm-.02222.89568c.5179 0 .94515.49408.94515 1.09923 0 .60516-.42725 1.09924-.94515 1.09924s-.93404-.49408-.93404-1.09924c0-.60515.41614-1.09923.93404-1.09923zM293.7138 185.85715c-.37945 0-.72347.12668-.97017.32504v-.11918h-1.2017v3.65128h1.2017v-2.64366c.08336-.22225.26167-.37922.47407-.37922.21364 0 .39422.15493.47406.37922.00116.00326-.00116.00753 0 .01083v2.63283h1.2017v-2.66533c.08695-.20986.25806-.35755.46304-.35755.20953 0 .39197.15102.47406.36838v2.64366h1.2017v-3.28291c-.22573-.33426-.66354-.5634-1.17965-.5634-.4406 0-.83236.16579-1.08043.42255-.24339-.25494-.61968-.42255-1.05837-.42255zM245.54194 181.21429c0 .59173-.49827 1.07142-1.1129 1.07142-.61465 0-1.11291-.47969-1.11291-1.07142 0-.59174.49826-1.07143 1.1129-1.07143.61464 0 1.1129.4797 1.1129 1.07143zM265.5742 181.21429c0 .59173-.49827 1.07142-1.11291 1.07142-.61464 0-1.1129-.47969-1.1129-1.07142 0-.59174.49826-1.07143 1.1129-1.07143.61464 0 1.1129.4797 1.1129 1.07143zM298.51832 181.42857c.27179 0 .52093.06373.74742.19118.22649.12745.40549.30042.537.5189.1315.2185.19726.45659.19726.7143 0 .2549-.06575.49229-.19726.71218-.13151.21989-.31124.39495-.5392.5252-.22795.13026-.47927.19538-.75399.19538-.27178 0-.52092-.06442-.74741-.19327-.2265-.12886-.40476-.30252-.5348-.52101-.13006-.21849-.19508-.45518-.19508-.71009 0-.2549.06575-.49229.19726-.71218.13151-.21989.31051-.39496.537-.5252.2265-.13026.47709-.19539.7518-.19539zm-.00877 2.5084c.21042 0 .40183-.04901.57426-.14705.17243-.09804.30905-.2297.40987-.39496.10083-.16527.15124-.34594.15124-.54202 0-.19608-.04968-.37605-.14905-.53991-.09936-.16387-.23525-.29412-.40768-.39076-.17242-.09664-.36238-.14496-.56987-.14496-.21042 0-.4011.04902-.57207.14706-.17097.09804-.30613.2297-.4055.39496-.09936.16527-.14904.34594-.14904.54201 0 .19609.04895.37606.14686.53992.0979.16387.23233.29412.4033.39076.17096.09664.36018.14496.56768.14496zm.63125-1.32773c0 .10085-.0212.18838-.06357.2626-.04237.07424-.10447.12956-.1863.16598l.2937.43697h-.40768l-.20603-.36975h-.26302v.36975h-.35508v-1.33193h.60495c.18704 0 .33097.04061.4318.12185.10082.08123.15123.19607.15123.34453zm-.8329.2269h.24987c.07599 0 .13516-.0189.17754-.05673.04237-.03781.06356-.09033.06356-.15756 0-.07003-.0212-.12255-.06356-.15756-.04237-.03502-.10155-.05252-.17754-.05252h-.24987v.42436z" fill-rule="nonzero"/></g></g><path d="M146.00586 25.23256l2.24265-6.13954c.019-.05581.04751-.09302.11403-.09302h.61768c.06652 0 .10453.0372.12353.09302l2.21414 6.13954c.019.05581-.0095.09302-.06652.09302h-.6652c-.06651 0-.10452-.0279-.12353-.09302l-.49414-1.37675h-2.61325l-.49414 1.37675c-.0285.06511-.06652.09302-.12354.09302h-.66519c-.05701 0-.08552-.0372-.06652-.09302zm1.62497-2.13954h2.0621l-1.0168-2.87442h-.019l-1.0263 2.87442zm5.46407 2.23256h-.65569c-.05702 0-.09503-.0372-.09503-.09302v-6.13954c0-.05581.03801-.09302.09503-.09302h2.29966c1.24486 0 2.05259.74419 2.05259 1.88837 0 1.14419-.80773 1.88837-2.0526 1.88837h-1.49192c-.03801 0-.05701.0186-.05701.05582v2.4c0 .05581-.03802.09302-.09503.09302zm1.59646-3.32093c.79822 0 1.26386-.4279 1.26386-1.11628 0-.68837-.46564-1.11628-1.26386-1.11628h-1.44442c-.03801 0-.05701.0186-.05701.05582v2.12093c0 .0372.019.05581.05701.05581h1.44442zm3.27844 3.2279v-6.13953c0-.05581.038-.09302.09502-.09302h.6557c.057 0 .09502.0372.09502.09302v6.13954c0 .05581-.03801.09302-.09503.09302h-.65569c-.05701 0-.09502-.0372-.09502-.09302zm4.72285 0v-6.13953c0-.05581.03801-.09302.09503-.09302h.65569c.05701 0 .09502.0372.09502.09302v5.40465c0 .03721.01901.05582.05702.05582h3.07888c.05702 0 .09503.0372.09503.09302v.58605c0 .05581-.03801.09302-.09503.09302h-3.88661c-.05702 0-.09503-.0372-.09503-.09302zm8.40992.09303h-.56067c-.05701 0-.09502-.0372-.09502-.09302v-.3907h-.0095c-.20907.33488-.6557.58605-1.3494.58605-.86474 0-1.52993-.43721-1.52993-1.33954 0-.93953.66519-1.37674 1.777-1.37674h1.0358c.03802 0 .05702-.0186.05702-.05582v-.32558c0-.61395-.24707-.87442-1.09281-.87442-.51315 0-.83624.13024-1.10232.31628-.04751.03721-.10453.03721-.13304-.0093l-.25657-.4279c-.0285-.05582-.019-.09303.019-.13024.3421-.26046.87426-.4372 1.54895-.4372 1.29237 0 1.78651.4186 1.78651 1.51627v2.94884c0 .05581-.038.09302-.09502.09302zm-1.82453-.56744c.7127 0 1.14983-.32558 1.14983-.87442v-.49302c0-.03721-.019-.05582-.05702-.05582h-.91226c-.78872 0-1.13082.22326-1.13082.72559 0 .4558.3421.69767.95027.69767zM172.9651 27h-.24707c-.05702 0-.09503-.0372-.09503-.09302v-.53954c0-.05581.03801-.09302.09503-.09302h.17105c.3706 0 .57016-.15814.76972-.66977l.15204-.4093-1.67248-4.23256c-.019-.05581.0095-.09302.07602-.09302h.6652c.05701 0 .09502.0279.11403.09302l1.19734 3.2186h.019l1.14984-3.2186c.019-.06512.05701-.09302.11403-.09302h.64618c.05702 0 .09503.0372.07603.09302L174.4 25.66977C174.0009 26.72093 173.6493 27 172.9651 27zm5.88219-1.5721c-.92177 0-1.57746-.4372-1.82453-1.2093-.09502-.28837-.15204-.61395-.15204-1.12558 0-.51162.04751-.85581.14254-1.12558.25657-.7721.92176-1.2 1.78651-1.2.87425 0 1.52994.43721 1.78652 1.2.09502.28837.14254.59535.14254 1.27442 0 .05581-.03801.09302-.10453.09302h-2.87933c-.03801 0-.05702.0186-.05702.05582 0 .24186.02851.3907.07603.53953.18055.51163.58916.7721 1.14983.7721.54165 0 .92176-.21396 1.16883-.49303.04752-.0465.09503-.05581.14254-.0186l.38961.34418c.04752.03721.04752.08372.0095.13024-.3611.4465-.97877.76279-1.777.76279zm-1.10232-2.71627h2.1096c.03802 0 .05702-.0186.05702-.05582 0-.20465-.019-.36279-.06652-.50232-.15204-.44651-.53215-.69768-1.0453-.69768-.51314 0-.89325.25117-1.0453.69768-.04751.13953-.06652.29767-.06652.50232 0 .03721.01901.05582.05702.05582zm4.96993 2.61395h-.60818c-.05701 0-.09503-.0372-.09503-.09302v-4.26977c0-.05581.03802-.09302.09503-.09302h.60818c.05701 0 .09502.0372.09502.09302v.45581h.0095c.19956-.3814.59868-.65116 1.20685-.65116.3611 0 .7032.13023.93127.33489.04751.0465.05702.08372.019.13023l-.3516.45581c-.038.04651-.08552.05582-.13303.0186-.20906-.13023-.43713-.21395-.7032-.21395-.6937 0-.97879.53024-.97879 1.30233v2.4372c0 .05582-.038.09303-.09502.09303zM250.16843 23.40456C250.0468 23.01567 250 22.62678 250 21.5c0-1.12678.04679-1.51567.16843-1.90456C250.4866 18.5285 251.24454 18 252.28322 18c.9451 0 1.67498.49858 2.03992 1.3661.01872.04985.00936.09971-.03743.12963l-.56144.28917c-.05615.02991-.1123 0-.131-.04986-.25266-.52849-.64567-.9074-1.31005-.9074-.69245 0-1.11354.35897-1.3194.99715-.08422.2792-.12165.60826-.12165 1.67521s.03743 1.39601.12165 1.67521c.20586.63818.62695.99715 1.3194.99715.66438 0 1.0574-.37891 1.31004-.9074.01872-.04986.07486-.07977.131-.04986l.56145.28917c.0468.02992.05615.07978.03743.12963-.36494.86752-1.09482 1.3661-2.03992 1.3661-1.03868 0-1.79663-.52849-2.11479-1.59544zM257.1491 25c-.87024 0-1.52526-.47863-1.76855-1.28632-.10294-.32906-.14972-.65812-.14972-1.21653 0-.54843.04678-.8775.14972-1.20655.24329-.81767.89831-1.28633 1.76855-1.28633.87025 0 1.52527.46866 1.76856 1.28633.10294.32906.14972.65812.14972 1.20655 0 .5584-.04678.88747-.14972 1.21653-.24329.80769-.89831 1.28632-1.76855 1.28632zm0-.77778c.49595 0 .8609-.26923 1.01061-.74786.07486-.25926.10293-.51852.10293-.9772 0-.4587-.02807-.70799-.10293-.96725-.14972-.47863-.51466-.74786-1.0106-.74786-.49595 0-.86089.26923-1.01061.74786-.07486.25926-.10293.50855-.10293.96724 0 .45869.02807.71795.10293.9772.14972.47864.51466.74787 1.0106.74787zm6.69059.6681h-.59888c-.05615 0-.09358-.0399-.09358-.09972v-2.79202c0-.76781-.3275-1.21653-1.00124-1.21653-.60824 0-1.02932.4587-1.02932 1.16667v2.84188c0 .05983-.03743.09971-.09358.09971h-.59887c-.05615 0-.09358-.03988-.09358-.09971v-4.57692c0-.05983.03743-.09972.09358-.09972h.59887c.05615 0 .09358.03989.09358.09972v.43874h.00935c.21522-.36894.64567-.64815 1.2539-.64815.97318 0 1.55334.70798 1.55334 1.79488v2.99145c0 .05983-.03743.09971-.09357.09971zm3.22832.04985h-.34623c-.87024 0-1.20711-.4188-1.20711-1.35612v-2.7322c0-.03988-.01871-.05983-.05614-.05983h-.3743c-.05615 0-.09358-.03988-.09358-.09971v-.47863c0-.05983.03743-.09972.09358-.09972h.3743c.03742 0 .05614-.01994.05614-.05983v-1.34615c0-.05983.03743-.09972.09358-.09972h.59887c.05615 0 .09358.03989.09358.09972v1.34615c0 .03989.01871.05983.05614.05983h.71117c.05614 0 .09357.03989.09357.09972v.47863c0 .05983-.03743.09971-.09357.09971h-.71117c-.03743 0-.05614.01995-.05614.05983v2.70228c0 .47863.16843.60826.5708.60826h.1965c.05615 0 .09358.03989.09358.09972v.57835c0 .05982-.03743.09971-.09357.09971zM270.05303 25c-.90768 0-1.55334-.46866-1.79664-1.2963-.09357-.30911-.14972-.65812-.14972-1.20655s.0468-.91738.14037-1.20655c.25265-.82764.90767-1.28633 1.7592-1.28633.86088 0 1.50655.46866 1.7592 1.28633.09357.30912.14036.63817.14036 1.3661 0 .05982-.03743.09971-.10293.09971h-2.8353c-.03744 0-.05615.01994-.05615.05983 0 .25926.02807.4188.07486.57835.17779.54843.58016.82763 1.13225.82763.53337 0 .90767-.22934 1.15096-.52849.0468-.04986.09358-.05983.14037-.01994l.38365.36895c.04679.03988.04679.08974.00936.1396-.35558.47863-.96382.81766-1.74984.81766zm-1.08547-2.91168h2.07736c.03743 0 .05614-.01994.05614-.05983 0-.21937-.01871-.38889-.0655-.53846-.14972-.47863-.52402-.74786-1.02932-.74786s-.8796.26923-1.02932.74786c-.04679.14957-.0655.31909-.0655.53846 0 .03989.01871.05983.05614.05983zm7.71054 2.802h-.59887c-.05615 0-.09358-.0399-.09358-.09972v-2.79202c0-.76781-.3275-1.21653-1.00125-1.21653-.60823 0-1.02932.4587-1.02932 1.16667v2.84188c0 .05983-.03743.09971-.09357.09971h-.59888c-.05614 0-.09357-.03988-.09357-.09971v-4.57692c0-.05983.03743-.09972.09357-.09972h.59888c.05614 0 .09357.03989.09357.09972v.43874h.00936c.21522-.36894.64567-.64815 1.2539-.64815.97318 0 1.55334.70798 1.55334 1.79488v2.99145c0 .05983-.03743.09971-.09358.09971zm3.22833.04985h-.34623c-.87024 0-1.20711-.4188-1.20711-1.35612v-2.7322c0-.03988-.01872-.05983-.05615-.05983h-.3743c-.05614 0-.09357-.03988-.09357-.09971v-.47863c0-.05983.03743-.09972.09357-.09972h.3743c.03743 0 .05615-.01994.05615-.05983v-1.34615c0-.05983.03743-.09972.09357-.09972h.59888c.05614 0 .09357.03989.09357.09972v1.34615c0 .03989.01872.05983.05615.05983h.71116c.05615 0 .09358.03989.09358.09972v.47863c0 .05983-.03743.09971-.09357.09971h-.71117c-.03743 0-.05615.01995-.05615.05983v2.70228c0 .47863.16844.60826.5708.60826h.19652c.05614 0 .09357.03989.09357.09972v.57835c0 .05982-.03743.09971-.09357.09971zM15.16949 609.40456C15.04708 609.01567 15 608.62678 15 607.5c0-1.12678.04708-1.51567.16949-1.90456C15.48963 604.5285 16.2523 604 17.29748 604c.951 0 1.68544.49857 2.05266 1.3661.01883.04985.00942.09971-.03766.12963l-.56495.28917c-.0565.02991-.113 0-.13183-.04986-.25423-.52849-.6497-.9074-1.31822-.9074-.69678 0-1.1205.35897-1.32764.99715-.08475.2792-.1224.60826-.1224 1.67521s.03765 1.39601.1224 1.67521c.20715.63818.63086.99716 1.32764.99716.66853 0 1.064-.37892 1.31822-.90741.01884-.04986.07533-.07977.13183-.04986l.56495.28917c.04708.02992.0565.07978.03766.12963-.36722.86753-1.10166 1.3661-2.05266 1.3661-1.04517 0-1.80785-.52849-2.128-1.59544zm6.77002 1.53561h-.32014c-.79093 0-1.10165-.39886-1.10165-1.2564v-5.47437c0-.05983.03766-.09971.09415-.09971h.60262c.0565 0 .09416.03988.09416.09971v5.4245c0 .39886.14124.5285.45196.5285h.1789c.0565 0 .09416.03988.09416.0997v.57836c0 .05983-.03766.09971-.09416.09971zM24.80195 611c-.87568 0-1.5348-.47863-1.7796-1.28633-.10358-.32905-.15066-.65811-.15066-1.21652 0-.54843.04708-.8775.15065-1.20655.24482-.81767.90393-1.28633 1.7796-1.28633.87568 0 1.5348.46866 1.77961 1.28633.10358.32906.15066.65812.15066 1.20655 0 .5584-.04708.88747-.15066 1.21652-.24481.8077-.90393 1.28633-1.7796 1.28633zm0-.77778c.49904 0 .86626-.26923 1.01691-.74786.07533-.25926.10358-.51852.10358-.9772 0-.4587-.02825-.70799-.10358-.96725-.15065-.47863-.51787-.74786-1.01691-.74786-.49904 0-.86627.26923-1.01692.74786-.07533.25926-.10357.50855-.10357.96724 0 .45869.02824.71795.10357.9772.15065.47864.51788.74787 1.01692.74787zm6.6382.6681h-.60261c-.0565 0-.09416-.0399-.09416-.09972v-.44872h-.00942c-.2354.39886-.6497.65812-1.23348.65812-.98867 0-1.56304-.71795-1.56304-1.80484v-2.98149c0-.05982.03766-.09971.09416-.09971h.60262c.0565 0 .09416.03989.09416.09971v2.78206c0 .77777.32955 1.2265.99808 1.2265.61203 0 1.01692-.4587 1.01692-1.17665v-2.8319c0-.05983.03766-.09972.09416-.09972h.60261c.0565 0 .09416.03989.09416.09971v4.57693c0 .05983-.03766.09971-.09416.09971zm5.06575 0h-.60261c-.0565 0-.09416-.0399-.09416-.09972v-.4587h-.00942c-.21656.37893-.60262.6681-1.28056.6681-.78152 0-1.32764-.38889-1.55362-1.14672-.1224-.37892-.16007-.75784-.16007-1.35613 0-.58832.03766-.96724.16007-1.34615.22598-.75784.7721-1.14673 1.55362-1.14673.67794 0 1.064.2792 1.28056.65812h.00942v-2.45299c0-.05983.03766-.09971.09416-.09971h.60261c.0565 0 .09416.03988.09416.09971v6.5812c0 .05983-.03766.09971-.09416.09971zm-1.79843-.6681c.49904 0 .84743-.24929.99808-.72792.07533-.22934.10358-.51852.10358-.99715s-.02825-.75783-.10358-.99715c-.15065-.47863-.49904-.71795-.99808-.71795s-.83802.24929-.98867.71795c-.07533.25926-.10357.56838-.10357.99715 0 .43875.02824.74786.10357.99715.15065.46866.48963.72792.98867.72792zM42.36259 611c-.90392 0-1.7796-.38889-2.2504-.84758-.03766-.03988-.04708-.09971-.00941-.14957l.4143-.51852c.03766-.04986.08474-.04986.13182-.00997.4143.349 1.05458.698 1.78902.698.8851 0 1.41238-.46866 1.41238-1.15669 0-.57835-.31072-.96724-1.33705-1.10684l-.32014-.04986c-1.2429-.17948-1.88318-.80769-1.88318-1.87464 0-1.20655.81918-1.98433 2.09033-1.98433.75327 0 1.4783.25926 1.94909.6282.04708.0399.0565.08975.01883.1396l-.32014.54844c-.03767.04986-.08475.04986-.13183.01994-.51787-.33903-.99808-.50855-1.5442-.50855-.78152 0-1.21465.44872-1.21465 1.09687 0 .56838.3578.9473 1.34647 1.0869l.31072.04985c1.25232.1795 1.88318.78775 1.88318 1.89459 0 1.18661-.79093 2.04416-2.33514 2.04416zm5.29173 0c-.91334 0-1.56303-.46866-1.80785-1.2963-.09416-.30911-.15065-.65812-.15065-1.20655s.04708-.91738.14124-1.20655c.25423-.82764.91334-1.28633 1.77018-1.28633.86627 0 1.51596.46866 1.7702 1.28633.09415.30911.14123.63817.14123 1.3661 0 .05982-.03766.09971-.10357.09971h-2.85302c-.03766 0-.0565.01994-.0565.05983 0 .25926.02825.4188.07533.57835.1789.54843.58379.82763 1.13933.82763.5367 0 .91334-.22934 1.15815-.52849.04708-.04985.09416-.05983.14124-.01994l.38605.36894c.04708.0399.04708.08975.00942.1396-.3578.47864-.96984.81767-1.76078.81767zm-1.09224-2.91168h2.09033c.03766 0 .0565-.01994.0565-.05983 0-.21937-.01884-.38889-.06592-.53846-.15065-.47863-.52729-.74787-1.03575-.74787-.50845 0-.88509.26924-1.03574.74787-.04708.14957-.06591.31909-.06591.53846 0 .03989.01883.05983.0565.05983zm4.92451 2.802h-.60261c-.0565 0-.09416-.0399-.09416-.09972v-4.57693c0-.05982.03766-.09971.09416-.09971h.60261c.0565 0 .09416.03989.09416.09971v.4886h.00942c.19773-.40882.5932-.698 1.19582-.698.3578 0 .69677.1396.92276.35898.04708.04985.0565.08974.01883.1396l-.3484.4886c-.03765.04986-.08473.05983-.13181.01995-.20715-.1396-.43313-.22935-.69678-.22935-.68736 0-.96984.56838-.96984 1.39601v2.61254c0 .05983-.03766.09971-.09416.09971zm4.90569 0h-.53671c-.06591 0-.09416-.0399-.113-.09972l-1.61953-4.57693c-.01883-.05982.00942-.09971.07533-.09971h.6497c.06591 0 .09416.02991.1224.09971l1.16758 3.4302h.01883l1.13932-3.4302c.01883-.0698.0565-.09971.113-.09971h.64027c.06592 0 .09416.03989.07533.09971l-1.61012 4.57693c-.01883.05983-.0565.09971-.1224.09971zm3.46505-5.85328h-.64029c-.0565 0-.09416-.03989-.09416-.09972v-.72792c0-.05983.03767-.09971.09416-.09971h.64029c.0565 0 .09415.03988.09415.09971v.72792c0 .05983-.03766.09972-.09415.09972zm-.01884 5.85327h-.60261c-.0565 0-.09416-.03988-.09416-.09971v-4.57693c0-.05982.03766-.09971.09416-.09971h.60261c.0565 0 .09416.03989.09416.09971v4.57693c0 .05983-.03766.09971-.09416.09971zm1.3653-2.39316c0-.52849.0565-.91738.14125-1.20655.25423-.82764.91334-1.28633 1.7796-1.28633.68736 0 1.21465.30912 1.5442.8077.02825.04985.02825.08974-.02824.1396l-.4143.35897c-.04708.03989-.09416.03989-.13182-.00997-.26365-.349-.51788-.51852-.96984-.51852-.48963 0-.85685.24929-1.0075.74786-.07533.2493-.10357.54844-.10357.96724 0 .42878.02824.72792.10357.9772.15065.49858.51787.74787 1.0075.74787.45196 0 .7062-.16951.96984-.51852.03766-.04985.08474-.04985.13182-.00997l.4143.35898c.0565.04985.0565.08974.02825.1396-.32956.49857-.85685.80769-1.5442.80769-.86627 0-1.52538-.45869-1.77961-1.28633-.08475-.28917-.14124-.67806-.14124-1.21652zM67.49363 611c-.91335 0-1.56304-.46866-1.80786-1.2963-.09415-.30911-.15065-.65812-.15065-1.20655s.04708-.91738.14124-1.20655c.25423-.82764.91334-1.28633 1.77019-1.28633.86626 0 1.51596.46866 1.77018 1.28633.09416.30911.14124.63817.14124 1.3661 0 .05982-.03766.09971-.10357.09971h-2.85302c-.03766 0-.0565.01994-.0565.05983 0 .25926.02826.4188.07533.57835.1789.54843.58379.82763 1.13933.82763.5367 0 .91334-.22934 1.15815-.52849.04708-.04985.09416-.05983.14124-.01994l.38605.36894c.04708.0399.04708.08975.00942.1396-.3578.47864-.96984.81767-1.76077.81767zm-1.09225-2.91168h2.09033c.03766 0 .0565-.01994.0565-.05983 0-.21937-.01884-.38889-.06592-.53846-.15065-.47863-.52729-.74787-1.03574-.74787-.50846 0-.8851.26924-1.03575.74787-.04708.14957-.06591.31909-.06591.53846 0 .03989.01883.05983.0565.05983zM72.18273 611c-.87568 0-1.49712-.37892-1.86435-.71795-.03766-.03989-.03766-.09971 0-.1396l.38606-.43875c.03766-.03988.09416-.03988.13182 0 .33897.30912.84743.54844 1.39355.54844.65911 0 .98867-.29915.98867-.72792 0-.37892-.16949-.58832-.87568-.6681l-.4802-.04985c-.8851-.09972-1.34648-.56838-1.34648-1.34616 0-.9074.61203-1.45584 1.67603-1.45584.65911 0 1.22406.22935 1.6007.5285.04708.0299.04708.08974.01883.1396l-.32014.42877c-.03766.04986-.08474.04986-.13182.01994-.2919-.19943-.75327-.38889-1.21465-.38889-.56496 0-.85685.26924-.85685.65812 0 .37892.21657.57835.8851.64815l.4708.04986c.91333.08974 1.35588.57835 1.35588 1.34615C74 610.3718 73.35972 611 72.18273 611z" fill="#4C8CA7" fill-rule="nonzero"/></g></svg>