<?xml version="1.0" encoding="UTF-8"?>
<svg width="1400px" height="442px" viewBox="0 0 1400 442" version="1.1" xmlns="http://www.w3.org/2000/svg" xmlns:xlink="http://www.w3.org/1999/xlink">
    <!-- Generator: Sketch 53.2 (72643) - https://sketchapp.com -->
    <title>Clouds</title>
    <desc>Created with Sketch.</desc>
    <defs>
        <linearGradient x1="42.0275122%" y1="-7.21978625%" x2="42.0275122%" y2="87.702923%" id="linearGradient-1">
            <stop stop-color="#009EE1" stop-opacity="0.986947762" offset="0%"></stop>
            <stop stop-color="#009EE1" stop-opacity="0.986413043" offset="22.223999%"></stop>
            <stop stop-color="#E5F3FD" offset="100%"></stop>
        </linearGradient>
        <linearGradient x1="42.0275122%" y1="-7.21978625%" x2="42.0275122%" y2="87.702923%" id="linearGradient-2">
            <stop stop-color="#009EE1" stop-opacity="0.986947762" offset="0%"></stop>
            <stop stop-color="#009EE1" stop-opacity="0.986413043" offset="22.223999%"></stop>
            <stop stop-color="#E5F3FD" offset="100%"></stop>
        </linearGradient>
        <linearGradient x1="42.0275122%" y1="-7.21978625%" x2="42.0275122%" y2="87.702923%" id="linearGradient-3">
            <stop stop-color="#009EE1" stop-opacity="0.986947762" offset="0%"></stop>
            <stop stop-color="#009EE1" stop-opacity="0.986413043" offset="22.223999%"></stop>
            <stop stop-color="#E5F3FD" offset="100%"></stop>
        </linearGradient>
        <linearGradient x1="42.0275122%" y1="-7.21978625%" x2="42.0275122%" y2="87.702923%" id="linearGradient-4">
            <stop stop-color="#009EE1" stop-opacity="0.986947762" offset="0%"></stop>
            <stop stop-color="#009EE1" stop-opacity="0.986413043" offset="22.223999%"></stop>
            <stop stop-color="#E5F3FD" offset="100%"></stop>
        </linearGradient>
        <linearGradient x1="42.0275122%" y1="-7.21978625%" x2="42.0275122%" y2="87.702923%" id="linearGradient-5">
            <stop stop-color="#009EE1" stop-opacity="0.986947762" offset="0%"></stop>
            <stop stop-color="#009EE1" stop-opacity="0.986413043" offset="22.223999%"></stop>
            <stop stop-color="#E5F3FD" offset="100%"></stop>
        </linearGradient>
        <linearGradient x1="42.0275122%" y1="-7.21978625%" x2="42.0275122%" y2="87.702923%" id="linearGradient-6">
            <stop stop-color="#009EE1" stop-opacity="0.986947762" offset="0%"></stop>
            <stop stop-color="#009EE1" stop-opacity="0.986413043" offset="22.223999%"></stop>
            <stop stop-color="#E5F3FD" offset="100%"></stop>
        </linearGradient>
        <linearGradient x1="42.0275122%" y1="-7.21978625%" x2="42.0275122%" y2="87.702923%" id="linearGradient-7">
            <stop stop-color="#009EE1" stop-opacity="0.986947762" offset="0%"></stop>
            <stop stop-color="#009EE1" stop-opacity="0.986413043" offset="22.223999%"></stop>
            <stop stop-color="#E5F3FD" offset="100%"></stop>
        </linearGradient>
        <linearGradient x1="50%" y1="0%" x2="50%" y2="100%" id="linearGradient-8">
            <stop stop-color="#A9DCE5" offset="0%"></stop>
            <stop stop-color="#FFFFFF" offset="100%"></stop>
        </linearGradient>
    </defs>
    <g id="Marketing-Website-V0.7" stroke="none" stroke-width="1" fill="none" fill-rule="evenodd">
        <g id="Desktop-1400px-Airlines-Hotels-&amp;-OTAs-1" transform="translate(0.000000, -2074.000000)">
            <g id="Section-3---PaaS" transform="translate(-28.000000, 1809.000000)">
                <g id="Clouds" transform="translate(0.000000, 265.000000)">
                    <g id="Clouds-Left" opacity="0.1" transform="translate(0.000000, 114.000000)">
                        <path d="M309.292572,212.457801 C303.094339,204.235708 293.619094,198.977228 282.997678,198.977228 C279.026209,198.977228 275.216241,199.714845 271.675932,201.064953 C262.415044,188.8551 248.302748,181.054653 232.49126,181.054653 C194.630411,181.054653 182.031335,235.27031 156.786691,235.27031 L370.845204,235.27031 C350.230759,235.27031 338.891395,211.074571 316.807286,211.074571 C314.171875,211.074571 311.643642,211.565615 309.292572,212.457801" id="Fill-1-Copy-6" fill="url(#linearGradient-1)" opacity="0.861124067"></path>
                        <path d="M455.287292,20.2351293 C459.168538,15.0631676 465.101804,11.7554139 471.752785,11.7554139 C474.239663,11.7554139 476.625412,12.2193989 478.842303,13.0686602 C484.641342,5.38826905 493.478263,0.481536189 503.379195,0.481536189 C527.087127,0.481536189 534.976491,34.5849335 550.784333,34.5849335 L416.743898,34.5849335 C429.652374,34.5849335 436.752925,19.3650333 450.581683,19.3650333 C452.231941,19.3650333 453.815085,19.6739157 455.287292,20.2351293 Z" id="Fill-1-Copy-7" fill="url(#linearGradient-2)" opacity="0.831331623"></path>
                        <path d="M458.656772,153.766206 C463.26932,153.766206 467.694297,154.658485 471.806087,156.29168 C482.561879,141.521697 498.952198,132.085672 517.315995,132.085672 C561.288388,132.085672 575.921221,197.669129 605.240886,197.669129 L356.628794,197.669129 C380.570847,197.669129 393.740625,168.40009 419.389576,168.40009 C422.450399,168.40009 425.386742,168.994094 428.117325,170.073351 C435.316083,160.127271 446.320834,153.766206 458.656772,153.766206 Z" id="Fill-1-Copy-8" fill="url(#linearGradient-3)"></path>
                        <path d="M337.411676,271.017841 C340.086954,271.017841 342.65344,271.535363 345.038278,272.482616 C351.276638,263.916026 360.783023,258.443131 371.434025,258.443131 C396.938013,258.443131 405.425056,296.481536 422.430462,296.481536 L278.235449,296.481536 C292.121839,296.481536 299.76031,279.505494 314.636702,279.505494 C316.411979,279.505494 318.115058,279.850016 319.698797,280.475985 C323.874076,274.707259 330.256832,271.017841 337.411676,271.017841 Z" id="Fill-1-Copy-8" fill="url(#linearGradient-4)"></path>
                        <path d="M538.462837,265.492928 C541.266227,265.492928 543.955616,265.945016 546.454658,266.772501 C552.991756,259.289043 562.953376,254.508124 574.114427,254.508124 C600.839732,254.508124 609.733197,287.737075 627.552946,287.737075 L476.452819,287.737075 C491.004192,287.737075 499.008449,272.907429 514.597232,272.907429 C516.457522,272.907429 518.242157,273.208391 519.901736,273.755215 C524.276959,268.715868 530.965367,265.492928 538.462837,265.492928" id="Fill-1-Copy-10" fill="url(#linearGradient-5)" opacity="0.350536381"></path>
                        <path d="M121.990943,257.463927 C129.488413,257.463927 136.176821,261.153344 140.552044,266.922071 C142.211623,266.296102 143.996258,265.951579 145.856548,265.951579 C161.445331,265.951579 169.449588,282.927622 184.000961,282.927622 L32.9008341,282.927622 C50.7205831,282.927622 59.6140483,244.889217 86.3393536,244.889217 C97.5004038,244.889217 107.462025,250.362111 113.999122,258.928702 C116.498164,257.981449 119.187553,257.463927 121.990943,257.463927 Z" id="Fill-1-Copy-8" fill="url(#linearGradient-6)"></path>
                        <path d="M216.977523,102.376264 C210.149912,102.376264 203.599948,103.708734 197.513573,106.147638 C181.592577,84.0911303 157.33121,70 130.148653,70 C65.0596025,70 43.3997113,167.937962 0,167.937962 L368.001922,167.937962 C332.562288,167.937962 313.068049,124.22953 275.101821,124.22953 C270.571114,124.22953 266.224664,125.116577 262.182786,126.728267 C251.527001,111.875454 235.237491,102.376264 216.977523,102.376264 Z" id="Fill-1-Copy-10" fill="url(#linearGradient-7)"></path>
                    </g>
                    <g id="Clouds-Right" opacity="0.1" transform="translate(829.000000, 115.000000)">
                        <path d="M309.292572,212.457801 C303.094339,204.235708 293.619094,198.977228 282.997678,198.977228 C279.026209,198.977228 275.216241,199.714845 271.675932,201.064953 C262.415044,188.8551 248.302748,181.054653 232.49126,181.054653 C194.630411,181.054653 182.031335,235.27031 156.786691,235.27031 L370.845204,235.27031 C350.230759,235.27031 338.891395,211.074571 316.807286,211.074571 C314.171875,211.074571 311.643642,211.565615 309.292572,212.457801" id="Fill-1-Copy-6" fill="url(#linearGradient-1)" opacity="0.861124067"></path>
                        <path d="M455.287292,20.2351293 C459.168538,15.0631676 465.101804,11.7554139 471.752785,11.7554139 C474.239663,11.7554139 476.625412,12.2193989 478.842303,13.0686602 C484.641342,5.38826905 493.478263,0.481536189 503.379195,0.481536189 C527.087127,0.481536189 534.976491,34.5849335 550.784333,34.5849335 L416.743898,34.5849335 C429.652374,34.5849335 436.752925,19.3650333 450.581683,19.3650333 C452.231941,19.3650333 453.815085,19.6739157 455.287292,20.2351293 Z" id="Fill-1-Copy-7" fill="url(#linearGradient-2)" opacity="0.831331623"></path>
                        <path d="M458.656772,153.766206 C463.26932,153.766206 467.694297,154.658485 471.806087,156.29168 C482.561879,141.521697 498.952198,132.085672 517.315995,132.085672 C561.288388,132.085672 575.921221,197.669129 605.240886,197.669129 L356.628794,197.669129 C380.570847,197.669129 393.740625,168.40009 419.389576,168.40009 C422.450399,168.40009 425.386742,168.994094 428.117325,170.073351 C435.316083,160.127271 446.320834,153.766206 458.656772,153.766206 Z" id="Fill-1-Copy-8" fill="url(#linearGradient-3)"></path>
                        <path d="M337.411676,271.017841 C340.086954,271.017841 342.65344,271.535363 345.038278,272.482616 C351.276638,263.916026 360.783023,258.443131 371.434025,258.443131 C396.938013,258.443131 405.425056,296.481536 422.430462,296.481536 L278.235449,296.481536 C292.121839,296.481536 299.76031,279.505494 314.636702,279.505494 C316.411979,279.505494 318.115058,279.850016 319.698797,280.475985 C323.874076,274.707259 330.256832,271.017841 337.411676,271.017841 Z" id="Fill-1-Copy-8" fill="url(#linearGradient-4)"></path>
                        <path d="M538.462837,265.492928 C541.266227,265.492928 543.955616,265.945016 546.454658,266.772501 C552.991756,259.289043 562.953376,254.508124 574.114427,254.508124 C600.839732,254.508124 609.733197,287.737075 627.552946,287.737075 L476.452819,287.737075 C491.004192,287.737075 499.008449,272.907429 514.597232,272.907429 C516.457522,272.907429 518.242157,273.208391 519.901736,273.755215 C524.276959,268.715868 530.965367,265.492928 538.462837,265.492928" id="Fill-1-Copy-10" fill="url(#linearGradient-5)" opacity="0.350536381"></path>
                        <path d="M121.990943,257.463927 C129.488413,257.463927 136.176821,261.153344 140.552044,266.922071 C142.211623,266.296102 143.996258,265.951579 145.856548,265.951579 C161.445331,265.951579 169.449588,282.927622 184.000961,282.927622 L32.9008341,282.927622 C50.7205831,282.927622 59.6140483,244.889217 86.3393536,244.889217 C97.5004038,244.889217 107.462025,250.362111 113.999122,258.928702 C116.498164,257.981449 119.187553,257.463927 121.990943,257.463927 Z" id="Fill-1-Copy-8" fill="url(#linearGradient-6)"></path>
                        <path d="M216.977523,102.376264 C210.149912,102.376264 203.599948,103.708734 197.513573,106.147638 C181.592577,84.0911303 157.33121,70 130.148653,70 C65.0596025,70 43.3997113,167.937962 0,167.937962 L368.001922,167.937962 C332.562288,167.937962 313.068049,124.22953 275.101821,124.22953 C270.571114,124.22953 266.224664,125.116577 262.182786,126.728267 C251.527001,111.875454 235.237491,102.376264 216.977523,102.376264 Z" id="Fill-1-Copy-10" fill="url(#linearGradient-7)"></path>
                    </g>
                    <path d="M498,441.996322 C422.797288,441.443027 362,378.528796 362,301 C362,223.12785 423.336989,160 499,160 C502.275763,160 505.524674,160.118326 508.742917,160.351051 C524.214827,69.3086732 603.284428,0 698.5,0 C782.577941,0 854.066271,54.0425415 880.293103,129.370876 C890.133675,127.810302 900.221978,127 910.498358,127 C996.182556,127 1068.7914,183.333702 1093.74389,261.202992 C1136.43553,268.245397 1169,305.360977 1169,350.09 C1169,399.845333 1128.70563,442 1079,442 C1078.66624,442 1078.3329,441.998099 1078,441.994308 L498,442 Z" id="Large-Cloud" fill="url(#linearGradient-8)" opacity="0.4"></path>
                </g>
            </g>
        </g>
    </g>
</svg>