<?xml version="1.0" encoding="UTF-8"?>
<svg width="859px" height="490px" viewBox="0 0 859 490" version="1.1" xmlns="http://www.w3.org/2000/svg" xmlns:xlink="http://www.w3.org/1999/xlink">
    <!-- Generator: Sketch 53.2 (72643) - https://sketchapp.com -->
    <title>PaaS Image Mobile</title>
    <desc>Created with Sketch.</desc>
    <defs>
        <linearGradient x1="42.0275122%" y1="-7.21978625%" x2="42.0275122%" y2="87.702923%" id="linearGradient-1">
            <stop stop-color="#009EE1" stop-opacity="0.986947762" offset="0%"></stop>
            <stop stop-color="#009EE1" stop-opacity="0.986413043" offset="22.223999%"></stop>
            <stop stop-color="#E5F3FD" offset="100%"></stop>
        </linearGradient>
        <linearGradient x1="42.0275122%" y1="-7.21978625%" x2="42.0275122%" y2="87.702923%" id="linearGradient-2">
            <stop stop-color="#009EE1" stop-opacity="0.986947762" offset="0%"></stop>
            <stop stop-color="#009EE1" stop-opacity="0.986413043" offset="22.223999%"></stop>
            <stop stop-color="#E5F3FD" offset="100%"></stop>
        </linearGradient>
        <linearGradient x1="42.0275122%" y1="-7.21978625%" x2="42.0275122%" y2="87.702923%" id="linearGradient-3">
            <stop stop-color="#009EE1" stop-opacity="0.986947762" offset="0%"></stop>
            <stop stop-color="#009EE1" stop-opacity="0.986413043" offset="22.223999%"></stop>
            <stop stop-color="#E5F3FD" offset="100%"></stop>
        </linearGradient>
        <linearGradient x1="42.0275122%" y1="-7.21978625%" x2="42.0275122%" y2="87.702923%" id="linearGradient-4">
            <stop stop-color="#009EE1" stop-opacity="0.986947762" offset="0%"></stop>
            <stop stop-color="#009EE1" stop-opacity="0.986413043" offset="22.223999%"></stop>
            <stop stop-color="#E5F3FD" offset="100%"></stop>
        </linearGradient>
        <linearGradient x1="42.0275122%" y1="-7.21978625%" x2="42.0275122%" y2="87.702923%" id="linearGradient-5">
            <stop stop-color="#009EE1" stop-opacity="0.986947762" offset="0%"></stop>
            <stop stop-color="#009EE1" stop-opacity="0.986413043" offset="22.223999%"></stop>
            <stop stop-color="#E5F3FD" offset="100%"></stop>
        </linearGradient>
        <linearGradient x1="42.0275122%" y1="-7.21978625%" x2="42.0275122%" y2="87.702923%" id="linearGradient-6">
            <stop stop-color="#009EE1" stop-opacity="0.986947762" offset="0%"></stop>
            <stop stop-color="#009EE1" stop-opacity="0.986413043" offset="22.223999%"></stop>
            <stop stop-color="#E5F3FD" offset="100%"></stop>
        </linearGradient>
        <linearGradient x1="42.0275122%" y1="-7.21978625%" x2="42.0275122%" y2="87.702923%" id="linearGradient-7">
            <stop stop-color="#009EE1" stop-opacity="0.986947762" offset="0%"></stop>
            <stop stop-color="#009EE1" stop-opacity="0.986413043" offset="22.223999%"></stop>
            <stop stop-color="#E5F3FD" offset="100%"></stop>
        </linearGradient>
        <linearGradient x1="50%" y1="0%" x2="50%" y2="100%" id="linearGradient-8">
            <stop stop-color="#A9DCE5" offset="0%"></stop>
            <stop stop-color="#FFFFFF" offset="100%"></stop>
        </linearGradient>
    </defs>
    <g id="Marketing-Website-V0.9" stroke="none" stroke-width="1" fill="none" fill-rule="evenodd">
        <g id="PaaS-Image-Mobile">
            <g id="Group-12">
                <g id="Group-11">
                    <g id="Group">
                        <g id="Clouds" transform="translate(226.000000, 0.000000)" opacity="0.1">
                            <g id="Clouds-Left" transform="translate(0.000000, 0.316742)">
                                <path d="M182.366947,125.455851 C178.712308,120.600723 173.125457,117.495603 166.862794,117.495603 C164.521112,117.495603 162.274656,117.931164 160.187198,118.7284 C154.726737,111.518509 146.40576,106.912363 137.082896,106.912363 C114.759154,106.912363 107.330411,138.926586 92.4455119,138.926586 L218.65998,138.926586 C206.505167,138.926586 199.819183,124.639057 186.797818,124.639057 C185.243911,124.639057 183.753199,124.929017 182.366947,125.455851" id="Fill-1-Copy-6" fill="url(#linearGradient-1)" opacity="0.861124067"></path>
                                <path d="M268.449233,11.9487981 C270.737716,8.8947664 274.236124,6.9415453 278.157716,6.9415453 C279.624044,6.9415453 281.030743,7.21552742 282.33788,7.7170143 C285.757144,3.18176068 290.967623,0.28434603 296.80547,0.28434603 C310.784283,0.28434603 315.436058,20.422325 324.756773,20.422325 L245.723045,20.422325 C253.334218,20.422325 257.520887,11.4350083 265.674683,11.4350083 C266.647718,11.4350083 267.581181,11.6174027 268.449233,11.9487981 Z" id="Fill-1-Copy-7" fill="url(#linearGradient-2)" opacity="0.831331623"></path>
                                <path d="M270.435965,90.7985968 C273.155644,90.7985968 275.764725,91.3254855 278.189144,92.2898834 C284.531038,83.5682418 294.195197,77.9962905 305.02297,77.9962905 C330.950236,77.9962905 339.578136,116.723173 356.865773,116.723173 L210.277615,116.723173 C224.394473,116.723173 232.159716,99.4398719 247.283005,99.4398719 C249.087746,99.4398719 250.81909,99.7906303 252.429113,100.427929 C256.673688,94.5547912 263.162375,90.7985968 270.435965,90.7985968 Z" id="Fill-1-Copy-8" fill="url(#linearGradient-3)"></path>
                                <path d="M198.946702,160.035422 C200.524116,160.035422 202.037383,160.341018 203.443546,160.900368 C207.121845,155.841816 212.727057,152.610084 219.007165,152.610084 C234.044979,152.610084 239.049161,175.071676 249.075991,175.071676 L164.054859,175.071676 C172.242637,175.071676 176.746478,165.047362 185.517986,165.047362 C186.564735,165.047362 187.568915,165.250801 188.502728,165.620435 C190.964582,162.214015 194.72802,160.035422 198.946702,160.035422 Z" id="Fill-1-Copy-8" fill="url(#linearGradient-4)"></path>
                                <path d="M317.491698,156.772973 C319.14465,156.772973 320.730383,157.03993 322.203883,157.528558 C326.058326,153.109593 331.931957,150.286471 338.512802,150.286471 C354.270738,150.286471 359.514556,169.908092 370.021544,169.908092 L280.928978,169.908092 C289.508846,169.908092 294.228364,161.151219 303.419916,161.151219 C304.516791,161.151219 305.569059,161.328937 306.54759,161.651835 C309.127335,158.676112 313.070994,156.772973 317.491698,156.772973" id="Fill-1-Copy-10" fill="url(#linearGradient-5)" opacity="0.350536381"></path>
                                <path d="M71.9290336,152.031866 C76.3497372,152.031866 80.2933967,154.210459 82.8731419,157.616879 C83.851673,157.247246 84.9039402,157.043806 86.0008157,157.043806 C95.1923675,157.043806 99.9118856,167.068121 108.491754,167.068121 L19.3991877,167.068121 C29.9061754,167.068121 35.1499939,144.606529 50.9079292,144.606529 C57.4887747,144.606529 63.3624055,147.83826 67.2168484,152.896813 C68.6903483,152.337462 70.276082,152.031866 71.9290336,152.031866 Z" id="Fill-1-Copy-8" fill="url(#linearGradient-6)"></path>
                                <path d="M127.935592,60.4529524 C123.909855,60.4529524 120.047827,61.2397728 116.459141,62.6799403 C107.071708,49.6556222 92.7665748,41.3348416 76.7390316,41.3348416 C38.3608343,41.3348416 25.5895989,99.1669864 0,99.1669864 L216.983507,99.1669864 C196.087377,99.1669864 184.593067,73.3572565 162.207191,73.3572565 C159.535768,73.3572565 156.972988,73.8810557 154.589792,74.8327551 C148.306864,66.0622027 138.702145,60.4529524 127.935592,60.4529524 Z" id="Fill-1-Copy-10" fill="url(#linearGradient-7)"></path>
                            </g>
                        </g>
                        <g id="Clouds-Copy-2" transform="translate(0.000000, 229.000000)">
                            <g id="Clouds-Left" opacity="0.1" transform="translate(0.000000, 67.316742)">
                                <path d="M182.366947,125.455851 C178.712308,120.600723 173.125457,117.495603 166.862794,117.495603 C164.521112,117.495603 162.274656,117.931164 160.187198,118.7284 C154.726737,111.518509 146.40576,106.912363 137.082896,106.912363 C114.759154,106.912363 107.330411,138.926586 92.4455119,138.926586 L218.65998,138.926586 C206.505167,138.926586 199.819183,124.639057 186.797818,124.639057 C185.243911,124.639057 183.753199,124.929017 182.366947,125.455851" id="Fill-1-Copy-6" fill="url(#linearGradient-1)" opacity="0.861124067"></path>
                                <path d="M268.449233,11.9487981 C270.737716,8.8947664 274.236124,6.9415453 278.157716,6.9415453 C279.624044,6.9415453 281.030743,7.21552742 282.33788,7.7170143 C285.757144,3.18176068 290.967623,0.28434603 296.80547,0.28434603 C310.784283,0.28434603 315.436058,20.422325 324.756773,20.422325 L245.723045,20.422325 C253.334218,20.422325 257.520887,11.4350083 265.674683,11.4350083 C266.647718,11.4350083 267.581181,11.6174027 268.449233,11.9487981 Z" id="Fill-1-Copy-7" fill="url(#linearGradient-2)" opacity="0.831331623"></path>
                                <path d="M270.435965,90.7985968 C273.155644,90.7985968 275.764725,91.3254855 278.189144,92.2898834 C284.531038,83.5682418 294.195197,77.9962905 305.02297,77.9962905 C330.950236,77.9962905 339.578136,116.723173 356.865773,116.723173 L210.277615,116.723173 C224.394473,116.723173 232.159716,99.4398719 247.283005,99.4398719 C249.087746,99.4398719 250.81909,99.7906303 252.429113,100.427929 C256.673688,94.5547912 263.162375,90.7985968 270.435965,90.7985968 Z" id="Fill-1-Copy-8" fill="url(#linearGradient-3)"></path>
                                <path d="M198.946702,160.035422 C200.524116,160.035422 202.037383,160.341018 203.443546,160.900368 C207.121845,155.841816 212.727057,152.610084 219.007165,152.610084 C234.044979,152.610084 239.049161,175.071676 249.075991,175.071676 L164.054859,175.071676 C172.242637,175.071676 176.746478,165.047362 185.517986,165.047362 C186.564735,165.047362 187.568915,165.250801 188.502728,165.620435 C190.964582,162.214015 194.72802,160.035422 198.946702,160.035422 Z" id="Fill-1-Copy-8" fill="url(#linearGradient-4)"></path>
                                <path d="M317.491698,156.772973 C319.14465,156.772973 320.730383,157.03993 322.203883,157.528558 C326.058326,153.109593 331.931957,150.286471 338.512802,150.286471 C354.270738,150.286471 359.514556,169.908092 370.021544,169.908092 L280.928978,169.908092 C289.508846,169.908092 294.228364,161.151219 303.419916,161.151219 C304.516791,161.151219 305.569059,161.328937 306.54759,161.651835 C309.127335,158.676112 313.070994,156.772973 317.491698,156.772973" id="Fill-1-Copy-10" fill="url(#linearGradient-5)" opacity="0.350536381"></path>
                                <path d="M71.9290336,152.031866 C76.3497372,152.031866 80.2933967,154.210459 82.8731419,157.616879 C83.851673,157.247246 84.9039402,157.043806 86.0008157,157.043806 C95.1923675,157.043806 99.9118856,167.068121 108.491754,167.068121 L19.3991877,167.068121 C29.9061754,167.068121 35.1499939,144.606529 50.9079292,144.606529 C57.4887747,144.606529 63.3624055,147.83826 67.2168484,152.896813 C68.6903483,152.337462 70.276082,152.031866 71.9290336,152.031866 Z" id="Fill-1-Copy-8" fill="url(#linearGradient-6)"></path>
                                <path d="M127.935592,60.4529524 C123.909855,60.4529524 120.047827,61.2397728 116.459141,62.6799403 C107.071708,49.6556222 92.7665748,41.3348416 76.7390316,41.3348416 C38.3608343,41.3348416 25.5895989,99.1669864 0,99.1669864 L216.983507,99.1669864 C196.087377,99.1669864 184.593067,73.3572565 162.207191,73.3572565 C159.535768,73.3572565 156.972988,73.8810557 154.589792,74.8327551 C148.306864,66.0622027 138.702145,60.4529524 127.935592,60.4529524 Z" id="Fill-1-Copy-10" fill="url(#linearGradient-7)"></path>
                            </g>
                            <g id="Clouds-Right" opacity="0.1" transform="translate(488.799968, 67.907240)">
                                <path d="M182.366947,125.455851 C178.712308,120.600723 173.125457,117.495603 166.862794,117.495603 C164.521112,117.495603 162.274656,117.931164 160.187198,118.7284 C154.726737,111.518509 146.40576,106.912363 137.082896,106.912363 C114.759154,106.912363 107.330411,138.926586 92.4455119,138.926586 L218.65998,138.926586 C206.505167,138.926586 199.819183,124.639057 186.797818,124.639057 C185.243911,124.639057 183.753199,124.929017 182.366947,125.455851" id="Fill-1-Copy-6" fill="url(#linearGradient-1)" opacity="0.861124067"></path>
                                <path d="M268.449233,11.9487981 C270.737716,8.8947664 274.236124,6.9415453 278.157716,6.9415453 C279.624044,6.9415453 281.030743,7.21552742 282.33788,7.7170143 C285.757144,3.18176068 290.967623,0.28434603 296.80547,0.28434603 C310.784283,0.28434603 315.436058,20.422325 324.756773,20.422325 L245.723045,20.422325 C253.334218,20.422325 257.520887,11.4350083 265.674683,11.4350083 C266.647718,11.4350083 267.581181,11.6174027 268.449233,11.9487981 Z" id="Fill-1-Copy-7" fill="url(#linearGradient-2)" opacity="0.831331623"></path>
                                <path d="M270.435965,90.7985968 C273.155644,90.7985968 275.764725,91.3254855 278.189144,92.2898834 C284.531038,83.5682418 294.195197,77.9962905 305.02297,77.9962905 C330.950236,77.9962905 339.578136,116.723173 356.865773,116.723173 L210.277615,116.723173 C224.394473,116.723173 232.159716,99.4398719 247.283005,99.4398719 C249.087746,99.4398719 250.81909,99.7906303 252.429113,100.427929 C256.673688,94.5547912 263.162375,90.7985968 270.435965,90.7985968 Z" id="Fill-1-Copy-8" fill="url(#linearGradient-3)"></path>
                                <path d="M198.946702,160.035422 C200.524116,160.035422 202.037383,160.341018 203.443546,160.900368 C207.121845,155.841816 212.727057,152.610084 219.007165,152.610084 C234.044979,152.610084 239.049161,175.071676 249.075991,175.071676 L164.054859,175.071676 C172.242637,175.071676 176.746478,165.047362 185.517986,165.047362 C186.564735,165.047362 187.568915,165.250801 188.502728,165.620435 C190.964582,162.214015 194.72802,160.035422 198.946702,160.035422 Z" id="Fill-1-Copy-8" fill="url(#linearGradient-4)"></path>
                                <path d="M317.491698,156.772973 C319.14465,156.772973 320.730383,157.03993 322.203883,157.528558 C326.058326,153.109593 331.931957,150.286471 338.512802,150.286471 C354.270738,150.286471 359.514556,169.908092 370.021544,169.908092 L280.928978,169.908092 C289.508846,169.908092 294.228364,161.151219 303.419916,161.151219 C304.516791,161.151219 305.569059,161.328937 306.54759,161.651835 C309.127335,158.676112 313.070994,156.772973 317.491698,156.772973" id="Fill-1-Copy-10" fill="url(#linearGradient-5)" opacity="0.350536381"></path>
                                <path d="M71.9290336,152.031866 C76.3497372,152.031866 80.2933967,154.210459 82.8731419,157.616879 C83.851673,157.247246 84.9039402,157.043806 86.0008157,157.043806 C95.1923675,157.043806 99.9118856,167.068121 108.491754,167.068121 L19.3991877,167.068121 C29.9061754,167.068121 35.1499939,144.606529 50.9079292,144.606529 C57.4887747,144.606529 63.3624055,147.83826 67.2168484,152.896813 C68.6903483,152.337462 70.276082,152.031866 71.9290336,152.031866 Z" id="Fill-1-Copy-8" fill="url(#linearGradient-6)"></path>
                                <path d="M127.935592,60.4529524 C123.909855,60.4529524 120.047827,61.2397728 116.459141,62.6799403 C107.071708,49.6556222 92.7665748,41.3348416 76.7390316,41.3348416 C38.3608343,41.3348416 25.5895989,99.1669864 0,99.1669864 L216.983507,99.1669864 C196.087377,99.1669864 184.593067,73.3572565 162.207191,73.3572565 C159.535768,73.3572565 156.972988,73.8810557 154.589792,74.8327551 C148.306864,66.0622027 138.702145,60.4529524 127.935592,60.4529524 Z" id="Fill-1-Copy-10" fill="url(#linearGradient-7)"></path>
                            </g>
                            <path d="M293.633756,260.997828 C249.292281,260.671109 213.444618,223.520398 213.444618,177.739819 C213.444618,131.756491 249.610503,94.479638 294.223382,94.479638 C296.154857,94.479638 298.070499,94.549509 299.968058,94.6869324 C309.0907,40.9266147 355.712194,0 411.853773,0 C461.428314,0 503.579693,31.9119985 519.043716,76.3932096 C524.845973,75.4716943 530.794299,74.9932127 536.85352,74.9932127 C587.375153,74.9932127 630.187218,108.258136 644.899854,154.239776 C670.071956,158.398299 689.272814,180.314965 689.272814,206.727353 C689.272814,236.107765 665.514203,261 636.206472,261 C636.009678,261 635.813134,260.998878 635.616846,260.996639 L293.633756,261 Z" id="Large-Cloud" fill="url(#linearGradient-8)" opacity="0.4"></path>
                        </g>
                    </g>
                </g>
            </g>
        </g>
    </g>
</svg>