<?xml version="1.0" encoding="UTF-8"?>
<svg width="378px" height="378px" viewBox="0 0 378 378" version="1.1" xmlns="http://www.w3.org/2000/svg" xmlns:xlink="http://www.w3.org/1999/xlink">
    <!-- Generator: Sketch 53.2 (72643) - https://sketchapp.com -->
    <title>Post-Booking-Changes</title>
    <desc>Created with Sketch.</desc>
    <defs>
        <linearGradient x1="50%" y1="0%" x2="50%" y2="100%" id="linearGradient-1">
            <stop stop-color="#FDFFFE" offset="0%"></stop>
            <stop stop-color="#D8D8D8" offset="100%"></stop>
        </linearGradient>
        <circle id="path-2" cx="189" cy="189" r="189"></circle>
        <radialGradient cx="68.4781541%" cy="50%" fx="68.4781541%" fy="50%" r="86.5501582%" gradientTransform="translate(0.684782,0.500000),scale(0.789269,1.000000),rotate(148.611381),scale(1.000000,0.370667),translate(-0.684782,-0.500000)" id="radialGradient-4">
            <stop stop-color="#774021" offset="0%"></stop>
            <stop stop-color="#E1BAAC" offset="100%"></stop>
        </radialGradient>
        <linearGradient x1="50%" y1="100%" x2="50%" y2="3.061617e-15%" id="linearGradient-5">
            <stop stop-color="#000000" offset="0%"></stop>
            <stop stop-color="#3E3E3E" offset="100%"></stop>
        </linearGradient>
        <linearGradient x1="42.5841286%" y1="2.11968097%" x2="50.5810309%" y2="96.9025197%" id="linearGradient-6">
            <stop stop-color="#F9F9F9" offset="0%"></stop>
            <stop stop-color="#D2D2D2" offset="100%"></stop>
        </linearGradient>
        <polygon id="path-7" points="132 82 248 85 244.75 120.280273 129 115.280273"></polygon>
    </defs>
    <g id="Website" stroke="none" stroke-width="1" fill="none" fill-rule="evenodd">
        <g id="Artboard-Copy" transform="translate(-149.000000, -1457.000000)">
            <g id="Post-Booking-Changes" transform="translate(149.000000, 1457.000000)">
                <g id="Group-5-Copy">
                    <mask id="mask-3" fill="white">
                        <use xlink:href="#path-2"></use>
                    </mask>
                    <use id="Mask" fill="url(#linearGradient-1)" xlink:href="#path-2"></use>
                    <g id="Group-5" mask="url(#mask-3)">
                        <g transform="translate(-199.000000, 51.000000)" id="Group">
                            <g>
                                <path d="M-1.98951966e-13,428 C92,352 145.666667,305 161,287 C184,260 211,244 218,236 C225,228 221,231 225,216 C227.666667,206 233,186.666667 241,158 C243,145.333333 247,134.666667 253,126 C259,117.333333 265,106.666667 271,94 C274.333333,86 279.666667,79.3333333 287,74 C294.333333,68.6666667 297,66 295,66 C301.666667,51.3333333 307,44 311,44 C317,44 323,50 323,53 C323,56 325,84 309,108 C305.666667,123.620253 302.666667,133.953586 300,139 C343.333333,108.333333 372.333333,91.6666667 387,89 C409,85 456,86 476,97 C489.333333,104.333333 490,112 478,120 C474,122.666667 468,124.666667 460,126 C467.333333,126.666667 473,131 477,139 C481,147 478.333333,156 469,166 C481.666667,178 481.666667,189.666667 469,201 C476.333333,212.333333 474,222 462,230 C436.666667,241.333333 418.666667,251.333333 408,260 C392,273 318,326 277,336 C257,354 231.666667,384.666667 201,428 L-1.98951966e-13,428 Z" id="Path-11" fill="url(#radialGradient-4)"></path>
                                <path d="M452.10493,9.15591556 C456.209948,12.3481325 458.802783,17.3760342 458.674583,22.9741041 C458.667629,23.2777536 458.652539,23.5811621 458.629328,23.884003 L440.286917,263.208792 C439.574218,272.507821 431.50274,279.496453 422.197404,278.871467 L322.343456,272.164859 C317.307757,271.82664 312.931985,269.328406 310.059535,265.635 C305.749418,262.284069 303.127507,256.920954 303.520895,251.063849 C303.529345,250.938045 303.539194,250.812339 303.55044,250.686753 L324.581187,15.8434065 C325.379563,6.92820879 332.954111,0.159254445 341.902639,0.364182574 L439.06825,2.58934923 C444.385237,2.71111229 449.076047,5.2614012 452.10493,9.15591556 Z" id="Combined-Shape" fill="url(#linearGradient-5)"></path>
                                <path d="M341.902639,0.364182574 L439.06825,2.58934923 C448.454629,2.80430449 455.889538,10.5877244 455.674583,19.9741041 C455.667629,20.2777536 455.652539,20.5811621 455.629328,20.884003 L437.286917,260.208792 C436.574218,269.507821 428.50274,276.496453 419.197404,275.871467 L319.343456,269.164859 C309.975721,268.535683 302.891719,260.431585 303.520895,251.063849 C303.529345,250.938045 303.539194,250.812339 303.55044,250.686753 L324.581187,15.8434065 C325.379563,6.92820879 332.954111,0.159254445 341.902639,0.364182574 Z" id="Rectangle" fill="url(#linearGradient-6)"></path>
                                <path d="M331.454905,31.511932 L312.544937,236.535797 L429.541262,244.467751 L446.459209,34.4861812 L331.454905,31.511932 Z" id="Rectangle" stroke="#000000"></path>
                                <circle id="Oval" fill="#000000" cx="391.5" cy="8.5" r="1.5"></circle>
                                <circle id="Oval-Copy" fill="#000000" cx="370.5" cy="17.5" r="2.5"></circle>
                                <path d="M380,17.5 L401,18" id="Line" stroke="#000000" stroke-width="2" stroke-linecap="round"></path>
                            </g>
                        </g>
                    </g>
                </g>
                <mask id="mask-8" fill="white">
                    <use xlink:href="#path-7"></use>
                </mask>
                <use id="Mask" fill="#02637B" xlink:href="#path-7"></use>
                <path d="M133.998218,140.103387 L157.103387,140.900117 C158.71904,140.955829 160,142.281721 160,143.898335 L160,144 C160,145.600706 158.702371,146.898335 157.101665,146.898335 C157.068363,146.898335 157.035064,146.897761 157.001782,146.896613 L133.896613,146.099883 C132.28096,146.044171 131,144.718279 131,143.101665 L131,143 C131,141.399294 132.297629,140.101665 133.898335,140.101665 C133.931637,140.101665 133.964936,140.102239 133.998218,140.103387 Z" id="Rectangle-Copy-10" fill="#4A4A4A"></path>
                <g id="Group-6" transform="translate(129.211625, 129.844312)">
                    <path d="M3.66640995,0.00186543418 L108.662398,4.50411326 C109.765954,4.55143393 110.622201,5.48440332 110.57488,6.58795873 C110.573111,6.62923294 110.570062,6.6704424 110.56574,6.71152781 L108.985046,21.7367429 C108.874512,22.7874226 107.965849,23.5709164 106.910341,23.525656 L1.9143528,19.0234082 C0.810797396,18.9760875 -0.0454500412,18.0431181 0.00187062328,16.9395627 C0.0036404692,16.8982885 0.00668873456,16.8570791 0.0110110319,16.8159936 L1.5917049,1.79077853 C1.70223928,0.740098871 2.61090197,-0.0433949477 3.66640995,0.00186543418 Z" id="Rectangle-Copy-9" fill="#FFFFFF"></path>
                    <path d="M5.11134759,3.26897772 L106.465403,7.59737348 C107.205018,7.62895923 107.788375,8.23776123 107.788375,8.97804988 L107.788375,8.97804988 C107.788375,9.67880808 107.220299,10.2468848 106.519541,10.2468848 C106.501489,10.2468848 106.483439,10.2464996 106.465403,10.2457294 L5.11134759,5.91733363 C4.37173308,5.88574787 3.78837549,5.27694587 3.78837549,4.53665723 L3.78837549,4.53665723 C3.78837549,3.83589903 4.35645225,3.26782226 5.05721045,3.26782226 C5.07526233,3.26782226 5.09331215,3.2682075 5.11134759,3.26897772 Z" id="Rectangle-Copy-11" fill="#9B9B9B"></path>
                    <path d="M5.11134759,8.26897772 L106.465403,12.5973735 C107.205018,12.6289592 107.788375,13.2377612 107.788375,13.9780499 L107.788375,13.9780499 C107.788375,14.6788081 107.220299,15.2468848 106.519541,15.2468848 C106.501489,15.2468848 106.483439,15.2464996 106.465403,15.2457294 L5.11134759,10.9173336 C4.37173308,10.8857479 3.78837549,10.2769459 3.78837549,9.53665723 L3.78837549,9.53665723 C3.78837549,8.83589903 4.35645225,8.26782226 5.05721045,8.26782226 C5.07526233,8.26782226 5.09331215,8.2682075 5.11134759,8.26897772 Z" id="Rectangle-Copy-12" fill="#9B9B9B"></path>
                    <path d="M5.11103882,13.2757958 L53.4657122,15.5905554 C54.2062119,15.6260035 54.7883755,16.2367022 54.7883755,16.9780499 L54.7883755,16.9780499 C54.7883755,17.6752019 54.2232221,18.2403552 53.5260702,18.2403552 C53.5059422,18.2403552 53.4858171,18.2398738 53.4657122,18.2389113 L5.11103882,15.9241517 C4.3705391,15.8887036 3.78837549,15.2780049 3.78837549,14.5366572 L3.78837549,14.5366572 C3.78837549,13.8395052 4.35352883,13.2743519 5.05068082,13.2743519 C5.07080878,13.2743519 5.09093387,13.2748333 5.11103882,13.2757958 Z" id="Rectangle-Copy-13" fill="#9B9B9B"></path>
                </g>
                <g id="Group-6-Copy-2" transform="translate(124.000000, 190.742646)">
                    <path d="M3.66640995,0.00186543418 L108.662398,4.50411326 C109.765954,4.55143393 110.622201,5.48440332 110.57488,6.58795873 C110.573111,6.62923294 110.570062,6.6704424 110.56574,6.71152781 L108.985046,21.7367429 C108.874512,22.7874226 107.965849,23.5709164 106.910341,23.525656 L1.9143528,19.0234082 C0.810797396,18.9760875 -0.0454500412,18.0431181 0.00187062328,16.9395627 C0.0036404692,16.8982885 0.00668873456,16.8570791 0.0110110319,16.8159936 L1.5917049,1.79077853 C1.70223928,0.740098871 2.61090197,-0.0433949477 3.66640995,0.00186543418 Z" id="Rectangle-Copy-9" fill="#FFFFFF"></path>
                    <path d="M5.11134759,3.26897772 L106.465403,7.59737348 C107.205018,7.62895923 107.788375,8.23776123 107.788375,8.97804988 L107.788375,8.97804988 C107.788375,9.67880808 107.220299,10.2468848 106.519541,10.2468848 C106.501489,10.2468848 106.483439,10.2464996 106.465403,10.2457294 L5.11134759,5.91733363 C4.37173308,5.88574787 3.78837549,5.27694587 3.78837549,4.53665723 L3.78837549,4.53665723 C3.78837549,3.83589903 4.35645225,3.26782226 5.05721045,3.26782226 C5.07526233,3.26782226 5.09331215,3.2682075 5.11134759,3.26897772 Z" id="Rectangle-Copy-11" fill="#9B9B9B"></path>
                    <path d="M5.11134759,8.26897772 L106.465403,12.5973735 C107.205018,12.6289592 107.788375,13.2377612 107.788375,13.9780499 L107.788375,13.9780499 C107.788375,14.6788081 107.220299,15.2468848 106.519541,15.2468848 C106.501489,15.2468848 106.483439,15.2464996 106.465403,15.2457294 L5.11134759,10.9173336 C4.37173308,10.8857479 3.78837549,10.2769459 3.78837549,9.53665723 L3.78837549,9.53665723 C3.78837549,8.83589903 4.35645225,8.26782226 5.05721045,8.26782226 C5.07526233,8.26782226 5.09331215,8.2682075 5.11134759,8.26897772 Z" id="Rectangle-Copy-12" fill="#9B9B9B"></path>
                    <path d="M5.11103882,13.2757958 L53.4657122,15.5905554 C54.2062119,15.6260035 54.7883755,16.2367022 54.7883755,16.9780499 L54.7883755,16.9780499 C54.7883755,17.6752019 54.2232221,18.2403552 53.5260702,18.2403552 C53.5059422,18.2403552 53.4858171,18.2398738 53.4657122,18.2389113 L5.11103882,15.9241517 C4.3705391,15.8887036 3.78837549,15.2780049 3.78837549,14.5366572 L3.78837549,14.5366572 C3.78837549,13.8395052 4.35352883,13.2743519 5.05068082,13.2743519 C5.07080878,13.2743519 5.09093387,13.2748333 5.11103882,13.2757958 Z" id="Rectangle-Copy-13" fill="#9B9B9B"></path>
                </g>
                <g id="Group-6-Copy" transform="translate(128.211625, 153.844312)">
                    <path d="M3.66640995,0.00186543418 L108.662398,4.50411326 C109.765954,4.55143393 110.622201,5.48440332 110.57488,6.58795873 C110.573111,6.62923294 110.570062,6.6704424 110.56574,6.71152781 L108.985046,21.7367429 C108.874512,22.7874226 107.965849,23.5709164 106.910341,23.525656 L1.9143528,19.0234082 C0.810797396,18.9760875 -0.0454500412,18.0431181 0.00187062328,16.9395627 C0.0036404692,16.8982885 0.00668873456,16.8570791 0.0110110319,16.8159936 L1.5917049,1.79077853 C1.70223928,0.740098871 2.61090197,-0.0433949477 3.66640995,0.00186543418 Z" id="Rectangle-Copy-9" fill="#FFFFFF"></path>
                    <path d="M5.11134759,3.26897772 L106.465403,7.59737348 C107.205018,7.62895923 107.788375,8.23776123 107.788375,8.97804988 L107.788375,8.97804988 C107.788375,9.67880808 107.220299,10.2468848 106.519541,10.2468848 C106.501489,10.2468848 106.483439,10.2464996 106.465403,10.2457294 L5.11134759,5.91733363 C4.37173308,5.88574787 3.78837549,5.27694587 3.78837549,4.53665723 L3.78837549,4.53665723 C3.78837549,3.83589903 4.35645225,3.26782226 5.05721045,3.26782226 C5.07526233,3.26782226 5.09331215,3.2682075 5.11134759,3.26897772 Z" id="Rectangle-Copy-11" fill="#9B9B9B"></path>
                    <path d="M5.11134759,8.26897772 L106.465403,12.5973735 C107.205018,12.6289592 107.788375,13.2377612 107.788375,13.9780499 L107.788375,13.9780499 C107.788375,14.6788081 107.220299,15.2468848 106.519541,15.2468848 C106.501489,15.2468848 106.483439,15.2464996 106.465403,15.2457294 L5.11134759,10.9173336 C4.37173308,10.8857479 3.78837549,10.2769459 3.78837549,9.53665723 L3.78837549,9.53665723 C3.78837549,8.83589903 4.35645225,8.26782226 5.05721045,8.26782226 C5.07526233,8.26782226 5.09331215,8.2682075 5.11134759,8.26897772 Z" id="Rectangle-Copy-12" fill="#9B9B9B"></path>
                    <path d="M5.11103882,13.2757958 L53.4657122,15.5905554 C54.2062119,15.6260035 54.7883755,16.2367022 54.7883755,16.9780499 L54.7883755,16.9780499 C54.7883755,17.6752019 54.2232221,18.2403552 53.5260702,18.2403552 C53.5059422,18.2403552 53.4858171,18.2398738 53.4657122,18.2389113 L5.11103882,15.9241517 C4.3705391,15.8887036 3.78837549,15.2780049 3.78837549,14.5366572 L3.78837549,14.5366572 C3.78837549,13.8395052 4.35352883,13.2743519 5.05068082,13.2743519 C5.07080878,13.2743519 5.09093387,13.2748333 5.11103882,13.2757958 Z" id="Rectangle-Copy-13" fill="#9B9B9B"></path>
                </g>
                <g id="Group-6-Copy-3" transform="translate(118.000000, 213.742646)">
                    <path d="M7.7438085,0.97205311 L112.747352,5.93487093 C113.85069,5.98701836 114.702848,6.92372426 114.650701,8.02706212 C114.650027,8.04132515 114.6492,8.05558054 114.64822,8.06982586 L112.922653,33.167362 C112.848033,34.2526775 111.919607,35.0793063 110.832942,35.0279469 L5.82939893,30.0651291 C4.72606107,30.0129816 3.87390286,29.0762757 3.92605029,27.9729379 C3.92672441,27.9586749 3.92755125,27.9444195 3.92853068,27.9301741 L5.65409771,2.83263801 C5.72871797,1.74732253 6.65714384,0.920693712 7.7438085,0.97205311 Z" id="Rectangle-Copy-9" fill="#FFFFFF"></path>
                    <g id="Group-7" transform="translate(0.000000, 44.257354)">
                        <path d="M4.72955985,0.0232517116 L109.742834,6.34566374 C110.845407,6.41204507 111.685406,7.35966982 111.619025,8.46224285 C111.61805,8.47842853 111.616879,8.49460175 111.615511,8.51075894 L109.954543,28.1307842 C109.862366,29.2196163 108.91335,30.0329095 107.823244,29.9572778 L2.82164992,22.6722516 C1.71972934,22.5958002 0.88842233,21.6405409 0.964873743,20.5386204 C0.965745854,20.5260503 0.966736734,20.5134888 0.967846252,20.5009375 L2.61713462,1.84352641 C2.71247505,0.764997239 3.6487819,-0.0418174295 4.72955985,0.0232517116 Z" id="Rectangle-Copy-15" fill="#6098B1"></path>
                        <path d="M29.5932722,9.00404068 L77.5932722,11.9945376 C78.3839481,12.0437983 79,12.6994259 79,13.4916349 L79,17.498862 C79,18.3272892 78.3284271,18.998862 77.5,18.998862 C77.4688867,18.998862 77.4377809,18.997894 77.4067278,18.9959593 L29.4067278,16.0054624 C28.6160519,15.9562017 28,15.3005741 28,14.5083651 L28,10.501138 C28,9.67271085 28.6715729,9.00113797 29.5,9.00113797 C29.5311133,9.00113797 29.5622191,9.00210601 29.5932722,9.00404068 Z" id="Rectangle-Copy-13" fill="#FFFFFF" opacity="0.8"></path>
                    </g>
                    <path d="M9.11103882,24.2757958 L57.4657122,26.5905554 C58.2062119,26.6260035 58.7883755,27.2367022 58.7883755,27.9780499 L58.7883755,27.9780499 C58.7883755,28.6752019 58.2232221,29.2403552 57.5260702,29.2403552 C57.5059422,29.2403552 57.4858171,29.2398738 57.4657122,29.2389113 L9.11103882,26.9241517 C8.3705391,26.8887036 7.78837549,26.2780049 7.78837549,25.5366572 L7.78837549,25.5366572 C7.78837549,24.8395052 8.35352883,24.2743519 9.05068082,24.2743519 C9.07080878,24.2743519 9.09093387,24.2748333 9.11103882,24.2757958 Z" id="Rectangle-Copy-13" fill="#9B9B9B"></path>
                    <path d="M9.11134759,4.26897772 L110.465403,8.59737348 C111.205018,8.62895923 111.788375,9.23776123 111.788375,9.97804988 L111.788375,9.97804988 C111.788375,10.6788081 111.220299,11.2468848 110.519541,11.2468848 C110.501489,11.2468848 110.483439,11.2464996 110.465403,11.2457294 L9.11134759,6.91733363 C8.37173308,6.88574787 7.78837549,6.27694587 7.78837549,5.53665723 L7.78837549,5.53665723 C7.78837549,4.83589903 8.35645225,4.26782226 9.05721045,4.26782226 C9.07526233,4.26782226 9.09331215,4.2682075 9.11134759,4.26897772 Z" id="Rectangle-Copy-11" fill="#9B9B9B"></path>
                    <path d="M9.11134759,9.26897772 L110.465403,13.5973735 C111.205018,13.6289592 111.788375,14.2377612 111.788375,14.9780499 L111.788375,14.9780499 C111.788375,15.6788081 111.220299,16.2468848 110.519541,16.2468848 C110.501489,16.2468848 110.483439,16.2464996 110.465403,16.2457294 L9.11134759,11.9173336 C8.37173308,11.8857479 7.78837549,11.2769459 7.78837549,10.5366572 L7.78837549,10.5366572 C7.78837549,9.83589903 8.35645225,9.26782226 9.05721045,9.26782226 C9.07526233,9.26782226 9.09331215,9.2682075 9.11134759,9.26897772 Z" id="Rectangle-Copy-12" fill="#9B9B9B"></path>
                    <path d="M9.11134759,14.2689777 L110.465403,18.5973735 C111.205018,18.6289592 111.788375,19.2377612 111.788375,19.9780499 L111.788375,19.9780499 C111.788375,20.6788081 111.220299,21.2468848 110.519541,21.2468848 C110.501489,21.2468848 110.483439,21.2464996 110.465403,21.2457294 L9.11134759,16.9173336 C8.37173308,16.8857479 7.78837549,16.2769459 7.78837549,15.5366572 L7.78837549,15.5366572 C7.78837549,14.835899 8.35645225,14.2678223 9.05721045,14.2678223 C9.07526233,14.2678223 9.09331215,14.2682075 9.11134759,14.2689777 Z" id="Rectangle-Copy-17" fill="#9B9B9B"></path>
                    <path d="M9.11134759,19.2689777 L110.465403,23.5973735 C111.205018,23.6289592 111.788375,24.2377612 111.788375,24.9780499 L111.788375,24.9780499 C111.788375,25.6788081 111.220299,26.2468848 110.519541,26.2468848 C110.501489,26.2468848 110.483439,26.2464996 110.465403,26.2457294 L9.11134759,21.9173336 C8.37173308,21.8857479 7.78837549,21.2769459 7.78837549,20.5366572 L7.78837549,20.5366572 C7.78837549,19.835899 8.35645225,19.2678223 9.05721045,19.2678223 C9.07526233,19.2678223 9.09331215,19.2682075 9.11134759,19.2689777 Z" id="Rectangle-Copy-16" fill="#9B9B9B"></path>
                </g>
                <path d="M133.998218,120.103387 L157.103387,120.900117 C158.71904,120.955829 160,122.281721 160,123.898335 L160,124 C160,125.600706 158.702371,126.898335 157.101665,126.898335 C157.068363,126.898335 157.035064,126.897761 157.001782,126.896613 L133.896613,126.099883 C132.28096,126.044171 131,124.718279 131,123.101665 L131,123 C131,121.399294 132.297629,120.101665 133.898335,120.101665 C133.931637,120.101665 133.964936,120.102239 133.998218,120.103387 Z" id="Rectangle" fill="#4A4A4A"></path>
                <path d="M128.786593,181.001722 L151.891762,181.798452 C153.507416,181.854164 154.788375,183.180056 154.788375,184.79667 L154.788375,184.898335 C154.788375,186.499041 153.490747,187.79667 151.890041,187.79667 C151.856739,187.79667 151.82344,187.796096 151.790157,187.794948 L128.684989,186.998218 C127.069335,186.942506 125.788375,185.616614 125.788375,184 L125.788375,183.898335 C125.788375,182.297629 127.086004,181 128.68671,181 C128.720012,181 128.753311,181.000574 128.786593,181.001722 Z" id="Rectangle-Copy-14" fill="#4A4A4A"></path>
            </g>
        </g>
    </g>
</svg>