<?xml version="1.0" encoding="UTF-8"?>
<svg width="2560px" height="402px" viewBox="0 0 2560 402" version="1.1" xmlns="http://www.w3.org/2000/svg" xmlns:xlink="http://www.w3.org/1999/xlink">
    <!-- Generator: Sketch 53.2 (72643) - https://sketchapp.com -->
    <title>Request Demo CTA Bacxkground</title>
    <desc>Created with Sketch.</desc>
    <defs>
        <linearGradient x1="50%" y1="0%" x2="50%" y2="100%" id="linearGradient-1">
            <stop stop-color="#003D4C" offset="0%"></stop>
            <stop stop-color="#B2C4C9" offset="100%"></stop>
        </linearGradient>
        <rect id="path-2" x="0" y="0" width="2560" height="360"></rect>
        <linearGradient x1="57.556963%" y1="29.624104%" x2="57.556963%" y2="100%" id="linearGradient-4">
            <stop stop-color="#FDFDFD" stop-opacity="1.11962011" offset="0%"></stop>
            <stop stop-color="#FFFFFF" stop-opacity="0" offset="100%"></stop>
        </linearGradient>
        <linearGradient x1="57.556963%" y1="29.624104%" x2="57.556963%" y2="100%" id="linearGradient-5">
            <stop stop-color="#FDFDFD" stop-opacity="1.11962011" offset="0%"></stop>
            <stop stop-color="#FFFFFF" stop-opacity="0" offset="100%"></stop>
        </linearGradient>
        <linearGradient x1="57.556963%" y1="29.624104%" x2="57.556963%" y2="100%" id="linearGradient-6">
            <stop stop-color="#FDFDFD" stop-opacity="1.11962011" offset="0%"></stop>
            <stop stop-color="#FFFFFF" stop-opacity="0" offset="100%"></stop>
        </linearGradient>
        <linearGradient x1="57.556963%" y1="29.624104%" x2="57.556963%" y2="100%" id="linearGradient-7">
            <stop stop-color="#FDFDFD" stop-opacity="1.11962011" offset="0%"></stop>
            <stop stop-color="#FFFFFF" stop-opacity="0" offset="100%"></stop>
        </linearGradient>
    </defs>
    <g id="Marketing-Website-V0.9" stroke="none" stroke-width="1" fill="none" fill-rule="evenodd">
        <g id="Desktop-2560-TMC" transform="translate(0.000000, -3030.000000)">
            <g id="Request-Demo-CTA" transform="translate(0.000000, 3030.000000)">
                <g id="Request-Demo-CTA-Bacxkground">
                    <path d="M0,2.49110162 C0,1.11530419 1.11259882,0 2.50989514,0 L2557.4901,0 C2558.87628,0 2560,1.11404482 2560,2.49110162 L2560,357.508898 C2560,358.884696 2558.8874,360 2557.4901,360 L2.50989514,360 C1.12371833,360 0,358.885955 0,357.508898 L0,2.49110162 Z" id="Form-Background" fill="#DAEFF4" opacity="0.5"></path>
                    <mask id="mask-3" fill="white">
                        <use xlink:href="#path-2"></use>
                    </mask>
                    <use id="Rectangle-2" fill-opacity="0.5" fill="url(#linearGradient-1)" opacity="0.1" xlink:href="#path-2"></use>
                    <path d="M1783.46089,231.824092 C1768.20119,213.018832 1744.87367,200.991835 1718.72434,200.991835 C1708.94681,200.991835 1699.56688,202.678885 1690.85084,205.7668 C1668.05106,177.840887 1633.30738,160 1594.38039,160 C1501.16911,160 1470.15089,284 1408,284 L1935,284 C1884.2484,284 1856.33152,228.660422 1801.96169,228.660422 C1795.47346,228.660422 1789.24909,229.783519 1783.46089,231.824092" id="Fill-1-Copy-6" fill="url(#linearGradient-4)" opacity="0.861124067"></path>
                    <path d="M651.187133,75.5868971 C662.542967,75.5868971 673.437012,77.6276837 683.560007,81.3630651 C710.040161,47.5817187 750.392204,26 795.602837,26 C903.86039,26 939.885602,176 1012.06897,176 L400,176 C458.943986,176 491.367236,109.056962 554.513511,109.056962 C562.049083,109.056962 569.278194,110.415547 576.000736,112.883982 C593.723674,90.1356839 620.816749,75.5868971 651.187133,75.5868971 Z" id="Fill-1-Copy-8" fill="url(#linearGradient-5)"></path>
                    <path d="M1852.68854,343.7604 C1859.27492,343.7604 1865.59347,344.944057 1871.4648,347.110578 C1886.82329,327.517397 1910.22748,315 1936.44965,315 C1999.23903,315 2020.13365,402 2062,402 L1707,402 C1741.18751,402 1759.993,363.173038 1796.61784,363.173038 C1800.98847,363.173038 1805.18135,363.961017 1809.08043,365.39271 C1819.35973,352.198697 1835.07371,343.7604 1852.68854,343.7604 Z" id="Fill-1-Copy-8" fill="url(#linearGradient-6)"></path>
                    <path d="M1255.66517,312.7604 C1262.56696,312.7604 1269.18808,313.944057 1275.34058,316.110578 C1291.43455,296.517397 1315.9595,284 1343.43738,284 C1409.23357,284 1431.12878,371 1475,371 L1103,371 C1138.82466,371 1158.53069,332.173038 1196.90939,332.173038 C1201.48932,332.173038 1205.88299,332.961017 1209.96879,334.39271 C1220.74034,321.198697 1237.20682,312.7604 1255.66517,312.7604 Z" id="Fill-1-Copy-8" fill="url(#linearGradient-7)" transform="translate(1289.000000, 327.500000) scale(-1, 1) translate(-1289.000000, -327.500000) "></path>
                </g>
            </g>
        </g>
    </g>
</svg>