<?xml version="1.0" encoding="UTF-8"?>
<svg width="784px" height="784px" viewBox="0 0 784 784" version="1.1" xmlns="http://www.w3.org/2000/svg" xmlns:xlink="http://www.w3.org/1999/xlink">
    <!-- Generator: Sketch 53.2 (72643) - https://sketchapp.com -->
    <title>Group</title>
    <desc>Created with Sketch.</desc>
    <defs>
        <linearGradient x1="50%" y1="0%" x2="50%" y2="100%" id="linearGradient-1">
            <stop stop-color="#FAD961" offset="0%"></stop>
            <stop stop-color="#F76B1C" offset="100%"></stop>
        </linearGradient>
        <circle id="path-2" cx="392" cy="392" r="392"></circle>
        <radialGradient cx="30.7649615%" cy="23.0481427%" fx="30.7649615%" fy="23.0481427%" r="143.278611%" gradientTransform="translate(0.307650,0.230481),scale(1.000000,0.541985),rotate(82.284793),scale(1.000000,1.794995),translate(-0.307650,-0.230481)" id="radialGradient-4">
            <stop stop-color="#E3B7A1" offset="0%"></stop>
            <stop stop-color="#F3CBB2" offset="100%"></stop>
        </radialGradient>
        <radialGradient cx="83.0879657%" cy="45.764324%" fx="83.0879657%" fy="45.764324%" r="82.8042234%" gradientTransform="translate(0.830880,0.457643),scale(1.000000,0.672248),rotate(125.467143),scale(1.000000,1.794995),translate(-0.830880,-0.457643)" id="radialGradient-5">
            <stop stop-color="#F8DACB" offset="0%"></stop>
            <stop stop-color="#EEC3A8" offset="100%"></stop>
        </radialGradient>
        <radialGradient cx="90.7630958%" cy="-5.3361251%" fx="90.7630958%" fy="-5.3361251%" r="130.654983%" gradientTransform="translate(0.907631,-0.053361),scale(0.532193,1.000000),rotate(109.602895),scale(1.000000,0.430125),translate(-0.907631,0.053361)" id="radialGradient-6">
            <stop stop-color="#835C50" offset="0%"></stop>
            <stop stop-color="#2C120C" offset="100%"></stop>
        </radialGradient>
        <radialGradient cx="90.926043%" cy="26.1085417%" fx="90.926043%" fy="26.1085417%" r="105.418734%" gradientTransform="translate(0.909260,0.261085),scale(1.000000,0.719445),rotate(153.924566),scale(1.000000,1.580862),translate(-0.909260,-0.261085)" id="radialGradient-7">
            <stop stop-color="#835C50" offset="0%"></stop>
            <stop stop-color="#2C120C" offset="100%"></stop>
        </radialGradient>
        <radialGradient cx="100%" cy="-28.0426879%" fx="100%" fy="-28.0426879%" r="135.030862%" gradientTransform="translate(1.000000,-0.280427),scale(1.000000,0.374385),rotate(113.775661),translate(-1.000000,0.280427)" id="radialGradient-8">
            <stop stop-color="#835C50" offset="0%"></stop>
            <stop stop-color="#2C120C" offset="100%"></stop>
        </radialGradient>
        <radialGradient cx="89.928248%" cy="10.7221058%" fx="89.928248%" fy="10.7221058%" r="48.8836692%" gradientTransform="translate(0.899282,0.107221),scale(0.672481,1.000000),rotate(166.186227),scale(1.000000,0.793856),translate(-0.899282,-0.107221)" id="radialGradient-9">
            <stop stop-color="#68392E" offset="0%"></stop>
            <stop stop-color="#2C120C" offset="100%"></stop>
        </radialGradient>
        <radialGradient cx="104.409886%" cy="-25.2359495%" fx="104.409886%" fy="-25.2359495%" r="111.515453%" gradientTransform="translate(1.044099,-0.252359),scale(1.000000,0.590901),rotate(117.914932),translate(-1.044099,0.252359)" id="radialGradient-10">
            <stop stop-color="#835C50" offset="0%"></stop>
            <stop stop-color="#2C120C" offset="100%"></stop>
        </radialGradient>
        <radialGradient cx="98.0220637%" cy="3.06544256%" fx="98.0220637%" fy="3.06544256%" r="69.8187671%" gradientTransform="translate(0.980221,0.030654),scale(1.000000,0.838235),rotate(137.360377),scale(1.000000,0.465837),translate(-0.980221,-0.030654)" id="radialGradient-11">
            <stop stop-color="#E1BAAC" offset="0%"></stop>
            <stop stop-color="#BA8466" offset="100%"></stop>
        </radialGradient>
        <linearGradient x1="65.9061756%" y1="8.5229098%" x2="54.4493367%" y2="12.5814418%" id="linearGradient-12">
            <stop stop-color="#F9EEE4" offset="0%"></stop>
            <stop stop-color="#F4D6BE" offset="100%"></stop>
        </linearGradient>
        <radialGradient cx="8.30738724%" cy="18.5434748%" fx="8.30738724%" fy="18.5434748%" r="149.340079%" gradientTransform="translate(0.083074,0.185435),scale(0.635753,1.000000),rotate(22.140810),scale(1.000000,2.251059),translate(-0.083074,-0.185435)" id="radialGradient-13">
            <stop stop-color="#BF3A46" offset="0%"></stop>
            <stop stop-color="#E58394" offset="100%"></stop>
        </radialGradient>
    </defs>
    <g id="Business-Travel" stroke="none" stroke-width="1" fill="none" fill-rule="evenodd">
        <g id="Artboard-Copy-7" transform="translate(-529.000000, -283.000000)">
            <g id="Group" transform="translate(529.000000, 283.000000)">
                <mask id="mask-3" fill="white">
                    <use xlink:href="#path-2"></use>
                </mask>
                <use id="Mask" fill="url(#linearGradient-1)" xlink:href="#path-2"></use>
                <g id="Woman" mask="url(#mask-3)">
                    <g transform="translate(-216.000000, 85.000000)">
                        <g id="Head" stroke-width="1" fill="none" transform="translate(470.000000, 26.000000)">
                            <rect id="Neck" fill="url(#radialGradient-4)" x="12" y="250" width="142" height="262"></rect>
                            <path d="M76,2 C158.666667,-6.66666667 211.666667,20.3333333 235,83 C242,137 246,158 235,187 C239,221.666667 221.333333,265.791667 182,319.375 C175,333 167,357 143,360 C115,364 16,290 17,246 C17.6666667,216.666667 12,183.333333 1.05160325e-12,146 L33,38 L76,2 Z" id="Face" fill="url(#radialGradient-5)"></path>
                        </g>
                        <g id="Body" stroke-width="1" fill="none" transform="translate(0.000000, 410.000000)">
                            <path d="M476,99 C492,101.666667 517.333333,103 552,103 C586.666667,103 611.333333,96.3333333 626,83 L668,13 C725.333333,5 778,6.66666667 826,18 C872.666667,36 889,85.3333333 875,166 C867.666667,265.333333 867.666667,334.333333 875,373 C882.333333,411.666667 886.333333,444.666667 887,472 L363,472 C344.333333,449.333333 335,421.333333 335,388 C335,354.666667 321.666667,311.333333 295,258 C293.666667,254.666667 291.333333,254.666667 288,258 C283,263 220,363 194,388 L194,401 L182,411 C181.333333,416.333333 179.666667,421.333333 177,426 C174.333333,430.666667 170.666667,434 166,436 C166,438.733186 166,442.099778 166,446.099778 C166,452.099778 154,454 148,463 L142,472 L1,472 C-1.66666667,443.333333 3.33333333,421.666667 16,407 C28.6666667,392.333333 38.6666667,383.666667 46,381 C43.3333333,375 43.3333333,371 46,369 C50,366 57,367 63,358 C69,349 134,250 155,201 C176,152 232,19.6604155 314,3 C345.333333,-3 374.333333,0.333333333 401,13 L476,99 Z" fill="url(#radialGradient-6)"></path>
                            <path d="M721,474 C718.333333,407.333333 714.333333,351.666667 709,307 C703.666667,262.333333 700.666667,237 700,231 C730.666667,230.333333 764,224.333333 800,213 L816,275 C822.666667,279 825,285.333333 823,294 C827.666667,305.333333 830,313.333333 830,318 C838.666667,326 843,334.5 843,343.5 C848.333333,362.5 854.666667,377 862,387 C873,402 894,460 886,474 L721,474 Z" id="Arm" fill="url(#radialGradient-7)"></path>
                        </g>
                        <path d="M649,639 C767.666667,582.333333 817.666667,526.333333 799,471 C733.666667,436.333333 699,397 695,353 C691,309 694,240.666667 704,148 C712,126.666667 713,109 707,95 C698,74 678,7 604,17 C554.666667,23.6666667 558.333333,61.6666667 615,131 L615,384 C601,415.333333 598.333333,449.666667 607,487 C575,560.333333 588,601.666667 646,611 L649,639 Z" id="Hair-Left" fill="url(#radialGradient-8)"></path>
                        <path d="M546,28 C628.666667,19.3333333 681.666667,46.3333333 705,109 C712,163 716,184 705,213 C709,247.666667 691.333333,291.791667 652,345.375 C645,359 637,383 613,386 C585,390 486,316 487,272 C487.666667,242.666667 482,209.333333 470,172 L503,64 L546,28 Z" id="Face-Copy" fill="url(#radialGradient-5)"></path>
                        <path d="M653,77 C681.666667,77.6666667 699.666667,93 707,123 C707,77 682.666667,41.6666667 634,17 C563.333333,4.33333333 534.666667,31 548,97 C586,77 617,69.3333333 641,74 C665,78.6666667 669,79.6666667 653,77 Z" id="Hair-Left" fill="url(#radialGradient-9)"></path>
                        <path d="M499.525469,512 C497,479.690599 482,479.690599 492,373 C498.666667,301.872934 498.666667,241.539601 492,192 C502,144 525,112.333333 561,97 C597,81.6666667 632,75.6666667 666,79 C674,41.6666667 643,16.3333333 573,3 C468,-17 429,87.3264463 410,205 C391,322.673554 393,334 365,413 C420.544596,464.575577 457.211263,496.90891 475,510 L499.525469,512 Z" id="Hair-Right-Copy" fill="url(#radialGradient-10)"></path>
                        <g id="Hand-and-Phone" stroke-width="1" fill="none" transform="translate(649.000000, 312.000000)">
                            <path d="M105,111 C108.333333,102.119446 112.666667,94.8993074 118,89.3395845 C123.333333,83.7798615 128.666667,71.6666667 134,53 L162,43 L133.5,108 L105,111 Z" id="Finger---Background" fill="url(#radialGradient-11)"></path>
                            <g id="Phone" transform="translate(5.000000, 3.000000)">
                                <path d="M241.913923,16.9927405 L242,17 L241.838857,17.048119 C241.522781,17.2737822 241.159038,17.4406262 240.761725,17.5309891 L238.49655,18.0461691 L98,60 L-4.54747351e-13,54 L2.09696777,53.419707 C1.34401891,52.9415689 0.813482455,52.1348246 0.718447452,51.1844745 L0.251557914,46.5155791 C0.106215716,45.0621572 1.02878936,43.7153036 2.43655192,43.3257341 L158.466668,0.147588771 C158.819249,0.0500192672 159.186702,0.0177607404 159.55089,0.052405523 L240.380514,7.74163978 C241.920361,7.88812372 243.09641,9.18135851 243.09641,10.728157 L243.09641,14.6056932 C243.09641,15.5661031 242.640716,16.4388827 241.913923,16.9927405 Z" id="Combined-Shape" fill="#FFFFFF"></path>
                                <polygon id="Rectangle" fill="#D8D8D8" points="159 10 242 17 98 60 2.7000624e-13 54"></polygon>
                            </g>
                            <path d="M54.7210641,327.950064 C88.0367804,328.615883 119.020397,322.623511 147.671913,309.972948 C139.676141,268.026344 132.67984,237.065756 126.683011,217.091183 C128.01564,201.111525 132.346683,182.801499 139.676141,162.161107 C147.005598,141.520715 151.669799,127.538514 153.668742,120.214504 C166.328714,102.689591 173.325014,90.484989 174.657643,83.6006961 C176.656586,71.3898504 178.655529,61.289513 180.654472,53.2996838 C187.317615,34.6567489 186.318144,24.3365528 177.656057,22.3390955 C164.662928,19.3429095 159.66557,29.3301961 153.668742,50.3034978 C148.338227,62.0746262 143.674027,73.1736923 139.676141,83.6006961 C131.680369,103.349167 122.351968,111.225946 111.690939,107.231031 L107.693053,104.234845 C103.695167,89.5868249 100.030438,76.9362619 96.6988666,66.2831563 L88.7030947,38.318754 C86.0378374,14.3492663 81.04048,1.69870331 73.7110224,0.367065107 C62.716836,-1.6303922 56.720007,4.36197972 59.7184215,22.3390955 C64.3826218,61.6224225 70.0462936,89.9197344 76.7094368,107.231031 C74.7104939,107.231031 72.3783937,105.233574 69.7131364,101.238659 C57.0531642,77.2691715 50.0568638,61.289513 48.7242351,53.2996838 C46.7252921,41.3149399 45.7258207,2.36452241 29.7342768,2.36452241 C19.0732476,2.36452241 16.4079903,16.3467236 21.7385049,44.3111259 C17.7406189,35.6554775 12.7432615,31.3276534 6.74643256,31.3276534 C0.749603617,31.3276534 -1.24933936,38.6516635 0.749603617,53.2996838 C3.41486092,68.6135231 6.74643256,79.9324479 10.7443185,87.256458 C12.7432615,97.9095636 15.0753616,104.567755 17.7406189,107.231031 C23.0711336,125.208147 25.7363909,142.519444 25.7363909,159.164921 C25.7363909,184.133137 33.7321628,217.091183 38.7295202,228.077198 C42.0610919,235.401208 47.3916065,268.692163 54.7210641,327.950064 Z" id="Hand---Foreground" fill="url(#linearGradient-12)"></path>
                        </g>
                        <g id="Mouth" stroke-width="1" fill="none" transform="translate(587.000000, 291.000000)">
                            <path d="M5.68434189e-14,10 C14.6666667,36.4166667 29.3333333,50.4166667 44,52 C66,54.375 64,30 66,27 C68,24 81,20 81,15 C81,10 70,-1 60,6 C56,0.666666667 47,-0.666666667 33,2 C19,4.66666667 9.66666667,5.33333333 5,4 C1.66666667,4 5.68434189e-14,6 5.68434189e-14,10 Z" id="Lips" fill="url(#radialGradient-13)"></path>
                            <path d="M5,9 C30.3333333,12.3333333 48.6666667,14 60,14 C66,14.6666667 68.3333333,16.3333333 67,19 C62.3333333,28.3333333 58.3333333,33 55,33 C50,33 33,29 20,21 C11.3333333,15.6666667 6.33333333,11.6666667 5,9 Z" id="Teeth" fill="#FFFFFF"></path>
                        </g>
                    </g>
                </g>
            </g>
        </g>
    </g>
</svg>